<svg width="360" height="55" viewBox="0 0 360 55" fill="none" xmlns="http://www.w3.org/2000/svg">
<rect width="360" height="55" fill="#CCECF0"/>
<path d="M165.605 21.06H163.985V34.32H165.605V21.06ZM155.315 31.2H156.485C158.855 31.185 160.835 31.11 163.085 30.72L162.935 29.4C160.865 29.73 159.08 29.835 156.995 29.85V27.18H161.555V22.23H155.315V23.55H159.875V25.89H155.315V31.2ZM179.648 28.65H167.528V29.97H170.378V34.29H172.028V29.97H175.148V34.29H176.798V29.97H179.648V28.65ZM168.998 27.27H178.148V21.57H176.528V23.16H170.618V21.57H168.998V27.27ZM170.618 25.98V24.45H176.528V25.98H170.618ZM184.722 23.64V22.05H183.102V23.64C183.087 25.155 182.262 26.85 180.522 27.63L181.362 28.83C182.592 28.29 183.417 27.27 183.882 26.1C184.332 27.345 185.187 28.44 186.552 29.01C187.887 28.44 188.727 27.375 189.177 26.13C189.627 27.315 190.452 28.305 191.712 28.83L192.582 27.63C190.782 26.88 190.002 25.245 190.002 23.64V22.05H188.382V23.64C188.367 24.915 187.827 26.4 186.552 27.285C185.247 26.385 184.722 24.9 184.722 23.64ZM180.522 32.61H192.582V31.29H180.522V32.61ZM204.526 21.06H202.876V34.29H204.526V21.06ZM193.576 30.66L194.416 31.95C199.051 29.76 200.581 26.415 200.596 22.47H194.236V23.76H198.931C198.631 26.775 197.026 29.01 193.576 30.66Z" fill="black"/>
<path d="M18.9393 25.9393C18.3536 26.5251 18.3536 27.4749 18.9393 28.0607L28.4853 37.6066C29.0711 38.1924 30.0208 38.1924 30.6066 37.6066C31.1924 37.0208 31.1924 36.0711 30.6066 35.4853L22.1213 27L30.6066 18.5147C31.1924 17.9289 31.1924 16.9792 30.6066 16.3934C30.0208 15.8076 29.0711 15.8076 28.4853 16.3934L18.9393 25.9393ZM47 25.5L20 25.5L20 28.5L47 28.5L47 25.5Z" fill="black"/>
</svg>
