<svg width="159" height="13" viewBox="0 0 159 13" fill="none" xmlns="http://www.w3.org/2000/svg">
<path d="M7.53171 0.8C7.32683 0.62439 7.22439 0.473171 7.22439 0.346342C7.22439 0.209756 7.3561 0.141463 7.61951 0.141463C8.02927 0.141463 8.50732 0.282927 9.05366 0.565854C9.68781 0.897561 10.0049 1.23902 10.0049 1.59024L9.96098 2.11707V6.78537C10.1463 6.78537 10.3512 6.75122 10.5756 6.68293C11.122 6.51707 11.4585 6.43415 11.5854 6.43415C11.8 6.43415 12.0098 6.49268 12.2146 6.60976C12.4293 6.71707 12.5366 6.86829 12.5366 7.06341C12.5366 7.20976 12.4878 7.33659 12.3902 7.4439C12.3024 7.54146 12.1756 7.59024 12.0098 7.59024C11.7659 7.59024 11.5122 7.57073 11.2488 7.53171C10.5366 7.42439 10.1073 7.37073 9.96098 7.37073C9.95122 7.65366 9.94146 7.8878 9.93171 8.07317C9.87317 9.14634 9.8 9.91707 9.71219 10.3854C9.63415 10.8439 9.52195 11.322 9.37561 11.8195C9.17073 12.5024 9.02439 12.8439 8.93659 12.8439C8.89756 12.8439 8.87317 12.7854 8.86342 12.6683C8.85366 12.5512 8.84878 12.3951 8.84878 12.2L8.80488 9.44878C8.80488 7.59512 8.8 6.15122 8.79024 5.11707C8.78049 4.08293 8.77073 3.09268 8.76098 2.14634C8.66341 1.93171 8.46829 1.67805 8.17561 1.38537C8.00976 1.21951 7.79512 1.02439 7.53171 0.8ZM4.22439 2.5122C4.42927 2.58049 4.70732 2.8 5.05854 3.17073C5.40976 3.54146 5.58537 3.83415 5.58537 4.04878C5.58537 4.12683 5.55122 4.20976 5.48293 4.29756C5.42439 4.38537 5.37561 4.45366 5.33659 4.50244L4.45854 5.33659C4.90732 5.56098 5.37073 5.79024 5.84878 6.02439C6.32683 6.24878 6.56585 6.61463 6.56585 7.12195C6.56585 7.32683 6.52683 7.50244 6.44878 7.64878C6.38049 7.78537 6.28293 7.85366 6.1561 7.85366C6.03902 7.85366 5.92195 7.8 5.80488 7.69268C5.65854 7.5561 5.5122 7.36098 5.36585 7.10732C5.21951 6.8439 5.05366 6.6 4.86829 6.37561C4.62439 6.08293 4.36098 5.83902 4.07805 5.6439C3.42439 6.19024 2.83902 6.59512 2.32195 6.85854C1.62927 7.21951 0.941463 7.4 0.258537 7.4L0.170732 7.38537C0.219512 7.3561 0.253659 7.33659 0.273171 7.32683C0.360976 7.27805 0.439024 7.2439 0.507317 7.22439C1.09268 7.02927 1.75122 6.61463 2.48293 5.98049C3.21463 5.33659 3.76585 4.70244 4.13659 4.07805V3.99024C4.13659 3.81463 4.07317 3.60488 3.94634 3.36098C3.82927 3.11707 3.70732 2.86829 3.58049 2.61463C3.58049 2.49756 3.66341 2.43902 3.82927 2.43902C3.91707 2.43902 4.04878 2.46341 4.22439 2.5122ZM20.7756 4.06341C20.8536 4.17073 20.8927 4.27317 20.8927 4.37073C20.8927 4.47805 20.8683 4.57073 20.8195 4.64878C20.7805 4.71707 20.6244 4.91707 20.3512 5.24878C20.3902 5.27805 20.8634 5.46341 21.7707 5.80488C22.278 6 22.5317 6.3122 22.5317 6.74146C22.5317 7.17073 22.4049 7.38537 22.1512 7.38537C21.9854 7.38537 21.8195 7.26829 21.6536 7.03415C21.4878 6.8 21.2732 6.5561 21.0097 6.30244C20.6683 5.97073 20.3366 5.72683 20.0146 5.57073C19.1951 6.30244 18.4195 6.84878 17.6878 7.20976C17.0732 7.5122 16.5414 7.66341 16.0927 7.66341L16.0195 7.64878C16.0488 7.61951 16.0732 7.6 16.0927 7.59024C16.1512 7.55122 16.2488 7.50732 16.3854 7.45854C16.8341 7.27317 17.4732 6.79512 18.3024 6.02439C19.2097 5.17561 19.6634 4.54634 19.6634 4.13659C19.6634 3.96098 19.6097 3.74146 19.5024 3.47805C19.2293 3.47805 19 3.50732 18.8146 3.56585C18.6293 3.61463 18.4439 3.66829 18.2585 3.72683C18.1219 3.72683 17.8536 3.6 17.4536 3.34634C17.0536 3.08293 16.8536 2.89756 16.8536 2.79024C16.8536 2.71219 16.9512 2.67317 17.1463 2.67317L17.9658 2.6878C18.6585 2.6878 19.2293 2.6439 19.678 2.5561C20.1366 2.46829 20.5463 2.34146 20.9073 2.17561C21.0829 2.09756 21.2049 2.0439 21.2732 2.01463C21.3414 1.98537 21.4195 1.97073 21.5073 1.97073C21.6927 1.97073 21.8829 2.03902 22.078 2.17561C22.2829 2.3122 22.3854 2.46829 22.3854 2.6439C22.3854 2.83902 22.3122 2.97073 22.1658 3.03902C22.0195 3.10732 21.839 3.14146 21.6244 3.14146H21.4049C21.239 3.14146 21.0829 3.14634 20.9366 3.1561C20.7902 3.1561 20.6 3.17561 20.3658 3.21463C20.3658 3.33171 20.3951 3.45366 20.4536 3.58049C20.5122 3.69756 20.6195 3.85854 20.7756 4.06341ZM20.6 11.2195C20.4732 10.9659 20.3317 10.7268 20.1756 10.5024C19.9902 10.2293 19.8049 10.0098 19.6195 9.8439C19.4927 9.71707 19.4293 9.60976 19.4293 9.52195C19.4293 9.38537 19.5854 9.31707 19.8975 9.31707C20.1902 9.31707 20.4975 9.39512 20.8195 9.55122C21.2195 9.74634 21.4195 9.97073 21.4195 10.2244L21.3902 11.3805C21.3902 11.5756 21.4293 11.6927 21.5073 11.7317C21.5951 11.7805 21.8097 11.8049 22.1512 11.8049C22.5317 11.8049 22.9024 11.7805 23.2634 11.7317C23.6244 11.6829 24.0732 11.5951 24.6097 11.4683L24.8146 11.439C25.0195 11.439 25.1219 11.5317 25.1219 11.7171C25.1219 12.0683 24.8244 12.361 24.2293 12.5951C23.7317 12.7902 23.2732 12.8878 22.8536 12.8878C22.5024 12.8878 22.1512 12.7854 21.8 12.5805C21.3122 12.2878 20.9122 11.8341 20.6 11.2195ZM23.1902 0.682927C23.0146 0.536586 22.9268 0.414634 22.9268 0.317074C22.9268 0.2 23.0488 0.141463 23.2927 0.141463C23.6536 0.141463 24.1024 0.287805 24.639 0.580488C25.1756 0.863414 25.4439 1.16098 25.4439 1.47317C25.4439 1.52195 25.4341 1.60976 25.4146 1.73659C25.3951 1.86341 25.3854 1.97561 25.3854 2.07317V5.93659C25.3854 6.50244 25.3171 7.08293 25.1805 7.67805C25.0536 8.26341 24.8927 8.7561 24.6975 9.1561C24.5122 9.5561 24.3854 9.7561 24.3171 9.7561C24.278 9.7561 24.2585 9.64878 24.2585 9.43415V1.98537C24.2585 1.83902 24.1268 1.61951 23.8634 1.32683C23.6585 1.10244 23.4341 0.887805 23.1902 0.682927ZM37.3414 0.126829C38.2292 0.126829 38.8975 0.385366 39.3463 0.902439C39.7073 1.32195 39.8878 1.83415 39.8878 2.43902C39.8878 2.9561 39.678 3.40976 39.2585 3.8C38.8488 4.18049 38.3219 4.37073 37.678 4.37073C36.9268 4.37073 36.2975 4.16098 35.7902 3.74146C35.2829 3.32195 35.0292 2.8439 35.0292 2.30732C35.0292 1.6439 35.2488 1.11707 35.6878 0.726829C36.1268 0.326829 36.678 0.126829 37.3414 0.126829ZM39.1414 6.93171C39.3561 7.02927 39.5805 7.18537 39.8146 7.4C39.9902 7.5561 40.078 7.67805 40.078 7.76585C40.078 7.83415 39.9805 8.03902 39.7853 8.38049C39.6 8.7122 39.4975 8.9561 39.478 9.1122C39.6146 9.23902 39.6975 9.31707 39.7268 9.34634C39.8244 9.45366 39.8731 9.56098 39.8731 9.66829C39.8731 9.93171 39.6829 10.0878 39.3024 10.1366L36.6975 10.4146V11.4683C36.6975 11.5756 36.7024 11.639 36.7122 11.6585C36.7512 11.7463 36.8878 11.7902 37.1219 11.7902C37.6683 11.7902 38.1317 11.761 38.5122 11.7024C38.8829 11.6244 39.1219 11.5756 39.2292 11.5561L39.4341 11.5415C39.6585 11.5415 39.7707 11.6195 39.7707 11.7756C39.7707 12.0293 39.5853 12.2634 39.2146 12.478C39 12.6244 38.7707 12.7268 38.5268 12.7854C38.2927 12.8537 37.9707 12.8878 37.5609 12.8878C37.2195 12.8878 36.878 12.7317 36.5366 12.4195C36.1951 12.1073 36.0244 11.761 36.0244 11.3805V10.7659C36.0244 10.6488 35.8244 10.4829 35.4244 10.2683C35.0244 10.0537 34.8244 9.8878 34.8244 9.77073C34.8244 9.60488 35.0097 9.52195 35.3805 9.52195C36.3756 9.52195 37.1414 9.4878 37.678 9.41951C37.7561 9.40976 38.1366 9.33659 38.8195 9.2V7.92683H38.278C37.9268 7.92683 37.6292 7.94146 37.3853 7.97073C37.1512 7.99024 36.917 8.04878 36.6829 8.14634C36.5853 8.18537 36.4878 8.23415 36.3902 8.29268C36.2927 8.35122 36.2146 8.38049 36.1561 8.38049C35.9317 8.38049 35.5561 8.22927 35.0292 7.92683C34.7366 7.76098 34.5902 7.63415 34.5902 7.54634C34.5902 7.45854 34.7122 7.41463 34.9561 7.41463L36.0975 7.42927C36.5658 7.42927 36.9902 7.41463 37.3707 7.38537C37.7512 7.34634 38.1073 7.28293 38.439 7.19512C38.517 7.17561 38.6244 7.12683 38.7609 7.04878C38.8975 6.96098 38.9951 6.91707 39.0536 6.91707L39.1414 6.93171ZM31.1805 5.90732C30.9853 5.78049 30.8878 5.67317 30.8878 5.58537C30.8878 5.47805 31.0292 5.42439 31.3122 5.42439L34.0634 5.45366C35.8878 5.45366 37.2536 5.41463 38.1609 5.33659C39.078 5.25854 39.7024 5.16098 40.0341 5.0439C40.3658 4.91707 40.6439 4.85366 40.8683 4.85366C41.1024 4.85366 41.3512 4.93659 41.6146 5.10244C41.878 5.26829 42.0097 5.46341 42.0097 5.68781C42.0097 5.82439 41.9512 5.94146 41.8341 6.03902C41.7268 6.12683 41.5853 6.17073 41.4097 6.17073C41.1658 6.17073 40.917 6.1561 40.6634 6.12683C39.9024 6.03902 39.478 5.99512 39.3902 5.99512C38.3366 5.99512 37.1658 6.03902 35.878 6.12683C34.5902 6.21463 33.7414 6.33659 33.3317 6.49268C33.1463 6.58049 33.0195 6.63902 32.9512 6.66829C32.8829 6.69756 32.8195 6.7122 32.7609 6.7122C32.6634 6.7122 32.478 6.6439 32.2048 6.50732C31.8634 6.33171 31.5219 6.13171 31.1805 5.90732ZM37.4439 0.990244C37.0634 0.990244 36.7317 1.07805 36.4488 1.25366C36.0683 1.48781 35.878 1.82927 35.878 2.27805C35.878 2.58049 36.0585 2.85366 36.4195 3.09756C36.7805 3.34146 37.1902 3.46341 37.6488 3.46341C38.0292 3.46341 38.3658 3.34634 38.6585 3.1122C38.9609 2.86829 39.1122 2.6 39.1122 2.30732C39.1122 1.90732 38.9366 1.59024 38.5853 1.3561C38.2341 1.1122 37.8536 0.990244 37.4439 0.990244ZM59.9585 0.0829265C60.7975 0.0829265 61.4414 0.380488 61.8902 0.975609C62.2317 1.43415 62.4024 1.94146 62.4024 2.49756C62.4024 2.99512 62.178 3.45366 61.7292 3.87317C61.2804 4.29268 60.7682 4.50244 60.1926 4.50244C59.5487 4.50244 58.9536 4.27805 58.4073 3.82927C57.8609 3.38049 57.5878 2.89756 57.5878 2.38049C57.5878 1.71707 57.8268 1.17073 58.3048 0.741463C58.7926 0.302439 59.3439 0.0829265 59.9585 0.0829265ZM61.8317 7.32683C61.939 7.39512 62.0658 7.50244 62.2122 7.64878C62.3975 7.83415 62.4902 7.97561 62.4902 8.07317C62.3731 8.31707 62.2609 8.55122 62.1536 8.77561C62.0463 9 61.9878 9.17073 61.978 9.2878C62.0365 9.37561 62.1 9.46829 62.1682 9.56585C62.2365 9.65366 62.2707 9.74146 62.2707 9.82927C62.2707 9.9561 62.2219 10.0634 62.1243 10.1512C62.0268 10.239 61.8756 10.2927 61.6707 10.3122C61.2414 10.3122 60.8658 10.3317 60.5439 10.3707C59.6658 10.478 59.1829 10.5317 59.0951 10.5317V11.2341C59.0951 11.4098 59.1195 11.5317 59.1682 11.6C59.2561 11.7171 59.4317 11.7756 59.6951 11.7756C60.2219 11.7756 60.6609 11.7463 61.0122 11.6878C61.3731 11.6 61.6073 11.5463 61.7146 11.5268L61.8902 11.5122C62.1731 11.5122 62.3146 11.6341 62.3146 11.878C62.3146 12.2293 62.017 12.4976 61.4219 12.6829C60.9926 12.8195 60.5585 12.8878 60.1195 12.8878C59.7292 12.8878 59.3634 12.7317 59.0219 12.4195C58.6804 12.1073 58.5097 11.761 58.5097 11.3805C58.5097 11.1268 58.4951 10.9512 58.4658 10.8537C58.4463 10.7561 58.3878 10.6634 58.2902 10.5756C58.0658 10.439 57.8804 10.322 57.7341 10.2244C57.4414 10.0293 57.2951 9.89756 57.2951 9.82927C57.2951 9.70244 57.4609 9.63902 57.7926 9.63902C58.739 9.63902 59.4609 9.60976 59.9585 9.55122C60.4561 9.49268 60.9048 9.41463 61.3048 9.31707V8.13171C60.8756 8.13171 60.5341 8.14634 60.2804 8.17561C60.0268 8.19512 59.7536 8.25366 59.4609 8.35122C59.178 8.44878 58.9146 8.54146 58.6707 8.62927C58.5048 8.62927 58.1975 8.51707 57.7487 8.29268C57.3097 8.06829 57.0902 7.89268 57.0902 7.76585C57.0902 7.67805 57.217 7.63415 57.4707 7.63415H57.939C58.6414 7.63415 59.2561 7.62439 59.7829 7.60488C60.3097 7.57561 60.7243 7.53171 61.0268 7.47317C61.2122 7.39512 61.4024 7.31707 61.5975 7.23902C61.6658 7.23902 61.7439 7.26829 61.8317 7.32683ZM53.6512 6.44878C53.4561 6.33171 53.3585 6.22439 53.3585 6.12683C53.3585 6.01951 53.4902 5.96585 53.7536 5.96585L55.9634 5.99512L59.7975 5.96585C59.7975 5.75122 59.7097 5.46829 59.5341 5.11707C59.4365 4.92195 59.3878 4.79024 59.3878 4.72195C59.3878 4.61463 59.4561 4.56098 59.5926 4.56098C59.8268 4.56098 60.1292 4.63902 60.5 4.79512C60.8707 4.95122 61.0561 5.12195 61.0561 5.30732C61.0561 5.37561 61.0414 5.47317 61.0122 5.6C60.9926 5.71707 60.9829 5.79024 60.9829 5.81951L61.3487 5.84878C61.6804 5.84878 62.1439 5.77561 62.739 5.62927C63.0609 5.55122 63.2902 5.51219 63.4268 5.51219C63.6512 5.51219 63.8902 5.59024 64.1439 5.74634C64.3975 5.90244 64.5243 6.0878 64.5243 6.30244C64.5243 6.42927 64.4609 6.53659 64.3341 6.62439C64.217 6.7122 64.0561 6.7561 63.8512 6.7561L61.817 6.66829L60.7487 6.65366C59.5682 6.65366 58.5585 6.68293 57.7195 6.74146C56.8804 6.79024 56.2707 6.88293 55.8902 7.01951C55.7243 7.07805 55.6317 7.1122 55.6122 7.12195C55.4658 7.18049 55.3585 7.20976 55.2902 7.20976C55.1146 7.20976 54.8317 7.1122 54.4414 6.91707C54.1195 6.76098 53.8561 6.60488 53.6512 6.44878ZM60.1487 0.946341C59.7878 0.946341 59.4414 1.04878 59.1097 1.25366C58.6902 1.51707 58.4804 1.85366 58.4804 2.26341C58.4804 2.63415 58.6609 2.93659 59.0219 3.17073C59.3829 3.39512 59.8024 3.50732 60.2804 3.50732C60.6707 3.50732 60.9829 3.40488 61.217 3.2C61.4512 2.99512 61.5683 2.74146 61.5683 2.43902C61.5683 2.10732 61.4365 1.78537 61.1731 1.47317C60.8804 1.12195 60.539 0.946341 60.1487 0.946341ZM75.4707 0.8C75.3146 0.614634 75.2365 0.468293 75.2365 0.360976C75.2365 0.204878 75.3829 0.126829 75.6756 0.126829C75.9975 0.126829 76.4268 0.287805 76.9634 0.609756C77.5585 0.970731 77.856 1.30244 77.856 1.60488C77.856 1.70244 77.8512 1.78537 77.8414 1.85366C77.8024 2.12683 77.7829 2.28781 77.7829 2.33659V3.8C77.7829 4.62927 77.778 5.46341 77.7682 6.30244C77.7682 7.14146 77.7536 7.93171 77.7243 8.67317C77.6951 9.41463 77.6414 9.99512 77.5634 10.4146C77.4853 10.8341 77.378 11.278 77.2414 11.7463C77.0268 12.5171 76.856 12.9024 76.7292 12.9024C76.6902 12.9024 76.6658 12.8488 76.656 12.7415C76.6463 12.6439 76.6414 12.5073 76.6414 12.3317L76.5682 7.94146H76.5097C76.3146 7.94146 76.1146 7.98049 75.9097 8.05854C75.7146 8.13659 75.5097 8.21463 75.2951 8.29268C75.1682 8.29268 74.9195 8.11707 74.5487 7.76585C74.178 7.41463 73.9926 7.17561 73.9926 7.04878C73.9926 6.93171 74.0999 6.87317 74.3146 6.87317C74.4121 6.87317 74.6707 6.89756 75.0902 6.94634C75.256 6.96585 75.4121 6.97561 75.5585 6.97561C75.8707 6.97561 76.2073 6.92683 76.5682 6.82927V4.20976C76.3341 4.20976 76.1097 4.25366 75.8951 4.34146C75.6804 4.41951 75.4658 4.50244 75.2512 4.59024C75.1341 4.59024 74.9048 4.4878 74.5634 4.28293C74.2317 4.06829 74.0658 3.9122 74.0658 3.81463C74.0658 3.6878 74.2121 3.62439 74.5048 3.62439C74.817 3.62439 75.1195 3.59024 75.4121 3.52195C75.7048 3.45366 76.0902 3.33171 76.5682 3.1561V2.23415C76.4707 2.02927 76.2999 1.77073 76.056 1.45854C75.8609 1.21463 75.6658 0.995122 75.4707 0.8ZM69.1634 5.81951C68.939 5.66341 68.8268 5.53171 68.8268 5.42439C68.8268 5.34634 68.8853 5.28293 69.0024 5.23415C69.1195 5.18537 69.2804 5.16098 69.4853 5.16098C70.0317 5.16098 70.5341 5.11707 70.9926 5.02927C71.4609 4.94146 71.8512 4.83415 72.1634 4.70732V3.06829C71.7829 3.06829 71.5341 3.08293 71.417 3.1122C71.3097 3.13171 71.1243 3.19512 70.8609 3.30244C70.7926 3.33171 70.7048 3.37561 70.5975 3.43415C70.4999 3.48293 70.4121 3.50732 70.3341 3.50732C70.1585 3.50732 69.8463 3.38537 69.3975 3.14146C68.9585 2.89756 68.739 2.71219 68.739 2.58537C68.739 2.54634 68.778 2.50732 68.856 2.46829C68.9341 2.42927 69.0317 2.40976 69.1487 2.40976C69.8512 2.40976 70.4219 2.39024 70.8609 2.35122C71.2999 2.30244 71.6756 2.22439 71.9877 2.11707C72.0365 2.09756 72.1243 2.03902 72.2512 1.94146C72.3877 1.83415 72.4951 1.78049 72.5731 1.78049C72.6999 1.78049 72.9048 1.9122 73.1877 2.17561C73.4707 2.42927 73.6121 2.61951 73.6121 2.74634C73.6121 2.82439 73.5877 2.90732 73.539 2.99512C73.4902 3.07317 73.4463 3.15122 73.4073 3.22927C73.3682 3.29756 73.3048 3.47805 73.217 3.77073C73.1292 4.06341 73.0219 4.36098 72.8951 4.66341C73.0317 4.77073 73.1243 4.84878 73.1731 4.89756C73.2707 4.99512 73.3195 5.1122 73.3195 5.24878C73.3195 5.37561 73.2804 5.49268 73.2024 5.6C73.1243 5.69756 73.0219 5.7561 72.8951 5.77561C72.2219 5.90244 71.4902 6.00976 70.6999 6.09756V8.01463C70.6999 8.21951 70.7243 8.33659 70.7731 8.36585C70.8121 8.38537 70.8853 8.39512 70.9926 8.39512H71.2853C71.5682 8.39512 71.8707 8.34146 72.1926 8.23415C72.9243 7.99024 73.3292 7.86829 73.4073 7.86829C73.5926 7.86829 73.6853 7.94634 73.6853 8.10244C73.6853 8.53171 73.3682 8.92683 72.7341 9.2878C72.178 9.60976 71.6756 9.77073 71.2268 9.77073C70.9048 9.77073 70.578 9.61463 70.2463 9.30244C69.8853 8.96098 69.7048 8.59024 69.7048 8.19024C69.7048 8.06341 69.7146 7.97073 69.7341 7.9122C69.8024 7.73659 69.8463 7.50732 69.8658 7.22439C69.8951 6.93171 69.9097 6.6878 69.9097 6.49268C69.9097 6.43415 69.8365 6.34146 69.6902 6.21463C69.5536 6.0878 69.378 5.9561 69.1634 5.81951ZM84.2951 6.50732C85.6707 6.50732 87.0951 6.45854 88.5682 6.36098C90.4707 6.23415 91.8316 6.05854 92.6511 5.83415C93.0024 5.73659 93.2658 5.68781 93.4414 5.68781C93.656 5.68781 93.8902 5.77073 94.1438 5.93659C94.3975 6.10244 94.5243 6.2878 94.5243 6.49268C94.5243 6.62927 94.4707 6.74634 94.3633 6.8439C94.2658 6.94146 94.1292 6.99024 93.9536 6.99024L93.7926 6.97561C93.539 6.92683 93.2072 6.89268 92.7975 6.87317C92.3975 6.85366 91.9731 6.8439 91.5243 6.8439C91.5731 6.97073 91.6463 7.14146 91.7438 7.3561C91.7926 7.46341 91.817 7.56585 91.817 7.66341C91.817 8.24878 91.7341 9.01463 91.5682 9.96098C91.4024 10.8976 91.2121 11.6341 90.9975 12.1707C90.939 12.3073 90.8853 12.4488 90.8365 12.5951C90.739 12.8195 90.6658 12.9317 90.617 12.9317C90.5877 12.8829 90.5731 12.839 90.5731 12.8C90.5536 12.7122 90.5438 12.6293 90.5438 12.5512V10.4293C90.5438 9.42439 90.5243 8.63415 90.4853 8.05854C90.456 7.48293 90.3829 7.12683 90.2658 6.99024C89.4365 6.99024 88.6511 7.03415 87.9097 7.12195C87.178 7.20976 86.5877 7.34634 86.139 7.53171C85.9341 7.61951 85.7877 7.68293 85.6999 7.72195C85.6219 7.76098 85.5487 7.78049 85.4804 7.78049C85.2951 7.78049 84.9097 7.63415 84.3243 7.34146C83.7487 7.03902 83.4609 6.80976 83.4609 6.65366C83.4609 6.5561 83.5877 6.50732 83.8414 6.50732H84.2951ZM90.6463 2.14634L90.6755 2.24878C90.6755 2.33659 90.5975 2.4439 90.4414 2.57073C90.2853 2.69756 90.1975 2.77073 90.178 2.79024C90.2463 2.80976 90.6999 2.85854 91.539 2.93659C92.378 3.01463 92.7975 3.34634 92.7975 3.93171C92.7975 4.05854 92.7633 4.15122 92.6951 4.20976C92.6268 4.26829 92.539 4.29756 92.4316 4.29756C92.2853 4.29756 92.1585 4.25366 92.0511 4.16585C91.8658 4.04878 91.5633 3.89268 91.1438 3.69756C90.7243 3.50244 90.2853 3.3122 89.8268 3.12683C89.2316 3.56585 88.6414 3.92195 88.056 4.19512C87.3146 4.53659 86.6463 4.70732 86.0511 4.70732C85.9243 4.70732 85.8268 4.70244 85.7585 4.69268C85.6902 4.68293 85.6365 4.66829 85.5975 4.64878C85.6268 4.62927 85.6511 4.61463 85.6707 4.60488C85.7292 4.57561 85.8219 4.55122 85.9487 4.53171C86.378 4.43415 87.0316 4.0878 87.9097 3.49268C88.8853 2.83902 89.3731 2.34634 89.3731 2.01463C89.3731 1.94634 89.3341 1.86341 89.256 1.76585C88.9146 1.76585 88.6463 1.79512 88.4511 1.85366C88.2658 1.93171 88.0804 2.00488 87.8951 2.07317C87.739 2.07317 87.4268 1.94146 86.9585 1.67805C86.4902 1.40488 86.256 1.20488 86.256 1.07805C86.256 1 86.3682 0.960975 86.5926 0.960975H87.0024C87.8316 0.960975 88.5048 0.936585 89.0219 0.887805C89.939 0.8 90.6268 0.643902 91.0853 0.419512C91.339 0.302439 91.539 0.243903 91.6853 0.243903C91.8707 0.243903 92.0755 0.312195 92.2999 0.448781C92.5341 0.585366 92.6511 0.746341 92.6511 0.931707C92.6511 1.04878 92.6024 1.16098 92.5048 1.26829C92.4072 1.37561 92.2902 1.42927 92.1536 1.42927C91.7146 1.42927 91.3926 1.43902 91.1877 1.45854C90.9829 1.46829 90.6999 1.50244 90.339 1.56098C90.339 1.63902 90.3731 1.72683 90.4414 1.82439C90.5585 1.99024 90.6268 2.09756 90.6463 2.14634ZM101.197 2.95122C101.422 3.01951 101.676 3.22439 101.958 3.56585C102.241 3.90732 102.383 4.19024 102.383 4.41463C102.383 4.49268 102.358 4.56098 102.31 4.61951C102.271 4.67805 102.197 4.7561 102.09 4.85366L101.154 5.71707C101.446 5.93171 101.622 6.06341 101.68 6.1122C101.934 6.31707 102.061 6.49756 102.061 6.65366V6.8439C102.061 7.20488 102.027 7.58049 101.958 7.97073C101.851 8.57561 101.695 8.87805 101.49 8.87805C101.402 8.87805 101.339 8.70244 101.3 8.35122C101.222 7.72683 101.168 7.3561 101.139 7.23902C101.012 6.69268 100.836 6.33659 100.612 6.17073C100.261 6.42439 99.856 6.65854 99.3975 6.87317C98.9389 7.07805 98.5243 7.18049 98.1536 7.18049L98.0365 7.15122C98.056 7.12195 98.0755 7.10244 98.095 7.09268C98.1438 7.05366 98.2072 7.02439 98.2853 7.00488C98.656 6.86829 99.1926 6.46341 99.895 5.79024C100.636 5.07805 101.007 4.57073 101.007 4.26829C101.007 4.12195 100.963 3.94634 100.876 3.74146C100.68 3.28293 100.583 3.04878 100.583 3.03902C100.583 2.92195 100.656 2.86341 100.802 2.86341C100.89 2.86341 101.022 2.89268 101.197 2.95122ZM105.558 0.653659C105.422 0.517073 105.354 0.404878 105.354 0.317074C105.354 0.2 105.471 0.141463 105.705 0.141463C106.027 0.141463 106.451 0.287805 106.978 0.580488C107.515 0.863414 107.783 1.15122 107.783 1.4439L107.754 1.98537V8.21951C107.754 8.98049 107.705 9.69756 107.607 10.3707C107.519 11.0439 107.402 11.5805 107.256 11.9805C107.041 12.5561 106.88 12.8439 106.773 12.8439C106.724 12.8439 106.69 12.8 106.671 12.7122C106.661 12.6244 106.656 12.4927 106.656 12.3171L106.597 1.91219C106.51 1.74634 106.368 1.55122 106.173 1.32683C105.988 1.09268 105.783 0.868293 105.558 0.653659ZM103.071 6.33171C102.895 6.23415 102.734 6.13659 102.588 6.03902C102.334 5.86341 102.207 5.74146 102.207 5.67317C102.207 5.56585 102.324 5.51219 102.558 5.51219C102.832 5.51219 103.134 5.47805 103.466 5.40976C103.807 5.33171 104.08 5.2439 104.285 5.14634V3.37561C104.285 3.18049 104.1 2.85854 103.729 2.40976C103.358 1.96098 103.173 1.68293 103.173 1.57561C103.173 1.44878 103.266 1.38537 103.451 1.38537C103.724 1.38537 104.105 1.53659 104.593 1.83902C105.09 2.14146 105.339 2.40976 105.339 2.6439C105.339 2.70244 105.329 2.78537 105.31 2.89268C105.29 3 105.28 3.06829 105.28 3.09756V6.87317C105.28 7.53659 105.227 8.13171 105.119 8.65854C105.022 9.18537 104.9 9.57561 104.754 9.82927C104.617 10.1122 104.515 10.2537 104.446 10.2537C104.417 10.2537 104.397 10.2049 104.388 10.1073C104.378 10.0098 104.373 9.93659 104.373 9.8878V6.02439C104.217 6.02439 104.051 6.06829 103.876 6.1561C103.71 6.2439 103.534 6.33659 103.349 6.43415C103.319 6.43415 103.227 6.4 103.071 6.33171ZM119.3 1.67805C120.236 1.67805 120.949 2.01951 121.436 2.70244C121.807 3.21951 121.993 3.78049 121.993 4.38537C121.993 4.92195 121.749 5.42927 121.261 5.90732C120.783 6.37561 120.246 6.60976 119.651 6.60976C118.958 6.60976 118.3 6.37073 117.676 5.89268C116.993 5.36585 116.651 4.76585 116.651 4.09268C116.651 3.43902 116.876 2.88293 117.324 2.42439C117.812 1.92683 118.471 1.67805 119.3 1.67805ZM118.115 9.60976L120.954 9.52195C120.954 9.38537 120.954 9.28293 120.954 9.21463C120.954 8.83415 120.934 8.52683 120.895 8.29268C120.866 8.04878 120.797 7.82439 120.69 7.61951C120.554 7.36585 120.485 7.18049 120.485 7.06341C120.485 6.94634 120.544 6.8878 120.661 6.8878C120.846 6.8878 121.124 6.99512 121.495 7.20976C121.866 7.41463 122.051 7.6 122.051 7.76585C122.051 7.8439 122.027 7.9561 121.978 8.10244C121.929 8.24878 121.9 8.36585 121.89 8.45366L121.817 9.41951C121.954 9.41951 122.29 9.3561 122.827 9.22927C123.071 9.17073 123.276 9.14146 123.441 9.14146C123.656 9.14146 123.876 9.21951 124.1 9.37561C124.324 9.53171 124.436 9.7122 124.436 9.91707C124.436 10.0634 124.373 10.1902 124.246 10.2976C124.129 10.3951 123.983 10.4439 123.807 10.4439C123.573 10.4439 123.183 10.4195 122.636 10.3707C122.09 10.3122 121.729 10.2829 121.554 10.2829C120.344 10.2829 119.217 10.322 118.173 10.4C117.139 10.4683 116.427 10.5805 116.036 10.7366C115.968 10.7561 115.812 10.8195 115.568 10.9268C115.432 10.9854 115.319 11.0146 115.232 11.0146C115.036 11.0146 114.656 10.8683 114.09 10.5756C113.524 10.2732 113.241 10.0488 113.241 9.90244C113.241 9.79512 113.373 9.74146 113.636 9.74146L114.646 9.7561C115.29 9.7561 115.822 9.75122 116.241 9.74146C116.671 9.73171 117.076 9.7122 117.456 9.68293C117.456 9.41951 117.363 9.1122 117.178 8.76098C116.963 8.38049 116.749 7.99512 116.534 7.60488C116.534 7.4878 116.617 7.42927 116.783 7.42927C117.036 7.42927 117.339 7.51707 117.69 7.69268C118.041 7.85854 118.217 8.04878 118.217 8.26341C118.217 8.28293 118.197 8.37561 118.158 8.54146C118.129 8.70732 118.115 8.8439 118.115 8.95122V9.60976ZM119.315 2.54146C118.866 2.54146 118.476 2.66829 118.144 2.92195C117.744 3.22439 117.544 3.62927 117.544 4.13659C117.544 4.54634 117.744 4.89756 118.144 5.19024C118.544 5.48293 118.988 5.62927 119.476 5.62927C119.954 5.62927 120.349 5.47805 120.661 5.17561C120.983 4.86341 121.144 4.53659 121.144 4.19512C121.144 3.79512 120.949 3.41951 120.558 3.06829C120.168 2.71707 119.754 2.54146 119.315 2.54146Z" fill="black"/>
<path d="M136.224 3.87805C135.867 4.07967 135.58 4.47642 135.366 5.06829C135.151 5.65366 135.044 6.37236 135.044 7.22439V8.95122C135.044 9.65366 135.106 10.2715 135.229 10.8049C135.424 11.6309 135.749 12.1577 136.205 12.3854V12.6293C135.977 12.5772 135.733 12.4244 135.473 12.1707C135.128 11.8325 134.852 11.3967 134.644 10.8634C134.377 10.1805 134.244 9.39024 134.244 8.49268V7.71219C134.244 6.86016 134.371 6.08618 134.624 5.39024C134.969 4.44065 135.502 3.84553 136.224 3.60488V3.87805ZM140.295 4.88293C140.471 4.95447 140.656 5.08455 140.851 5.27317C141.085 5.49431 141.203 5.67967 141.203 5.82927C141.203 5.8748 141.19 5.92358 141.163 5.97561C141.15 5.99512 141.115 6.04715 141.056 6.13171L140.588 6.69756C140.763 6.81463 140.939 6.92846 141.115 7.03902C141.271 7.1561 141.349 7.26667 141.349 7.37073L141.368 7.96585C141.368 8.12195 141.339 8.32358 141.281 8.57073C141.203 8.88943 141.115 9.04878 141.017 9.04878C140.952 9.04878 140.907 8.9252 140.881 8.67805C140.855 8.42439 140.796 8.15772 140.705 7.87805C140.568 7.45528 140.399 7.19187 140.198 7.0878C139.84 7.36748 139.482 7.60813 139.124 7.80976C138.617 8.09593 138.211 8.23902 137.905 8.23902C137.892 8.23902 137.876 8.23252 137.856 8.21951C137.876 8.2 137.889 8.18699 137.895 8.18049C137.934 8.14797 137.97 8.1252 138.003 8.1122C138.412 7.92358 138.829 7.61463 139.251 7.18537C139.681 6.74959 140.003 6.32033 140.217 5.89756C140.217 5.76748 140.146 5.58537 140.003 5.35122C139.859 5.11707 139.788 4.98049 139.788 4.94146C139.788 4.85691 139.85 4.81463 139.973 4.81463C140.058 4.81463 140.165 4.8374 140.295 4.88293ZM140.412 10.0634C140.36 10.0114 140.334 9.9626 140.334 9.91707C140.334 9.81951 140.435 9.77073 140.637 9.77073C140.825 9.77073 141.043 9.82602 141.29 9.93659C141.544 10.0407 141.671 10.1707 141.671 10.3268C141.671 10.3528 141.664 10.4081 141.651 10.4927C141.638 10.5772 141.632 10.652 141.632 10.7171V11.1659C141.632 11.3089 141.677 11.3967 141.768 11.4293C141.859 11.4618 141.999 11.478 142.188 11.478C142.39 11.478 142.63 11.4618 142.91 11.4293C143.196 11.3967 143.417 11.3577 143.573 11.3122C143.729 11.2732 143.837 11.2537 143.895 11.2537C144.071 11.2537 144.159 11.3252 144.159 11.4683C144.159 11.7154 143.944 11.9171 143.515 12.0732C143.176 12.1967 142.864 12.2585 142.578 12.2585C142.311 12.2585 142.058 12.1642 141.817 11.9756C141.583 11.7935 141.407 11.5659 141.29 11.2927C141.225 11.1431 141.134 10.9805 141.017 10.8049C140.868 10.5772 140.666 10.3301 140.412 10.0634ZM142.734 4.18049C142.598 4.05041 142.529 3.95285 142.529 3.88781C142.529 3.79675 142.614 3.75122 142.783 3.75122C143.037 3.75122 143.316 3.82927 143.622 3.98537C143.986 4.16748 144.168 4.37236 144.168 4.6L144.139 5.00976V7.77073C144.139 8.29756 144.097 8.7626 144.012 9.16585C143.934 9.56911 143.83 9.8748 143.7 10.0829C143.603 10.252 143.534 10.3366 143.495 10.3366C143.456 10.3366 143.437 10.239 143.437 10.0439L143.407 6.80488C143.264 6.81789 143.108 6.86341 142.939 6.94146C142.77 7.01301 142.601 7.0878 142.432 7.16585C142.341 7.16585 142.172 7.0878 141.924 6.93171C141.677 6.76911 141.554 6.64878 141.554 6.57073C141.554 6.49919 141.642 6.46341 141.817 6.46341C142.097 6.46341 142.331 6.45041 142.52 6.42439C142.851 6.37886 143.141 6.29756 143.388 6.18049V4.95122C143.349 4.84715 143.261 4.71707 143.124 4.56098C142.988 4.40488 142.858 4.27805 142.734 4.18049ZM150.051 9.73171H150.442C150.89 9.73171 151.329 9.7187 151.759 9.69268C152.194 9.66016 152.568 9.59837 152.881 9.50732C152.972 9.4813 153.059 9.44878 153.144 9.40976C153.229 9.36423 153.29 9.34146 153.329 9.34146C153.414 9.34146 153.547 9.41626 153.729 9.56585C153.911 9.71545 154.003 9.83252 154.003 9.91707C154.003 9.9626 153.989 10.0179 153.963 10.0829C153.937 10.1415 153.908 10.2065 153.876 10.278C153.882 10.5902 153.872 10.8732 153.846 11.1268C153.82 11.3805 153.755 11.5919 153.651 11.761C153.554 11.9301 153.472 12.0569 153.407 12.1415C153.342 12.226 153.294 12.2683 153.261 12.2683C153.222 12.2683 153.203 12.2033 153.203 12.0732V9.97561C152.747 9.97561 152.321 10.0114 151.924 10.0829C151.528 10.148 151.258 10.2163 151.115 10.2878C150.913 10.3984 150.783 10.4537 150.724 10.4537C150.614 10.4537 150.416 10.3724 150.129 10.2098C149.85 10.0407 149.71 9.91382 149.71 9.82927C149.71 9.76423 149.811 9.73171 150.012 9.73171H150.051ZM153.368 6.81463V4.94146C153.368 4.79187 153.248 4.5935 153.007 4.34634C152.773 4.09268 152.656 3.93333 152.656 3.86829C152.656 3.79675 152.715 3.76098 152.832 3.76098C153.066 3.76098 153.349 3.85203 153.681 4.03415C154.012 4.20976 154.178 4.39837 154.178 4.6C154.178 4.63252 154.172 4.69756 154.159 4.79512C154.146 4.89268 154.139 4.97398 154.139 5.03902V6.64878C154.139 7.33821 154.094 7.86829 154.003 8.23902C153.944 8.47317 153.84 8.71382 153.69 8.96098C153.651 9.03902 153.603 9.11057 153.544 9.17561C153.531 9.19512 153.511 9.21789 153.485 9.2439C153.466 9.17886 153.456 9.12683 153.456 9.0878V8.82439C153.456 8.55122 153.446 8.29756 153.427 8.06341C153.414 7.82927 153.394 7.61138 153.368 7.40976H152.549V7.45854C152.549 7.77724 152.533 8.0439 152.5 8.25854C152.468 8.46667 152.412 8.64228 152.334 8.78537C152.146 9.11057 152.032 9.27317 151.993 9.27317C151.96 9.27317 151.944 9.18537 151.944 9.00976C151.944 8.86667 151.924 8.72033 151.885 8.57073C151.879 8.54472 151.866 8.50894 151.846 8.46341C151.658 8.46341 151.284 8.5252 150.724 8.64878C150.172 8.76585 149.781 8.87967 149.554 8.99024C149.398 9.0813 149.258 9.12683 149.134 9.12683C148.985 9.12683 148.874 9.06504 148.803 8.94146C148.731 8.81789 148.695 8.6748 148.695 8.5122C148.695 8.39512 148.708 8.31057 148.734 8.25854C148.838 8.16748 148.92 8.06341 148.978 7.94634C149.037 7.82927 149.066 7.7122 149.066 7.59512C149.066 7.47154 148.933 7.34797 148.666 7.22439C148.406 7.10081 148.276 7 148.276 6.92195C148.276 6.81138 148.393 6.7561 148.627 6.7561C148.894 6.7561 149.167 6.73333 149.446 6.6878C149.733 6.64228 149.96 6.58374 150.129 6.5122C150.194 6.49268 150.266 6.46667 150.344 6.43415C150.429 6.39512 150.49 6.37561 150.529 6.37561C150.627 6.37561 150.734 6.42439 150.851 6.52195C150.975 6.61951 151.037 6.71382 151.037 6.80488C151.037 6.90894 150.799 7.00325 150.324 7.0878C149.85 7.17236 149.573 7.22114 149.495 7.23415V8.00488C149.495 8.11545 149.502 8.18374 149.515 8.20976C149.534 8.24878 149.58 8.26829 149.651 8.26829C149.866 8.26829 150.22 8.22602 150.715 8.14146C150.955 8.10244 151.326 8.03089 151.827 7.92683V5.42927C151.827 5.29268 151.723 5.11707 151.515 4.90244C151.307 4.6878 151.203 4.55122 151.203 4.49268C151.203 4.41463 151.271 4.37561 151.407 4.37561C151.603 4.37561 151.85 4.45691 152.149 4.61951C152.448 4.77561 152.598 4.93821 152.598 5.10732C152.598 5.14634 152.588 5.20488 152.568 5.28293C152.555 5.35447 152.549 5.40976 152.549 5.44878V6.81463H153.368ZM148.842 5.98537C148.705 5.92683 148.585 5.86179 148.481 5.79024C148.305 5.67967 148.217 5.59187 148.217 5.52683C148.217 5.44878 148.35 5.40976 148.617 5.40976C148.942 5.40976 149.251 5.35447 149.544 5.2439C149.837 5.13333 150.129 5.01951 150.422 4.90244C150.52 4.90244 150.646 4.96423 150.803 5.08781C150.959 5.20488 151.037 5.3122 151.037 5.40976C151.037 5.52033 150.913 5.59512 150.666 5.63415C150.152 5.7187 149.746 5.81626 149.446 5.92683C149.394 5.94634 149.333 5.97561 149.261 6.01463C149.196 6.05366 149.144 6.07317 149.105 6.07317C149.066 6.07317 148.978 6.0439 148.842 5.98537ZM158.89 8.49268C158.89 9.40325 158.76 10.1902 158.5 10.8537C158.292 11.3805 158.012 11.8163 157.661 12.161C157.394 12.4211 157.15 12.5772 156.929 12.6293V12.3854C157.378 12.1577 157.7 11.6309 157.895 10.8049C158.025 10.252 158.09 9.63415 158.09 8.95122V7.22439C158.09 6.37886 157.98 5.66016 157.759 5.06829C157.544 4.47642 157.261 4.07967 156.91 3.87805V3.60488C157.632 3.84553 158.165 4.44065 158.51 5.39024C158.763 6.08618 158.89 6.86016 158.89 7.71219V8.49268Z" fill="#908F8F"/>
</svg>
