<svg width="124" height="14" viewBox="0 0 124 14" fill="none" xmlns="http://www.w3.org/2000/svg">
<path d="M6.73659 4.1561C7.26341 4.1561 7.75122 4.30732 8.2 4.60976C8.7561 4.98049 9.03415 5.47805 9.03415 6.10244C9.03415 6.65854 8.82927 7.13659 8.41951 7.53659C8.01951 7.92683 7.51707 8.12195 6.9122 8.12195C6.17073 8.12195 5.54634 7.88293 5.03902 7.40488C4.6 6.99512 4.38049 6.57073 4.38049 6.13171C4.38049 5.63415 4.60488 5.18049 5.05366 4.77073C5.51219 4.36098 6.07317 4.1561 6.73659 4.1561ZM3.67805 3.99512C3.36585 3.83902 3.05854 3.68293 2.7561 3.52683C2.51219 3.38049 2.39024 3.26829 2.39024 3.19024C2.39024 3.12195 2.50244 3.0878 2.72683 3.0878C4.29756 3.0878 5.54146 3.06341 6.45854 3.01463C7.37561 2.9561 8.02927 2.85854 8.41951 2.72195C8.50732 2.69268 8.60488 2.65854 8.71219 2.61951C8.82927 2.58049 8.93171 2.56098 9.01951 2.56098C9.18537 2.56098 9.36585 2.63415 9.56098 2.78049C9.7561 2.92683 9.85366 3.07805 9.85366 3.23415C9.85366 3.35122 9.8 3.45366 9.69268 3.54146C9.59512 3.61951 9.46341 3.65854 9.29756 3.65854H7.98049C7.22927 3.65854 6.57073 3.67805 6.00488 3.71707C5.44878 3.74634 5.00976 3.81951 4.6878 3.93659C4.60976 3.96585 4.49756 4.01463 4.35122 4.08293C4.27317 4.12195 4.2 4.14146 4.13171 4.14146C4.03415 4.14146 3.88293 4.09268 3.67805 3.99512ZM5.28781 0.995122C5.55122 1.07317 5.92683 1.13658 6.41463 1.18537C6.90244 1.22439 7.39024 1.2439 7.87805 1.2439C8.16098 1.2439 8.30244 1.34146 8.30244 1.53659C8.30244 1.75122 8.1122 1.9561 7.73171 2.15122C7.35122 2.34634 7.04878 2.4439 6.82439 2.4439C6.56098 2.4439 6.4 2.43902 6.34146 2.42927C6.09756 2.39024 5.85854 2.26829 5.62439 2.06341C5.47805 1.94634 5.3122 1.79024 5.12683 1.59512C4.89268 1.34146 4.77561 1.16098 4.77561 1.05366C4.77561 0.97561 4.83902 0.936585 4.96585 0.936585L5.28781 0.995122ZM0.531707 8.85366H1.11707C2.22927 8.85366 3.22439 8.8439 4.10244 8.82439C4.99024 8.79512 6 8.74634 7.13171 8.67805C8.26341 8.60976 9.01463 8.52683 9.38537 8.42927C9.60976 8.37073 9.77073 8.33171 9.86829 8.3122C9.97561 8.28293 10.0683 8.26829 10.1463 8.26829C10.3415 8.26829 10.5415 8.35122 10.7463 8.51707C10.961 8.67317 11.0683 8.8439 11.0683 9.02927C11.0683 9.17561 11.0098 9.30244 10.8927 9.40976C10.7854 9.50732 10.639 9.5561 10.4537 9.5561C10.2585 9.5561 10.0341 9.54146 9.78049 9.5122C9.17561 9.4439 8.8 9.40976 8.65366 9.40976H8.05366C8.12195 9.57561 8.19512 9.73659 8.27317 9.89268C8.32195 10 8.34634 10.1073 8.34634 10.2146C8.34634 10.6927 8.26829 11.2439 8.1122 11.8683C7.96585 12.4927 7.78049 13.0049 7.5561 13.4049C7.37073 13.7659 7.25854 13.9463 7.21951 13.9463C7.17073 13.9463 7.14634 13.8146 7.14634 13.5512V11.6927C7.14634 11.0293 7.12683 10.5317 7.08781 10.2C7.05854 9.86829 6.99024 9.63415 6.88293 9.49756H6.64878C5.67317 9.49756 4.86829 9.52195 4.23415 9.57073C3.6 9.60976 3.09756 9.71707 2.72683 9.89268C2.57073 9.97073 2.41463 10.0439 2.25854 10.1122C2.19024 10.1415 2.11707 10.1561 2.03902 10.1561C1.85366 10.1561 1.46829 10 0.882927 9.6878C0.297561 9.36585 0.00487815 9.13659 0.00487815 9C0.00487815 8.90244 0.160976 8.85366 0.473171 8.85366H0.531707ZM6.75122 5.03415C6.32195 5.03415 5.97073 5.12195 5.69756 5.29756C5.43415 5.46341 5.30244 5.6878 5.30244 5.97073C5.30244 6.2439 5.49756 6.5122 5.8878 6.77561C6.27805 7.02927 6.65366 7.1561 7.01463 7.1561C7.32683 7.1561 7.59512 7.0878 7.81951 6.95122C8.1122 6.77561 8.25854 6.50732 8.25854 6.14634C8.25854 5.82439 8.10244 5.56098 7.79024 5.3561C7.47805 5.14146 7.13171 5.03415 6.75122 5.03415ZM22.0585 1.82927C21.8536 1.65366 21.7512 1.50244 21.7512 1.37561C21.7512 1.20976 21.9073 1.12683 22.2195 1.12683C22.6097 1.12683 23.0585 1.25854 23.5658 1.52195C24.1414 1.82439 24.4293 2.14634 24.4293 2.48781L24.3854 3V8.73659C24.3854 9.93659 24.3171 10.9268 24.1805 11.7073C24.0927 12.2244 23.9561 12.7171 23.7707 13.1854C23.5854 13.6537 23.4585 13.8878 23.3902 13.8878C23.3317 13.8878 23.3024 13.7707 23.3024 13.5366L23.2 3.20488C23.1219 3.02927 22.9854 2.81951 22.7902 2.57561C22.5463 2.28293 22.3024 2.03415 22.0585 1.82927ZM15.8975 3.98049C16.2975 3.69756 16.7561 3.5561 17.2732 3.5561C18.0341 3.5561 18.7366 3.83415 19.3805 4.39024C20.0244 4.94634 20.3463 5.58537 20.3463 6.30732C20.4927 6.46341 20.5951 6.58537 20.6536 6.67317C20.8097 6.89756 20.8878 7.14634 20.8878 7.41951C20.8878 7.70244 20.7951 7.87805 20.6097 7.94634C20.4244 7.99512 20.2439 8.0439 20.0683 8.09268C19.4536 8.49268 18.6683 8.91707 17.7122 9.36585C16.5414 9.92195 15.7317 10.2 15.2829 10.2C15.1951 10.2 15.1219 10.1902 15.0634 10.1707C15.0536 10.1707 15.0439 10.161 15.0341 10.1415C15.0927 10.0927 15.1414 10.0634 15.1805 10.0537C15.7854 9.85854 16.6488 9.3561 17.7707 8.54634C18.8927 7.72683 19.639 7.08293 20.0097 6.61463C19.8244 5.92195 19.3414 5.45366 18.561 5.20976C18.239 5.1122 17.6536 5.02927 16.8049 4.96098C15.9561 4.88293 15.5317 4.72195 15.5317 4.47805C15.5317 4.32195 15.6536 4.1561 15.8975 3.98049ZM38.3902 8.32683C38.517 8.39512 38.6488 8.4878 38.7853 8.60488C38.9805 8.77073 39.078 8.90244 39.078 9C39.078 9.02927 39 9.22439 38.8439 9.58537C38.6975 9.93659 38.6146 10.1756 38.5951 10.3024C38.7122 10.3805 38.8 10.4585 38.8585 10.5366C38.9268 10.6049 38.9609 10.6976 38.9609 10.8146C38.9609 10.9317 38.9122 11.0341 38.8146 11.122C38.717 11.2098 38.5707 11.2537 38.3756 11.2537L35.4927 11.4439V12.3659C35.4927 12.5512 35.5268 12.6634 35.5951 12.7024C35.6634 12.7512 35.8195 12.7756 36.0634 12.7756C36.317 12.7756 36.6146 12.7463 36.9561 12.6878C37.7561 12.5512 38.2585 12.4829 38.4634 12.4829C38.7658 12.4829 38.917 12.5854 38.917 12.7902C38.917 13.161 38.5658 13.4439 37.8634 13.639C37.3463 13.7854 36.8536 13.8585 36.3853 13.8585C35.9658 13.8585 35.6048 13.7024 35.3024 13.3902C35 13.078 34.8488 12.7268 34.8488 12.3366V12.0878C34.8488 11.8049 34.6585 11.5512 34.278 11.3268C33.8975 11.1024 33.7073 10.922 33.7073 10.7854C33.7073 10.6293 33.8683 10.5512 34.1902 10.5512C35.1658 10.5512 35.9024 10.5268 36.4 10.478C36.8975 10.4195 37.3902 10.3415 37.878 10.2439V9.24878C37.5561 9.24878 37.239 9.24878 36.9268 9.24878C36.5366 9.26829 36.1658 9.33171 35.8146 9.43902C35.6975 9.46829 35.5658 9.51707 35.4195 9.58537C35.2829 9.65366 35.1756 9.6878 35.0975 9.6878C34.9414 9.6878 34.6585 9.58537 34.2488 9.38049C33.839 9.16585 33.6341 8.99512 33.6341 8.86829C33.6341 8.77073 33.7707 8.72195 34.0439 8.72195H34.6585C35.3122 8.72195 35.8927 8.70732 36.4 8.67805C36.917 8.63902 37.2878 8.58049 37.5122 8.50244C37.6488 8.43415 37.7512 8.38537 37.8195 8.3561C37.9463 8.29756 38.0585 8.26829 38.1561 8.26829C38.2341 8.26829 38.3122 8.2878 38.3902 8.32683ZM30.4439 7.60976C30.1805 7.46341 30.0488 7.33659 30.0488 7.22927C30.0488 7.13171 30.1805 7.08293 30.4439 7.08293L33.1219 7.1122C34.9073 7.1122 36.2341 7.07317 37.1024 6.99512C37.9707 6.91707 38.6 6.81463 38.9902 6.68781C39.3902 6.55122 39.7024 6.48293 39.9268 6.48293C40.1805 6.48293 40.4292 6.55122 40.6731 6.68781C40.917 6.82439 41.039 7.00976 41.039 7.2439C41.039 7.39024 40.9756 7.51707 40.8488 7.62439C40.7317 7.72195 40.5853 7.77073 40.4097 7.77073C40.117 7.77073 39.7219 7.76098 39.2244 7.74146C38.7268 7.7122 38.4244 7.69756 38.317 7.69756C36.9122 7.69756 35.7268 7.73171 34.7609 7.8C33.7951 7.86829 33.117 7.9561 32.7268 8.06341C32.6 8.09268 32.4585 8.14146 32.3024 8.20976C32.1561 8.27805 32.0439 8.3122 31.9658 8.3122C31.8 8.3122 31.5366 8.21951 31.1756 8.03415C30.9122 7.89756 30.6683 7.7561 30.4439 7.60976ZM33.8829 3.89268C33.7366 3.78537 33.6634 3.69268 33.6634 3.61463C33.6634 3.53659 33.717 3.47317 33.8244 3.42439C33.9317 3.37561 34.0585 3.35122 34.2048 3.35122C35.0927 3.35122 35.8536 3.32683 36.4878 3.27805C37.1219 3.21951 37.5658 3.13659 37.8195 3.02927V1.96098C37.4195 1.96098 36.9902 1.98537 36.5317 2.03415C36.0731 2.08293 35.678 2.19024 35.3463 2.3561C35.239 2.41463 35.1512 2.45854 35.0829 2.48781C35.0244 2.51707 34.9561 2.53171 34.878 2.53171C34.7122 2.53171 34.4146 2.41463 33.9853 2.18049C33.5561 1.93659 33.3414 1.74634 33.3414 1.60976C33.3414 1.52195 33.4439 1.47805 33.6488 1.47805C33.7756 1.47805 33.8878 1.47805 33.9853 1.47805C34.0829 1.47805 34.1609 1.47805 34.2195 1.47805C35.0975 1.47805 35.7951 1.46829 36.3122 1.44878C36.8292 1.41951 37.2 1.36585 37.4244 1.28781C37.4829 1.26829 37.5805 1.21463 37.717 1.12683C37.8634 1.02927 37.9756 0.980488 38.0536 0.980488C38.1902 0.980488 38.4 1.0878 38.6829 1.30244C38.9756 1.50732 39.1219 1.67805 39.1219 1.81463C39.1219 1.88293 39.0829 1.96098 39.0048 2.04878C38.9268 2.13659 38.8829 2.19024 38.8731 2.20976C38.8048 2.33659 38.7366 2.48781 38.6683 2.66341C38.6 2.82927 38.5414 3.01463 38.4927 3.21951C38.717 3.27805 38.8292 3.40976 38.8292 3.61463C38.8292 3.72195 38.7951 3.80976 38.7268 3.87805C38.6585 3.94634 38.5463 3.99024 38.3902 4.00976C38.2341 4.02927 37.7463 4.07805 36.9268 4.1561C36.1073 4.23415 35.5658 4.28293 35.3024 4.30244V5.00488C35.3024 5.2 35.4048 5.29756 35.6097 5.29756L35.9463 5.28293C36.1122 5.28293 36.4634 5.22439 37 5.10732C37.5366 4.99024 37.9268 4.93171 38.1707 4.93171C38.3658 4.93171 38.5366 4.97073 38.6829 5.04878C38.839 5.12683 38.917 5.25854 38.917 5.4439C38.917 5.56098 38.8683 5.66829 38.7707 5.76585C38.6731 5.86341 38.5414 5.92195 38.3756 5.94146C37.7219 6.01951 37.2048 6.07805 36.8244 6.11707C36.0536 6.20488 35.6292 6.24878 35.5512 6.24878C35.2292 6.24878 34.9707 6.18049 34.7756 6.0439C34.5902 5.89756 34.4975 5.6878 34.4975 5.41463C34.4975 5.32683 34.5122 5.19024 34.5414 5.00488C34.5805 4.81951 34.6 4.69268 34.6 4.62439V4.41951C34.4927 4.3122 34.4048 4.23415 34.3366 4.18537C34.2292 4.10732 34.078 4.00976 33.8829 3.89268ZM60.2756 6.73171C58.7243 6.8878 57.4951 7.04878 56.5878 7.21463C55.6804 7.38049 54.9731 7.57561 54.4658 7.8C54.3487 7.84878 54.2512 7.87317 54.1731 7.87317C54.017 7.87317 53.8902 7.80976 53.7926 7.68293C53.6951 7.5561 53.6463 7.37073 53.6463 7.12683C53.6463 7.05854 53.6707 6.89756 53.7195 6.6439C53.739 6.54634 53.7487 6.45366 53.7487 6.36585C53.7487 5.8 53.6317 5.30244 53.3975 4.87317C53.1243 4.46341 52.8561 4.05366 52.5926 3.6439C52.5926 3.4878 52.7048 3.40976 52.9292 3.40976C53.2122 3.40976 53.5634 3.54146 53.9829 3.80488C54.4122 4.05854 54.6268 4.30732 54.6268 4.55122C54.6268 4.58049 54.6073 4.67317 54.5682 4.82927C54.539 4.98537 54.5243 5.1122 54.5243 5.20976V6C54.5243 6.18537 54.539 6.30244 54.5682 6.35122C54.5975 6.40976 54.6609 6.43902 54.7585 6.43902L55.2853 6.38049C56.0073 6.32195 56.8219 6.23902 57.7292 6.13171C58.6463 6.02439 59.4951 5.91707 60.2756 5.80976V2.88293C60.2365 2.79512 59.9487 2.44878 59.4122 1.8439C59.1878 1.59024 59.0756 1.41951 59.0756 1.33171C59.0756 1.19512 59.1926 1.12683 59.4268 1.12683C59.7585 1.12683 60.178 1.26829 60.6853 1.55122C61.2024 1.82439 61.4609 2.10732 61.4609 2.4C61.4609 2.44878 61.4512 2.54146 61.4317 2.67805C61.4122 2.80488 61.4024 2.88293 61.4024 2.91219V6.52683C61.578 6.52683 61.7682 6.49268 61.9731 6.42439C62.4512 6.26829 62.7536 6.19024 62.8804 6.19024C63.1146 6.19024 63.3292 6.23902 63.5243 6.33659C63.7292 6.43415 63.8317 6.59024 63.8317 6.80488C63.8317 6.95122 63.778 7.07805 63.6707 7.18537C63.5731 7.28293 63.4268 7.33171 63.2317 7.33171C63.0951 7.33171 62.9292 7.30732 62.7341 7.25854C62.217 7.13171 61.7536 7.06829 61.3439 7.06829C61.2853 7.27317 61.1585 7.59024 60.9634 8.01951C60.7292 8.53659 60.5585 8.79512 60.4512 8.79512C60.3926 8.79512 60.3634 8.66341 60.3634 8.4V8.19512C60.3634 7.82439 60.3536 7.52683 60.3341 7.30244C60.3146 7.07805 60.2951 6.8878 60.2756 6.73171ZM59.9097 9.48293C59.9682 9.46341 60.0463 9.43902 60.1439 9.40976C60.2512 9.37073 60.3292 9.35122 60.378 9.35122C60.5341 9.35122 60.7292 9.46829 60.9634 9.70244C61.1975 9.93659 61.3146 10.1268 61.3146 10.2732C61.3146 10.3317 61.2951 10.4 61.2561 10.478C61.139 10.7024 61.0756 10.839 61.0658 10.8878C60.9878 11.2488 60.9292 11.5122 60.8902 11.678C60.8609 11.8439 60.7926 12.1073 60.6853 12.4683C60.8317 12.5756 60.9195 12.6439 60.9487 12.6732C61.0463 12.7707 61.0951 12.8732 61.0951 12.9805C61.0951 13.0976 61.0365 13.2 60.9195 13.2878C60.8024 13.3756 60.6707 13.4195 60.5243 13.4195H57.5536C57.4951 13.5561 57.4317 13.6634 57.3634 13.7415C57.2951 13.8195 57.2219 13.8585 57.1439 13.8585C56.9975 13.8585 56.8609 13.6049 56.7341 13.0976C56.578 12.4244 56.4219 11.7561 56.2658 11.0927C55.9829 10.7512 55.7682 10.4878 55.6219 10.3024C55.4756 10.1171 55.4024 9.98537 55.4024 9.90732C55.4024 9.77073 55.5097 9.70244 55.7243 9.70244C55.9585 9.70244 56.3 9.81951 56.7487 10.0537C57.2073 10.278 57.4365 10.4829 57.4365 10.6683L57.4073 10.9317L57.5536 12.7463C57.9048 12.7463 58.3195 12.722 58.7975 12.6732C59.2853 12.6244 59.7 12.5659 60.0414 12.4976V10.3317H59.8073C59.5829 10.3317 59.2853 10.3902 58.9146 10.5073C58.7292 10.5659 58.5926 10.5951 58.5048 10.5951C58.3682 10.5951 58.1243 10.5024 57.7731 10.3171C57.4317 10.1317 57.2609 9.99024 57.2609 9.89268C57.2609 9.79512 57.3682 9.74634 57.5829 9.74634L58.2853 9.76098C58.6365 9.76098 58.9243 9.74634 59.1487 9.71707C59.3829 9.67805 59.6365 9.6 59.9097 9.48293ZM68.4268 3.67317C68.5926 3.60488 68.7536 3.55122 68.9097 3.5122C69.0756 3.47317 69.2609 3.45366 69.4658 3.45366C70.2951 3.45366 70.939 3.67317 71.3975 4.1122C71.856 4.55122 72.1536 5.18537 72.2902 6.01463C72.456 6.20976 72.5536 6.33171 72.5829 6.38049C72.7292 6.59512 72.8024 6.83902 72.8024 7.1122C72.8024 7.4439 72.6365 7.65854 72.3048 7.7561C71.9829 7.8439 71.8024 7.89756 71.7634 7.91707C70.8853 8.39512 70.1829 8.77073 69.656 9.0439C68.6609 9.55122 67.9438 9.80488 67.5048 9.80488C67.4463 9.80488 67.3975 9.79512 67.3585 9.77561C67.3487 9.76585 67.3438 9.7561 67.3438 9.74634C67.3438 9.72683 67.4219 9.68293 67.578 9.61463C67.978 9.43902 68.1926 9.34146 68.2219 9.32195C68.8073 8.96098 69.4902 8.46341 70.2707 7.82927C71.0609 7.18537 71.5731 6.70244 71.8073 6.38049C71.6024 5.57073 70.9146 5.06341 69.7438 4.85854C68.5731 4.6439 67.9877 4.41951 67.9877 4.18537C67.9877 4.09756 68.0219 4.00976 68.0902 3.92195C68.1682 3.82439 68.2804 3.74146 68.4268 3.67317ZM74.4268 1.7561C74.2707 1.58049 74.1926 1.44878 74.1926 1.36098C74.1926 1.20488 74.3731 1.12683 74.7341 1.12683C75.0756 1.12683 75.5097 1.2878 76.0365 1.60976C76.6219 1.97073 76.9146 2.31219 76.9146 2.63415C76.9146 2.70244 76.8951 2.82439 76.856 3C76.817 3.17561 76.7975 3.31707 76.7975 3.42439V8.53171C76.7975 9.66341 76.739 10.6634 76.6219 11.5317C76.5048 12.4 76.3438 13.0293 76.139 13.4195C75.9731 13.7317 75.8609 13.8878 75.8024 13.8878C75.7438 13.8878 75.7146 13.7317 75.7146 13.4195V13.2732C75.7146 12.7756 75.7048 12.1463 75.6853 11.3854C75.6658 10.6146 75.6414 9.8439 75.6121 9.07317C75.4365 9.08293 75.2609 9.09756 75.0853 9.11707C74.9097 9.13659 74.7536 9.17561 74.617 9.23415C74.4804 9.28293 74.3731 9.31707 74.2951 9.33659C74.2268 9.3561 74.1731 9.36585 74.1341 9.36585C73.9877 9.36585 73.7634 9.2 73.4609 8.86829C73.1682 8.52683 73.0219 8.27805 73.0219 8.12195C73.0219 8.01463 73.0853 7.96098 73.2121 7.96098C73.339 7.96098 73.5048 7.98049 73.7097 8.01951C74.217 8.11707 74.5536 8.16585 74.7195 8.16585C75.0219 8.16585 75.3195 8.13659 75.6121 8.07805L75.5829 5.60488C75.3195 5.60488 75.0219 5.66829 74.6902 5.79512C74.3682 5.9122 74.1926 5.97073 74.1634 5.97073C74.0268 5.97073 73.8121 5.8878 73.5195 5.72195C73.2268 5.54634 73.0804 5.39512 73.0804 5.26829C73.0804 5.20976 73.1243 5.16585 73.2121 5.13659C73.2316 5.12683 73.4024 5.10244 73.7243 5.06341C74.2609 4.98537 74.578 4.93659 74.6756 4.91707C74.9487 4.85854 75.2512 4.76098 75.5829 4.62439V3.23415C75.5048 2.96098 75.3341 2.67317 75.0707 2.37073C74.9341 2.21463 74.7195 2.00976 74.4268 1.7561ZM83.2951 7.50732C84.6707 7.50732 86.0951 7.45854 87.5682 7.36098C89.4707 7.23415 90.8316 7.05854 91.6511 6.83415C92.0024 6.73659 92.2658 6.68781 92.4414 6.68781C92.656 6.68781 92.8902 6.77073 93.1438 6.93659C93.3975 7.10244 93.5243 7.2878 93.5243 7.49268C93.5243 7.62927 93.4707 7.74634 93.3633 7.8439C93.2658 7.94146 93.1292 7.99024 92.9536 7.99024L92.7926 7.97561C92.539 7.92683 92.2072 7.89268 91.7975 7.87317C91.3975 7.85366 90.9731 7.8439 90.5243 7.8439C90.5731 7.97073 90.6463 8.14146 90.7438 8.3561C90.7926 8.46341 90.817 8.56585 90.817 8.66341C90.817 9.24878 90.7341 10.0146 90.5682 10.961C90.4024 11.8976 90.2121 12.6341 89.9975 13.1707C89.939 13.3073 89.8853 13.4488 89.8365 13.5951C89.739 13.8195 89.6658 13.9317 89.617 13.9317C89.5877 13.8829 89.5731 13.839 89.5731 13.8C89.5536 13.7122 89.5438 13.6293 89.5438 13.5512V11.4293C89.5438 10.4244 89.5243 9.63415 89.4853 9.05854C89.456 8.48293 89.3829 8.12683 89.2658 7.99024C88.4365 7.99024 87.6511 8.03415 86.9097 8.12195C86.178 8.20976 85.5877 8.34634 85.139 8.53171C84.9341 8.61951 84.7877 8.68293 84.6999 8.72195C84.6219 8.76098 84.5487 8.78049 84.4804 8.78049C84.2951 8.78049 83.9097 8.63415 83.3243 8.34146C82.7487 8.03902 82.4609 7.80976 82.4609 7.65366C82.4609 7.5561 82.5877 7.50732 82.8414 7.50732H83.2951ZM89.6463 3.14634L89.6755 3.24878C89.6755 3.33659 89.5975 3.4439 89.4414 3.57073C89.2853 3.69756 89.1975 3.77073 89.178 3.79024C89.2463 3.80976 89.6999 3.85854 90.539 3.93659C91.378 4.01463 91.7975 4.34634 91.7975 4.93171C91.7975 5.05854 91.7633 5.15122 91.6951 5.20976C91.6268 5.26829 91.539 5.29756 91.4316 5.29756C91.2853 5.29756 91.1585 5.25366 91.0511 5.16585C90.8658 5.04878 90.5633 4.89268 90.1438 4.69756C89.7243 4.50244 89.2853 4.3122 88.8268 4.12683C88.2316 4.56585 87.6414 4.92195 87.056 5.19512C86.3146 5.53659 85.6463 5.70732 85.0511 5.70732C84.9243 5.70732 84.8268 5.70244 84.7585 5.69268C84.6902 5.68293 84.6365 5.66829 84.5975 5.64878C84.6268 5.62927 84.6511 5.61463 84.6707 5.60488C84.7292 5.57561 84.8219 5.55122 84.9487 5.53171C85.378 5.43415 86.0316 5.0878 86.9097 4.49268C87.8853 3.83902 88.3731 3.34634 88.3731 3.01463C88.3731 2.94634 88.3341 2.86341 88.256 2.76585C87.9146 2.76585 87.6463 2.79512 87.4511 2.85366C87.2658 2.93171 87.0804 3.00488 86.8951 3.07317C86.739 3.07317 86.4268 2.94146 85.9585 2.67805C85.4902 2.40488 85.256 2.20488 85.256 2.07805C85.256 2 85.3682 1.96098 85.5926 1.96098H86.0024C86.8316 1.96098 87.5048 1.93659 88.0219 1.8878C88.939 1.8 89.6268 1.6439 90.0853 1.41951C90.339 1.30244 90.539 1.2439 90.6853 1.2439C90.8707 1.2439 91.0755 1.3122 91.2999 1.44878C91.5341 1.58537 91.6511 1.74634 91.6511 1.93171C91.6511 2.04878 91.6024 2.16098 91.5048 2.26829C91.4072 2.37561 91.2902 2.42927 91.1536 2.42927C90.7146 2.42927 90.3926 2.43902 90.1877 2.45854C89.9829 2.46829 89.6999 2.50244 89.339 2.56098C89.339 2.63902 89.3731 2.72683 89.4414 2.82439C89.5585 2.99024 89.6268 3.09756 89.6463 3.14634ZM100.197 3.95122C100.422 4.01951 100.676 4.22439 100.958 4.56585C101.241 4.90732 101.383 5.19024 101.383 5.41463C101.383 5.49268 101.358 5.56098 101.31 5.61951C101.271 5.67805 101.197 5.7561 101.09 5.85366L100.154 6.71707C100.446 6.93171 100.622 7.06341 100.68 7.1122C100.934 7.31707 101.061 7.49756 101.061 7.65366V7.8439C101.061 8.20488 101.027 8.58049 100.958 8.97073C100.851 9.57561 100.695 9.87805 100.49 9.87805C100.402 9.87805 100.339 9.70244 100.3 9.35122C100.222 8.72683 100.168 8.3561 100.139 8.23902C100.012 7.69268 99.8365 7.33659 99.6121 7.17073C99.2609 7.42439 98.856 7.65854 98.3975 7.87317C97.9389 8.07805 97.5243 8.18049 97.1536 8.18049L97.0365 8.15122C97.056 8.12195 97.0755 8.10244 97.095 8.09268C97.1438 8.05366 97.2072 8.02439 97.2853 8.00488C97.656 7.86829 98.1926 7.46341 98.895 6.79024C99.6365 6.07805 100.007 5.57073 100.007 5.26829C100.007 5.12195 99.9633 4.94634 99.8755 4.74146C99.6804 4.28293 99.5828 4.04878 99.5828 4.03902C99.5828 3.92195 99.656 3.86341 99.8024 3.86341C99.8902 3.86341 100.022 3.89268 100.197 3.95122ZM104.558 1.65366C104.422 1.51707 104.354 1.40488 104.354 1.31707C104.354 1.2 104.471 1.14146 104.705 1.14146C105.027 1.14146 105.451 1.2878 105.978 1.58049C106.515 1.86341 106.783 2.15122 106.783 2.4439L106.754 2.98537V9.21951C106.754 9.98049 106.705 10.6976 106.607 11.3707C106.519 12.0439 106.402 12.5805 106.256 12.9805C106.041 13.5561 105.88 13.8439 105.773 13.8439C105.724 13.8439 105.69 13.8 105.671 13.7122C105.661 13.6244 105.656 13.4927 105.656 13.3171L105.597 2.91219C105.51 2.74634 105.368 2.55122 105.173 2.32683C104.988 2.09268 104.783 1.86829 104.558 1.65366ZM102.071 7.33171C101.895 7.23415 101.734 7.13659 101.588 7.03902C101.334 6.86341 101.207 6.74146 101.207 6.67317C101.207 6.56585 101.324 6.51219 101.558 6.51219C101.832 6.51219 102.134 6.47805 102.466 6.40976C102.807 6.33171 103.08 6.2439 103.285 6.14634V4.37561C103.285 4.18049 103.1 3.85854 102.729 3.40976C102.358 2.96098 102.173 2.68293 102.173 2.57561C102.173 2.44878 102.266 2.38537 102.451 2.38537C102.724 2.38537 103.105 2.53659 103.593 2.83902C104.09 3.14146 104.339 3.40976 104.339 3.6439C104.339 3.70244 104.329 3.78537 104.31 3.89268C104.29 4 104.28 4.06829 104.28 4.09756V7.87317C104.28 8.53659 104.227 9.13171 104.119 9.65854C104.022 10.1854 103.9 10.5756 103.754 10.8293C103.617 11.1122 103.515 11.2537 103.446 11.2537C103.417 11.2537 103.397 11.2049 103.388 11.1073C103.378 11.0098 103.373 10.9366 103.373 10.8878V7.02439C103.217 7.02439 103.051 7.06829 102.876 7.1561C102.71 7.2439 102.534 7.33659 102.349 7.43415C102.319 7.43415 102.227 7.4 102.071 7.33171ZM118.3 2.67805C119.236 2.67805 119.949 3.01951 120.436 3.70244C120.807 4.21951 120.993 4.78049 120.993 5.38537C120.993 5.92195 120.749 6.42927 120.261 6.90732C119.783 7.37561 119.246 7.60976 118.651 7.60976C117.958 7.60976 117.3 7.37073 116.676 6.89268C115.993 6.36585 115.651 5.76585 115.651 5.09268C115.651 4.43902 115.876 3.88293 116.324 3.42439C116.812 2.92683 117.471 2.67805 118.3 2.67805ZM117.115 10.6098L119.954 10.522C119.954 10.3854 119.954 10.2829 119.954 10.2146C119.954 9.83415 119.934 9.52683 119.895 9.29268C119.866 9.04878 119.797 8.82439 119.69 8.61951C119.554 8.36585 119.485 8.18049 119.485 8.06341C119.485 7.94634 119.544 7.8878 119.661 7.8878C119.846 7.8878 120.124 7.99512 120.495 8.20976C120.866 8.41463 121.051 8.6 121.051 8.76585C121.051 8.8439 121.027 8.9561 120.978 9.10244C120.929 9.24878 120.9 9.36585 120.89 9.45366L120.817 10.4195C120.954 10.4195 121.29 10.3561 121.827 10.2293C122.071 10.1707 122.276 10.1415 122.441 10.1415C122.656 10.1415 122.876 10.2195 123.1 10.3756C123.324 10.5317 123.436 10.7122 123.436 10.9171C123.436 11.0634 123.373 11.1902 123.246 11.2976C123.129 11.3951 122.983 11.4439 122.807 11.4439C122.573 11.4439 122.183 11.4195 121.636 11.3707C121.09 11.3122 120.729 11.2829 120.554 11.2829C119.344 11.2829 118.217 11.322 117.173 11.4C116.139 11.4683 115.427 11.5805 115.036 11.7366C114.968 11.7561 114.812 11.8195 114.568 11.9268C114.432 11.9854 114.319 12.0146 114.232 12.0146C114.036 12.0146 113.656 11.8683 113.09 11.5756C112.524 11.2732 112.241 11.0488 112.241 10.9024C112.241 10.7951 112.373 10.7415 112.636 10.7415L113.646 10.7561C114.29 10.7561 114.822 10.7512 115.241 10.7415C115.671 10.7317 116.076 10.7122 116.456 10.6829C116.456 10.4195 116.363 10.1122 116.178 9.76098C115.963 9.38049 115.749 8.99512 115.534 8.60488C115.534 8.4878 115.617 8.42927 115.783 8.42927C116.036 8.42927 116.339 8.51707 116.69 8.69268C117.041 8.85854 117.217 9.04878 117.217 9.26341C117.217 9.28293 117.197 9.37561 117.158 9.54146C117.129 9.70732 117.115 9.8439 117.115 9.95122V10.6098ZM118.315 3.54146C117.866 3.54146 117.476 3.66829 117.144 3.92195C116.744 4.22439 116.544 4.62927 116.544 5.13659C116.544 5.54634 116.744 5.89756 117.144 6.19024C117.544 6.48293 117.988 6.62927 118.476 6.62927C118.954 6.62927 119.349 6.47805 119.661 6.17561C119.983 5.86341 120.144 5.53659 120.144 5.19512C120.144 4.79512 119.949 4.41951 119.558 4.06829C119.168 3.71707 118.754 3.54146 118.315 3.54146Z" fill="black"/>
</svg>
