<svg width="109" height="130" viewBox="0 0 109 130" fill="none" xmlns="http://www.w3.org/2000/svg">
<path d="M86.3222 62.3657C86.3222 85.9732 72.0729 102.978 54.5 102.978C36.9271 102.978 22.6779 85.9732 22.6779 65C22.6779 44.0267 36.9271 27.0225 54.5 27.0225V62.3657H86.3222Z" fill="white" stroke="black" stroke-width="5" stroke-miterlimit="10"/>
<path d="M71.4313 55.7801C69.0081 55.7801 67.0336 53.8087 67.0336 51.3896C67.0336 49.73 69.5711 46.1298 71.616 43.6755C73.5026 46.1386 75.829 49.7212 75.829 51.3896C75.829 53.8087 73.8544 55.7801 71.4313 55.7801Z" fill="#CCECF0"/>
<path d="M71.5852 45.4624C73.5157 48.145 74.7295 50.529 74.7295 51.3896C74.7295 53.2072 73.2519 54.6824 71.4312 54.6824C69.6106 54.6824 68.1329 53.2072 68.1329 51.3896C68.1329 50.4764 69.615 47.9826 71.5852 45.4624ZM71.6511 41.9501C71.6511 41.9501 65.9341 48.3602 65.9341 51.3896C65.9341 54.419 68.3968 56.8777 71.4312 56.8777C74.4657 56.8777 76.9284 54.419 76.9284 51.3896C76.9284 48.3602 71.6511 41.9501 71.6511 41.9501Z" fill="black"/>
</svg>
