<svg width="9" height="12" viewBox="0 0 9 12" fill="none" xmlns="http://www.w3.org/2000/svg">
<path d="M4.50004 11.4706C2.31484 11.4706 0.540039 9.73057 0.540039 7.58822C0.540039 5.93293 3.21484 2.50234 4.66204 0.825867C6.00484 2.5094 8.46004 5.9294 8.46004 7.58822C8.46004 9.73057 6.68524 11.4706 4.50004 11.4706Z" fill="white"/>
<path d="M4.6476 1.66941C6.2028 3.69176 7.92 6.38471 7.92 7.58824C7.92 9.43765 6.3864 10.9412 4.5 10.9412C2.6136 10.9412 1.08 9.43765 1.08 7.58824C1.08 6.39176 2.9592 3.69176 4.6476 1.66941ZM4.68 0C4.68 0 0 5.15294 0 7.58824C0 10.0235 2.016 12 4.5 12C6.984 12 9 10.0235 9 7.58824C9 5.15294 4.68 0 4.68 0Z" fill="#908F8F"/>
</svg>
