<svg width="293" height="66" viewBox="0 0 293 66" fill="none" xmlns="http://www.w3.org/2000/svg">
<g clip-path="url(#clip0_146_838)">
<path d="M291.92 25.8089V64.9182H22.0998C5.71031 64.9182 1.17883 53.1592 1.17883 53.1592V13.4913L25.9819 25.8089H291.92Z" fill="white"/>
<path d="M293 66H22.0998C13.2839 66 7.80662 62.6484 4.7574 59.8342C1.43291 56.7583 0.218869 53.6754 0.169461 53.5481L0.098877 53.3572V11.7519L26.236 24.727H293V66ZM2.25168 52.94C2.88693 54.3966 7.57369 63.8363 22.0928 63.8363H290.84V26.8907H25.7278L2.25168 15.2379V52.9471V52.94Z" fill="black"/>
<path d="M22.0997 31.8616C21.5068 31.8616 21.0198 31.3808 21.0198 30.7797V28.616C21.0198 28.0221 21.4997 27.5342 22.0997 27.5342C22.6997 27.5342 23.1796 28.015 23.1796 28.616V30.7797C23.1796 31.3737 22.6997 31.8616 22.0997 31.8616Z" fill="black"/>
<path d="M22.0997 56.0229C21.5068 56.0229 21.0198 55.5421 21.0198 54.9411V50.9107C21.0198 50.3167 21.4997 49.8288 22.0997 49.8288C22.6997 49.8288 23.1796 50.3096 23.1796 50.9107V54.9411C23.1796 55.535 22.6997 56.0229 22.0997 56.0229ZM22.0997 47.9692C21.5068 47.9692 21.0198 47.4883 21.0198 46.8873V42.8569C21.0198 42.2629 21.4997 41.775 22.0997 41.775C22.6997 41.775 23.1796 42.2559 23.1796 42.8569V46.8873C23.1796 47.4813 22.6997 47.9692 22.0997 47.9692ZM22.0997 39.9154C21.5068 39.9154 21.0198 39.4346 21.0198 38.8335V34.8031C21.0198 34.2091 21.4997 33.7213 22.0997 33.7213C22.6997 33.7213 23.1796 34.2021 23.1796 34.8031V38.8335C23.1796 39.4275 22.6997 39.9154 22.0997 39.9154Z" fill="black"/>
<path d="M22.0997 62.2171C21.5068 62.2171 21.0198 61.7362 21.0198 61.1352V58.9715C21.0198 58.3775 21.4997 57.8896 22.0997 57.8896C22.6997 57.8896 23.1796 58.3705 23.1796 58.9715V61.1352C23.1796 61.7292 22.6997 62.2171 22.0997 62.2171Z" fill="black"/>
<path d="M50.7849 13.4913V25.8089H25.9818C39.6821 25.8089 50.7849 20.2936 50.7849 13.4913Z" fill="white"/>
<path d="M51.8649 26.8907H25.9818V24.727C38.8422 24.727 49.705 19.5794 49.705 13.4913H51.8649V26.8907ZM40.268 24.727H49.7121V18.943C47.7145 21.3259 44.4183 23.3341 40.268 24.727Z" fill="black"/>
<path d="M115.341 35.9268C115.016 35.6341 114.854 35.3902 114.854 35.1951C114.854 34.9837 115.033 34.878 115.39 34.878C116.008 34.878 116.748 35.1057 117.61 35.561C118.602 36.0813 119.098 36.6016 119.098 37.122L119.024 38.1463V46.7561C119.024 47.8943 119 48.8293 118.951 49.561C118.902 50.2927 118.805 51.0488 118.659 51.8293C118.528 52.5935 118.333 53.4228 118.073 54.3171C117.732 55.5366 117.472 56.1463 117.293 56.1463C117.228 56.1463 117.187 56.065 117.171 55.9024C117.154 55.7561 117.146 55.5528 117.146 55.2927L117.049 38.122C116.87 37.748 116.618 37.3577 116.293 36.9512C115.967 36.5285 115.65 36.187 115.341 35.9268ZM109.244 38.0976C109.65 38.2114 110.179 38.5772 110.829 39.1951C111.496 39.7967 111.829 40.2927 111.829 40.6829C111.829 40.7967 111.789 40.9187 111.707 41.0488C111.691 41.065 111.602 41.1789 111.439 41.3902L110.098 42.9512C110.862 43.3252 111.634 43.6911 112.415 44.0488C113.309 44.4715 113.756 45.1138 113.756 45.9756C113.756 46.2846 113.691 46.5528 113.561 46.7805C113.447 46.9919 113.293 47.0976 113.098 47.0976C112.821 47.0976 112.447 46.7967 111.976 46.1951C110.74 44.6179 109.967 43.7398 109.659 43.561C108.179 44.7805 107.187 45.5528 106.683 45.878C105.447 46.6585 104.252 47.0488 103.098 47.0488L102.976 47.0244L103.512 46.7317C104.504 46.3089 105.569 45.5285 106.707 44.3902C107.846 43.2358 108.724 42.0732 109.341 40.9024V40.8049C109.341 40.5285 109.22 40.1789 108.976 39.7561C108.423 38.7967 108.146 38.2927 108.146 38.2439C108.146 38.0488 108.276 37.9512 108.537 37.9512C108.683 37.9512 108.919 38 109.244 38.0976ZM135.268 40.9512C135.382 41.1138 135.439 41.2683 135.439 41.4146C135.439 41.626 135.333 41.8618 135.122 42.122C134.976 42.3008 134.748 42.5041 134.439 42.7317L135.707 43.1463C136.195 43.2927 136.691 43.4309 137.195 43.561C137.585 43.7724 137.78 44.2114 137.78 44.878C137.78 45.2358 137.715 45.5122 137.585 45.7073C137.455 45.9024 137.285 46 137.073 46C136.829 46 136.602 45.8699 136.39 45.6098C136.098 45.252 135.805 44.8862 135.512 44.5122C135.024 44.0081 134.447 43.6016 133.78 43.2927C132.447 44.5122 131.244 45.3821 130.171 45.9024C129.276 46.3252 128.415 46.5366 127.585 46.5366L127.488 46.4878C127.537 46.439 127.577 46.4065 127.61 46.3902C127.724 46.3252 127.878 46.252 128.073 46.1707C128.87 45.8293 129.919 45.0163 131.219 43.7317C132.65 42.3171 133.366 41.2764 133.366 40.6098C133.366 40.4309 133.276 40.252 133.098 40.0732C132.74 40.0732 132.439 40.1301 132.195 40.2439C131.951 40.3415 131.707 40.439 131.463 40.5366C131.219 40.5366 130.74 40.3415 130.024 39.9512C129.309 39.5447 128.951 39.252 128.951 39.0732C128.951 38.9431 129.098 38.878 129.39 38.878H129.707C130.52 38.878 131.366 38.8211 132.244 38.7073C133.496 38.5447 134.439 38.2927 135.073 37.9512C135.431 37.7236 135.618 37.6098 135.634 37.6098C135.797 37.5285 135.967 37.4878 136.146 37.4878C136.472 37.4878 136.797 37.6098 137.122 37.8537C137.447 38.0813 137.61 38.3496 137.61 38.6585C137.61 39.1301 137.073 39.4553 136 39.6341C135.593 39.6992 135.195 39.7561 134.805 39.8049C134.805 39.9837 134.837 40.1626 134.902 40.3415C134.984 40.5203 135.106 40.7236 135.268 40.9512ZM132.195 49.8049C134.13 49.8049 135.553 49.7886 136.463 49.7561C138.561 49.6748 139.821 49.5285 140.244 49.3171C140.26 49.3008 140.415 49.2114 140.707 49.0488C140.87 48.9512 141.016 48.9024 141.146 48.9024C141.341 48.9024 141.707 49.0976 142.244 49.4878C142.78 49.878 143.049 50.1707 143.049 50.3659C143.049 50.4634 143.008 50.6098 142.927 50.8049C142.846 50.9837 142.789 51.2439 142.756 51.5854C142.724 51.9106 142.683 52.3577 142.634 52.9268C142.504 53.8374 142.26 54.5691 141.902 55.122C141.431 55.8374 141.146 56.1951 141.049 56.1951C140.967 56.1951 140.927 56.0569 140.927 55.7805V50.7073C139.724 50.7073 138.78 50.7236 138.098 50.7561C137.415 50.7724 136.894 50.8374 136.537 50.9512C136.439 50.9837 135.976 51.1545 135.146 51.4634C134.756 51.6098 134.537 51.6829 134.488 51.6829C134.244 51.6829 133.691 51.4472 132.829 50.9756C131.984 50.5041 131.561 50.1789 131.561 50C131.561 49.8699 131.772 49.8049 132.195 49.8049ZM139.439 35.878C139.13 35.6016 138.976 35.3659 138.976 35.1707C138.976 34.9593 139.154 34.8537 139.512 34.8537C140.098 34.8537 140.878 35.1138 141.854 35.6341C142.829 36.1382 143.317 36.6341 143.317 37.122L143.244 37.878V43.9024C143.65 43.9024 144.179 43.7561 144.829 43.4634C145.187 43.3008 145.463 43.2195 145.659 43.2195C146 43.2195 146.35 43.3252 146.707 43.5366C147.065 43.748 147.244 44.0081 147.244 44.3171C147.244 44.5447 147.163 44.7317 147 44.878C146.837 45.0244 146.602 45.0976 146.293 45.0976C145.935 45.0976 145.659 45.0894 145.463 45.0732C144.455 44.9919 143.707 44.9512 143.219 44.9512C143.106 45.4228 142.878 46.0976 142.537 46.9756C142.098 48.0813 141.756 48.6341 141.512 48.6341C141.447 48.6341 141.415 48.5203 141.415 48.2927L141.317 38.1463C141.187 37.8049 140.935 37.4228 140.561 37C140.187 36.561 139.813 36.187 139.439 35.878ZM164.366 35.9756C164.024 35.6829 163.854 35.439 163.854 35.2439C163.854 35.0163 164.073 34.9024 164.512 34.9024C165.13 34.9024 165.878 35.1301 166.756 35.5854C167.764 36.1057 168.268 36.6423 168.268 37.1951L168.195 38.0732V46.6341C168.455 46.6341 168.992 46.5041 169.805 46.2439C170.211 46.1138 170.537 46.0488 170.78 46.0488C171.171 46.0488 171.52 46.1463 171.829 46.3415C172.154 46.5203 172.317 46.7886 172.317 47.1463C172.317 47.3902 172.236 47.5935 172.073 47.7561C171.927 47.9187 171.715 48 171.439 48C171.244 48 170.593 47.8943 169.488 47.6829C168.984 47.5854 168.553 47.5366 168.195 47.5366C168.179 48.3008 168.163 48.9106 168.146 49.3659C168.081 50.6504 167.976 51.7154 167.829 52.561C167.748 53 167.561 53.6667 167.268 54.561C166.911 55.6341 166.658 56.1707 166.512 56.1707C166.447 56.1707 166.415 55.9512 166.415 55.5122V55.3415C166.415 54.5772 166.398 53.7398 166.366 52.8293C166.35 51.9024 166.333 51.1707 166.317 50.6341V38.1951C166.138 37.8374 165.829 37.4228 165.39 36.9512C165.065 36.6098 164.724 36.2846 164.366 35.9756ZM158.951 43.8537C159.911 43.8537 160.724 44.1057 161.39 44.6098C162.203 45.2276 162.61 46.0894 162.61 47.1951C162.61 48.0894 162.301 48.8618 161.683 49.5122C161.065 50.1626 160.26 50.4878 159.268 50.4878C158.163 50.4878 157.228 50.122 156.463 49.3902C155.764 48.7236 155.415 47.9593 155.415 47.0976C155.415 46.3496 155.707 45.6504 156.293 45C156.992 44.2358 157.878 43.8537 158.951 43.8537ZM154.902 43.3902C154.333 43.0813 153.919 42.8293 153.658 42.6341C153.333 42.3902 153.171 42.2033 153.171 42.0732C153.171 41.9106 153.406 41.8293 153.878 41.8293C155.943 41.8293 157.423 41.7967 158.317 41.7317C159.211 41.6667 159.943 41.5285 160.512 41.3171C160.658 41.252 160.862 41.1626 161.122 41.0488C161.382 40.935 161.585 40.878 161.732 40.878C161.959 40.878 162.244 41 162.585 41.2439C162.927 41.4715 163.098 41.6992 163.098 41.9268C163.098 42.0894 163.024 42.2276 162.878 42.3415C162.732 42.4553 162.537 42.5122 162.293 42.5122C161.187 42.5122 160.032 42.5935 158.829 42.7561C157.626 42.9024 156.829 43.0894 156.439 43.3171C156.211 43.4309 156.041 43.5203 155.927 43.5854C155.829 43.6341 155.74 43.6585 155.658 43.6585C155.496 43.6585 155.244 43.5691 154.902 43.3902ZM156.341 37.9268C157.317 38.3659 158.504 38.5854 159.902 38.5854C160.471 38.5854 160.756 38.7642 160.756 39.122C160.756 39.5772 160.455 39.9024 159.854 40.0976C159.447 40.2276 158.959 40.2927 158.39 40.2927C157.951 40.2927 157.593 40.252 157.317 40.1707C157.041 40.0894 156.772 39.9187 156.512 39.6585C156.268 39.3984 156.057 39.1463 155.878 38.9024C155.618 38.5447 155.488 38.2602 155.488 38.0488C155.488 37.8699 155.585 37.7805 155.78 37.7805C155.959 37.7805 156.146 37.8293 156.341 37.9268ZM159.073 45.3659C158.358 45.3659 157.829 45.4553 157.488 45.6341C157.016 45.878 156.78 46.3171 156.78 46.9512C156.78 47.4878 157.032 47.9431 157.537 48.3171C158.057 48.6911 158.602 48.878 159.171 48.878C159.724 48.878 160.187 48.7236 160.561 48.4146C160.951 48.0894 161.146 47.7236 161.146 47.3171C161.146 46.8943 161 46.4959 160.707 46.122C160.317 45.6179 159.772 45.3659 159.073 45.3659ZM190.049 36.0488C189.707 35.7561 189.537 35.5041 189.537 35.2927C189.537 35.0163 189.797 34.878 190.317 34.878C190.967 34.878 191.715 35.0976 192.561 35.5366C193.52 36.0407 194 36.5772 194 37.1463L193.927 38V47.561C193.927 49.561 193.813 51.2114 193.585 52.5122C193.439 53.374 193.211 54.1951 192.902 54.9756C192.593 55.7561 192.382 56.1463 192.268 56.1463C192.171 56.1463 192.122 55.9512 192.122 55.561L191.951 38.3415C191.821 38.0488 191.593 37.6992 191.268 37.2927C190.862 36.8049 190.455 36.3902 190.049 36.0488ZM179.78 39.6341C180.447 39.1626 181.211 38.9268 182.073 38.9268C183.341 38.9268 184.512 39.3902 185.585 40.3171C186.658 41.2439 187.195 42.3089 187.195 43.5122C187.439 43.7724 187.61 43.9756 187.707 44.122C187.967 44.4959 188.097 44.9106 188.097 45.3659C188.097 45.8374 187.943 46.1301 187.634 46.2439C187.325 46.3252 187.024 46.4065 186.732 46.4878C185.707 47.1545 184.398 47.8618 182.805 48.6098C180.854 49.5366 179.504 50 178.756 50C178.61 50 178.488 49.9837 178.39 49.9512C178.374 49.9512 178.358 49.935 178.341 49.9024C178.439 49.8211 178.52 49.7724 178.585 49.7561C179.593 49.4309 181.032 48.5935 182.902 47.2439C184.772 45.878 186.016 44.8049 186.634 44.0244C186.325 42.8699 185.52 42.0894 184.219 41.6829C183.683 41.5203 182.707 41.3821 181.293 41.2683C179.878 41.1382 179.171 40.8699 179.171 40.4634C179.171 40.2033 179.374 39.9268 179.78 39.6341Z" fill="black"/>
<path d="M25.9818 25.8089C39.6802 25.8089 50.7849 20.2941 50.7849 13.4913C50.7849 6.68852 39.6802 1.17377 25.9818 1.17377C12.2834 1.17377 1.17871 6.68852 1.17871 13.4913C1.17871 20.2941 12.2834 25.8089 25.9818 25.8089Z" fill="white"/>
<path d="M25.9819 26.9897C11.4134 26.9897 0 21.0572 0 13.4913C0 5.92543 11.4134 0 25.9819 0C40.5503 0 51.9637 5.92543 51.9637 13.4913C51.9637 21.0572 40.5503 26.9826 25.9819 26.9826V26.9897ZM25.9819 2.36169C13.1709 2.35462 2.35044 7.45275 2.35044 13.4913C2.35044 19.5299 13.1709 24.628 25.9819 24.628C38.7928 24.628 49.6133 19.5299 49.6133 13.4913C49.6133 7.45275 38.7857 2.35462 25.9819 2.35462V2.36169Z" fill="black"/>
<path d="M25.9819 17.2318C31.5797 17.2318 36.1177 14.9778 36.1177 12.1973C36.1177 9.41686 31.5797 7.16284 25.9819 7.16284C20.384 7.16284 15.8461 9.41686 15.8461 12.1973C15.8461 14.9778 20.384 17.2318 25.9819 17.2318Z" fill="white"/>
<path d="M25.9819 18.3137C19.6929 18.3137 14.7661 15.6267 14.7661 12.1973C14.7661 8.76794 19.6929 6.08099 25.9819 6.08099C32.2709 6.08099 37.1976 8.76794 37.1976 12.1973C37.1976 15.6267 32.2709 18.3137 25.9819 18.3137ZM25.9819 8.2447C20.6457 8.2447 16.926 10.3306 16.926 12.1973C16.926 14.0641 20.6457 16.15 25.9819 16.15C31.318 16.15 35.0378 14.0641 35.0378 12.1973C35.0378 10.3306 31.318 8.2447 25.9819 8.2447Z" fill="black"/>
</g>
<defs>
<clipPath id="clip0_146_838">
<rect width="293" height="66" fill="white"/>
</clipPath>
</defs>
</svg>
