<svg width="293" height="66" viewBox="0 0 293 66" fill="none" xmlns="http://www.w3.org/2000/svg">
<g clip-path="url(#clip0_146_956)">
<path d="M291.92 25.8089V64.9181H22.0998C5.71031 64.9181 1.17883 53.1592 1.17883 53.1592V13.4913L25.9819 25.8089H291.92Z" fill="white"/>
<path d="M293 66H22.0998C13.2839 66 7.80662 62.6484 4.7574 59.8341C1.43291 56.7583 0.218869 53.6754 0.169461 53.5481L0.098877 53.3572V11.7519L26.236 24.727H293V66ZM2.25168 52.94C2.88693 54.3966 7.57369 63.8363 22.0928 63.8363H290.84V26.8907H25.7278L2.25168 15.2378V52.9471V52.94Z" fill="black"/>
<path d="M22.0997 31.8616C21.5068 31.8616 21.0198 31.3808 21.0198 30.7797V28.616C21.0198 28.0221 21.4997 27.5342 22.0997 27.5342C22.6997 27.5342 23.1796 28.015 23.1796 28.616V30.7797C23.1796 31.3737 22.6997 31.8616 22.0997 31.8616Z" fill="black"/>
<path d="M22.0997 56.0229C21.5068 56.0229 21.0198 55.5421 21.0198 54.9411V50.9107C21.0198 50.3167 21.4997 49.8288 22.0997 49.8288C22.6997 49.8288 23.1796 50.3096 23.1796 50.9107V54.9411C23.1796 55.535 22.6997 56.0229 22.0997 56.0229ZM22.0997 47.9692C21.5068 47.9692 21.0198 47.4883 21.0198 46.8873V42.8569C21.0198 42.2629 21.4997 41.775 22.0997 41.775C22.6997 41.775 23.1796 42.2559 23.1796 42.8569V46.8873C23.1796 47.4813 22.6997 47.9692 22.0997 47.9692ZM22.0997 39.9154C21.5068 39.9154 21.0198 39.4346 21.0198 38.8335V34.8031C21.0198 34.2091 21.4997 33.7213 22.0997 33.7213C22.6997 33.7213 23.1796 34.2021 23.1796 34.8031V38.8335C23.1796 39.4275 22.6997 39.9154 22.0997 39.9154Z" fill="black"/>
<path d="M22.0997 62.2171C21.5068 62.2171 21.0198 61.7362 21.0198 61.1352V58.9715C21.0198 58.3775 21.4997 57.8896 22.0997 57.8896C22.6997 57.8896 23.1796 58.3705 23.1796 58.9715V61.1352C23.1796 61.7292 22.6997 62.2171 22.0997 62.2171Z" fill="black"/>
<path d="M50.7849 13.4913V25.8089H25.9818C39.6821 25.8089 50.7849 20.2936 50.7849 13.4913Z" fill="white"/>
<path d="M51.8649 26.8907H25.9818V24.727C38.8422 24.727 49.705 19.5794 49.705 13.4913H51.8649V26.8907ZM40.268 24.727H49.7121V18.943C47.7145 21.3259 44.4183 23.3341 40.268 24.727Z" fill="black"/>
<path d="M89.3199 42.4146C88.9785 42.2683 88.6126 42.0894 88.2224 41.878C87.6695 41.5691 87.3931 41.3252 87.3931 41.1463C87.3931 40.9675 87.5882 40.878 87.9785 40.878C90.385 40.878 92.0191 40.8374 92.8809 40.7561C93.759 40.6748 94.5069 40.5041 95.1248 40.2439C95.2712 40.1789 95.4338 40.1057 95.6126 40.0244C95.8077 39.9431 95.9785 39.9024 96.1248 39.9024C96.385 39.9024 96.6777 40.0081 97.0029 40.2195C97.3443 40.4309 97.5151 40.6585 97.5151 40.9024C97.5151 41.1301 97.4094 41.3333 97.198 41.5122C97.0029 41.6748 96.7671 41.7561 96.4907 41.7561H95.5151C94.198 41.7561 93.2224 41.7967 92.5882 41.878C91.9703 41.9431 91.4419 42.0569 91.0029 42.2195C90.824 42.2683 90.637 42.3415 90.4419 42.439C90.263 42.5366 90.1167 42.5854 90.0029 42.5854C89.8403 42.5854 89.6126 42.5285 89.3199 42.4146ZM90.4419 37.6341C90.6208 37.6504 91.011 37.6667 91.6126 37.6829C92.2143 37.6992 92.5476 37.7073 92.6126 37.7073H94.5638C95.0029 37.7073 95.2224 37.8862 95.2224 38.2439C95.2224 38.6829 94.8809 39.0732 94.198 39.4146C93.6289 39.6911 93.1004 39.8293 92.6126 39.8293H92.2956C91.9866 39.8293 91.7752 39.813 91.6614 39.7805C91.5476 39.7317 91.3199 39.5854 90.9785 39.3415C90.7021 39.1789 90.4256 38.9593 90.1492 38.6829C89.7752 38.3089 89.5882 38.0163 89.5882 37.8049C89.5882 37.6748 89.7264 37.6098 90.0029 37.6098L90.4419 37.6341ZM95.198 49.9512L100.735 49.5122V38.2927C100.735 37.9024 100.336 37.3415 99.5395 36.6098C98.759 35.8618 98.3687 35.4065 98.3687 35.2439C98.3687 35.0325 98.5801 34.9268 99.0029 34.9268C99.572 34.9268 100.344 35.1707 101.32 35.6585C102.296 36.1301 102.783 36.6016 102.783 37.0732C102.783 37.1382 102.767 37.2846 102.735 37.5122C102.702 37.7398 102.686 37.9431 102.686 38.122V47.8049C102.978 47.8049 103.556 47.6829 104.418 47.439C104.824 47.3252 105.174 47.2683 105.466 47.2683C105.824 47.2683 106.157 47.374 106.466 47.5854C106.791 47.7967 106.954 48.065 106.954 48.3902C106.954 48.9593 106.588 49.2439 105.857 49.2439C105.434 49.2439 105.044 49.2276 104.686 49.1951C103.466 49.0813 102.8 49.0244 102.686 49.0244C102.686 49.7561 102.645 50.5691 102.564 51.4634C102.499 52.3577 102.377 53.1057 102.198 53.7073C101.873 54.7154 101.629 55.3984 101.466 55.7561C101.304 56.1138 101.165 56.2927 101.052 56.2927C100.954 56.2927 100.905 56.0894 100.905 55.6829L100.735 51.0244C99.3687 51.0244 97.6126 51.187 95.4663 51.5122C93.3199 51.8374 91.889 52.1382 91.1736 52.4146C90.9785 52.4959 90.7834 52.6016 90.5882 52.7317C90.3931 52.8455 90.2305 52.9024 90.1004 52.9024C89.7915 52.9024 89.198 52.6423 88.3199 52.122C87.4582 51.6016 87.0273 51.2276 87.0273 51C87.0273 50.8049 87.3199 50.7073 87.9053 50.7073H88.2712C89.133 50.7073 90.1492 50.626 91.3199 50.4634C91.7102 50.4146 92.2143 50.3333 92.8321 50.2195C92.7996 49.9106 92.7102 49.6504 92.5638 49.439C92.4338 49.2114 92.3037 48.9919 92.1736 48.7805L92.2712 48.561C91.5232 48.3333 90.889 47.935 90.3687 47.3659C89.8484 46.7805 89.5882 46.1707 89.5882 45.5366C89.5882 44.7236 89.8728 44.0569 90.4419 43.5366C91.076 42.9675 91.946 42.6829 93.0517 42.6829C93.9134 42.6829 94.6858 42.9106 95.3687 43.3659C96.1655 43.9024 96.5638 44.6341 96.5638 45.561C96.5638 46.2114 96.385 46.7805 96.0273 47.2683C95.6858 47.7398 95.133 48.1626 94.3687 48.5366C94.8565 48.7642 95.1004 49.0163 95.1004 49.2927C95.1004 49.5528 95.133 49.7724 95.198 49.9512ZM92.9541 44.1707C92.2874 44.1707 91.8077 44.2846 91.5151 44.5122C91.2386 44.7236 91.1004 45.0244 91.1004 45.4146C91.1004 45.8699 91.2793 46.2683 91.637 46.6098C92.011 46.935 92.4907 47.0976 93.076 47.0976H93.3199C93.8565 47.0976 94.2468 47.0407 94.4907 46.9268C94.8809 46.748 95.076 46.3984 95.076 45.878C95.076 45.374 94.8647 44.9675 94.4419 44.6585C94.0354 44.3333 93.5395 44.1707 92.9541 44.1707ZM119.686 40.9024C119.832 41.0976 119.905 41.3008 119.905 41.5122C119.905 41.7398 119.832 41.9593 119.686 42.1707C119.556 42.3821 119.361 42.5772 119.1 42.7561C120.157 43.1138 120.922 43.3902 121.393 43.5854C122.239 43.9593 122.661 44.5122 122.661 45.2439C122.661 46.0081 122.417 46.3902 121.93 46.3902C121.67 46.3902 121.263 46.0081 120.71 45.2439C120.043 44.3171 119.352 43.6911 118.637 43.3659C117.287 44.5854 116.352 45.3821 115.832 45.7561C114.596 46.6341 113.458 47.0732 112.417 47.0732L112.32 47.0244L112.905 46.7073C113.67 46.3984 114.686 45.5366 115.954 44.122C117.304 42.626 117.978 41.5285 117.978 40.8293C117.978 40.5041 117.84 40.1463 117.564 39.7561C117.32 39.7561 117.092 39.8211 116.881 39.9512C116.67 40.0813 116.507 40.1463 116.393 40.1463C116.133 40.1463 115.637 39.9593 114.905 39.5854C114.174 39.1951 113.808 38.9106 113.808 38.7317C113.808 38.6016 114.003 38.5366 114.393 38.5366H114.978C115.84 38.5366 116.596 38.4959 117.247 38.4146C118.255 38.2846 119.043 38.065 119.613 37.7561C120.019 37.5285 120.352 37.4146 120.613 37.4146C120.954 37.4146 121.32 37.5203 121.71 37.7317C122.117 37.9268 122.32 38.1789 122.32 38.4878C122.32 38.9268 121.905 39.1789 121.076 39.2439C120.247 39.3089 119.491 39.3659 118.808 39.4146C118.808 39.6748 118.922 39.9512 119.149 40.2439C119.328 40.4715 119.507 40.6911 119.686 40.9024ZM123.954 35.7805C123.743 35.6179 123.637 35.4553 123.637 35.2927C123.637 35.0488 123.889 34.9268 124.393 34.9268C124.946 34.9268 125.621 35.1463 126.417 35.5854C127.312 36.0894 127.759 36.5772 127.759 37.0488C127.759 37.1138 127.743 37.2358 127.71 37.4146C127.678 37.5935 127.661 37.748 127.661 37.878V44.0732C127.97 44.0732 128.401 43.9837 128.954 43.8049C129.507 43.626 129.938 43.5366 130.247 43.5366C130.637 43.5366 130.987 43.6179 131.296 43.7805C131.604 43.9268 131.759 44.1789 131.759 44.5366C131.759 44.7642 131.678 44.9675 131.515 45.1463C131.369 45.3089 131.165 45.3902 130.905 45.3902C130.645 45.3902 130.279 45.3577 129.808 45.2927C128.751 45.1463 128.019 45.0732 127.613 45.0732C127.45 45.7073 127.239 46.3821 126.978 47.0976C126.572 48.2033 126.255 48.7561 126.027 48.7561C125.978 48.7561 125.946 48.6911 125.93 48.561C125.913 48.4146 125.905 48.2358 125.905 48.0244L125.71 37.9512C125.596 37.6098 125.377 37.2439 125.052 36.8537C124.726 36.4634 124.361 36.1057 123.954 35.7805ZM123.71 48.8049C124.783 48.8049 125.678 49.1951 126.393 49.9756C127.06 50.7073 127.393 51.5285 127.393 52.439C127.393 53.4146 127.117 54.2439 126.564 54.9268C125.913 55.7236 125.027 56.122 123.905 56.122C122.653 56.122 121.629 55.6667 120.832 54.7561C120.165 53.9919 119.832 53.1951 119.832 52.3659C119.832 51.2927 120.182 50.4309 120.881 49.7805C121.58 49.1301 122.523 48.8049 123.71 48.8049ZM123.759 50.4146C123.011 50.4146 122.385 50.6098 121.881 51C121.377 51.3902 121.125 51.8374 121.125 52.3415C121.125 52.9756 121.393 53.4797 121.93 53.8537C122.483 54.2276 123.1 54.4146 123.783 54.4146C124.434 54.4146 124.978 54.252 125.417 53.9268C125.922 53.5528 126.174 53.0569 126.174 52.439C126.174 51.7561 125.938 51.252 125.466 50.9268C124.995 50.5854 124.426 50.4146 123.759 50.4146ZM151.539 37.8293C151.474 37.4878 151.092 37 150.393 36.3659C149.71 35.7317 149.369 35.3415 149.369 35.1951C149.369 34.9837 149.572 34.878 149.978 34.878C150.434 34.878 151.141 35.0976 152.1 35.5366C153.06 35.9593 153.539 36.3577 153.539 36.7317C153.539 36.8293 153.515 36.9837 153.466 37.1951C153.434 37.3902 153.417 37.5285 153.417 37.6098V41.9024C153.417 42.9756 153.263 43.8862 152.954 44.6341C152.71 45.2195 152.336 45.7967 151.832 46.3659C152.206 46.6585 152.482 46.8862 152.661 47.0488C153.1 47.4553 153.32 47.7317 153.32 47.878C153.125 48.2846 152.946 48.6911 152.783 49.0976C152.621 49.5041 152.539 49.8293 152.539 50.0732C152.8 50.2846 152.97 50.4553 153.052 50.5854C153.149 50.6992 153.198 50.8293 153.198 50.9756C153.198 51.2358 153.068 51.4228 152.808 51.5366C152.564 51.6504 152.279 51.7073 151.954 51.7073L147.198 52.1463V53.3415C147.198 53.6667 147.271 53.8862 147.417 54C147.564 54.1301 147.848 54.1951 148.271 54.1951C149.133 54.1951 149.881 54.1382 150.515 54.0244C151.149 53.9106 151.71 53.813 152.198 53.7317H152.344C152.767 53.7317 152.978 53.9024 152.978 54.2439C152.978 54.9756 152.222 55.5285 150.71 55.9024C150.06 56.065 149.499 56.1463 149.027 56.1463C148.426 56.1463 147.808 55.8943 147.174 55.3902C146.442 54.8049 146.076 54.1626 146.076 53.4634V52.8049C146.076 52.6098 145.735 52.2927 145.052 51.8537C144.385 51.3984 144.052 51.0813 144.052 50.9024C144.052 50.6911 144.287 50.5854 144.759 50.5854C146.206 50.5854 147.466 50.5366 148.539 50.439C149.613 50.3252 150.507 50.1951 151.222 50.0488V48.0488C150.149 48.0488 149.255 48.065 148.539 48.0976C147.84 48.1301 147.214 48.2846 146.661 48.561C146.255 48.7398 145.995 48.8293 145.881 48.8293C145.637 48.8293 145.182 48.626 144.515 48.2195C143.865 47.7967 143.539 47.5041 143.539 47.3415C143.539 47.2276 143.694 47.1707 144.003 47.1707L146.759 47.1951C148.125 47.1951 149.133 47.1301 149.783 47C150.45 46.8537 151.076 46.6341 151.661 46.3415L151.539 37.8293ZM143.832 37.2439C144.222 37.3089 144.702 37.6423 145.271 38.2439C145.856 38.8455 146.149 39.3415 146.149 39.7317C146.149 39.8455 146.125 39.9431 146.076 40.0244C146.06 40.0407 145.938 40.1789 145.71 40.439L144.832 41.3659C144.962 41.4797 145.556 41.7561 146.613 42.1951C147.344 42.5041 147.71 42.935 147.71 43.4878C147.71 43.813 147.629 44.1138 147.466 44.3902C147.32 44.6504 147.141 44.7805 146.93 44.7805C146.686 44.7805 146.133 44.2195 145.271 43.0976C144.8 42.4797 144.434 42.0813 144.174 41.9024C143.263 42.748 142.296 43.4878 141.271 44.122C139.922 44.9512 138.783 45.3659 137.856 45.3659L137.735 45.3415C137.783 45.2927 137.816 45.2602 137.832 45.2439C137.913 45.1789 138.011 45.122 138.125 45.0732C139.133 44.6504 140.214 43.8293 141.369 42.6098C142.312 41.6341 143.1 40.626 143.735 39.5854C143.735 39.2764 143.653 38.935 143.491 38.561C143.328 38.187 143.165 37.7967 143.003 37.3902C143.003 37.2602 143.125 37.1951 143.369 37.1951L143.832 37.2439ZM188.259 44.1951C188.259 43.0894 188.243 41.9756 188.21 40.8537C188.178 39.7317 188.145 38.7073 188.113 37.7805C188.015 37.4878 187.641 37.0244 186.991 36.3902C186.356 35.7398 186.039 35.3496 186.039 35.2195C186.039 34.9919 186.267 34.878 186.722 34.878C187.356 34.878 188.064 35.0976 188.844 35.5366C189.722 36.0407 190.161 36.5772 190.161 37.1463L190.113 37.8049V43.2439C190.373 43.2439 190.861 43.0976 191.576 42.8049C191.966 42.6423 192.275 42.561 192.503 42.561C192.877 42.561 193.251 42.6585 193.625 42.8537C193.999 43.0325 194.186 43.2927 194.186 43.6341C194.186 43.8618 194.096 44.0569 193.917 44.2195C193.755 44.3659 193.519 44.439 193.21 44.439C192.917 44.439 192.535 44.4065 192.064 44.3415C191.007 44.1951 190.308 44.122 189.966 44.122C189.771 44.5447 189.608 44.878 189.478 45.122C189.104 45.8211 188.771 46.3415 188.478 46.6829C188.966 46.9431 189.348 47.1951 189.625 47.439C189.901 47.6667 190.039 47.8618 190.039 48.0244C190.039 48.1382 189.869 48.5447 189.527 49.2439C189.348 49.6179 189.259 49.9187 189.259 50.1463C189.356 50.2602 189.462 50.374 189.576 50.4878C189.69 50.6016 189.747 50.7317 189.747 50.878C189.747 51.3333 189.43 51.6016 188.795 51.6829C188.178 51.748 187.421 51.8455 186.527 51.9756C185.633 52.0894 184.917 52.1463 184.381 52.1463V53.6098C184.381 53.8699 184.413 54.0325 184.478 54.0976C184.543 54.1626 184.682 54.1951 184.893 54.1951H185.113C185.958 54.1951 186.682 54.1382 187.283 54.0244C187.901 53.9268 188.503 53.8211 189.088 53.7073C189.527 53.7073 189.747 53.8943 189.747 54.2683C189.747 54.8862 189.283 55.374 188.356 55.7317C187.641 56.0081 186.926 56.1463 186.21 56.1463C185.56 56.1463 184.934 55.9024 184.332 55.4146C183.73 54.9431 183.43 54.4146 183.43 53.8293V53.0244C183.43 52.7642 183.113 52.3984 182.478 51.9268C181.861 51.439 181.552 51.1138 181.552 50.9512C181.552 50.7236 181.787 50.6098 182.259 50.6098C183.69 50.6098 184.852 50.5691 185.747 50.4878C186.657 50.4065 187.389 50.3008 187.942 50.1707V48.1951C187.373 48.1951 186.69 48.252 185.893 48.3659C185.096 48.4634 184.511 48.6016 184.137 48.7805C183.779 48.9593 183.519 49.0488 183.356 49.0488C183.064 49.0488 182.584 48.8862 181.917 48.561C181.267 48.2195 180.942 47.9431 180.942 47.7317C180.942 47.6016 181.104 47.5366 181.43 47.5366L183.771 47.561C185.121 47.561 186.113 47.4878 186.747 47.3415C187.381 47.1951 187.917 46.9756 188.356 46.6829C188.356 46.3577 188.34 45.9512 188.308 45.4634C188.275 44.9756 188.259 44.5528 188.259 44.1951ZM183.991 38.3171C184.267 38.5122 184.405 38.7561 184.405 39.0488C184.405 39.9919 184.356 40.9431 184.259 41.9024C184.161 42.8455 184.007 43.5772 183.795 44.0976C183.958 44.2927 184.064 44.4309 184.113 44.5122C184.243 44.7073 184.308 44.8699 184.308 45C184.308 45.3577 183.901 45.6016 183.088 45.7317C182.291 45.8618 181.373 45.9268 180.332 45.9268L178.966 45.9024C178.901 46.1301 178.836 46.3089 178.771 46.439C178.657 46.6504 178.519 46.7561 178.356 46.7561C178.048 46.7561 177.852 46.4634 177.771 45.878C177.69 45.2764 177.584 44.5854 177.454 43.8049C177.324 43.0244 177.202 42.4228 177.088 42C176.991 41.561 176.674 41.0325 176.137 40.4146C175.617 39.7967 175.356 39.439 175.356 39.3415C175.356 39.1138 175.576 39 176.015 39C176.552 39 177.161 39.187 177.844 39.561C178.527 39.9187 178.869 40.3333 178.869 40.8049L178.82 41.0976C179.096 41.0976 179.397 41 179.722 40.8049C180.048 40.5935 180.308 40.4878 180.503 40.4878C180.795 40.4878 181.072 40.5772 181.332 40.7561C181.592 40.9187 181.722 41.1382 181.722 41.4146C181.722 41.7561 181.332 41.9837 180.552 42.0976C179.657 42.1626 179.121 42.2033 178.942 42.2195V44.9756C179.332 44.9756 179.893 44.9024 180.625 44.7561C181.356 44.6098 182.104 44.4228 182.869 44.1951L182.625 40.0976C182.592 39.8862 182.356 39.3496 181.917 38.4878C181.722 38.0976 181.625 37.8293 181.625 37.6829C181.625 37.4715 181.747 37.3659 181.991 37.3659C182.3 37.3659 182.657 37.4715 183.064 37.6829C183.324 37.8293 183.633 38.0407 183.991 38.3171ZM201.405 38.2195C201.877 37.8943 202.535 37.7317 203.381 37.7317C204.747 37.7317 205.795 38.1382 206.527 38.9512C207.161 39.6667 207.6 40.7317 207.844 42.1463C208.462 42.5854 208.771 43.1626 208.771 43.878C208.771 44.2846 208.568 44.561 208.161 44.7073C207.787 44.8049 207.421 44.9024 207.064 45C206.039 45.5041 205.023 45.9431 204.015 46.3171C202.633 46.8211 201.576 47.0732 200.844 47.0732C200.714 47.0732 200.592 47.0569 200.478 47.0244C200.446 47.0244 200.397 47 200.332 46.9512C200.397 46.8862 200.462 46.8455 200.527 46.8293C201.617 46.5203 202.787 45.9675 204.039 45.1707C205.194 44.439 206.21 43.6341 207.088 42.7561C206.974 41.3089 205.869 40.3984 203.771 40.0244C201.69 39.6504 200.649 39.3089 200.649 39C200.649 38.7561 200.901 38.4959 201.405 38.2195ZM207.844 52.8293C207.747 52.6016 207.438 52.1463 206.917 51.4634C206.462 50.8618 206.234 50.4715 206.234 50.2927C206.234 50.0163 206.405 49.878 206.747 49.878C207.234 49.878 207.804 50.0732 208.454 50.4634C209.121 50.8374 209.454 51.2439 209.454 51.6829C209.454 51.7967 209.421 51.9837 209.356 52.2439C209.291 52.5041 209.259 52.7073 209.259 52.8537V53.5854C209.259 53.7805 209.34 53.9106 209.503 53.9756C209.682 54.0569 209.901 54.0976 210.161 54.0976H210.698C211.397 54.0976 211.934 54.065 212.308 54C212.779 53.8699 213.259 53.748 213.747 53.6341L214.283 53.5854C214.625 53.5854 214.877 53.6585 215.039 53.8049C215.218 53.9675 215.308 54.1545 215.308 54.3659C215.308 54.9187 214.763 55.3659 213.674 55.7073C212.812 55.9837 212.039 56.122 211.356 56.122C210.153 56.122 209.259 55.6341 208.674 54.6585C208.527 54.4146 208.251 53.8049 207.844 52.8293ZM211.844 41.6098C211.714 41.6748 211.592 41.7317 211.478 41.7805C211.365 41.8293 211.234 41.8537 211.088 41.8537C210.86 41.8537 210.462 41.7236 209.893 41.4634C209.34 41.2033 209.064 40.9837 209.064 40.8049C209.064 40.6911 209.169 40.6016 209.381 40.5366C209.608 40.4715 209.836 40.439 210.064 40.439C210.665 40.3902 211.3 40.2764 211.966 40.0976C212.633 39.9187 213.226 39.7073 213.747 39.4634V38.2683C213.633 37.7967 213.218 37.2114 212.503 36.5122C211.804 35.7967 211.454 35.374 211.454 35.2439C211.454 35 211.763 34.878 212.381 34.878C212.901 34.878 213.625 35.1626 214.552 35.7317C215.478 36.2846 215.942 36.813 215.942 37.3171C215.942 37.3984 215.909 37.5691 215.844 37.8293C215.795 38.0894 215.771 38.3008 215.771 38.4634V40.6341C215.771 43.0081 215.722 44.9756 215.625 46.5366C215.527 48.0976 215.3 49.2276 214.942 49.9268C214.698 50.3984 214.495 50.7398 214.332 50.9512C214.186 51.1463 214.08 51.2439 214.015 51.2439C213.934 51.2439 213.885 51.1382 213.869 50.9268C213.852 50.6992 213.844 50.561 213.844 50.5122V46.5854C213.503 46.6179 213.153 46.6585 212.795 46.7073C212.438 46.7398 212.137 46.8049 211.893 46.9024C211.763 46.9837 211.641 47.0488 211.527 47.0976C211.43 47.1463 211.332 47.1707 211.234 47.1707C210.958 47.1707 210.552 46.8943 210.015 46.3415C209.495 45.7724 209.234 45.3577 209.234 45.0976C209.234 44.935 209.356 44.8537 209.6 44.8537C209.926 44.8537 210.389 44.9187 210.991 45.0488C211.608 45.1626 212.056 45.2195 212.332 45.2195C212.755 45.2195 213.243 45.1545 213.795 45.0244L213.747 41.0976C213.389 41.0976 213.031 41.1545 212.674 41.2683C212.625 41.2846 212.348 41.3984 211.844 41.6098ZM226.478 52C226.478 52.3415 226.356 52.6341 226.113 52.878C225.869 53.122 225.576 53.2439 225.234 53.2439C224.893 53.2439 224.592 53.1301 224.332 52.9024C224.088 52.6585 223.966 52.3577 223.966 52C223.966 51.6585 224.08 51.3659 224.308 51.122C224.535 50.878 224.844 50.7561 225.234 50.7561C225.592 50.7561 225.885 50.878 226.113 51.122C226.356 51.3496 226.478 51.6423 226.478 52ZM226.454 40.2683L225.6 49.439H224.844L223.991 39.5122C223.991 39.0244 224.08 38.6992 224.259 38.5366C224.454 38.3577 224.804 38.2683 225.308 38.2683C225.73 38.2683 226.031 38.3577 226.21 38.5366C226.405 38.6992 226.503 39.0244 226.503 39.5122L226.454 40.2683Z" fill="black"/>
<path d="M25.9818 25.8089C39.6802 25.8089 50.7849 20.2941 50.7849 13.4913C50.7849 6.68852 39.6802 1.17377 25.9818 1.17377C12.2834 1.17377 1.17871 6.68852 1.17871 13.4913C1.17871 20.2941 12.2834 25.8089 25.9818 25.8089Z" fill="white"/>
<path d="M25.9819 26.9897C11.4134 26.9897 0 21.0572 0 13.4913C0 5.92543 11.4134 0 25.9819 0C40.5503 0 51.9637 5.92543 51.9637 13.4913C51.9637 21.0572 40.5503 26.9826 25.9819 26.9826V26.9897ZM25.9819 2.36169C13.1709 2.35462 2.35044 7.45275 2.35044 13.4913C2.35044 19.5299 13.1709 24.628 25.9819 24.628C38.7928 24.628 49.6133 19.5299 49.6133 13.4913C49.6133 7.45275 38.7857 2.35462 25.9819 2.35462V2.36169Z" fill="black"/>
<path d="M25.9819 17.2318C31.5797 17.2318 36.1177 14.9778 36.1177 12.1973C36.1177 9.41686 31.5797 7.16284 25.9819 7.16284C20.384 7.16284 15.8461 9.41686 15.8461 12.1973C15.8461 14.9778 20.384 17.2318 25.9819 17.2318Z" fill="white"/>
<path d="M25.9819 18.3137C19.6929 18.3137 14.7661 15.6267 14.7661 12.1973C14.7661 8.76794 19.6929 6.08099 25.9819 6.08099C32.2709 6.08099 37.1976 8.76794 37.1976 12.1973C37.1976 15.6267 32.2709 18.3137 25.9819 18.3137ZM25.9819 8.2447C20.6457 8.2447 16.926 10.3306 16.926 12.1973C16.926 14.0641 20.6457 16.15 25.9819 16.15C31.318 16.15 35.0378 14.0641 35.0378 12.1973C35.0378 10.3306 31.318 8.2447 25.9819 8.2447Z" fill="black"/>
</g>
<defs>
<clipPath id="clip0_146_956">
<rect width="293" height="66" fill="white"/>
</clipPath>
</defs>
</svg>
