<svg width="293" height="66" viewBox="0 0 293 66" fill="none" xmlns="http://www.w3.org/2000/svg">
<g clip-path="url(#clip0_147_1119)">
<path d="M291.92 25.8089V64.9181H22.0998C5.71031 64.9181 1.17883 53.1592 1.17883 53.1592V13.4913L25.9819 25.8089H291.92Z" fill="white"/>
<path d="M293 66H22.0998C13.2839 66 7.80662 62.6484 4.7574 59.8341C1.43291 56.7583 0.218869 53.6754 0.169461 53.5481L0.098877 53.3572V11.7519L26.236 24.727H293V66ZM2.25168 52.94C2.88693 54.3966 7.57369 63.8363 22.0928 63.8363H290.84V26.8907H25.7278L2.25168 15.2378V52.9471V52.94Z" fill="black"/>
<path d="M22.0997 31.8616C21.5068 31.8616 21.0198 31.3808 21.0198 30.7797V28.616C21.0198 28.0221 21.4997 27.5342 22.0997 27.5342C22.6997 27.5342 23.1796 28.015 23.1796 28.616V30.7797C23.1796 31.3737 22.6997 31.8616 22.0997 31.8616Z" fill="black"/>
<path d="M22.0997 56.0229C21.5068 56.0229 21.0198 55.5421 21.0198 54.9411V50.9107C21.0198 50.3167 21.4997 49.8288 22.0997 49.8288C22.6997 49.8288 23.1796 50.3096 23.1796 50.9107V54.9411C23.1796 55.535 22.6997 56.0229 22.0997 56.0229ZM22.0997 47.9692C21.5068 47.9692 21.0198 47.4883 21.0198 46.8873V42.8569C21.0198 42.2629 21.4997 41.775 22.0997 41.775C22.6997 41.775 23.1796 42.2559 23.1796 42.8569V46.8873C23.1796 47.4813 22.6997 47.9692 22.0997 47.9692ZM22.0997 39.9154C21.5068 39.9154 21.0198 39.4346 21.0198 38.8335V34.8031C21.0198 34.2091 21.4997 33.7213 22.0997 33.7213C22.6997 33.7213 23.1796 34.2021 23.1796 34.8031V38.8335C23.1796 39.4275 22.6997 39.9154 22.0997 39.9154Z" fill="black"/>
<path d="M22.0997 62.2171C21.5068 62.2171 21.0198 61.7362 21.0198 61.1352V58.9715C21.0198 58.3775 21.4997 57.8896 22.0997 57.8896C22.6997 57.8896 23.1796 58.3705 23.1796 58.9715V61.1352C23.1796 61.7292 22.6997 62.2171 22.0997 62.2171Z" fill="black"/>
<path d="M50.785 13.4913V25.8089H25.9819C39.6822 25.8089 50.785 20.2936 50.785 13.4913Z" fill="white"/>
<path d="M51.865 26.8907H25.9819V24.727C38.8423 24.727 49.7051 19.5794 49.7051 13.4913H51.865V26.8907ZM40.2681 24.727H49.7122V18.943C47.7147 21.3259 44.4184 23.3341 40.2681 24.727Z" fill="black"/>
<path d="M117.372 48.3659C116.331 48.3659 114.681 48.561 112.421 48.9512C110.177 49.3252 108.673 49.6992 107.909 50.0732C107.583 50.2358 107.283 50.3171 107.006 50.3171C106.681 50.3171 106.437 50.2033 106.274 49.9756C106.128 49.748 106.055 49.4472 106.055 49.0732C106.055 48.6016 106.152 48.2033 106.348 47.878C106.543 47.5528 106.673 47.187 106.738 46.7805C106.803 46.3577 106.835 45.9106 106.835 45.439V45.0244C106.722 44.8618 106.364 44.6098 105.762 44.2683C105.177 43.9268 104.884 43.6667 104.884 43.4878C104.884 43.1951 105.161 43.0488 105.713 43.0488C107.177 43.0488 108.331 42.9919 109.177 42.878C110.039 42.7642 110.713 42.6098 111.201 42.4146V39.5122C110.551 39.5122 110.014 39.5366 109.592 39.5854C109.185 39.6341 108.722 39.7561 108.201 39.9512C108.169 39.9675 108.014 40.0325 107.738 40.1463C107.592 40.2114 107.461 40.2439 107.348 40.2439C106.957 40.2439 106.38 39.9919 105.616 39.4878C105.193 39.2114 104.982 39 104.982 38.8537C104.982 38.6423 105.218 38.5366 105.689 38.5366L107.567 38.561C108.104 38.561 108.526 38.5528 108.835 38.5366C109.144 38.5041 109.624 38.439 110.274 38.3415C110.421 38.3252 110.746 38.1626 111.25 37.8537C111.461 37.7236 111.64 37.6585 111.787 37.6585C111.982 37.6585 112.307 37.8618 112.762 38.2683C113.234 38.6585 113.47 38.9431 113.47 39.122C113.47 39.2195 113.396 39.3577 113.25 39.5366C113.104 39.7154 113.014 39.8537 112.982 39.9512C112.933 40.065 112.803 40.4959 112.592 41.2439C112.494 41.5691 112.396 41.8943 112.299 42.2195C112.559 42.3984 112.73 42.5366 112.811 42.6341C112.957 42.813 113.031 43.0325 113.031 43.2927C113.031 43.748 112.746 44.0163 112.177 44.0976L108.396 44.7073C108.299 45.1301 108.209 45.4797 108.128 45.7561C107.9 46.5854 107.787 47.1951 107.787 47.5854C107.787 47.8293 107.9 47.9512 108.128 47.9512L109.006 47.8537C109.998 47.7561 111.445 47.5854 113.348 47.3415C115.624 47.0488 116.965 46.878 117.372 46.8293V38.0732C117.274 37.8618 116.697 37.2276 115.64 36.1707C115.201 35.7317 114.982 35.4146 114.982 35.2195C114.982 34.9756 115.161 34.8537 115.518 34.8537C116.12 34.8537 116.892 35.0894 117.835 35.561C118.892 36.0976 119.421 36.6179 119.421 37.122C119.421 37.2358 119.396 37.3984 119.348 37.6098C119.315 37.8049 119.299 37.9431 119.299 38.0244V48.6341C119.283 49.0894 119.266 49.4634 119.25 49.7561C119.185 50.6504 119.096 51.4309 118.982 52.0976C118.868 52.748 118.665 53.5285 118.372 54.439C117.998 55.6098 117.738 56.1951 117.592 56.1951C117.526 56.1951 117.486 56.0976 117.47 55.9024C117.453 55.7236 117.445 55.4797 117.445 55.1707L117.372 48.3659ZM129.738 45.8293L133.201 45.878C135.445 45.878 137.543 45.813 139.494 45.6829C141.461 45.5528 143.006 45.3089 144.128 44.9512C144.339 44.8862 144.518 44.8374 144.665 44.8049C144.827 44.7724 144.998 44.7561 145.177 44.7561C145.567 44.7561 145.957 44.8862 146.348 45.1463C146.754 45.4065 146.957 45.7154 146.957 46.0732C146.957 46.626 146.608 46.9024 145.909 46.9024C145.583 46.9024 145.079 46.8699 144.396 46.8049C143.713 46.7398 143.201 46.7073 142.86 46.7073C142.876 46.8862 142.933 47.0813 143.031 47.2927C143.226 47.748 143.323 48.0488 143.323 48.1951C143.323 49.5122 143.266 50.7398 143.152 51.878C143.039 53 142.819 54 142.494 54.878C142.169 55.7561 141.892 56.1951 141.665 56.1951C141.535 56.1951 141.47 56.0569 141.47 55.7805L141.494 52.0732C141.494 50.5447 141.453 49.3659 141.372 48.5366C141.307 47.7073 141.152 47.1463 140.909 46.8537L136.982 47C136.982 47.1626 137.006 47.3496 137.055 47.561C137.169 48.065 137.226 48.3496 137.226 48.4146C137.226 49.1463 136.909 50.3171 136.274 51.9268C135.543 53.7642 134.86 54.6829 134.226 54.6829C134.128 54.6829 134.079 54.6098 134.079 54.4634L134.177 54C134.372 53.3821 134.583 52.5447 134.811 51.4878C135.104 50.122 135.25 49.0732 135.25 48.3415C135.25 47.8699 135.185 47.5041 135.055 47.2439C134.811 47.2439 134.453 47.2764 133.982 47.3415C133.51 47.4065 133.136 47.4797 132.86 47.561C132.6 47.6423 132.38 47.7154 132.201 47.7805C132.039 47.8455 131.925 47.878 131.86 47.878C131.535 47.878 130.925 47.6423 130.031 47.1707C129.136 46.6992 128.689 46.3415 128.689 46.0976C128.689 45.9187 128.957 45.8293 129.494 45.8293H129.738ZM143.055 35.5854C143.234 35.7317 143.348 35.8455 143.396 35.9268C143.445 36.0081 143.47 36.1138 143.47 36.2439C143.47 36.3252 143.445 36.4797 143.396 36.7073C143.364 36.9187 143.348 37.0894 143.348 37.2195V37.7805C143.348 38.626 143.315 39.3902 143.25 40.0732C143.185 40.7398 143.022 41.3333 142.762 41.8537C142.925 42.0813 143.014 42.2114 143.031 42.2439C143.128 42.4065 143.177 42.561 143.177 42.7073C143.177 43.0976 142.949 43.3171 142.494 43.3659C142.055 43.4146 141.209 43.4472 139.957 43.4634C138.722 43.4797 138.031 43.4878 137.884 43.4878H136.47C136.193 44.0244 135.957 44.2927 135.762 44.2927C135.535 44.2927 135.315 43.6098 135.104 42.2439C134.957 41.3496 134.819 40.4553 134.689 39.561C134.624 39.3008 134.299 38.6423 133.713 37.5854C133.453 37.1138 133.323 36.8211 133.323 36.7073C133.323 36.4959 133.502 36.3902 133.86 36.3902C134.364 36.3902 134.925 36.6098 135.543 37.0488C136.177 37.4878 136.494 37.935 136.494 38.3902V38.6098C136.819 38.6098 137.201 38.5122 137.64 38.3171C138.6 37.8943 139.169 37.6829 139.348 37.6829C139.608 37.6829 139.884 37.8049 140.177 38.0488C140.486 38.2764 140.64 38.5203 140.64 38.7805C140.64 39.2033 139.9 39.4715 138.421 39.5854C137.803 39.6341 137.242 39.6585 136.738 39.6585H136.494C136.51 39.8537 136.535 40.2846 136.567 40.9512C136.6 41.6179 136.624 42.122 136.64 42.4634C137.356 42.4634 138.185 42.4065 139.128 42.2927C140.071 42.1789 140.909 42 141.64 41.7561V37.5122C141.64 37.0894 141.543 36.6748 141.348 36.2683C141.104 35.8293 140.868 35.3821 140.64 34.9268C140.64 34.7642 140.762 34.6829 141.006 34.6829C141.331 34.6829 141.689 34.7805 142.079 34.9756C142.47 35.1545 142.795 35.3577 143.055 35.5854ZM166.238 51.4146C165.929 51.2033 165.774 51.0325 165.774 50.9024C165.774 50.7236 166.091 50.6341 166.726 50.6341C167.604 50.6341 168.815 50.6667 170.36 50.7317C171.921 50.7805 172.929 50.8049 173.384 50.8049C175.27 50.8049 176.839 50.7561 178.091 50.6585C179.343 50.561 180.4 50.374 181.262 50.0976C181.815 49.9187 182.27 49.8293 182.628 49.8293C183.051 49.8293 183.482 49.9756 183.921 50.2683C184.376 50.5447 184.604 50.878 184.604 51.2683C184.604 51.4959 184.514 51.6829 184.335 51.8293C184.157 51.9756 183.929 52.0488 183.652 52.0488L183.36 52.0244C183.002 51.9593 182.441 51.9106 181.677 51.878C180.913 51.8455 180.303 51.8293 179.848 51.8293C177.848 51.8293 175.978 51.8943 174.238 52.0244C172.514 52.1382 171.278 52.3171 170.53 52.561C170.27 52.6423 170.018 52.7236 169.774 52.8049C169.547 52.8862 169.376 52.9268 169.262 52.9268C169.067 52.9268 168.701 52.7967 168.165 52.5366C167.628 52.2602 166.986 51.8862 166.238 51.4146ZM178.945 36.6341C179.449 36.813 179.978 37.1301 180.53 37.5854C181.213 38.1545 181.555 38.6585 181.555 39.0976C181.555 39.2114 181.514 39.3496 181.433 39.5122C181.352 39.6585 181.287 39.7724 181.238 39.8537L179.506 42.561C180.547 42.9024 181.319 43.1626 181.823 43.3415C182.734 43.6829 183.189 44.1951 183.189 44.878C183.189 45.5935 182.929 45.9512 182.409 45.9512C182.1 45.9512 181.425 45.4309 180.384 44.3902C179.815 43.8374 179.36 43.4797 179.018 43.3171C177.799 44.8943 176.921 45.9187 176.384 46.3902C175.506 47.1707 174.636 47.6829 173.774 47.9268L173.067 48.0976L172.994 48.0488C173.059 47.9837 173.108 47.9431 173.14 47.9268C173.27 47.8293 173.376 47.7561 173.457 47.7073C174.449 47.1057 175.547 45.9106 176.75 44.122C177.872 42.4472 178.701 40.8537 179.238 39.3415C179.173 39.1463 179.01 38.8211 178.75 38.3659C178.23 37.4715 177.97 36.9593 177.97 36.8293C177.97 36.6341 178.1 36.5366 178.36 36.5366C178.539 36.5366 178.734 36.5691 178.945 36.6341ZM172.433 38.439C172.823 38.5854 173.27 38.8699 173.774 39.2927C174.376 39.813 174.677 40.2439 174.677 40.5854C174.677 40.6829 174.636 40.7967 174.555 40.9268C174.49 41.0407 174.425 41.1545 174.36 41.2683L173.579 42.3171C174.295 42.5122 174.799 42.6667 175.091 42.7805C175.612 42.9919 175.872 43.374 175.872 43.9268C175.872 44.7073 175.62 45.0976 175.116 45.0976C174.839 45.0976 174.563 44.9187 174.287 44.561C173.441 43.4553 173.01 42.9024 172.994 42.9024C172.295 43.6341 171.514 44.2846 170.652 44.8537C169.547 45.5854 168.62 45.9512 167.872 45.9512L167.799 45.9268C167.848 45.878 167.88 45.8455 167.896 45.8293C167.978 45.7642 168.067 45.6992 168.165 45.6341C168.929 45.1789 169.709 44.4878 170.506 43.561C171.319 42.6179 171.961 41.6504 172.433 40.6585C172.368 40.3496 172.181 39.9512 171.872 39.4634C171.579 38.9593 171.433 38.6585 171.433 38.561C171.433 38.3821 171.547 38.2927 171.774 38.2927C171.986 38.2927 172.205 38.3415 172.433 38.439ZM202.848 36.0488C202.506 35.7561 202.335 35.5041 202.335 35.2927C202.335 35.0163 202.596 34.878 203.116 34.878C203.766 34.878 204.514 35.0976 205.36 35.5366C206.319 36.0407 206.799 36.5772 206.799 37.1463L206.726 38V47.561C206.726 49.561 206.612 51.2114 206.384 52.5122C206.238 53.374 206.01 54.1951 205.701 54.9756C205.392 55.7561 205.181 56.1463 205.067 56.1463C204.969 56.1463 204.921 55.9512 204.921 55.561L204.75 38.3415C204.62 38.0488 204.392 37.6992 204.067 37.2927C203.661 36.8049 203.254 36.3902 202.848 36.0488ZM192.579 39.6341C193.246 39.1626 194.01 38.9268 194.872 38.9268C196.14 38.9268 197.311 39.3902 198.384 40.3171C199.457 41.2439 199.994 42.3089 199.994 43.5122C200.238 43.7724 200.409 43.9756 200.506 44.122C200.766 44.4959 200.896 44.9106 200.896 45.3659C200.896 45.8374 200.742 46.1301 200.433 46.2439C200.124 46.3252 199.823 46.4065 199.53 46.4878C198.506 47.1545 197.197 47.8618 195.604 48.6098C193.652 49.5366 192.303 50 191.555 50C191.409 50 191.287 49.9837 191.189 49.9512C191.173 49.9512 191.156 49.935 191.14 49.9024C191.238 49.8211 191.319 49.7724 191.384 49.7561C192.392 49.4309 193.831 48.5935 195.701 47.2439C197.571 45.878 198.815 44.8049 199.433 44.0244C199.124 42.8699 198.319 42.0894 197.018 41.6829C196.482 41.5203 195.506 41.3821 194.091 41.2683C192.677 41.1382 191.969 40.8699 191.969 40.4634C191.969 40.2033 192.173 39.9268 192.579 39.6341Z" fill="black"/>
<path d="M25.9818 25.8089C39.6802 25.8089 50.7849 20.2941 50.7849 13.4913C50.7849 6.68852 39.6802 1.17377 25.9818 1.17377C12.2834 1.17377 1.17871 6.68852 1.17871 13.4913C1.17871 20.2941 12.2834 25.8089 25.9818 25.8089Z" fill="white"/>
<path d="M25.9819 26.9897C11.4134 26.9897 0 21.0572 0 13.4913C0 5.92543 11.4134 0 25.9819 0C40.5503 0 51.9637 5.92543 51.9637 13.4913C51.9637 21.0572 40.5503 26.9826 25.9819 26.9826V26.9897ZM25.9819 2.36169C13.1709 2.35462 2.35044 7.45275 2.35044 13.4913C2.35044 19.5299 13.1709 24.628 25.9819 24.628C38.7928 24.628 49.6133 19.5299 49.6133 13.4913C49.6133 7.45275 38.7857 2.35462 25.9819 2.35462V2.36169Z" fill="black"/>
<path d="M25.9819 17.2318C31.5797 17.2318 36.1177 14.9778 36.1177 12.1973C36.1177 9.41686 31.5797 7.16284 25.9819 7.16284C20.384 7.16284 15.8461 9.41686 15.8461 12.1973C15.8461 14.9778 20.384 17.2318 25.9819 17.2318Z" fill="white"/>
<path d="M25.9819 18.3137C19.6929 18.3137 14.7661 15.6267 14.7661 12.1973C14.7661 8.76794 19.6929 6.08099 25.9819 6.08099C32.2709 6.08099 37.1976 8.76794 37.1976 12.1973C37.1976 15.6267 32.2709 18.3137 25.9819 18.3137ZM25.9819 8.2447C20.6457 8.2447 16.926 10.3306 16.926 12.1973C16.926 14.0641 20.6457 16.15 25.9819 16.15C31.318 16.15 35.0378 14.0641 35.0378 12.1973C35.0378 10.3306 31.318 8.2447 25.9819 8.2447Z" fill="black"/>
</g>
<defs>
<clipPath id="clip0_147_1119">
<rect width="293" height="66" fill="white"/>
</clipPath>
</defs>
</svg>
