<svg width="25" height="13" viewBox="0 0 25 13" fill="none" xmlns="http://www.w3.org/2000/svg">
<path d="M5.34634 1.92683C5.47317 2.02439 5.56098 2.11219 5.60976 2.19024C5.66829 2.26829 5.69756 2.34634 5.69756 2.42439C5.69756 2.45366 5.68293 2.52683 5.65366 2.6439C5.62439 2.76098 5.60976 2.86829 5.60976 2.96585V3.58049C5.60976 3.95122 5.59024 4.29756 5.55122 4.61951C5.52195 4.94146 5.44878 5.21951 5.33171 5.45366C5.38049 5.53171 5.42927 5.61463 5.47805 5.70244C5.53659 5.79024 5.56585 5.86829 5.56585 5.93659C5.56585 6.15122 5.42439 6.27805 5.14146 6.31707C4.85854 6.3561 4.44878 6.38049 3.9122 6.39024C3.37561 6.4 2.89756 6.40488 2.47805 6.40488C2.30244 6.70732 2.14634 6.85854 2.00976 6.85854C1.8439 6.85854 1.69756 6.43902 1.57073 5.6C1.48293 5.06341 1.4 4.52683 1.32195 3.99024C1.27317 3.82439 1.05366 3.46829 0.663415 2.92195C0.487805 2.67805 0.4 2.52683 0.4 2.46829C0.4 2.35122 0.507317 2.29268 0.721951 2.29268C1.03415 2.29268 1.4 2.41951 1.81951 2.67317C2.24878 2.91707 2.46341 3.18049 2.46341 3.46341L2.44878 3.59512L2.49268 3.62439C2.66829 3.62439 2.85854 3.55122 3.06341 3.40488C3.26829 3.25854 3.43902 3.18537 3.57561 3.18537C3.7122 3.18537 3.85366 3.23902 4 3.34634C4.14634 3.4439 4.21951 3.56098 4.21951 3.69756C4.21951 3.88293 4.10732 4.02439 3.88293 4.12195C3.65854 4.20976 3.30732 4.25366 2.82927 4.25366H2.49268V5.84878C3.07805 5.84878 3.52195 5.80976 3.82439 5.73171C3.88293 5.72195 4.1561 5.63415 4.6439 5.46829V3.14146C4.6439 2.92683 4.51707 2.62439 4.26341 2.23415C4.01951 1.83415 3.89756 1.59512 3.89756 1.51707C3.89756 1.4 3.97561 1.34146 4.13171 1.34146C4.2878 1.34146 4.49756 1.40976 4.76098 1.54634C4.9561 1.65366 5.15122 1.78049 5.34634 1.92683ZM9.10732 7.66341C9.17561 7.72195 9.20976 7.79512 9.20976 7.88293C9.20976 7.96098 9.13171 8.14634 8.97561 8.43902C8.82927 8.73171 8.7561 9.02927 8.7561 9.33171C8.82439 9.42927 8.87805 9.51707 8.91707 9.59512C8.96585 9.66341 8.99024 9.73171 8.99024 9.8C8.99024 9.90732 8.94634 10.0049 8.85854 10.0927C8.77073 10.1805 8.6439 10.2244 8.47805 10.2244L5.66829 10.4878V11.3659C5.66829 11.5317 5.6878 11.639 5.72683 11.6878C5.7561 11.7268 5.83902 11.7463 5.97561 11.7463H6.22439C6.43902 11.7463 6.90732 11.6976 7.62927 11.6C7.99024 11.5512 8.27805 11.5268 8.49268 11.5268C8.81463 11.5268 8.97561 11.6195 8.97561 11.8049C8.97561 12.1659 8.6439 12.4488 7.98049 12.6537C7.47317 12.8098 7.00488 12.8878 6.57561 12.8878C6.16585 12.8878 5.81463 12.7268 5.52195 12.4049C5.23902 12.0927 5.09756 11.7707 5.09756 11.439V11.0878C5.09756 10.9317 4.89756 10.7073 4.49756 10.4146C4.10732 10.122 3.9122 9.92683 3.9122 9.82927C3.9122 9.67317 4.09268 9.59512 4.45366 9.59512C5.59512 9.59512 6.4439 9.5561 7 9.47805C7.5561 9.39024 7.89756 9.34146 8.02439 9.33171L7.96585 8.0878C7.77073 8.0878 7.61463 8.0878 7.49756 8.0878C7.14634 8.0878 6.82927 8.10732 6.54634 8.14634C6.26341 8.17561 5.97561 8.24878 5.68293 8.36585C5.54634 8.43415 5.43415 8.49268 5.34634 8.54146C5.25854 8.58049 5.16585 8.6 5.06829 8.6C4.86341 8.6 4.55122 8.50244 4.13171 8.30732C3.72195 8.1122 3.51707 7.94146 3.51707 7.79512C3.51707 7.69756 3.63415 7.64878 3.86829 7.64878C4.78537 7.64878 5.52683 7.63415 6.09268 7.60488C6.65854 7.56585 7.07805 7.50732 7.35122 7.42927C7.4 7.40976 7.51707 7.35122 7.70244 7.25366C7.8878 7.1561 8.02439 7.10732 8.1122 7.10732C8.21951 7.10732 8.38537 7.17561 8.60976 7.3122C8.8439 7.44878 9.00976 7.56585 9.10732 7.66341ZM7.54146 3.34634C7.50244 3.36585 7.46341 3.38537 7.42439 3.40488C7.34634 3.45366 7.27805 3.47805 7.21951 3.47805C7.1122 3.47805 6.90244 3.40488 6.59024 3.25854C6.27805 3.10244 6.12195 2.97561 6.12195 2.87805C6.12195 2.80976 6.19512 2.7561 6.34146 2.71707C6.4878 2.66829 6.63415 2.6439 6.78049 2.6439C7.08293 2.6439 7.34634 2.6 7.57073 2.5122C7.62927 2.49268 7.8439 2.38537 8.21463 2.19024V1.86829C8.1561 1.75122 7.98049 1.5561 7.6878 1.28293C7.14146 0.765854 6.86829 0.458537 6.86829 0.360976C6.86829 0.195122 7.02927 0.112195 7.35122 0.112195C7.69268 0.112195 8.10244 0.234146 8.58049 0.478049C9.13659 0.760976 9.41463 1.05366 9.41463 1.3561C9.41463 1.45366 9.4 1.58537 9.37073 1.75122C9.35122 1.90732 9.34146 2.00488 9.34146 2.0439V3.56585C9.34146 4.14146 9.33171 4.5561 9.3122 4.80976C9.26341 5.37561 9.12683 5.85854 8.90244 6.25854C8.7561 6.52195 8.6439 6.70244 8.56585 6.8C8.49756 6.89756 8.4439 6.94634 8.40488 6.94634C8.3561 6.94634 8.33171 6.86341 8.33171 6.69756L8.31707 5.83415H8.25854C8.06341 5.83415 7.87317 5.86341 7.6878 5.92195C7.51219 5.98049 7.32683 6.03902 7.13171 6.09756C6.99512 6.09756 6.76585 5.96098 6.4439 5.68781C6.13171 5.40488 5.97561 5.19512 5.97561 5.05854C5.97561 4.97073 6.05854 4.92683 6.22439 4.92683C6.38049 4.92683 6.52683 4.93659 6.66341 4.9561C7.12195 5.02439 7.37561 5.05854 7.42439 5.05854C7.61951 5.05854 7.90244 5.01951 8.27317 4.94146V3.14146C8.13659 3.14146 8.00976 3.1561 7.89268 3.18537C7.78537 3.21463 7.66829 3.26829 7.54146 3.34634ZM19.4975 3.31707C19.6146 3.46341 19.6732 3.59512 19.6732 3.71219C19.6732 3.92683 19.4488 4.26341 19 4.72195C19.2049 4.86829 19.4 5.01463 19.5854 5.16098C19.7805 5.30732 19.878 5.44878 19.878 5.58537C19.878 6.17073 19.8146 6.69268 19.6878 7.15122C19.5707 7.60976 19.4244 7.83902 19.2488 7.83902C19.1805 7.83902 19.1463 7.76585 19.1463 7.61951C19.1463 7.26829 19.078 6.8439 18.9414 6.34634C18.7658 5.68293 18.5366 5.3122 18.2536 5.23415C17.5414 5.76098 16.9463 6.12195 16.4683 6.31707C16 6.5122 15.5805 6.60976 15.2097 6.60976L15.1366 6.58049C15.1658 6.55122 15.1902 6.53171 15.2097 6.52195C15.2683 6.48293 15.3561 6.43415 15.4732 6.37561C15.9024 6.16098 16.4634 5.74634 17.1561 5.13171C17.9561 4.41951 18.3561 3.89268 18.3561 3.55122C18.3561 3.43415 18.3366 3.30732 18.2975 3.17073C18.2585 3.03415 18.2 2.96585 18.1219 2.96585C17.9658 2.96585 17.8195 2.99512 17.6829 3.05366C17.5561 3.10244 17.478 3.12683 17.4488 3.12683C17.3122 3.12683 17.0341 3.00976 16.6146 2.77561C16.1951 2.53171 15.9854 2.3561 15.9854 2.24878C15.9854 2.18049 16.0634 2.14634 16.2195 2.14634H16.6585C17.2244 2.14634 17.7658 2.12195 18.2829 2.07317C18.8097 2.02439 19.2341 1.92683 19.5561 1.78049C19.7122 1.7122 19.8341 1.65854 19.9219 1.61951C20.0195 1.58049 20.1073 1.56098 20.1854 1.56098C20.3512 1.56098 20.5171 1.61951 20.6829 1.73659C20.8488 1.85366 20.9317 1.99024 20.9317 2.14634C20.9317 2.25366 20.8927 2.35122 20.8146 2.43902C20.7366 2.51707 20.6293 2.56585 20.4927 2.58537L19.9219 2.6C19.8146 2.6 19.7219 2.60488 19.6439 2.61463C19.5658 2.62439 19.439 2.65366 19.2634 2.70244C19.2634 2.82927 19.278 2.93171 19.3073 3.00976C19.3268 3.05854 19.3902 3.16098 19.4975 3.31707ZM22.161 0.712195C21.9756 0.536586 21.8829 0.4 21.8829 0.302439C21.8829 0.17561 22.0097 0.112195 22.2634 0.112195C22.5951 0.112195 23.0341 0.243902 23.5805 0.507317C24.1366 0.760976 24.4146 1.02927 24.4146 1.3122C24.4146 1.39024 24.4 1.50732 24.3707 1.66341C24.3512 1.81951 24.3414 1.92195 24.3414 1.97073V4.54634C24.3414 5.23902 24.2829 5.79024 24.1658 6.2C24.0585 6.60976 23.9122 6.95122 23.7268 7.22439C23.639 7.36098 23.5512 7.48293 23.4634 7.59024C23.4341 7.61951 23.4 7.65854 23.361 7.70732C23.3317 7.63902 23.3171 7.58049 23.3171 7.53171V7.3122C23.3171 6.93171 23.3073 6.5122 23.2878 6.05366C23.2683 5.58537 23.2536 5.1561 23.2439 4.76585C22.9902 4.76585 22.6732 4.8878 22.2927 5.13171C22.0975 5.25854 21.961 5.32195 21.8829 5.32195C21.7658 5.32195 21.5317 5.18049 21.1805 4.89756C20.8293 4.60488 20.6536 4.40976 20.6536 4.3122C20.6536 4.23415 20.7512 4.19512 20.9463 4.19512H21.1512C22.0585 4.19512 22.7463 4.09268 23.2146 3.8878V2.01463C23.2146 1.85854 23.1366 1.6878 22.9805 1.50244C22.8341 1.30732 22.561 1.0439 22.161 0.712195ZM22.5854 8.42439C22.5951 8.41463 22.7317 8.33171 22.9951 8.17561C23.0927 8.11707 23.161 8.0878 23.2 8.0878C23.2975 8.0878 23.4927 8.21951 23.7854 8.48293C24.0878 8.73659 24.239 8.92683 24.239 9.05366C24.239 9.12195 24.2097 9.21463 24.1512 9.33171C24.0927 9.44878 24.0585 9.53171 24.0488 9.58049C24 9.92195 23.9512 10.2439 23.9024 10.5463C23.8536 10.839 23.7707 11.122 23.6536 11.3951C23.839 11.5512 23.9414 11.639 23.961 11.6585C24.0195 11.7366 24.0488 11.8195 24.0488 11.9073C24.0488 12.1024 23.8975 12.239 23.5951 12.3171C23.3024 12.3951 22.9512 12.4341 22.5414 12.4341L21.8683 12.4195C21.4195 12.4195 21.1219 12.4098 20.9756 12.3902C20.8293 12.3805 20.6585 12.3463 20.4634 12.2878C20.3366 12.6976 20.1756 12.9024 19.9805 12.9024C19.8244 12.9024 19.6683 12.5122 19.5122 11.7317C19.4049 11.2146 19.3024 10.6976 19.2049 10.1805C19.1561 10.0146 18.9951 9.7561 18.7219 9.40488C18.4585 9.05366 18.3268 8.8439 18.3268 8.77561C18.3268 8.65854 18.4293 8.6 18.6341 8.6C18.9561 8.6 19.3171 8.72195 19.7171 8.96585C20.1268 9.2 20.3317 9.45854 20.3317 9.74146L20.3024 10.0488C20.3024 10.2732 20.3219 10.5463 20.361 10.8683C20.4 11.1902 20.4195 11.4829 20.4195 11.7463C21.0536 11.7463 21.5756 11.7268 21.9854 11.6878C22.3951 11.6585 22.7414 11.6098 23.0244 11.5415V9.18537C22.5756 9.18537 22.2878 9.19512 22.161 9.21463C22.0341 9.22439 21.878 9.26341 21.6927 9.33171C21.6439 9.35122 21.5658 9.39512 21.4585 9.46341C21.4 9.50244 21.3414 9.52195 21.2829 9.52195C21.1658 9.52195 20.9463 9.43415 20.6244 9.25854C20.3122 9.07317 20.1561 8.93659 20.1561 8.84878C20.1561 8.76098 20.2634 8.71707 20.478 8.71707H20.6244C20.9756 8.71707 21.3219 8.69756 21.6634 8.65854C22.0146 8.60976 22.3219 8.53171 22.5854 8.42439Z" fill="black"/>
</svg>
