<svg width="59" height="23" viewBox="0 0 59 23" fill="none" xmlns="http://www.w3.org/2000/svg">
<path d="M4.86194 1.22339H56.2748L54.1448 4.57549L57.3084 7.33399L54.7454 9.89695L57.6506 12.8021L54.494 15.9587L57.2036 18.6683L54.3473 21.5246H6.4472" fill="#CCECF0"/>
<path d="M4.86194 1.22339H56.2748L54.1448 4.57549L57.3084 7.33399L54.7454 9.89695L57.6506 12.8021L54.494 15.9587L57.2036 18.6683L54.3473 21.5246H6.4472" stroke="black" stroke-width="1.41" stroke-miterlimit="10"/>
<path d="M5.27393 1.02783L1.44695 4.17043L4.15656 6.88004L1 10.0366L3.90515 12.9418L1.33521 15.5047L4.50574 18.2632L2.37576 21.6153L6.44716 21.5245" fill="#CCECF0"/>
<path d="M5.27393 1.02783L1.44695 4.17043L4.15656 6.88004L1 10.0366L3.90515 12.9418L1.33521 15.5047L4.50574 18.2632L2.37576 21.6153L6.44716 21.5245" stroke="black" stroke-width="1.41" stroke-miterlimit="10"/>
<path d="M13.9335 13.6541C13.4656 13.6541 13.0047 13.6681 12.5507 13.703C12.0898 13.731 11.7546 13.7938 11.5241 13.8776C11.4822 13.8916 11.4194 13.9195 11.3426 13.9614C11.2937 13.9894 11.2518 13.9963 11.2099 13.9963C11.1121 13.9963 10.9375 13.9335 10.6791 13.8078C10.4207 13.6821 10.295 13.5773 10.295 13.5005C10.295 13.4726 10.316 13.4516 10.3509 13.4377C10.3858 13.4237 10.4487 13.4167 10.5395 13.4167H10.7559C11.0702 13.4167 11.5172 13.4027 12.0968 13.3748C12.2923 13.3678 12.5507 13.3539 12.8859 13.3329C13.4516 12.6765 13.7379 12.1527 13.7379 11.7616C13.7379 11.6289 13.6681 11.4543 13.5214 11.2378C13.3748 11.0214 13.2561 10.9096 13.1583 10.9096C13.0815 10.9096 12.9558 10.9864 12.7672 11.1471C12.5787 11.3077 12.432 11.3845 12.3133 11.3845C12.2085 11.3845 12.0828 11.3566 11.9362 11.3077C11.7546 11.2448 11.6638 11.168 11.6638 11.0842C11.6638 10.9934 11.8943 10.8468 12.3622 10.6373C12.8231 10.4277 13.1164 10.323 13.2211 10.323C13.4306 10.323 13.6681 10.4976 13.9195 10.8398C14.1709 11.182 14.2966 11.4753 14.2966 11.7127C14.2966 11.7895 14.2896 11.8454 14.2757 11.8943C14.2617 11.9432 14.2338 11.9921 14.1988 12.0479C14.0592 12.2365 13.8986 12.439 13.71 12.6625C13.5005 12.9139 13.3049 13.1304 13.1164 13.3259C13.4656 13.3259 13.7309 13.305 13.9125 13.27C14.0731 13.2212 14.1919 13.1863 14.2687 13.1583C14.3455 13.1304 14.4363 13.1164 14.5201 13.1164C14.6528 13.1164 14.7785 13.1444 14.8902 13.1932C15.0369 13.2631 15.1067 13.3608 15.1067 13.4796C15.1067 13.5424 15.0857 13.5983 15.0438 13.6472C15.0019 13.696 14.9461 13.717 14.8693 13.717C14.7924 13.717 14.6877 13.717 14.548 13.696C14.2338 13.6681 14.0243 13.6541 13.9265 13.6541H13.9335Z" fill="black"/>
<path d="M17.0062 11.4752C16.9503 11.4403 16.9224 11.3984 16.9224 11.3425C16.9224 11.3006 16.9433 11.2657 16.9922 11.2378C17.0411 11.2099 17.1109 11.1959 17.2017 11.1959C17.509 11.1959 17.7464 11.1819 17.928 11.147C18.1026 11.1121 18.2632 11.0702 18.4029 11.0143V10.5115C18.2423 10.5115 18.1235 10.5115 18.0537 10.5325C17.9839 10.5464 17.907 10.5744 17.8232 10.6163C17.7744 10.6442 17.7325 10.6651 17.6975 10.6791C17.6626 10.6931 17.6207 10.707 17.5858 10.707C17.516 10.707 17.3903 10.6582 17.2157 10.5534C17.0411 10.4486 16.9503 10.3718 16.9503 10.3229C16.9503 10.295 16.9782 10.281 17.0271 10.2741C17.076 10.2671 17.1458 10.2601 17.2296 10.2601H17.495C17.6696 10.2601 17.8163 10.2601 17.928 10.2391C18.0397 10.2182 18.1515 10.1972 18.2492 10.1623C18.3121 10.1274 18.3819 10.0995 18.4518 10.0646C18.5146 10.0646 18.6194 10.1204 18.7521 10.2391C18.8917 10.3579 18.9546 10.4417 18.9546 10.5045C18.9546 10.5255 18.9406 10.5534 18.9127 10.5883C18.8847 10.6232 18.8638 10.6582 18.8428 10.6931C18.8219 10.728 18.8009 10.7908 18.773 10.8886C18.7451 10.9794 18.7241 11.0492 18.7032 11.0772C18.7521 11.1051 18.787 11.1261 18.8149 11.154C18.8568 11.1959 18.8778 11.2378 18.8778 11.2797C18.8778 11.3914 18.7032 11.4822 18.354 11.552C17.9629 11.6079 17.7394 11.6359 17.6766 11.6498V12.0828C17.6766 12.1526 17.6836 12.1945 17.7045 12.2015C17.7255 12.2155 17.7744 12.2295 17.8512 12.2295H17.935C18.0677 12.2295 18.2423 12.2015 18.4448 12.1526C18.6473 12.1037 18.787 12.0758 18.8638 12.0758C18.9616 12.0758 19.0104 12.1107 19.0104 12.1806C19.0104 12.3412 18.8778 12.4809 18.6124 12.6136C18.3889 12.7183 18.1934 12.7742 18.0258 12.7742C17.8931 12.7742 17.7534 12.7253 17.5998 12.6205C17.4252 12.5088 17.3414 12.3831 17.3414 12.2504C17.3414 12.2225 17.3484 12.1456 17.3693 11.999C17.3763 11.9431 17.3833 11.8873 17.3833 11.8314V11.7616C17.3484 11.7266 17.3065 11.6847 17.2436 11.6498C17.1109 11.566 17.0341 11.5171 17.0062 11.4962V11.4752ZM17.8512 13.2491H18.3261C18.6264 13.2491 18.8708 13.2491 19.0733 13.2351C19.2758 13.2211 19.4574 13.2002 19.632 13.1653C19.6879 13.1513 19.7577 13.1233 19.8555 13.0884C19.9532 13.0535 20.0161 13.0256 20.044 13.0256C20.0929 13.0256 20.1907 13.0814 20.3303 13.1792C20.47 13.284 20.5398 13.3608 20.5398 13.4027C20.5398 13.4236 20.5329 13.4516 20.5119 13.4935C20.491 13.5354 20.477 13.5703 20.47 13.5982C20.456 13.71 20.4421 13.8217 20.4281 13.9195C20.3932 14.101 20.3373 14.2826 20.2535 14.4572C20.2116 14.548 20.1767 14.6178 20.1627 14.6458C20.1069 14.7505 20.0719 14.7994 20.044 14.7994C20.03 14.7994 20.0161 14.7854 20.0091 14.7575C20.0021 14.7296 19.9951 14.6807 19.9951 14.6039L19.9672 13.4725C19.618 13.4725 19.3457 13.4865 19.1431 13.5144C18.9406 13.5424 18.766 13.5843 18.6333 13.6401C18.5705 13.6681 18.5286 13.682 18.5076 13.689C18.4727 13.703 18.4378 13.71 18.4099 13.71C18.333 13.71 18.1934 13.6611 17.9908 13.5563C17.7883 13.4516 17.6906 13.3748 17.6906 13.3119C17.6906 13.277 17.7464 13.256 17.8512 13.256V13.2491ZM19.604 9.70141C19.5482 9.63856 19.5202 9.58269 19.5202 9.54079C19.5202 9.47095 19.5761 9.43604 19.6948 9.43604C19.8415 9.43604 20.0231 9.4919 20.2465 9.61062C20.4979 9.74331 20.6236 9.876 20.6236 10.0017L20.6027 10.2112V11.0492C20.6027 11.1749 20.6027 11.3146 20.5957 11.4822C20.5887 11.6498 20.5887 11.7336 20.5887 11.7336C20.5887 11.8454 20.5398 12.0758 20.4491 12.411C20.3443 12.7881 20.2535 12.9767 20.1767 12.9767C20.1627 12.9767 20.1488 12.9488 20.1418 12.8999C20.1348 12.851 20.1278 12.7951 20.1278 12.7393V11.573C20.051 11.573 19.9672 11.6009 19.8624 11.6498C19.7577 11.7057 19.6878 11.7266 19.6599 11.7266C19.604 11.7266 19.4993 11.6708 19.3526 11.559C19.206 11.4473 19.1292 11.3705 19.1292 11.3216C19.1292 11.2797 19.178 11.2657 19.2688 11.2657H19.611C19.6948 11.2657 19.7647 11.2657 19.8205 11.2518C19.8764 11.2378 19.9672 11.2168 20.1069 11.1819V10.2461C20.065 10.1623 19.9951 10.0715 19.9043 9.97377C19.8136 9.876 19.7228 9.77823 19.625 9.68744L19.604 9.70141Z" fill="black"/>
<path d="M24.8907 11.4402C24.9186 11.4821 24.9256 11.524 24.9256 11.5589C24.9256 11.6218 24.8976 11.6916 24.8348 11.7684C24.8208 11.7824 24.751 11.8592 24.6183 11.9989C24.7231 12.0617 24.8278 12.1246 24.9395 12.1875C25.0233 12.2503 25.0653 12.3271 25.0653 12.4109V12.5017C25.0653 12.7811 25.0373 13.0255 24.9815 13.235C24.9256 13.4445 24.8557 13.5562 24.765 13.5562C24.73 13.5562 24.7161 13.5143 24.7161 13.4375C24.7161 13.1302 24.6881 12.8579 24.6323 12.6135C24.5764 12.369 24.4996 12.2294 24.4088 12.2014C24.1714 12.4039 23.9479 12.5646 23.7454 12.6763C23.473 12.823 23.2216 12.8998 22.9702 12.8998L22.9423 12.8858C22.9423 12.8858 22.9632 12.8718 22.9702 12.8649C22.9981 12.8509 23.04 12.8299 23.0959 12.809C23.3124 12.7392 23.5778 12.5506 23.8781 12.2433C24.2133 11.9151 24.3809 11.6427 24.3809 11.4402C24.3809 11.3564 24.339 11.2517 24.2622 11.126C24.1923 11.126 24.1295 11.1399 24.0736 11.1609C24.0177 11.1818 23.9758 11.1958 23.9479 11.1958C23.885 11.1958 23.7593 11.1399 23.5708 11.0422C23.3822 10.9374 23.2914 10.8606 23.2914 10.8187C23.2914 10.7838 23.3333 10.7698 23.4102 10.7698H23.5428C23.7873 10.7698 23.9898 10.7628 24.1504 10.7419C24.4228 10.7069 24.6393 10.6511 24.7999 10.5603C24.8767 10.5184 24.9395 10.4905 24.9954 10.4625C25.0513 10.4346 25.0932 10.4276 25.1281 10.4276C25.1979 10.4276 25.2817 10.4625 25.3725 10.5324C25.4633 10.6022 25.5122 10.672 25.5122 10.7349C25.5122 10.8187 25.3935 10.8815 25.156 10.9234C24.8278 10.9793 24.6462 11.0142 24.6253 11.0212C24.6253 11.0561 24.6602 11.126 24.7231 11.2307C24.7719 11.3075 24.8208 11.3774 24.8767 11.4472L24.8907 11.4402ZM26.008 12.0967C25.9452 12.1525 25.8893 12.1735 25.8544 12.1735C25.7985 12.1735 25.7008 12.1176 25.5541 12.0059C25.4074 11.8941 25.3376 11.8173 25.3376 11.7615C25.3376 11.7196 25.3865 11.6986 25.4773 11.6986H25.8265C25.9522 11.6986 26.0499 11.6986 26.1268 11.6777C26.2036 11.6567 26.2874 11.6288 26.3851 11.5799V10.239C26.3432 10.1343 26.1826 9.96669 25.9103 9.73623C25.7915 9.63148 25.7357 9.56863 25.7357 9.53371C25.7357 9.46387 25.8125 9.42896 25.9731 9.42896C26.1058 9.42896 26.2874 9.49181 26.5178 9.61053C26.7762 9.7502 26.9019 9.88289 26.9019 10.0016C26.9019 10.0156 26.9019 10.0575 26.888 10.1203C26.874 10.1832 26.874 10.2321 26.874 10.2809V12.5855C26.874 13.1093 26.8461 13.5283 26.7972 13.8495C26.7483 14.1708 26.6854 14.4082 26.6086 14.5758C26.5458 14.7085 26.5039 14.7784 26.4829 14.7784C26.4689 14.7784 26.455 14.7574 26.455 14.7225C26.455 14.6806 26.455 14.6317 26.455 14.5688V14.5339C26.455 14.3105 26.455 14.0241 26.441 13.668C26.434 13.3188 26.4201 12.9975 26.4131 12.7112C26.4061 12.4249 26.3991 12.1805 26.3921 11.9849L26.2455 12.0059C26.1407 12.0268 26.0639 12.0548 26.015 12.0897L26.008 12.0967Z" fill="black"/>
<path d="M29.5626 11.4752C29.5067 11.4403 29.4788 11.3984 29.4788 11.3425C29.4788 11.3006 29.4997 11.2657 29.5486 11.2378C29.5975 11.2099 29.6673 11.1959 29.7581 11.1959C30.0654 11.1959 30.3028 11.1819 30.4844 11.147C30.659 11.1121 30.8196 11.0702 30.9593 11.0143V10.5115C30.7987 10.5115 30.6799 10.5115 30.6101 10.5325C30.5403 10.5464 30.4634 10.5744 30.3796 10.6163C30.3308 10.6442 30.2889 10.6651 30.2539 10.6791C30.219 10.6931 30.1771 10.707 30.1422 10.707C30.0724 10.707 29.9467 10.6582 29.7721 10.5534C29.5975 10.4486 29.5067 10.3718 29.5067 10.3229C29.5067 10.295 29.5346 10.281 29.5835 10.2741C29.6324 10.2671 29.7022 10.2601 29.786 10.2601H30.0514C30.226 10.2601 30.3727 10.2601 30.4844 10.2391C30.5961 10.2182 30.7079 10.1972 30.8056 10.1623C30.8685 10.1274 30.9383 10.0995 31.0082 10.0646C31.071 10.0646 31.1758 10.1204 31.3085 10.2391C31.4481 10.3579 31.511 10.4417 31.511 10.5045C31.511 10.5255 31.497 10.5534 31.4691 10.5883C31.4411 10.6232 31.4202 10.6582 31.3992 10.6931C31.3783 10.728 31.3573 10.7908 31.3294 10.8886C31.3015 10.9794 31.2805 11.0492 31.2596 11.0772C31.3085 11.1051 31.3434 11.1261 31.3713 11.154C31.4132 11.1959 31.4342 11.2378 31.4342 11.2797C31.4342 11.3914 31.2596 11.4822 30.9104 11.552C30.5193 11.6079 30.2958 11.6359 30.233 11.6498V12.0828C30.233 12.1526 30.24 12.1945 30.2609 12.2015C30.2819 12.2155 30.3308 12.2295 30.4076 12.2295H30.4914C30.6241 12.2295 30.7987 12.2015 31.0012 12.1526C31.2037 12.1037 31.3434 12.0758 31.4202 12.0758C31.518 12.0758 31.5668 12.1107 31.5668 12.1806C31.5668 12.3412 31.4342 12.4809 31.1688 12.6136C30.9453 12.7183 30.7498 12.7742 30.5822 12.7742C30.4495 12.7742 30.3098 12.7253 30.1562 12.6205C29.9816 12.5088 29.8978 12.3831 29.8978 12.2504C29.8978 12.2225 29.9048 12.1456 29.9257 11.999C29.9327 11.9431 29.9397 11.8873 29.9397 11.8314V11.7616C29.9048 11.7266 29.8629 11.6847 29.8 11.6498C29.6673 11.566 29.5905 11.5171 29.5626 11.4962V11.4752ZM30.4076 13.2491H30.8825C31.1828 13.2491 31.4272 13.2491 31.6297 13.2351C31.8322 13.2211 32.0138 13.2002 32.1884 13.1653C32.2442 13.1513 32.3141 13.1233 32.4119 13.0884C32.5096 13.0535 32.5725 13.0256 32.6004 13.0256C32.6493 13.0256 32.7471 13.0814 32.8867 13.1792C33.0264 13.284 33.0962 13.3608 33.0962 13.4027C33.0962 13.4236 33.0893 13.4516 33.0683 13.4935C33.0474 13.5354 33.0334 13.5703 33.0264 13.5982C33.0124 13.71 32.9985 13.8217 32.9845 13.9195C32.9496 14.101 32.8937 14.2826 32.8099 14.4572C32.768 14.548 32.7331 14.6178 32.7191 14.6458C32.6633 14.7505 32.6283 14.7994 32.6004 14.7994C32.5864 14.7994 32.5725 14.7854 32.5655 14.7575C32.5585 14.7296 32.5515 14.6807 32.5515 14.6039L32.5236 13.4725C32.1744 13.4725 31.9021 13.4865 31.6995 13.5144C31.497 13.5424 31.3224 13.5843 31.1897 13.6401C31.1269 13.6681 31.085 13.682 31.064 13.689C31.0291 13.703 30.9942 13.71 30.9663 13.71C30.8894 13.71 30.7498 13.6611 30.5473 13.5563C30.3447 13.4516 30.247 13.3748 30.247 13.3119C30.247 13.277 30.3028 13.256 30.4076 13.256V13.2491ZM32.1604 9.70141C32.1046 9.63856 32.0766 9.58269 32.0766 9.54079C32.0766 9.47095 32.1325 9.43604 32.2512 9.43604C32.3979 9.43604 32.5795 9.4919 32.8029 9.61062C33.0543 9.74331 33.18 9.876 33.18 10.0017L33.1591 10.2112V11.0492C33.1591 11.1749 33.1591 11.3146 33.1521 11.4822C33.1451 11.6498 33.1451 11.7336 33.1451 11.7336C33.1451 11.8454 33.0962 12.0758 33.0055 12.411C32.9007 12.7881 32.8099 12.9767 32.7331 12.9767C32.7191 12.9767 32.7052 12.9488 32.6982 12.8999C32.6912 12.851 32.6842 12.7951 32.6842 12.7393V11.573C32.6074 11.573 32.5236 11.6009 32.4188 11.6498C32.3141 11.7057 32.2443 11.7266 32.2163 11.7266C32.1605 11.7266 32.0557 11.6708 31.909 11.559C31.7624 11.4473 31.6856 11.3705 31.6856 11.3216C31.6856 11.2797 31.7344 11.2657 31.8252 11.2657H32.1674C32.2512 11.2657 32.3211 11.2657 32.3769 11.2518C32.4328 11.2378 32.5236 11.2168 32.6633 11.1819V10.2461C32.6214 10.1623 32.5515 10.0715 32.4607 9.97377C32.37 9.876 32.2792 9.77823 32.1814 9.68744L32.1604 9.70141Z" fill="black"/>
<path d="M38.6972 10.8815C38.788 10.8257 38.8787 10.7977 38.9765 10.7977C39.207 10.7977 39.3885 10.8746 39.5282 11.0212C39.6679 11.1679 39.7377 11.3564 39.7377 11.5939V11.6497C39.7377 11.6497 39.7866 11.7265 39.8076 11.7754C39.8285 11.8243 39.8355 11.8662 39.8355 11.9011C39.8355 11.957 39.8075 11.9919 39.7587 12.0129C39.7098 12.0338 39.6679 12.0548 39.626 12.0687C39.4514 12.1595 39.2768 12.2573 39.1022 12.3481C38.8578 12.4738 38.6762 12.5296 38.5645 12.5296C38.5505 12.5296 38.5435 12.5296 38.5365 12.5296L38.5226 12.5157C38.5226 12.5157 38.5715 12.4668 38.5924 12.4598C38.7391 12.39 38.9067 12.2782 39.0882 12.1176C39.2489 11.978 39.3885 11.8313 39.5003 11.6916C39.4374 11.4821 39.2139 11.3355 38.8438 11.2447C38.6832 11.2098 38.6064 11.1399 38.6064 11.0422C38.6064 10.9863 38.6343 10.9374 38.6972 10.8885V10.8815ZM39.8145 10.7419C39.9053 10.686 39.9891 10.6581 40.0799 10.6581C40.3034 10.6581 40.471 10.7419 40.5897 10.9165C40.6875 11.0631 40.7503 11.2517 40.7783 11.4961C40.8551 11.6078 40.897 11.6707 40.904 11.6777C40.9459 11.7475 40.9668 11.8243 40.9668 11.9011C40.9668 11.9919 40.9389 12.0618 40.883 12.0897C40.8271 12.1246 40.7713 12.1525 40.7084 12.1805C40.3592 12.4598 40.0799 12.6623 39.8704 12.788C39.6609 12.9137 39.4933 12.9766 39.3676 12.9766H39.3397C39.3397 12.9766 39.3606 12.9487 39.3676 12.9487C39.3885 12.9347 39.4095 12.9207 39.4235 12.9137C39.5701 12.8509 39.7726 12.6693 40.052 12.369C40.2894 12.1106 40.464 11.8941 40.5757 11.7196C40.4919 11.4263 40.3243 11.2377 40.0659 11.1399C39.8075 11.0422 39.6749 10.9653 39.6749 10.9165C39.6749 10.8606 39.7237 10.8047 39.8145 10.7488V10.7419ZM41.6303 12.7811C41.5814 13.0255 41.5255 13.228 41.4696 13.3886C41.4138 13.5492 41.3509 13.6261 41.302 13.6261C41.2671 13.6261 41.2531 13.5353 41.2531 13.3537L41.2322 10.7C41.2182 10.6162 41.1135 10.4625 40.9179 10.239C40.8341 10.1483 40.7922 10.0714 40.7922 10.0226C40.7922 9.97367 40.8202 9.95272 40.883 9.95272C41.0017 9.95272 41.1693 10.0086 41.3789 10.1273C41.5884 10.246 41.6931 10.3578 41.6931 10.4555C41.6931 10.4695 41.6931 10.5044 41.6722 10.5533C41.6512 10.6022 41.6512 10.6371 41.6512 10.6581V11.5729H42.1121V10.246C42.0842 10.1343 42.0004 10.0016 41.8467 9.834C41.6931 9.67338 41.6233 9.56164 41.6233 9.51276C41.6233 9.45689 41.6582 9.42896 41.735 9.42896C41.8677 9.42896 42.0493 9.49879 42.2797 9.63148C42.5102 9.77115 42.6289 9.89685 42.6289 10.0156C42.6289 10.0435 42.6219 10.0924 42.601 10.1483C42.58 10.2041 42.573 10.26 42.573 10.3089V12.4179C42.573 12.8858 42.5661 13.242 42.5451 13.4934C42.5102 13.9543 42.4403 14.2965 42.3286 14.5269C42.2588 14.6876 42.2099 14.7714 42.182 14.7714C42.154 14.7714 42.1401 14.7155 42.1401 14.5968L42.1121 11.95H41.6512V12.2713C41.6512 12.3551 41.6512 12.4458 41.6512 12.5366C41.6512 12.6274 41.6372 12.6973 41.6233 12.7601L41.6303 12.7811Z" fill="black"/>
<path d="M48.3413 12.1596C47.9712 12.1596 47.5382 12.1806 47.0354 12.2225C46.5395 12.2644 46.2183 12.3133 46.0716 12.3761C46.0297 12.3901 45.9739 12.411 45.918 12.439C45.8621 12.4669 45.8132 12.4739 45.7853 12.4739C45.6806 12.4739 45.513 12.418 45.2825 12.2993C45.052 12.1806 44.9403 12.0758 44.9403 11.992C44.9403 11.9571 44.9752 11.9361 45.052 11.9361C45.1568 11.9361 45.3244 11.9361 45.5549 11.9501C45.7923 11.9571 45.918 11.9641 45.932 11.9641H46.5465C46.6792 11.7965 46.784 11.587 46.8678 11.3286C46.9516 11.0702 46.9935 10.8607 46.9935 10.6931C46.9935 10.6302 46.9585 10.5464 46.8957 10.4556C46.8328 10.3648 46.763 10.316 46.7071 10.316C46.6583 10.316 46.5884 10.3509 46.4976 10.4137C46.4068 10.4766 46.323 10.5185 46.2672 10.5185C46.2043 10.5185 46.1066 10.4905 45.9808 10.4277C45.8551 10.3648 45.7923 10.309 45.7923 10.2531C45.7923 10.2182 45.8063 10.1903 45.8342 10.1693C45.8621 10.1484 45.925 10.1204 46.0088 10.0995C46.2392 10.0087 46.4138 9.93187 46.5326 9.88298C46.6513 9.8341 46.749 9.80616 46.8049 9.80616C46.9306 9.80616 47.0703 9.89695 47.2239 10.0785C47.3776 10.2601 47.4544 10.4137 47.4544 10.5394C47.4544 10.721 47.3496 10.9654 47.1471 11.2797C47.0633 11.4124 46.8957 11.6359 46.6583 11.9361C47.0144 11.9361 47.3357 11.9292 47.6359 11.9082C47.7407 11.9082 47.8594 11.8942 48.0061 11.8733C48.1318 11.7476 48.2575 11.5311 48.3832 11.2308C48.5089 10.9305 48.5717 10.707 48.5717 10.5674C48.5717 10.5185 48.5368 10.4556 48.467 10.3858C48.3972 10.316 48.3343 10.281 48.2924 10.281C48.2645 10.281 48.2016 10.309 48.1039 10.3648C48.055 10.3928 48.0131 10.4067 47.9712 10.4067C47.8874 10.4067 47.7826 10.3648 47.6709 10.281C47.601 10.2322 47.5661 10.1833 47.5661 10.1414C47.5661 10.0855 47.629 10.0366 47.7547 10.0087C47.8036 9.99472 47.9153 9.94583 48.0829 9.86203C48.2505 9.77823 48.3832 9.73633 48.467 9.73633C48.5717 9.73633 48.6974 9.82712 48.8511 10.0157C49.0047 10.2042 49.0815 10.3579 49.0815 10.4696C49.0815 10.5953 48.9489 10.8327 48.6835 11.1959C48.474 11.4752 48.2924 11.6987 48.1388 11.8593C48.2854 11.8593 48.4111 11.8523 48.5159 11.8314C48.6276 11.8104 48.7533 11.7755 48.907 11.7266C48.9908 11.6987 49.0606 11.6847 49.1165 11.6847C49.2003 11.6847 49.2911 11.7127 49.3888 11.7755C49.4866 11.8384 49.5355 11.9082 49.5355 11.985C49.5355 12.0479 49.5075 12.0968 49.4587 12.1457C49.4028 12.1876 49.3399 12.2155 49.2561 12.2155C49.1095 12.2155 48.9209 12.2155 48.6905 12.1945C48.46 12.1806 48.3413 12.1736 48.3413 12.1736V12.1596ZM47.5731 12.6694C47.6639 12.7183 47.7547 12.7881 47.8524 12.8929C47.9781 13.0186 48.041 13.1164 48.041 13.1932C48.041 13.2351 48.02 13.277 47.9851 13.3189C47.9502 13.3608 47.9083 13.3887 47.8734 13.4236L47.8175 13.4935C47.8943 13.5493 48.0619 13.6401 48.3413 13.7728C48.7394 13.9544 48.9349 14.1918 48.9349 14.4782C48.9349 14.6248 48.886 14.7016 48.7813 14.7016C48.6905 14.7016 48.474 14.4921 48.1318 14.0801C47.9502 13.8566 47.8105 13.7169 47.7058 13.6541C47.4055 13.9474 47.1122 14.1918 46.8259 14.3804C46.4278 14.6458 46.0716 14.7784 45.7644 14.7784C45.7504 14.7784 45.7434 14.7784 45.7364 14.7784C45.7364 14.7784 45.7364 14.7715 45.7364 14.7575C45.7364 14.7435 45.7504 14.7435 45.7644 14.7365C45.7923 14.7156 45.8202 14.7016 45.8482 14.6946C46.1415 14.6108 46.4557 14.4013 46.7909 14.0591C47.0843 13.7658 47.3007 13.4795 47.4404 13.2002C47.4404 13.1443 47.4125 13.0395 47.3496 12.8859C47.3217 12.8091 47.3077 12.7532 47.3077 12.7043C47.3077 12.6415 47.3357 12.6136 47.3915 12.6136C47.4264 12.6136 47.4893 12.6345 47.5661 12.6834L47.5731 12.6694Z" fill="black"/>
</svg>
