<svg width="59" height="23" viewBox="0 0 59 23" fill="none" xmlns="http://www.w3.org/2000/svg">
<path d="M4.86194 1.19556H56.2748L54.1448 4.54766L57.3084 7.30616L54.7454 9.86912L57.6506 12.7743L54.494 15.9308L57.2036 18.6474L54.3474 21.5037H6.44721" fill="#CCECF0"/>
<path d="M4.86194 1.19556H56.2748L54.1448 4.54766L57.3084 7.30616L54.7454 9.86912L57.6506 12.7743L54.494 15.9308L57.2036 18.6474L54.3474 21.5037H6.44721" stroke="black" stroke-width="1.41" stroke-miterlimit="10"/>
<path d="M5.27393 1L1.44695 4.1426L4.15657 6.85919L1 10.0158L3.89817 12.9209L1.33521 15.4839L4.50574 18.2424L2.37576 21.5875L6.44717 21.5037" fill="#CCECF0"/>
<path d="M5.27393 1L1.44695 4.1426L4.15657 6.85919L1 10.0158L3.89817 12.9209L1.33521 15.4839L4.50574 18.2424L2.37576 21.5875L6.44717 21.5037" stroke="black" stroke-width="1.41" stroke-miterlimit="10"/>
<path d="M16.1963 10.9028C15.477 10.9726 14.9044 11.0494 14.4784 11.1262C14.0524 11.2031 13.7242 11.2938 13.4867 11.3986C13.4308 11.4195 13.3889 11.4335 13.347 11.4335C13.2772 11.4335 13.2144 11.4056 13.1725 11.3427C13.1236 11.2869 13.1026 11.1961 13.1026 11.0843C13.1026 11.0564 13.1166 10.9796 13.1375 10.8609C13.1445 10.812 13.1515 10.7701 13.1515 10.7282C13.1515 10.4628 13.0956 10.2323 12.9909 10.0298C12.8652 9.84127 12.7395 9.64573 12.6138 9.45717C12.6138 9.38734 12.6627 9.34543 12.7674 9.34543C12.9001 9.34543 13.0607 9.40829 13.2632 9.52701C13.4588 9.64573 13.5565 9.76445 13.5565 9.87618C13.5565 9.89015 13.5496 9.93205 13.5356 10.0089C13.5216 10.0787 13.5146 10.1416 13.5146 10.1835V10.5536C13.5146 10.6374 13.5146 10.6933 13.5356 10.7142C13.5496 10.7421 13.5775 10.7561 13.6264 10.7561L13.8708 10.7282C14.206 10.7002 14.5901 10.6653 15.0091 10.6095C15.4351 10.5606 15.8262 10.5117 16.1893 10.4628V9.10101C16.1684 9.05911 16.0357 8.89848 15.7843 8.61914C15.6795 8.50042 15.6307 8.42361 15.6307 8.3817C15.6307 8.31885 15.6865 8.28394 15.7913 8.28394C15.9449 8.28394 16.1405 8.34679 16.3779 8.47947C16.6153 8.61216 16.7341 8.74485 16.7341 8.87754C16.7341 8.89849 16.7341 8.94039 16.7201 9.00324C16.7131 9.06609 16.7061 9.10101 16.7061 9.11497V10.798C16.7899 10.798 16.8737 10.784 16.9715 10.7491C17.195 10.6793 17.3346 10.6374 17.3905 10.6374C17.5022 10.6374 17.6 10.6583 17.6908 10.7072C17.7816 10.7561 17.8305 10.8259 17.8305 10.9237C17.8305 10.9936 17.8095 11.0494 17.7606 11.0983C17.7118 11.1472 17.6419 11.1681 17.5511 11.1681C17.4883 11.1681 17.4115 11.1542 17.3137 11.1332C17.0693 11.0774 16.8528 11.0424 16.6572 11.0424C16.6293 11.1402 16.5734 11.2869 16.4826 11.4824C16.3779 11.7198 16.3011 11.8455 16.2522 11.8455C16.2243 11.8455 16.2103 11.7827 16.2103 11.664V11.5662C16.2103 11.3916 16.2103 11.2519 16.1963 11.1472C16.1893 11.0424 16.1754 10.9516 16.1684 10.8818L16.1963 10.9028ZM16.0287 12.1808C16.0287 12.1808 16.0916 12.1598 16.1405 12.1458C16.1893 12.1319 16.2243 12.1249 16.2452 12.1249C16.315 12.1249 16.4058 12.1808 16.5176 12.2855C16.6293 12.3903 16.6782 12.481 16.6782 12.5509C16.6782 12.5788 16.6712 12.6068 16.6503 12.6487C16.5944 12.7534 16.5665 12.8163 16.5595 12.8372C16.5246 13.0048 16.4966 13.1305 16.4826 13.2073C16.4687 13.2842 16.4338 13.4099 16.3849 13.5775C16.4547 13.6263 16.4966 13.6613 16.5106 13.6752C16.5595 13.7171 16.5804 13.766 16.5804 13.8219C16.5804 13.8778 16.5525 13.9266 16.4966 13.9616C16.4408 13.9965 16.3779 14.0244 16.3151 14.0244H14.9323C14.9044 14.0873 14.8764 14.1361 14.8415 14.1711C14.8066 14.206 14.7787 14.2269 14.7368 14.2269C14.6669 14.2269 14.6041 14.1082 14.5482 13.8708C14.4714 13.5565 14.4016 13.2492 14.3317 12.935C14.199 12.7744 14.1013 12.6556 14.0314 12.5648C13.9616 12.481 13.9267 12.4182 13.9267 12.3833C13.9267 12.3204 13.9756 12.2855 14.0733 12.2855C14.1851 12.2855 14.3387 12.3414 14.5552 12.4461C14.7647 12.5509 14.8695 12.6486 14.8695 12.7325L14.8555 12.8582L14.9253 13.7032C15.0859 13.7032 15.2815 13.6892 15.505 13.6682C15.7284 13.6473 15.924 13.6194 16.0776 13.5844V12.5788H15.9659C15.8611 12.5788 15.7214 12.6067 15.5469 12.6626C15.4631 12.6906 15.4002 12.7045 15.3583 12.7045C15.2954 12.7045 15.1837 12.6626 15.0231 12.5788C14.8625 12.495 14.7787 12.4322 14.7787 12.3833C14.7787 12.3344 14.8276 12.3134 14.9253 12.3134H15.2535C15.4142 12.3134 15.5538 12.3065 15.6586 12.2925C15.7633 12.2785 15.8821 12.2436 16.0078 12.1877L16.0287 12.1808Z" fill="black"/>
<path d="M19.7859 10.0928C19.7161 9.995 19.6812 9.90421 19.6812 9.83438C19.6812 9.75756 19.7231 9.71566 19.8208 9.71566C19.9605 9.71566 20.1351 9.79248 20.3516 9.94612C20.5611 10.0998 20.6658 10.2394 20.6658 10.3721C20.6658 10.407 20.6449 10.4908 20.603 10.6165C20.582 10.6864 20.5681 10.7492 20.5681 10.7911V11.5733C20.5681 11.6571 20.596 11.713 20.6588 11.7409C20.7217 11.7688 20.8055 11.7758 20.9172 11.7758C21.0918 11.7758 21.2874 11.7199 21.5108 11.6012C21.7343 11.4825 21.874 11.4266 21.9299 11.4266C21.9648 11.4266 21.9927 11.4406 22.0137 11.4615C22.0346 11.4825 22.0416 11.5174 22.0416 11.5593C22.0416 11.7898 21.9089 12.0063 21.6365 12.2018C21.3851 12.3834 21.1477 12.4742 20.9103 12.4742C20.7776 12.4742 20.6449 12.4043 20.5052 12.2577C20.3446 12.097 20.2678 11.9225 20.2678 11.7339V11.6152C20.2328 11.4127 20.1979 11.2101 20.163 11.0076C20.0862 10.6794 19.9605 10.3791 19.7789 10.0928H19.7859ZM22.7958 8.60528C22.712 8.52846 22.6701 8.45862 22.6701 8.40974C22.6701 8.33292 22.7539 8.29102 22.9285 8.29102C23.0752 8.29102 23.2777 8.36085 23.5361 8.50751C23.7945 8.65416 23.9202 8.79383 23.9202 8.93351C23.9202 8.97541 23.9202 9.01731 23.9202 9.04524C23.8992 9.16396 23.8922 9.23379 23.8922 9.26173V11.4406C23.8922 12.132 23.8503 12.7046 23.7595 13.1725C23.7037 13.4658 23.6269 13.7382 23.5221 13.9896C23.4523 14.1642 23.4034 14.248 23.3685 14.248C23.3475 14.248 23.3405 14.227 23.3335 14.1851C23.3335 14.1432 23.3335 14.0874 23.3335 14.0105V11.699C23.2428 11.706 23.0891 11.7549 22.8656 11.8387C22.7539 11.8806 22.6911 11.9015 22.6771 11.9015C22.6142 11.9015 22.5095 11.8317 22.3768 11.699C22.2371 11.5663 22.1673 11.4685 22.1673 11.4057C22.1673 11.3568 22.2162 11.3289 22.307 11.3289L22.6631 11.3498C22.7749 11.3498 22.8796 11.3428 22.9774 11.3219C23.0752 11.3009 23.1939 11.273 23.3405 11.2241V10.1836C23.1729 10.1836 23.0333 10.2045 22.9285 10.2534C22.8168 10.3093 22.698 10.3721 22.5863 10.421C22.5235 10.421 22.4047 10.3651 22.2301 10.2534C22.0556 10.1417 21.9718 10.0579 21.9718 10.009C21.9718 9.93913 22.0416 9.90422 22.1882 9.90422H22.3279C22.4955 9.90422 22.6631 9.89025 22.8237 9.86231C22.9844 9.83438 23.159 9.7855 23.3475 9.71566V9.21284C23.2986 9.10111 23.2148 8.98239 23.1031 8.85669C23.0333 8.77288 22.9355 8.68908 22.8168 8.59131L22.7958 8.60528Z" fill="black"/>
<path d="M26.6506 11.4126C26.5389 11.3288 26.49 11.266 26.49 11.2171C26.49 11.1612 26.5459 11.1333 26.6506 11.1333C26.7763 11.1333 26.9439 11.1333 27.1604 11.1543C27.3769 11.1752 27.4956 11.1752 27.5375 11.1752C27.8029 11.1752 28.0473 11.1752 28.2708 11.1682C28.4943 11.1682 28.6968 11.1543 28.8784 11.1403C28.8784 10.9238 28.8155 10.7283 28.6968 10.5397C28.5571 10.3651 28.4244 10.1905 28.2917 10.0159C28.2917 9.95308 28.3336 9.92515 28.4244 9.92515C28.5641 9.92515 28.7457 9.98102 28.9622 10.0997C29.1787 10.2185 29.2904 10.3372 29.2904 10.4559C29.2904 10.4908 29.2904 10.5327 29.2764 10.6026C29.2625 10.6654 29.2625 10.7073 29.2625 10.7352V11.1473H29.458C29.6605 11.1473 29.877 11.1403 30.1005 11.1263C30.324 11.1124 30.5195 11.0774 30.6941 11.0216C30.8687 10.9657 31.0014 10.9378 31.0991 10.9378C31.2109 10.9378 31.3296 10.9727 31.4553 11.0495C31.581 11.1193 31.6369 11.2101 31.6369 11.3149C31.6369 11.4615 31.5391 11.5383 31.3366 11.5383C31.1969 11.5383 31.0572 11.5384 30.9036 11.5244C30.5195 11.5034 30.2821 11.4895 30.1913 11.4895C29.6885 11.4895 29.2066 11.5034 28.7387 11.5383C28.2708 11.5733 27.9496 11.6082 27.7889 11.6641C27.754 11.678 27.6981 11.699 27.6283 11.7339C27.5585 11.7618 27.4956 11.7828 27.4398 11.7828C27.356 11.7828 27.2302 11.7409 27.0487 11.6501C26.8671 11.5663 26.7414 11.4895 26.6646 11.4336L26.6506 11.4126ZM27.8727 8.68208H28.592C28.9133 8.68208 29.1787 8.68208 29.4091 8.66112C29.6396 8.64017 29.7932 8.62621 29.891 8.59129C29.9887 8.55637 30.0795 8.51447 30.1773 8.46559C30.2751 8.4167 30.3379 8.39575 30.3728 8.39575C30.4357 8.39575 30.5335 8.46559 30.6661 8.60526C30.7988 8.74493 30.8687 8.8427 30.8687 8.90555C30.8687 8.94745 30.8477 8.99634 30.8058 9.05221C30.7639 9.10808 30.743 9.14998 30.743 9.17791C30.743 9.35948 30.7011 9.61787 30.6173 9.95309C30.5125 10.3721 30.3938 10.5816 30.2611 10.5816C30.2192 10.5816 30.1983 10.5257 30.1983 10.421V8.95444H29.9259C29.7094 8.95444 29.5418 8.95443 29.4231 8.96142C29.3044 8.9684 29.1996 8.97539 29.1088 8.98935C29.018 9.00332 28.9063 9.04522 28.7806 9.12204C28.6479 9.19188 28.5571 9.23378 28.5013 9.23378C28.4175 9.23378 28.2568 9.17093 28.0264 9.04522C27.7959 8.91952 27.6772 8.82175 27.6772 8.75191C27.6772 8.70303 27.7331 8.68208 27.8448 8.68208H27.8797H27.8727ZM29.4789 12.1459C29.8072 12.1459 30.0725 12.2437 30.2751 12.4322C30.4776 12.6208 30.5823 12.8722 30.5823 13.1795C30.5823 13.4658 30.4916 13.7032 30.317 13.8988C30.1354 14.0943 29.891 14.1921 29.5767 14.1921C29.2206 14.1921 28.9203 14.0873 28.6898 13.8709C28.4593 13.6544 28.3406 13.4169 28.3406 13.1515C28.3406 12.8233 28.4663 12.5719 28.7108 12.3903C28.9273 12.2297 29.1787 12.1529 29.4789 12.1529V12.1459ZM29.4929 12.53C29.2764 12.53 29.1158 12.5859 28.9901 12.6976C28.8714 12.8094 28.8085 12.956 28.8085 13.1306C28.8085 13.2773 28.8644 13.403 28.9761 13.5147C29.1088 13.6404 29.2834 13.7032 29.5069 13.7032C29.6815 13.7032 29.8351 13.6613 29.9608 13.5775C30.1075 13.4798 30.1843 13.3471 30.1843 13.1725C30.1843 12.9979 30.1145 12.8513 29.9748 12.7186C29.8351 12.5859 29.6745 12.523 29.4789 12.523L29.4929 12.53Z" fill="black"/>
<path d="M35.7153 11.2381L37.0282 11.2032C37.0282 11.0635 36.9933 10.8959 36.9304 10.7003C36.8676 10.5048 36.8327 10.3791 36.8327 10.3232C36.8327 10.2674 36.8606 10.2394 36.9165 10.2394C37.0142 10.2394 37.126 10.2743 37.2587 10.3512C37.3913 10.428 37.4612 10.5048 37.4612 10.5886C37.4612 10.6305 37.4542 10.6934 37.4332 10.7772C37.4123 10.861 37.4053 10.9168 37.4053 10.9518V11.1543C37.4821 11.1543 37.6427 11.1333 37.8732 11.0844C37.9919 11.0635 38.0827 11.0495 38.1525 11.0495C38.2503 11.0495 38.3551 11.0775 38.4598 11.1473C38.5646 11.2101 38.6204 11.2939 38.6204 11.3847C38.6204 11.4546 38.5925 11.5174 38.5366 11.5663C38.4808 11.6152 38.4109 11.6361 38.3202 11.6361C38.2154 11.6361 38.0548 11.6152 37.8313 11.5803C37.6078 11.5453 37.4402 11.5244 37.3285 11.5244C36.9304 11.5244 36.4206 11.5384 35.8061 11.5733C35.1915 11.6012 34.7865 11.6501 34.5979 11.706C34.5281 11.7269 34.4652 11.7479 34.4094 11.7758C34.3535 11.8037 34.3046 11.8107 34.2767 11.8107C34.1859 11.8107 34.0183 11.7479 33.7669 11.6082C33.5155 11.4685 33.3898 11.3777 33.3898 11.3079C33.3898 11.259 33.4526 11.2311 33.5853 11.2311H35.3452C35.3452 11.1194 35.3172 11.0006 35.2544 10.861C35.1985 10.7213 35.1357 10.5886 35.0798 10.4419C35.0798 10.3791 35.1147 10.3442 35.1985 10.3442C35.2963 10.3442 35.422 10.3861 35.5826 10.4629C35.7362 10.5397 35.8131 10.6235 35.8131 10.7143C35.8131 10.7353 35.7921 10.826 35.7502 10.9867C35.7293 11.0775 35.7153 11.1543 35.7153 11.2241V11.2381ZM36.267 8.29102C36.686 8.29102 36.9933 8.4237 37.2028 8.68908C37.3564 8.8916 37.4332 9.11508 37.4332 9.38045C37.4332 9.64583 37.3285 9.86231 37.126 10.0579C36.9234 10.2534 36.672 10.3512 36.3717 10.3512C36.0295 10.3512 35.7362 10.2394 35.4918 10.016C35.2474 9.79248 35.1217 9.55504 35.1217 9.30363C35.1217 9.00334 35.2334 8.75892 35.4639 8.57734C35.6874 8.39577 35.9597 8.30499 36.274 8.30499L36.267 8.29102ZM36.3787 12.1809C36.7 12.1809 36.9653 12.2996 37.1749 12.53C37.3704 12.7465 37.4682 13.0049 37.4682 13.2912C37.4682 13.5287 37.3913 13.7452 37.2307 13.9337C37.0422 14.1502 36.7908 14.2619 36.4625 14.2619C36.1133 14.2619 35.82 14.1432 35.5826 13.9058C35.3661 13.6893 35.2544 13.4379 35.2544 13.1655C35.2544 12.8443 35.3871 12.5999 35.6455 12.4183C35.8619 12.2647 36.1064 12.1878 36.3787 12.1878V12.1809ZM36.3229 8.68908C36.1203 8.68908 35.9388 8.73098 35.7921 8.82177C35.5966 8.9335 35.4988 9.10111 35.4988 9.31061C35.4988 9.45028 35.5896 9.58297 35.7642 9.71566C35.9388 9.84835 36.1343 9.9112 36.3438 9.9112C36.5533 9.9112 36.7279 9.85533 36.8536 9.73661C36.9723 9.61789 37.0352 9.49219 37.0352 9.34553C37.0352 9.14999 36.9723 8.98937 36.8466 8.87065C36.7209 8.75193 36.5463 8.68908 36.3229 8.68908V8.68908ZM36.3927 12.5859C36.1553 12.5859 35.9737 12.6418 35.848 12.7395C35.7223 12.8443 35.6594 12.97 35.6594 13.1166C35.6594 13.2493 35.7293 13.403 35.8759 13.5566C36.0365 13.7382 36.2251 13.829 36.4206 13.829C36.5743 13.829 36.7139 13.7871 36.8396 13.6963C37.0003 13.5845 37.0841 13.4239 37.0841 13.2284C37.0841 13.0608 37.0142 12.9071 36.8815 12.7814C36.7419 12.6487 36.5812 12.5859 36.3997 12.5859H36.3927Z" fill="black"/>
<path d="M47.1404 11.3218C47.1404 11.9363 46.9519 12.4391 46.5817 12.8372C46.2046 13.2353 45.7298 13.4308 45.1431 13.4308C44.5565 13.4308 44.1305 13.2422 43.7813 12.8721C43.4322 12.502 43.2576 12.0201 43.2576 11.4265C43.2576 10.784 43.4461 10.2603 43.8163 9.8622C44.1864 9.45716 44.6752 9.25464 45.2898 9.25464C45.8555 9.25464 46.3094 9.44319 46.6446 9.8203C46.9798 10.1974 47.1474 10.7002 47.1474 11.3218H47.1404ZM46.4421 11.3637C46.4421 10.805 46.3303 10.3511 46.1138 10.0019C45.8904 9.6527 45.604 9.47811 45.2409 9.47811C44.8428 9.47811 44.5286 9.64572 44.2981 9.97394C44.0746 10.3022 43.9559 10.7561 43.9559 11.3357C43.9559 11.9154 44.0677 12.3414 44.2981 12.6836C44.5286 13.0258 44.8289 13.1934 45.22 13.1934C45.611 13.1934 45.8974 13.0258 46.1208 12.6975C46.3443 12.3693 46.4491 11.9154 46.4491 11.3567L46.4421 11.3637Z" fill="black"/>
</svg>
