<svg width="59" height="23" viewBox="0 0 59 23" fill="none" xmlns="http://www.w3.org/2000/svg">
<path d="M4.86194 1.19556H56.2748L54.1448 4.54766L57.3084 7.30616L54.7454 9.86912L57.6506 12.7743L54.494 15.9308L57.2036 18.6405L54.3474 21.5037H6.4472" fill="#CCECF0"/>
<path d="M4.86194 1.19556H56.2748L54.1448 4.54766L57.3084 7.30616L54.7454 9.86912L57.6506 12.7743L54.494 15.9308L57.2036 18.6405L54.3474 21.5037H6.4472" stroke="black" stroke-width="1.41" stroke-miterlimit="10"/>
<path d="M5.27393 1L1.44695 4.1426L4.15656 6.8522L1 10.0158L3.89817 12.9139L1.33521 15.4769L4.50574 18.2354L2.37576 21.5875L6.44717 21.5037" fill="#CCECF0"/>
<path d="M5.27393 1L1.44695 4.1426L4.15656 6.8522L1 10.0158L3.89817 12.9139L1.33521 15.4769L4.50574 18.2354L2.37576 21.5875L6.44717 21.5037" stroke="black" stroke-width="1.41" stroke-miterlimit="10"/>
<path d="M9.13578 9.51319C9.22656 9.54112 9.3383 9.62492 9.464 9.75761C9.58971 9.89029 9.65256 10.009 9.65256 10.0998C9.65256 10.1347 9.64558 10.1696 9.62463 10.1976C9.61066 10.2115 9.58272 10.2465 9.54082 10.2884L9.28243 10.5328C9.33132 10.5677 9.38719 10.6026 9.44305 10.6375C9.49892 10.6725 9.56177 10.7004 9.61764 10.7213C9.75033 10.7632 9.83413 10.7982 9.86905 10.8261C9.9319 10.882 9.95984 10.9658 9.95984 11.0775C9.95984 11.1543 9.93889 11.2242 9.90397 11.28C9.86905 11.3359 9.82715 11.3708 9.77128 11.3708C9.70843 11.3708 9.59669 11.2451 9.42909 10.9937C9.33132 10.847 9.23355 10.7423 9.14276 10.6864C9.01007 10.7912 8.8704 10.8959 8.73772 11.0007C8.54916 11.1403 8.32569 11.2381 8.07428 11.287L7.88572 11.3219L7.85779 11.308C7.85779 11.308 7.89271 11.287 7.89969 11.28C7.94857 11.2451 7.97651 11.2311 7.99048 11.2242C8.1511 11.1473 8.36759 10.9727 8.63296 10.7074C8.93325 10.4071 9.08689 10.1976 9.08689 10.0649C9.08689 9.99505 9.05896 9.91124 9.01007 9.82046C8.96119 9.72967 8.9123 9.62492 8.86342 9.52715C8.86342 9.48525 8.89135 9.4643 8.94722 9.4643C9.00309 9.4643 9.05896 9.47129 9.12181 9.49224L9.13578 9.51319ZM10.6442 12.1739C10.9026 12.1739 11.1401 12.2577 11.3496 12.4253C11.58 12.6069 11.6918 12.8374 11.6918 13.1027C11.6918 13.3472 11.594 13.5567 11.4054 13.7173C11.2169 13.8779 11.0144 13.9687 10.7979 13.9687C10.5185 13.9687 10.2741 13.8779 10.0716 13.6893C9.86905 13.5078 9.7643 13.2983 9.7643 13.0748C9.7643 12.8024 9.84112 12.5859 10.0017 12.4183C10.1624 12.2507 10.3719 12.1669 10.6372 12.1669L10.6442 12.1739ZM10.6442 11.6921C10.5814 11.7968 10.5395 11.8457 10.5185 11.8457C10.4976 11.8457 10.4906 11.8038 10.4906 11.72C10.4906 11.5314 10.4836 11.2242 10.4696 10.7982C10.4557 10.3791 10.4417 10.016 10.4347 9.71571C10.4208 9.6319 10.3439 9.51319 10.2112 9.35955C10.0786 9.20591 10.0157 9.10814 10.0157 9.06624C10.0157 9.02434 10.0506 9.00338 10.1135 9.00338C10.2252 9.00338 10.3858 9.05227 10.5744 9.15702C10.7699 9.26177 10.8677 9.35954 10.8677 9.45033C10.8537 9.53413 10.8467 9.61095 10.8467 9.67381V10.3722H11.4124V9.39446C11.4124 9.30367 11.3356 9.17099 11.182 9.00338C11.0283 8.83578 10.9515 8.72405 10.9515 8.68214C10.9515 8.64024 10.9864 8.6123 11.0632 8.6123C11.1889 8.6123 11.3635 8.66119 11.58 8.76594C11.7965 8.8707 11.9082 8.97545 11.9082 9.07322C11.9082 9.10814 11.9082 9.15702 11.8943 9.23384C11.8803 9.31066 11.8803 9.35954 11.8803 9.38748V10.5467C11.8803 11.3149 11.7895 11.8597 11.6149 12.1879C11.58 12.2577 11.5451 12.3066 11.5242 12.3485C11.5172 12.3625 11.5032 12.3764 11.4822 12.3974C11.4683 12.3974 11.4543 12.3415 11.4543 12.2298V12.0761C11.4543 11.9225 11.4543 11.72 11.4403 11.4825C11.4334 11.2381 11.4264 11.0146 11.4124 10.7982H10.8467V10.8261C10.8467 11.0077 10.8328 11.1683 10.7979 11.308C10.7629 11.4476 10.7141 11.5733 10.6372 11.6851L10.6442 11.6921ZM10.7699 12.551C10.6093 12.551 10.4627 12.5859 10.3369 12.6628C10.2112 12.7396 10.1484 12.8513 10.1484 12.998C10.1484 13.1795 10.2392 13.3192 10.4207 13.424C10.5604 13.5008 10.7141 13.5427 10.8747 13.5427C11.0074 13.5427 11.1261 13.5078 11.2239 13.431C11.3216 13.3541 11.3775 13.2494 11.3775 13.1097C11.3775 12.9561 11.3356 12.8304 11.2448 12.7326C11.1401 12.6139 10.9794 12.558 10.7769 12.558L10.7699 12.551Z" fill="black"/>
<path d="M17.6907 11.9855C17.4253 11.9855 17.0133 12.0344 16.4476 12.1322C15.8819 12.2299 15.5048 12.3207 15.3093 12.4185C15.2255 12.4604 15.1487 12.4813 15.0788 12.4813C14.995 12.4813 14.9391 12.4534 14.8972 12.3975C14.8553 12.3417 14.8414 12.2648 14.8414 12.1741C14.8414 12.0553 14.8693 11.9576 14.9182 11.8738C14.9671 11.79 15.002 11.6992 15.016 11.5944C15.0299 11.4897 15.0439 11.3779 15.0439 11.2592V11.1545C15.016 11.1126 14.9252 11.0497 14.7785 10.9659C14.6319 10.8821 14.5551 10.8123 14.5551 10.7704C14.5551 10.6935 14.6249 10.6586 14.7646 10.6586C15.1347 10.6586 15.421 10.6447 15.6375 10.6167C15.854 10.5888 16.0216 10.5469 16.1403 10.498V9.77172C15.9797 9.77172 15.84 9.77172 15.7353 9.79267C15.6305 9.81362 15.5118 9.83457 15.3861 9.88346C15.3791 9.88346 15.3372 9.9044 15.2674 9.93234C15.2325 9.94631 15.1975 9.96028 15.1696 9.96028C15.0718 9.96028 14.9252 9.89742 14.7366 9.77172C14.6319 9.70188 14.576 9.653 14.576 9.61808C14.576 9.56221 14.6319 9.54126 14.7506 9.54126H15.2255C15.3582 9.54126 15.4699 9.54127 15.5467 9.53428C15.6235 9.53428 15.7423 9.51333 15.9099 9.48539C15.9448 9.48539 16.0286 9.4435 16.1543 9.35969C16.2102 9.32478 16.2521 9.3108 16.287 9.3108C16.3359 9.3108 16.4197 9.35969 16.5384 9.45746C16.6571 9.55523 16.713 9.63205 16.713 9.67395C16.713 9.70188 16.692 9.72981 16.6571 9.7787C16.6222 9.82758 16.6012 9.85552 16.5873 9.88346C16.5733 9.91139 16.5454 10.0231 16.4895 10.2047L16.4127 10.4491C16.4755 10.491 16.5244 10.5259 16.5384 10.5539C16.5733 10.5958 16.5942 10.6516 16.5942 10.7215C16.5942 10.8332 16.5244 10.903 16.3778 10.924L15.428 11.0776C15.4001 11.1824 15.3791 11.2732 15.3582 11.343C15.3023 11.5525 15.2744 11.7062 15.2744 11.8039C15.2744 11.8668 15.3023 11.8947 15.3582 11.8947L15.5816 11.8668C15.833 11.8388 16.1962 11.7969 16.6711 11.7411C17.2437 11.6643 17.5789 11.6224 17.6837 11.6154V9.41556C17.6557 9.35969 17.5161 9.20605 17.2507 8.9337C17.139 8.82196 17.0831 8.74513 17.0831 8.69625C17.0831 8.6334 17.125 8.60547 17.2158 8.60547C17.3694 8.60547 17.565 8.66134 17.7954 8.78006C18.0608 8.91274 18.1935 9.04543 18.1935 9.17113C18.1935 9.19907 18.1935 9.24097 18.1795 9.28985C18.1655 9.33874 18.1655 9.37365 18.1655 9.3946V12.0623C18.1655 12.1741 18.1586 12.2718 18.1516 12.3417C18.1376 12.5651 18.1097 12.7607 18.0817 12.9283C18.0538 13.0959 18.0049 13.2914 17.9281 13.5219C17.8373 13.8152 17.7675 13.9618 17.7326 13.9618C17.7186 13.9618 17.7046 13.9409 17.7046 13.892C17.7046 13.8431 17.7046 13.7803 17.7046 13.7035L17.6837 11.9925L17.6907 11.9855Z" fill="black"/>
<path d="M23.948 10.7911V9.51314C23.9201 9.40141 23.8223 9.24078 23.6477 9.03826C23.4801 8.83573 23.3893 8.71701 23.3893 8.67511C23.3893 8.61924 23.4312 8.59131 23.522 8.59131C23.6687 8.59131 23.8642 8.66114 24.1016 8.8078C24.3391 8.95445 24.4578 9.09412 24.4578 9.23379C24.4578 9.26173 24.4508 9.30363 24.4299 9.36648C24.4089 9.42933 24.4019 9.48521 24.4019 9.53409V11.4755C24.4019 11.685 24.4019 11.8875 24.3949 12.0691C24.3949 12.2507 24.374 12.4392 24.3461 12.6278C24.3181 12.8164 24.2692 13.0678 24.1924 13.382C24.1016 13.7591 24.0248 13.9477 23.9689 13.9477C23.955 13.9477 23.941 13.9058 23.934 13.822C23.927 13.7382 23.927 13.6753 23.927 13.6404V11.2311H23.2776C23.2776 11.4825 23.2706 11.685 23.2566 11.8247C23.2287 12.2507 23.1798 12.537 23.117 12.6976C23.0401 12.9071 22.9843 13.0119 22.9424 13.0119C22.9144 13.0119 22.8935 12.956 22.8795 12.8443C22.8655 12.7325 22.8516 12.5719 22.8376 12.3624C22.8236 12.1529 22.8167 11.9713 22.8097 11.8037C22.7119 11.8037 22.5024 11.8387 22.1812 11.9085C21.8599 11.9783 21.6155 12.0412 21.4479 12.104C21.3292 12.1809 21.2244 12.2158 21.1406 12.2158C20.994 12.2158 20.9241 12.118 20.9241 11.9225C20.9241 11.8317 20.9381 11.7479 20.973 11.678C21.0289 11.5872 21.0638 11.4755 21.0847 11.3498C21.1057 11.2241 21.1127 11.0914 21.1127 10.9587C21.1127 10.8051 21.0289 10.6794 20.8613 10.5746C20.6937 10.4699 20.6099 10.3861 20.6099 10.3302C20.6099 10.2534 20.6797 10.2185 20.8124 10.2185C20.959 10.2185 21.1057 10.2045 21.2593 10.1766C21.413 10.1486 21.5387 10.1067 21.6364 10.0579C21.6993 10.0229 21.7412 10.002 21.7621 9.98802C21.811 9.96008 21.8529 9.9531 21.8948 9.9531C21.9786 9.9531 22.0624 9.98103 22.1393 10.0299C22.2161 10.0788 22.251 10.1417 22.251 10.2255C22.251 10.3651 22.1742 10.4489 22.0205 10.4839L21.399 10.6096V11.3917C21.399 11.4685 21.399 11.5174 21.413 11.5384C21.4269 11.5663 21.4549 11.5803 21.4898 11.5803L22.8027 11.3638V9.8693C22.7817 9.82041 22.7259 9.73661 22.6281 9.62487C22.4465 9.40838 22.3557 9.26871 22.3557 9.21284C22.3557 9.15698 22.3977 9.13602 22.4815 9.13602C22.6141 9.13602 22.7887 9.19888 22.9913 9.3176C23.1938 9.43632 23.2985 9.56202 23.2985 9.68074C23.2985 9.70169 23.2985 9.73661 23.2846 9.7855C23.2776 9.83438 23.2706 9.86232 23.2706 9.8693V10.7981H23.9201L23.948 10.7911Z" fill="black"/>
<path d="M28.592 10.4631C28.62 10.498 28.627 10.5399 28.627 10.5818C28.627 10.6586 28.592 10.7424 28.5292 10.8332C28.4663 10.924 28.3965 11.0078 28.3197 11.0846C28.592 11.1405 28.7876 11.1824 28.8993 11.2173C29.1018 11.2802 29.2066 11.4268 29.2066 11.6433C29.2066 11.755 29.1926 11.8389 29.1577 11.9017C29.1228 11.9646 29.0809 11.9925 29.032 11.9925C28.9971 11.9925 28.9203 11.9296 28.8155 11.7969C28.5571 11.4757 28.3476 11.2732 28.194 11.2033C27.9496 11.4268 27.6981 11.6154 27.4258 11.769C27.0836 11.9646 26.7833 12.0553 26.5179 12.0553H26.49C26.49 12.0553 26.5249 12.0274 26.5389 12.0204C26.5528 12.0134 26.5878 11.9995 26.6436 11.9785C26.8601 11.8947 27.1534 11.6712 27.5166 11.3221C27.9146 10.945 28.1102 10.6586 28.1102 10.4701C28.1102 10.4282 28.1032 10.3793 28.0822 10.3234C28.0613 10.2675 28.0403 10.2396 28.0194 10.2187C27.9146 10.2187 27.8378 10.2256 27.7889 10.2466C27.74 10.2675 27.6912 10.2885 27.6423 10.3164C27.5724 10.3164 27.4398 10.2675 27.2512 10.1698C27.0626 10.072 26.9649 10.0022 26.9649 9.95329C26.9649 9.91837 27.0068 9.89742 27.0836 9.89742H27.1883C27.4118 9.89742 27.6143 9.88346 27.8169 9.86251C28.1172 9.82759 28.3546 9.76474 28.5222 9.67395C28.5711 9.64602 28.627 9.61809 28.6898 9.59015C28.7527 9.56222 28.8085 9.54126 28.8644 9.54126C28.9482 9.54126 29.039 9.5692 29.1228 9.63205C29.2066 9.6949 29.2555 9.76474 29.2555 9.84854C29.2555 9.96028 29.1368 10.0371 28.9063 10.079C28.7317 10.1069 28.5641 10.1349 28.3895 10.1558C28.3895 10.1907 28.4105 10.2396 28.4524 10.2955C28.4943 10.3514 28.5362 10.4072 28.5781 10.4631H28.592ZM29.6186 8.86386C29.5348 8.78704 29.4999 8.73117 29.4999 8.68927C29.4999 8.6334 29.5558 8.60547 29.6675 8.60547C29.8211 8.60547 30.0027 8.66134 30.2122 8.78006C30.4497 8.91274 30.5684 9.04543 30.5684 9.17811L30.5474 9.3946V11.6712C30.6103 11.6712 30.729 11.6363 30.9036 11.5735C31.0014 11.5386 31.0782 11.5176 31.1271 11.5176C31.2179 11.5176 31.3086 11.5455 31.3924 11.5874C31.4762 11.6363 31.5181 11.7062 31.5181 11.79C31.5181 11.8458 31.4972 11.8947 31.4623 11.9366C31.4204 11.9785 31.3715 11.9995 31.3086 11.9995C31.2179 11.9995 31.1201 11.9995 31.0293 11.9785C30.75 11.9436 30.5893 11.9227 30.5544 11.9227C30.5544 12.2369 30.5265 12.5372 30.4706 12.8305C30.4147 13.1238 30.324 13.4381 30.2052 13.7593C30.1913 13.8012 30.1773 13.8431 30.1494 13.885C30.1494 13.892 30.1354 13.906 30.1214 13.9199C30.1145 13.9199 30.1075 13.906 30.1005 13.8711C30.0935 13.8361 30.0935 13.7803 30.0935 13.7035L30.0516 9.38064C30.0167 9.29684 29.9678 9.22002 29.9189 9.15018C29.8351 9.04543 29.7443 8.94766 29.6326 8.85688L29.6186 8.86386Z" fill="black"/>
<path d="M34.0951 11.6013C34.2347 11.6013 34.4093 11.5873 34.6258 11.5664C34.7026 11.5594 34.8004 11.5454 34.9331 11.5245C34.9331 11.2521 34.9261 11.0566 34.9051 10.9379C34.8772 10.7354 34.8144 10.5468 34.7306 10.3722C34.7166 10.3443 34.7096 10.3303 34.7026 10.3163C34.6747 10.2675 34.6677 10.2325 34.6677 10.2186C34.6677 10.1767 34.6956 10.1487 34.7445 10.1487C34.8563 10.1487 34.9889 10.1906 35.1216 10.2814C35.2613 10.3722 35.3311 10.47 35.3311 10.5747C35.3311 10.6166 35.3102 10.7423 35.2753 10.9519C35.2404 11.1544 35.2194 11.3359 35.2194 11.4826C35.4219 11.4616 35.5686 11.4477 35.6454 11.4477C35.82 11.4337 36.0435 11.4058 36.3228 11.3709V9.4015C36.3228 9.31072 36.2181 9.17803 36.0085 8.99646C35.799 8.81488 35.6943 8.71013 35.6943 8.6822C35.6943 8.62633 35.7571 8.59839 35.8828 8.59839C36.0435 8.59839 36.232 8.65426 36.4625 8.766C36.7209 8.8917 36.8466 9.02439 36.8466 9.16406C36.8466 9.192 36.8466 9.24087 36.8326 9.29674C36.8186 9.35261 36.8186 9.4015 36.8186 9.42245V11.2382C36.8885 11.2382 37.0142 11.2102 37.2027 11.1544C37.2935 11.1264 37.3773 11.1125 37.4402 11.1125C37.531 11.1125 37.6217 11.1334 37.6986 11.1823C37.7754 11.2312 37.8173 11.301 37.8173 11.3848C37.8173 11.4407 37.8033 11.4826 37.7684 11.5105C37.7335 11.5385 37.6986 11.5594 37.6427 11.5594C37.5589 11.5594 37.3843 11.5385 37.1189 11.5035C36.9723 11.4826 36.8536 11.4756 36.7767 11.4756C36.7767 11.6223 36.7418 11.8388 36.672 12.1321C36.5882 12.4882 36.4974 12.6628 36.4136 12.6628C36.3857 12.6628 36.3787 12.6139 36.3787 12.5231L36.3158 11.748C36.1063 11.748 35.7641 11.7759 35.3102 11.8388C34.8493 11.8946 34.4093 11.9645 33.9833 12.0413C33.9414 12.0483 33.8855 12.0692 33.8227 12.1041C33.7598 12.139 33.711 12.16 33.676 12.16C33.6062 12.16 33.4735 12.1041 33.271 11.9994C33.0685 11.8946 32.9707 11.8108 32.9707 11.755C32.9707 11.7061 33.0336 11.6781 33.1662 11.6781C33.2989 11.6781 33.3897 11.6781 33.4456 11.6781C33.676 11.6642 33.8157 11.6502 33.8716 11.6502C33.8716 11.4547 33.8506 11.2731 33.8017 11.1194C33.7529 10.9658 33.69 10.7912 33.5992 10.6166C33.5643 10.5468 33.5434 10.4909 33.5434 10.456C33.5434 10.4141 33.5713 10.3932 33.6272 10.3932C33.7319 10.3932 33.8506 10.4351 33.9763 10.5259C34.102 10.6097 34.1649 10.7074 34.1649 10.8052C34.1649 10.868 34.1439 11.0356 34.102 11.294C34.0811 11.4267 34.0741 11.5315 34.0741 11.6153L34.0951 11.6013ZM33.5853 10.0719C33.5015 10.03 33.4177 9.98114 33.3338 9.92527C33.2012 9.84147 33.1383 9.77861 33.1383 9.74369C33.1383 9.70877 33.2012 9.68783 33.3269 9.68783C33.8227 9.68783 34.1439 9.67386 34.3046 9.65291C34.4652 9.63196 34.6258 9.57609 34.8004 9.4853C34.8563 9.45737 34.8982 9.43642 34.9191 9.42943C34.982 9.4015 35.0378 9.39451 35.0937 9.39451C35.1775 9.39451 35.2683 9.42246 35.3661 9.49229C35.4638 9.56213 35.5127 9.62497 35.5127 9.69481C35.5127 9.80655 35.2194 9.89035 34.6258 9.93924C34.2976 9.96717 34.0811 10.0021 33.9833 10.058C33.9205 10.0929 33.8786 10.1208 33.8506 10.1348C33.8227 10.1487 33.8017 10.1557 33.7738 10.1557C33.7459 10.1557 33.69 10.1278 33.5922 10.0789L33.5853 10.0719ZM34.542 12.7676C34.5001 12.7326 34.4722 12.6907 34.4722 12.6488C34.4722 12.6069 34.5211 12.579 34.6118 12.579C34.7375 12.579 34.8632 12.6069 34.9959 12.6628C35.1705 12.7396 35.2543 12.8234 35.2543 12.9282L35.2404 13.0609V13.2913C35.2404 13.3472 35.2613 13.3891 35.2962 13.4031C35.3311 13.417 35.38 13.431 35.4499 13.431H35.5756C35.827 13.431 36.0155 13.424 36.1343 13.4031C36.253 13.3751 36.3717 13.3472 36.4974 13.3263H36.5253C36.665 13.3263 36.7418 13.3821 36.7418 13.4869C36.7418 13.5916 36.658 13.6894 36.4904 13.7662C36.4276 13.8081 36.2809 13.85 36.0574 13.8919C35.9108 13.9199 35.806 13.9338 35.7362 13.9338C35.5197 13.9338 35.3032 13.7872 35.0867 13.4939C34.9051 13.2494 34.7306 13.012 34.556 12.7676H34.542Z" fill="black"/>
<path d="M39.7308 9.7855C39.8984 9.66678 40.087 9.61091 40.3105 9.61091C40.6317 9.61091 40.925 9.72963 41.1904 9.96009C41.4627 10.1905 41.5954 10.4629 41.5954 10.7632C41.6583 10.826 41.7002 10.8819 41.7211 10.9168C41.784 11.0076 41.8189 11.1124 41.8189 11.2311C41.8189 11.3498 41.777 11.4266 41.7002 11.4546C41.6234 11.4755 41.5465 11.4965 41.4767 11.5174C41.2183 11.685 40.8901 11.8596 40.492 12.0482C40.0032 12.2786 39.661 12.3973 39.4724 12.3973C39.4375 12.3973 39.4026 12.3973 39.3816 12.3834C39.3816 12.3834 39.3747 12.3834 39.3677 12.3694C39.3886 12.3485 39.4096 12.3345 39.4305 12.3345C39.6819 12.2507 40.0451 12.0412 40.513 11.699C40.9809 11.3568 41.2951 11.0914 41.4488 10.8889C41.372 10.5956 41.1694 10.4 40.8412 10.3023C40.7085 10.2604 40.4641 10.2255 40.1079 10.1975C39.7518 10.1696 39.5772 10.0998 39.5772 9.995C39.5772 9.93215 39.6261 9.86232 39.7308 9.7855V9.7855ZM42.3147 8.88462C42.2309 8.8078 42.189 8.74494 42.189 8.69606C42.189 8.62622 42.2519 8.59131 42.3846 8.59131C42.5452 8.59131 42.7337 8.64718 42.9502 8.75892C43.1947 8.88462 43.3134 9.01731 43.3134 9.16396L43.2924 9.38045V11.7828C43.2924 12.2856 43.2645 12.6976 43.2086 13.0259C43.1737 13.2424 43.1178 13.4519 43.034 13.6474C42.9572 13.8429 42.9014 13.9407 42.8734 13.9407C42.8455 13.9407 42.8385 13.8918 42.8385 13.794L42.7966 9.46425C42.7617 9.38743 42.7058 9.30363 42.622 9.19887C42.5173 9.07317 42.4195 8.96842 42.3147 8.88462V8.88462Z" fill="black"/>
<path d="M51.4282 13.1028C51.4282 13.1028 51.4072 13.1517 51.3723 13.1517H50.0803C50.0384 13.1517 50.0175 13.1377 50.0175 13.1167V13.012C50.0175 12.9771 50.0454 12.9561 50.1083 12.9561C50.1991 12.9561 50.2689 12.9561 50.3178 12.9421C50.3667 12.9282 50.3946 12.9002 50.3946 12.8514C50.3946 12.7745 50.2968 12.593 50.1013 12.2997L49.6334 11.5524L49.0607 12.3485C48.942 12.5092 48.8652 12.6209 48.8303 12.6907C48.7884 12.7606 48.7674 12.8164 48.7674 12.8583C48.7674 12.9212 48.8582 12.9561 49.0328 12.9561C49.1166 12.9561 49.1585 12.9771 49.1585 13.012V13.1167C49.1585 13.1167 49.1236 13.1517 49.1166 13.1517H48.0342L48.0062 13.1098V12.998C48.0062 12.998 48.0272 12.9491 48.0691 12.9491C48.1529 12.9491 48.2297 12.9142 48.3065 12.8514C48.3833 12.7815 48.4881 12.6628 48.6138 12.4812L49.4867 11.315L48.7046 10.1348C48.6068 10.0021 48.544 9.91128 48.509 9.87637C48.4183 9.77161 48.3205 9.72273 48.2157 9.72273C48.1668 9.72273 48.1389 9.70179 48.1389 9.66687V9.57608C48.1389 9.57608 48.1599 9.53418 48.2018 9.53418H49.5636C49.5636 9.53418 49.5985 9.54814 49.5985 9.56909V9.66687C49.5985 9.70179 49.5705 9.72273 49.5217 9.72273C49.396 9.72273 49.3052 9.72273 49.2563 9.74368C49.2074 9.76463 49.1795 9.78559 49.1795 9.84146C49.1795 9.88336 49.2074 9.95319 49.2633 10.0579C49.2982 10.1208 49.3331 10.1836 49.368 10.2325L49.8289 10.9588L50.3108 10.2884C50.4784 10.0579 50.5622 9.9043 50.5622 9.81352C50.5622 9.75067 50.4854 9.72273 50.3317 9.72273C50.2829 9.72273 50.2549 9.72273 50.2479 9.72273C50.234 9.71574 50.22 9.6948 50.22 9.65988V9.57608C50.22 9.57608 50.234 9.54116 50.2689 9.54116H51.2815C51.2815 9.54116 51.3025 9.54116 51.3094 9.55513C51.3094 9.56211 51.3164 9.5691 51.3234 9.57608V9.70178C51.3234 9.70178 51.3094 9.7367 51.2745 9.7367C51.1907 9.7367 51.1069 9.7786 51.0161 9.86241C50.9254 9.94621 50.7996 10.0929 50.646 10.3024L49.9756 11.2102L50.7577 12.3974C50.9044 12.6279 51.0161 12.7815 51.093 12.8583C51.1698 12.9352 51.2606 12.9701 51.3653 12.9701C51.4072 12.9701 51.4282 12.984 51.4282 13.012V13.1167V13.1028Z" fill="black"/>
</svg>
