<svg width="111" height="47" viewBox="0 0 111 47" fill="none" xmlns="http://www.w3.org/2000/svg">
<g clip-path="url(#clip0_146_829)">
<path d="M8.19026 34.087C7.54856 34.5467 6.77576 34.8624 5.87877 35.0476C4.98177 35.2329 4.07097 35.2054 3.15327 34.979C1.82158 34.6153 0.931478 33.8263 0.496779 32.6118C0.0620805 31.3974 -0.0897192 30.0594 0.0482805 28.598C0.13798 27.7746 0.31048 26.9513 0.565779 26.1279C0.821078 25.3045 1.11778 24.5292 1.46278 23.795C1.80778 23.0609 2.20797 22.4365 2.67027 21.9082C3.13257 21.3799 3.61557 20.9819 4.11927 20.7075C4.48497 20.5222 4.82307 20.4536 5.11977 20.5016C5.41647 20.5496 5.67177 20.6388 5.87877 20.7761C6.08576 20.9133 6.27206 21.0711 6.43076 21.2564C6.58946 21.4416 6.74126 21.5994 6.87926 21.7367C7.29326 21.2358 7.75556 20.7898 8.25926 20.3987C8.76296 20.0076 9.45296 19.6302 10.3293 19.2666C12.4889 18.4913 14.759 17.9423 17.1257 17.6199C19.4924 17.2974 21.8039 17.5513 24.0602 18.3746C24.4259 18.5118 24.6605 18.7177 24.7502 18.9921C24.8399 19.2666 24.8675 19.493 24.8192 19.6783C24.7295 20.1791 24.4742 20.5359 24.0602 20.7418C23.6462 20.9476 23.1839 21.0711 22.6802 21.1191C21.4382 21.0711 20.1824 21.1054 18.9197 21.2221C17.657 21.3387 16.4357 21.5171 15.2627 21.771C14.0897 22.0248 12.9719 22.3336 11.9162 22.6972C10.8606 23.0609 9.91525 23.4314 9.08726 23.795C9.63925 24.6184 10.005 25.531 10.1913 26.5396C10.3776 27.5482 10.4121 28.5431 10.2948 29.5242C10.1775 30.5054 9.93595 31.4111 9.57025 32.2345C9.19766 33.0578 8.74226 33.6753 8.19026 34.087ZM7.50026 27.7746C7.54856 27.4521 7.54856 27.1022 7.50026 26.7111C7.45196 26.32 7.39676 25.9701 7.32776 25.6476C7.25876 25.3251 7.16906 25.0507 7.05176 24.8242C6.93446 24.5978 6.85856 24.4812 6.81026 24.4812C6.39626 24.7556 6.01676 25.181 5.67177 25.7505C5.32677 26.32 5.05077 26.9375 4.84377 27.6031C4.63677 28.2686 4.51257 28.9205 4.46427 29.5586C4.41597 30.1967 4.46427 30.7044 4.60227 31.068C4.74027 31.1572 4.93347 31.1847 5.18877 31.1367C5.44407 31.0886 5.72007 30.9651 6.01676 30.7593C6.31346 30.5534 6.60326 30.2104 6.87926 29.7301C7.15526 29.2498 7.36226 28.598 7.50026 27.7746ZM29.5112 16.0418C29.5595 15.6781 29.7182 15.2733 29.9942 14.841C30.2702 14.4088 30.7325 14.1892 31.3742 14.1892C32.2022 14.3264 32.8577 14.8067 33.3407 15.6301C33.8237 16.4534 33.9962 17.3454 33.8582 18.306C33.6305 19.6302 33.458 21.1877 33.3407 22.9717C33.2234 24.7556 33.1475 26.5602 33.0992 28.3921C33.0509 30.2241 33.0302 31.9737 33.0302 33.641C33.0302 35.3083 33.0509 36.6943 33.0992 37.7921C33.0992 38.8007 32.9129 39.6104 32.5472 40.2279C32.1815 40.8454 31.7882 41.1542 31.3742 41.1542C30.9602 41.1542 30.5945 41.0307 30.2702 40.7768C29.9459 40.5229 29.663 40.2073 29.4077 39.8162C29.1524 39.4251 28.9592 39.0066 28.8212 38.5469C28.6832 38.0872 28.6142 37.6755 28.6142 37.3118C28.5245 35.8915 28.4624 34.2448 28.4417 32.3717C28.421 30.4986 28.4555 28.5294 28.5452 26.471C26.7926 27.7952 24.8675 29.0302 22.7492 30.1761C20.6309 31.3219 18.4022 32.2825 16.0562 33.0578C15.1385 33.3803 14.2277 33.3872 13.3307 33.0921C12.4337 32.7971 11.9369 32.3511 11.8472 31.7542C11.7989 31.4317 11.8679 31.1367 12.0542 30.8622C12.2405 30.5877 12.4475 30.3476 12.6752 30.1418C12.9029 29.9359 13.1582 29.7781 13.4342 29.6615C13.7102 29.5448 13.9172 29.4419 14.0552 29.3527C15.2972 28.8038 16.6151 28.2206 18.0227 27.6031C19.4234 26.9856 20.8034 26.3132 22.1627 25.579C23.5151 24.8448 24.7847 24.0901 25.9577 23.3148C27.1307 22.5394 28.1105 21.7161 28.8902 20.8447C29.0282 19.1088 29.2352 17.5032 29.5112 16.0418Z" fill="black"/>
<path d="M52.1431 17.4826C51.2254 18.9921 50.3284 20.4535 49.4521 21.8738C48.5758 23.2941 47.9341 24.8036 47.5201 26.4023C48.5758 26.1279 49.6729 25.6133 50.7976 24.8585C51.9223 24.1038 52.8124 23.3833 53.4541 22.6972C53.7301 22.4227 53.8129 22.1346 53.6956 21.8395C53.5783 21.5445 53.4748 21.3249 53.3851 21.1877C53.0608 20.728 52.9021 20.282 52.9021 19.8498C52.9021 19.4175 53.0401 19.0813 53.3161 18.8549C53.5921 18.6284 53.8681 18.5118 54.1441 18.5118C54.4201 18.5118 54.6823 18.5598 54.9376 18.649C55.1929 18.7382 55.3999 18.8686 55.5586 19.0264C55.7173 19.1842 55.8208 19.2871 55.8691 19.3352C56.6971 20.2065 57.1111 21.2014 57.1111 22.3198C57.1111 23.4382 56.7868 24.3919 56.1451 25.1673C55.7794 25.6681 55.4068 26.1279 55.0411 26.5395C54.6685 26.9512 54.2338 27.3629 53.7301 27.7746C53.7301 28.646 53.6956 29.6134 53.6266 30.6906C53.5576 31.7679 53.4403 32.8863 53.2816 34.0527C53.1229 35.2191 52.8883 36.3855 52.5916 37.5519C52.2949 38.7184 51.9154 39.8025 51.4531 40.8111C51.6394 40.7219 52.2466 40.4543 53.2816 40.022C54.3166 39.5898 55.4551 39.13 56.6971 38.6498C57.9391 38.1695 59.1604 37.7372 60.3541 37.3461C61.5478 36.955 62.4448 36.7149 63.0451 36.6257C63.3211 36.5776 63.6868 36.5914 64.1491 36.66C64.6114 36.7286 64.8598 37.154 64.9081 37.9293C64.9081 38.5262 64.7701 39.0134 64.4941 39.4045C64.2181 39.7956 63.8938 40.0563 63.5281 40.1936C62.5621 40.5572 61.4236 40.9963 60.1126 41.4972C58.8016 41.9981 57.4768 42.5401 56.1451 43.1096C54.8134 43.6791 53.5024 44.2623 52.2121 44.8592C50.9218 45.4562 49.7971 46.0051 48.8311 46.506C48.2308 46.8696 47.5684 47.0343 46.8301 46.9863C46.0919 46.9382 45.5192 46.7118 45.1052 46.3001C44.6429 45.8404 44.4359 45.3601 44.4842 44.8592C44.5325 44.3584 44.7602 43.9467 45.1742 43.6242L46.2781 42.8695C47.1061 40.9483 47.7961 39.0614 48.3481 37.2089C48.9001 35.3563 49.2934 33.147 49.5211 30.5877C49.0174 30.8141 48.5068 31.02 48.0031 31.2052C47.4994 31.3905 46.9888 31.514 46.4851 31.5826C45.9815 31.6512 45.4847 31.6306 45.0017 31.514C44.5187 31.3973 44.0909 31.1572 43.7252 30.7936C43.3112 30.3819 43.0214 29.8879 42.8627 29.3184C42.704 28.7489 42.6419 28.2068 42.6902 27.706C42.9179 25.6956 43.532 23.795 44.5187 22.0111C45.5053 20.2271 46.4851 18.6284 47.4511 17.2081C46.5334 17.2562 45.4847 17.4826 44.3117 17.8943C43.1387 18.306 42.1865 18.6284 41.4482 18.8549C40.8962 19.0813 40.3304 19.1293 39.7577 18.9921C39.185 18.8549 38.7779 18.5324 38.5502 18.0315C38.2742 17.6198 38.2397 17.0915 38.4467 16.4534C38.6537 15.8153 39.0332 15.3556 39.5852 15.0811C40.3649 14.7175 41.255 14.3744 42.2417 14.0519C43.2284 13.7295 44.2634 13.4687 45.3467 13.2629C46.4299 13.0571 47.4994 12.9541 48.5551 12.9541C49.6108 12.9541 50.5768 13.0708 51.4531 13.2972C52.3294 13.6197 52.7848 14.2029 52.8331 15.0468C52.8814 15.8908 52.6468 16.7073 52.1431 17.4826ZM47.3131 1.56435C47.7754 2.20245 48.1549 2.7788 48.4516 3.27968C48.7483 3.78056 49.0174 4.27457 49.2451 4.75486C49.4728 5.23515 49.7143 5.73603 49.9696 6.26435C50.2249 6.79267 50.5078 7.39647 50.8321 8.0826C51.0184 8.44625 51.1564 8.91968 51.2461 9.48917C51.3358 10.0587 51.1081 10.4841 50.5561 10.7585C50.0524 10.9849 49.4935 11.0535 48.9001 10.9644C48.2998 10.8752 47.8858 10.6213 47.6581 10.2096C47.0164 9.0226 46.3816 7.91107 45.7606 6.88187C45.1397 5.85267 44.3669 4.60391 43.4492 3.14245C42.9455 2.50435 42.8144 1.88683 43.0697 1.2899C43.325 0.692964 43.6769 0.30873 44.1392 0.123475C44.9189 -0.102949 45.5882 -0.0274742 46.1402 0.363621C46.6921 0.754716 47.0854 1.15267 47.3131 1.56435ZM71.3941 43.2811C71.3941 44.0565 71.1733 44.5848 70.7386 44.8592C70.3039 45.1337 69.7864 45.2229 69.1861 45.1337C68.8135 45.0445 68.4409 44.8112 68.0476 44.4476C67.6543 44.0839 67.4128 43.5556 67.3231 42.8695C67.1851 41.8609 67.0609 40.5366 66.9436 38.8899C66.8263 37.2432 66.7228 35.4592 66.6331 33.5381C66.5434 31.6169 66.4606 29.6134 66.3916 27.5344C66.3226 25.4554 66.2743 23.4657 66.2536 21.5651C66.226 19.6645 66.2191 17.9149 66.2191 16.3162C66.2191 14.7175 66.2398 13.4344 66.2881 12.4738C66.3364 12.0141 66.5089 11.6162 66.8056 11.2731C67.1023 10.93 67.5508 10.7791 68.1511 10.8271C68.9308 10.8752 69.5518 11.2388 70.0141 11.9249C70.4764 12.6111 70.6834 13.2972 70.6351 13.9833C70.5454 15.1292 70.4971 16.6387 70.4971 18.5118C70.4971 20.3849 70.5454 22.4433 70.6351 24.687C72.1048 24.5017 73.4434 24.3096 74.6371 24.1038C75.8308 23.8979 77.1004 23.6372 78.4321 23.3147C79.3498 23.0883 80.0053 23.1226 80.3986 23.4176C80.7919 23.7127 80.9851 24.1175 80.9851 24.6184C80.9851 25.2565 80.4814 25.9014 79.4671 26.5395C78.4528 27.1776 77.1004 27.6922 75.3961 28.0833C73.6918 28.4744 72.1324 28.7146 70.7041 28.8038C70.7938 31.5003 70.8973 34.1419 71.0146 36.7286C71.1319 39.3153 71.2561 41.4972 71.3941 43.2811Z" fill="black"/>
<path d="M108.24 41.6345C106.494 41.7717 104.845 41.9295 103.307 42.1147C101.768 42.3 100.236 42.4921 98.7181 42.698C97.2001 42.9038 95.6476 43.1234 94.0606 43.3498C92.4736 43.5762 90.8038 43.8301 89.0581 44.1045C88.0438 44.2418 87.1744 44.1731 86.4361 43.8987C85.6978 43.6242 85.2631 43.2126 85.1251 42.6637C84.8008 41.5178 85.5874 40.6945 87.4711 40.1936C88.2991 40.0083 89.1754 39.8368 90.0931 39.679C91.0108 39.5212 91.9354 39.3702 92.8531 39.233C93.3154 38.046 93.8536 36.5434 94.4746 34.7388C95.0956 32.9343 95.4544 31.2258 95.5441 29.6272C94.5298 29.8124 93.4534 30.0183 92.3011 30.2447C91.1488 30.4711 89.9758 30.6358 88.7821 30.725C88.1818 30.773 87.5953 30.7593 87.0226 30.6907C86.4499 30.622 85.9393 30.4368 85.5046 30.1418C85.0699 29.8467 84.7249 29.4213 84.4696 28.8724C84.2143 28.3235 84.0901 27.6168 84.0901 26.7454C84.0901 26.0593 84.1591 25.2839 84.2971 24.4126C84.4351 23.5412 84.6076 22.6423 84.8146 21.7023C85.0216 20.7623 85.2631 19.8292 85.5391 18.8892C85.8151 17.9492 86.0911 17.0915 86.3671 16.3162C86.0428 16.3642 85.7461 16.3985 85.4701 16.4191C85.1941 16.4397 84.9181 16.4534 84.6421 16.4534C83.5795 16.5426 82.8481 16.3162 82.4341 15.7673C82.0201 15.2184 81.8131 14.6695 81.8131 14.1206C81.8131 13.2492 82.4548 12.6797 83.7451 12.4053C85.3528 12.0416 87.1054 11.7191 88.9891 11.4447C90.8728 11.1702 92.6461 10.985 94.3021 10.8958C95.1784 10.8066 95.9374 10.8958 96.5791 11.1702C97.2208 11.4447 97.5658 11.973 97.6141 12.7483C97.6624 13.4345 97.4209 13.9353 96.8896 14.2578C96.3583 14.5803 95.8891 14.7861 95.4751 14.8753C94.0951 15.1498 92.5771 15.4242 90.9211 15.6987C90.4174 17.3454 89.9413 19.1499 89.5066 21.1191C89.0719 23.0883 88.8028 24.7762 88.7131 26.1965C89.8654 26.1073 91.1764 25.922 92.6461 25.6476C94.1158 25.3731 95.3854 25.1673 96.4411 25.0301C98.0488 24.8037 99.2218 25.0644 99.9601 25.8191C100.698 26.5739 100.947 27.5482 100.719 28.7352C100.581 29.3321 100.409 30.0388 100.202 30.8622C99.9946 31.6855 99.7393 32.5432 99.4426 33.4352C99.1459 34.3272 98.8216 35.2191 98.4766 36.1111C98.1316 37.0031 97.8004 37.8127 97.4761 38.5469C100.836 38.1352 104.466 37.8607 108.378 37.7235C109.068 37.7235 109.675 37.8813 110.207 38.2038C110.738 38.5263 111 38.938 111 39.4388C111 40.0769 110.69 40.5847 110.069 40.9483C109.448 41.312 108.84 41.5453 108.24 41.6345Z" fill="black"/>
</g>
<defs>
<clipPath id="clip0_146_829">
<rect width="111" height="47" fill="white"/>
</clipPath>
</defs>
</svg>
