<svg width="60" height="23" viewBox="0 0 60 23" fill="none" xmlns="http://www.w3.org/2000/svg">
<path d="M5.39429 1.19556H56.8002L54.6702 4.54068L57.8407 7.29918L55.2778 9.86912L58.1759 12.7673L55.0194 15.9308L57.729 18.6405L54.8727 21.4967H6.97955" fill="white"/>
<path d="M5.39429 1.19556H56.8002L54.6702 4.54068L57.8407 7.29918L55.2778 9.86912L58.1759 12.7673L55.0194 15.9308L57.729 18.6405L54.8727 21.4967H6.97955" stroke="black" stroke-width="1.41" stroke-miterlimit="10"/>
<path d="M5.79932 1L1.97234 4.1426L4.68894 6.85221L1.52539 10.0088L4.43054 12.9139L1.86758 15.4769L5.03811 18.2354L2.90115 21.5875L6.97954 21.4967" fill="white"/>
<path d="M5.79932 1L1.97234 4.1426L4.68894 6.85221L1.52539 10.0088L4.43054 12.9139L1.86758 15.4769L5.03811 18.2354L2.90115 21.5875L6.97954 21.4967" stroke="black" stroke-width="1.41" stroke-miterlimit="10"/>
<path d="M20.1016 11.5801H20.779C21.3586 11.5801 21.7986 11.5801 22.1199 11.5661C22.4411 11.5522 22.7903 11.5382 23.1814 11.5102C23.5724 11.4753 23.8937 11.4334 24.1311 11.3636C24.2149 11.3426 24.2847 11.3287 24.3546 11.3147C24.4174 11.3007 24.4733 11.2938 24.5152 11.2938C24.6269 11.2938 24.7387 11.3217 24.8364 11.3845C24.9342 11.4404 24.9831 11.5242 24.9831 11.629C24.9831 11.7756 24.8923 11.8455 24.7177 11.8455C24.6269 11.8455 24.4873 11.8455 24.2987 11.8245C24.1102 11.8105 23.9705 11.8036 23.8797 11.8036C23.8937 11.8664 23.9216 11.9432 23.9565 12.034C23.9775 12.0829 23.9845 12.1318 23.9845 12.1807C23.9845 12.46 23.9705 12.7184 23.9356 12.9558C23.9007 13.1933 23.8448 13.4377 23.761 13.6682C23.7051 13.8288 23.6493 13.9545 23.6073 14.0523C23.5515 14.171 23.5026 14.2268 23.4747 14.2268C23.4607 14.2129 23.4537 14.1989 23.4537 14.1849C23.4467 14.15 23.4397 14.1221 23.4397 14.0942V12.9419C23.4397 12.6346 23.4397 12.4111 23.4328 12.2505C23.4188 12.0969 23.3909 11.9502 23.349 11.8105L22.3154 11.8594C22.3294 11.9153 22.3433 11.9921 22.3713 12.0829C22.3852 12.1248 22.3922 12.1597 22.3922 12.1946C22.3922 12.3413 22.2944 12.6346 22.1059 13.0815C21.9034 13.5564 21.7497 13.7939 21.645 13.7939C21.624 13.7729 21.617 13.752 21.617 13.731L21.631 13.6263C21.6939 13.3469 21.7427 13.1025 21.7777 12.9C21.8126 12.6975 21.8265 12.5159 21.8265 12.3622C21.8265 12.1877 21.8056 12.041 21.7567 11.9223H21.6729C21.5193 11.9223 21.4005 11.9223 21.3167 11.9293C21.2329 11.9362 21.1422 11.9572 21.0444 11.9921C20.9955 12.0131 20.9257 12.041 20.8489 12.0759C20.8 12.0969 20.7581 12.1108 20.7301 12.1108C20.6463 12.1108 20.4787 12.048 20.2273 11.9153C19.9759 11.7826 19.8572 11.6848 19.8572 11.629C19.8572 11.5801 19.941 11.5591 20.1086 11.5591L20.1016 11.5801ZM21.5332 9.56882C21.4215 9.51994 21.3098 9.46407 21.205 9.41519C21.0304 9.31742 20.9396 9.25456 20.9396 9.21266C20.9396 9.16378 21.0025 9.14283 21.1352 9.14283C22.5249 9.14283 23.3559 9.07997 23.6213 8.94729C23.74 8.87745 23.8518 8.84253 23.9426 8.84253C24.0403 8.84253 24.1451 8.87745 24.2498 8.9403C24.3546 9.00316 24.4035 9.08696 24.4035 9.17774C24.4035 9.22663 24.3825 9.26853 24.3476 9.29646C24.3127 9.3244 24.2568 9.34535 24.18 9.34535H23.5654C23.2163 9.34535 22.909 9.35932 22.6366 9.38027C22.3713 9.40122 22.1548 9.4501 21.9872 9.51295C21.9522 9.5339 21.9034 9.55486 21.8545 9.58279C21.8056 9.61072 21.7567 9.62469 21.7218 9.62469C21.6729 9.62469 21.6031 9.61072 21.5262 9.57581L21.5332 9.56882ZM22.8322 9.60374C23.0906 9.60374 23.314 9.66659 23.5096 9.79928C23.754 9.96688 23.8797 10.2043 23.8797 10.5046C23.8797 10.784 23.7959 10.9935 23.6213 11.1471C23.4747 11.2798 23.2861 11.3426 23.0626 11.3426C22.7274 11.3426 22.4481 11.2379 22.2246 11.0354C22.036 10.8608 21.9383 10.6722 21.9383 10.4697C21.9383 10.2183 22.0081 10.0158 22.1408 9.86213C22.3014 9.68754 22.5319 9.59676 22.8392 9.59676L22.8322 9.60374ZM22.2106 8.221C22.2805 8.24195 22.3852 8.25592 22.5249 8.2629C22.6716 8.26988 22.8042 8.27687 22.9299 8.27687H23.3629C23.4886 8.27687 23.5445 8.31178 23.5445 8.3886C23.5445 8.50034 23.4467 8.60509 23.2512 8.6889C23.0906 8.75873 22.9439 8.80063 22.8182 8.80063C22.6646 8.80063 22.5598 8.80063 22.5109 8.77968C22.462 8.75873 22.3852 8.72381 22.2944 8.64699C22.2386 8.60509 22.1757 8.54923 22.1059 8.47241C22.0151 8.37464 21.9662 8.3048 21.9662 8.2629C21.9662 8.22798 21.9941 8.20703 22.057 8.20703L22.2036 8.22798L22.2106 8.221ZM22.9299 10.0018C22.7414 10.0018 22.5947 10.0507 22.476 10.1485C22.3573 10.2462 22.3014 10.351 22.3014 10.4627C22.3014 10.5884 22.3713 10.6932 22.5039 10.7979C22.6436 10.8957 22.7903 10.9446 22.9579 10.9446C23.0975 10.9446 23.2163 10.9097 23.328 10.8259C23.4607 10.7281 23.5235 10.6024 23.5235 10.4348C23.5235 10.2951 23.4677 10.1834 23.3559 10.1066C23.2442 10.0297 23.0975 9.98784 22.923 9.98784L22.9299 10.0018Z" fill="black"/>
<path d="M28.9987 10.3231C29.0267 10.358 29.0476 10.3999 29.0476 10.4488C29.0476 10.5047 29.0267 10.5605 28.9917 10.6234C28.9498 10.6862 28.8591 10.805 28.7054 10.9726C28.8311 11.0284 28.901 11.0634 28.9219 11.0773C28.9917 11.1053 29.0616 11.1262 29.1384 11.1472C29.4038 11.217 29.5714 11.2868 29.6342 11.3567C29.6971 11.4265 29.725 11.5382 29.725 11.6849C29.725 11.8036 29.7041 11.8944 29.6691 11.9573C29.6342 12.0201 29.5853 12.055 29.5225 12.055C29.4666 12.055 29.3828 11.9782 29.2641 11.8316C28.9568 11.4475 28.7194 11.217 28.5588 11.1332C28.1886 11.4754 27.9721 11.6779 27.9023 11.7268C27.6579 11.9154 27.3925 12.048 27.1062 12.1249C27.0014 12.1458 26.8967 12.1668 26.7989 12.1877H26.778C26.778 12.1877 26.8059 12.1598 26.8129 12.1528C26.8408 12.1318 26.8897 12.1109 26.9456 12.083C27.204 11.9573 27.5042 11.7058 27.8395 11.3357C28.2096 10.9237 28.3981 10.5955 28.3981 10.358C28.3981 10.2323 28.3702 10.1415 28.3074 10.0857C28.2235 10.0857 28.1467 10.0926 28.0909 10.1136C28.035 10.1346 27.9721 10.1555 27.9163 10.1695C27.8395 10.1695 27.7068 10.1136 27.5112 9.99488C27.3227 9.87616 27.2249 9.79236 27.2249 9.73649C27.2249 9.70157 27.2668 9.68062 27.3506 9.68062H27.5461C27.8115 9.68062 28.035 9.66665 28.2166 9.6457C28.5099 9.61078 28.7543 9.54095 28.9638 9.44318C29.0127 9.41524 29.0476 9.39429 29.0755 9.38033C29.1454 9.34541 29.2082 9.32446 29.2711 9.32446C29.3689 9.32446 29.4596 9.35239 29.5504 9.41524C29.6412 9.4781 29.6831 9.54793 29.6831 9.63872C29.6831 9.75045 29.5714 9.82727 29.3409 9.86918C29.1593 9.89711 28.9778 9.91806 28.7962 9.94599C28.7962 9.9879 28.8171 10.0507 28.859 10.1136C28.9009 10.1765 28.9498 10.2533 29.0057 10.3161L28.9987 10.3231ZM30.1999 8.57722C30.1021 8.49342 30.0532 8.43056 30.0532 8.3747C30.0532 8.31883 30.1091 8.29089 30.2208 8.29089C30.3815 8.29089 30.598 8.36073 30.8703 8.50738C31.1357 8.64705 31.2754 8.79371 31.2754 8.94036C31.2754 8.9683 31.2754 9.01718 31.2614 9.07305C31.2474 9.12892 31.2474 9.17082 31.2474 9.19177V11.6011C31.2474 12.083 31.2195 12.502 31.1706 12.8581C31.1217 13.2143 31.024 13.5914 30.8843 13.9895C30.8633 14.0593 30.8354 14.1222 30.8075 14.1641C30.8005 14.178 30.7865 14.192 30.7725 14.2129C30.7725 14.192 30.7656 14.171 30.7586 14.1361C30.7586 14.1012 30.7586 14.0803 30.7586 14.0593V13.9266C30.7586 13.7101 30.7586 13.2771 30.7446 12.6137C30.7376 11.9503 30.7237 11.3287 30.7167 10.7421C30.7097 10.1555 30.7027 9.61777 30.6957 9.1359C30.6608 9.05908 30.6049 8.97528 30.5351 8.8845C30.4373 8.77276 30.3326 8.66102 30.2069 8.56325L30.1999 8.57722Z" fill="black"/>
<path d="M40.5075 11.3147C40.5075 11.9292 40.3189 12.4321 39.9488 12.8301C39.5717 13.2282 39.0968 13.4237 38.5102 13.4237C37.9236 13.4237 37.4976 13.2352 37.1484 12.865C36.7992 12.4949 36.6246 12.013 36.6246 11.4194C36.6246 10.777 36.8132 10.2532 37.1833 9.85513C37.5534 9.45008 38.0493 9.24756 38.6568 9.24756C39.2225 9.24756 39.6764 9.43611 40.0116 9.81323C40.3469 10.1903 40.5145 10.6932 40.5145 11.3147H40.5075ZM39.8091 11.3566C39.8091 10.7979 39.6974 10.344 39.4809 9.9948C39.2644 9.64562 38.9711 9.47103 38.608 9.47103C38.2099 9.47103 37.8956 9.63864 37.6652 9.96686C37.4347 10.2951 37.323 10.749 37.323 11.3287C37.323 11.9083 37.4347 12.3343 37.6652 12.6765C37.8956 13.0187 38.1959 13.1863 38.587 13.1863C38.9781 13.1863 39.2714 13.0187 39.4879 12.6904C39.7044 12.3622 39.8161 11.9083 39.8161 11.3496L39.8091 11.3566Z" fill="black"/>
</svg>
