<svg width="59" height="22" viewBox="0 0 59 22" fill="none" xmlns="http://www.w3.org/2000/svg">
<path d="M4.86194 0.825928H56.2748L54.1448 4.17803L57.3084 6.93653L54.7454 9.49949L57.6506 12.4046L54.494 15.5612L57.2036 18.2778L54.3474 21.1341H6.4472" fill="white"/>
<path d="M4.86194 0.825928H56.2748L54.1448 4.17803L57.3084 6.93653L54.7454 9.49949L57.6506 12.4046L54.494 15.5612L57.2036 18.2778L54.3474 21.1341H6.4472" stroke="black" stroke-width="1.41" stroke-miterlimit="10"/>
<path d="M5.27393 0.630371L1.44695 3.77297L4.15656 6.48957L1 9.64613L3.89817 12.5513L1.33521 15.1142L4.50574 17.8727L2.37576 21.2179L6.44717 21.1341" fill="white"/>
<path d="M5.27393 0.630371L1.44695 3.77297L4.15656 6.48957L1 9.64613L3.89817 12.5513L1.33521 15.1142L4.50574 17.8727L2.37576 21.2179L6.44717 21.1341" stroke="black" stroke-width="1.41" stroke-miterlimit="10"/>
<path d="M16.1963 10.533C15.477 10.6028 14.9044 10.6796 14.4784 10.7565C14.0524 10.8333 13.7242 10.9241 13.4867 11.0288C13.4308 11.0498 13.3889 11.0637 13.347 11.0637C13.2772 11.0637 13.2144 11.0358 13.1725 10.973C13.1236 10.9171 13.1026 10.8263 13.1026 10.7146C13.1026 10.6796 13.1166 10.6098 13.1375 10.4911C13.1445 10.4492 13.1515 10.4003 13.1515 10.3654C13.1515 10.1 13.0956 9.86955 12.9909 9.66703C12.8652 9.47847 12.7395 9.28293 12.6138 9.09438C12.6138 9.02454 12.6696 8.98264 12.7674 8.98264C12.9001 8.98264 13.0607 9.04549 13.2632 9.16421C13.4588 9.28293 13.5565 9.40165 13.5565 9.51339C13.5565 9.52736 13.5496 9.56926 13.5356 9.64608C13.5216 9.71591 13.5146 9.77877 13.5146 9.82067V10.1908C13.5146 10.2746 13.5146 10.3305 13.5356 10.3514C13.5496 10.3794 13.5775 10.3933 13.6264 10.3933L13.8708 10.3654C14.206 10.3374 14.5901 10.3025 15.0091 10.2467C15.4351 10.1978 15.8262 10.1489 16.1893 10.1V8.73822C16.1684 8.69632 16.0357 8.5357 15.7843 8.25636C15.6795 8.13763 15.6307 8.06081 15.6307 8.01891C15.6307 7.95606 15.6865 7.92114 15.7913 7.92114C15.9449 7.92114 16.1405 7.98399 16.3779 8.11668C16.6153 8.24937 16.7341 8.38206 16.7341 8.51475C16.7341 8.5357 16.7341 8.57759 16.7201 8.64045C16.7131 8.7033 16.7061 8.73822 16.7061 8.75219V10.4352C16.7899 10.4352 16.8737 10.4213 16.9715 10.3863C17.195 10.3165 17.3346 10.2746 17.3905 10.2746C17.5023 10.2746 17.6 10.2955 17.6908 10.3444C17.7816 10.3863 17.8305 10.4632 17.8305 10.5609C17.8305 10.6308 17.8025 10.6866 17.7606 10.7355C17.7118 10.7844 17.6419 10.8054 17.5511 10.8054C17.4883 10.8054 17.4115 10.7914 17.3207 10.7704C17.0763 10.7146 16.8598 10.6796 16.6642 10.6796C16.6363 10.7774 16.5804 10.9241 16.4896 11.1196C16.3849 11.357 16.3081 11.4828 16.2592 11.4828C16.2312 11.4828 16.2173 11.4199 16.2173 11.3012V11.2034C16.2173 11.0288 16.2173 10.8891 16.2033 10.7914C16.1893 10.6936 16.1824 10.5958 16.1754 10.526L16.1963 10.533ZM16.0287 11.811C16.0287 11.811 16.0916 11.79 16.1405 11.7761C16.1893 11.7621 16.2243 11.7551 16.2452 11.7551C16.315 11.7551 16.4058 11.811 16.5176 11.9157C16.6293 12.0205 16.6782 12.1113 16.6782 12.1811C16.6782 12.209 16.6712 12.237 16.6503 12.2789C16.5944 12.3836 16.5665 12.4465 16.5595 12.4674C16.5246 12.635 16.4966 12.7607 16.4827 12.8376C16.4687 12.9144 16.4338 13.0401 16.3849 13.2077C16.4547 13.2566 16.4966 13.2915 16.5106 13.3055C16.5525 13.3543 16.5804 13.3962 16.5804 13.4521C16.5804 13.508 16.5525 13.5569 16.4966 13.5988C16.4408 13.6407 16.3779 13.6616 16.315 13.6616H14.9323C14.9044 13.7245 14.8764 13.7734 14.8415 13.8083C14.8066 13.8432 14.7787 13.8641 14.7368 13.8641C14.6669 13.8641 14.6041 13.7454 14.5482 13.508C14.4784 13.1937 14.4016 12.8864 14.3317 12.5722C14.199 12.4116 14.1013 12.2928 14.0314 12.2021C13.9616 12.1183 13.9267 12.0554 13.9267 12.0205C13.9267 11.9576 13.9756 11.9227 14.0733 11.9227C14.1851 11.9227 14.3457 11.9786 14.5552 12.0833C14.7647 12.1881 14.8695 12.2859 14.8695 12.3766L14.8555 12.4954L14.9253 13.3404C15.0859 13.3404 15.2815 13.3264 15.505 13.3055C15.7284 13.2845 15.924 13.2566 16.0776 13.2217V12.216H15.9659C15.8611 12.216 15.7214 12.244 15.5469 12.2998C15.4631 12.3278 15.4002 12.3417 15.3583 12.3417C15.2955 12.3417 15.1837 12.2998 15.0231 12.216C14.8625 12.1322 14.7787 12.0694 14.7787 12.0205C14.7787 11.9716 14.8276 11.9507 14.9253 11.9507H15.2536C15.4142 11.9507 15.5538 11.9437 15.6586 11.9297C15.7633 11.9157 15.8821 11.8808 16.0078 11.8249L16.0287 11.811Z" fill="black"/>
<path d="M19.7787 9.7229C19.7089 9.62513 19.674 9.53434 19.674 9.46451C19.674 9.38769 19.7228 9.34579 19.8136 9.34579C19.9533 9.34579 20.1279 9.42261 20.3444 9.57624C20.5539 9.72988 20.6586 9.86955 20.6586 9.99526C20.6586 10.0302 20.6377 10.114 20.5958 10.2397C20.5748 10.3095 20.5609 10.3724 20.5609 10.4143V11.1964C20.5609 11.2802 20.5888 11.3361 20.6516 11.364C20.7145 11.392 20.7983 11.399 20.91 11.399C21.0846 11.399 21.2802 11.3431 21.5036 11.2244C21.7271 11.1056 21.8668 11.0498 21.9227 11.0498C21.9576 11.0498 21.9855 11.0637 22.0065 11.0847C22.0274 11.1056 22.0344 11.1406 22.0344 11.1825C22.0344 11.4129 21.9017 11.6294 21.6293 11.8249C21.3779 12.0065 21.1405 12.0973 20.9031 12.0973C20.7704 12.0973 20.6377 12.0275 20.498 11.8808C20.3374 11.7202 20.2606 11.5456 20.2606 11.3571V11.2383C20.2257 11.0358 20.1907 10.8333 20.1558 10.6308C20.079 10.3025 19.9533 10.0022 19.7717 9.71591L19.7787 9.7229ZM22.7886 8.23541C22.7048 8.15859 22.6629 8.08875 22.6629 8.03987C22.6629 7.96305 22.7467 7.92114 22.9213 7.92114C23.068 7.92114 23.2705 7.99098 23.5289 8.13764C23.7873 8.27731 23.913 8.42396 23.913 8.56363C23.913 8.61252 23.913 8.64743 23.913 8.67537C23.892 8.79409 23.885 8.86392 23.885 8.89186V11.0707C23.885 11.7621 23.8431 12.3417 23.7523 12.8026C23.6965 13.096 23.6197 13.3683 23.5149 13.6197C23.4451 13.7943 23.3962 13.8781 23.3613 13.8781C23.3403 13.8781 23.3333 13.8572 23.3263 13.8153C23.3263 13.7734 23.3263 13.7105 23.3263 13.6407V11.3291C23.2356 11.3361 23.0819 11.385 22.8584 11.4758C22.7467 11.5177 22.6839 11.5386 22.6699 11.5386C22.607 11.5386 22.5023 11.4688 22.3696 11.3361C22.2299 11.2034 22.1601 11.1056 22.1601 11.0498C22.1601 11.0009 22.202 10.973 22.2928 10.973L22.6489 10.9939C22.7607 10.9939 22.8654 10.9869 22.9632 10.966C23.061 10.945 23.1797 10.9171 23.3263 10.8682V9.82765C23.1587 9.82765 23.0191 9.8486 22.9143 9.89749C22.8026 9.95336 22.6839 10.0162 22.5721 10.0651C22.5093 10.0651 22.3905 10.0092 22.216 9.89749C22.0414 9.78575 21.9576 9.70893 21.9576 9.65306C21.9576 9.58323 22.0274 9.54831 22.1741 9.54831H22.3067C22.4744 9.54831 22.642 9.53434 22.8026 9.50641C22.9632 9.47848 23.1378 9.42959 23.3263 9.35976V8.85694C23.2775 8.7452 23.1937 8.62648 23.0819 8.50078C23.0121 8.41698 22.9143 8.33318 22.7956 8.23541H22.7886Z" fill="black"/>
<path d="M26.6506 11.0429C26.5389 10.9591 26.49 10.8962 26.49 10.8474C26.49 10.7915 26.5459 10.7636 26.6506 10.7636C26.7763 10.7636 26.9439 10.7636 27.1604 10.7845C27.3699 10.7985 27.4956 10.8055 27.5375 10.8055C27.8029 10.8055 28.0473 10.8055 28.2708 10.7985C28.4943 10.7915 28.6968 10.7845 28.8784 10.7705C28.8784 10.554 28.8155 10.3585 28.6968 10.1699C28.5571 9.99536 28.4244 9.82077 28.2917 9.64618C28.2917 9.58333 28.3336 9.5554 28.4244 9.5554C28.5641 9.5554 28.7457 9.61127 28.9622 9.72999C29.1787 9.84871 29.2904 9.96743 29.2904 10.0862C29.2904 10.1211 29.2904 10.163 29.2764 10.2328C29.2625 10.2957 29.2625 10.3376 29.2625 10.3655V10.7775H29.458C29.6605 10.7775 29.877 10.7705 30.1005 10.7566C30.324 10.7426 30.5195 10.7077 30.6941 10.6518C30.8687 10.5959 31.0014 10.568 31.0991 10.568C31.2109 10.568 31.3296 10.6029 31.4553 10.6798C31.581 10.7496 31.6369 10.8404 31.6369 10.9451C31.6369 11.0918 31.5391 11.1686 31.3366 11.1686C31.1969 11.1686 31.0572 11.1686 30.9036 11.1546C30.5195 11.1337 30.2821 11.1197 30.1913 11.1197C29.6885 11.1197 29.2066 11.1337 28.7387 11.1686C28.2708 11.2035 27.9496 11.2384 27.7889 11.2943C27.754 11.3083 27.6981 11.3292 27.6283 11.3641C27.5585 11.3991 27.4956 11.413 27.4398 11.413C27.356 11.413 27.2302 11.3711 27.0487 11.2803C26.8671 11.1965 26.7414 11.1197 26.6646 11.0638L26.6506 11.0429ZM27.8727 8.31233H28.592C28.9133 8.31233 29.1787 8.31232 29.4091 8.29137C29.6326 8.27741 29.7932 8.25646 29.891 8.22154C29.9887 8.18662 30.0795 8.14472 30.1773 8.09584C30.2751 8.04695 30.3379 8.026 30.3728 8.026C30.4357 8.026 30.5335 8.09584 30.6662 8.23551C30.7988 8.37518 30.8687 8.47295 30.8687 8.5358C30.8687 8.5777 30.8477 8.62659 30.8058 8.68246C30.7639 8.73832 30.743 8.78023 30.743 8.80816C30.743 8.98973 30.7011 9.24812 30.6173 9.58333C30.5125 10.0023 30.3938 10.2118 30.2611 10.2118C30.2192 10.2118 30.1983 10.156 30.1983 10.0512V8.58469H29.9259C29.7094 8.58469 29.5418 8.58468 29.4231 8.59167C29.3044 8.59865 29.1996 8.60563 29.1088 8.6196C29.018 8.63357 28.9063 8.67547 28.7736 8.75229C28.6409 8.82213 28.5501 8.86403 28.4943 8.86403C28.4105 8.86403 28.2498 8.80117 28.0194 8.67547C27.7889 8.54977 27.6702 8.452 27.6702 8.38216C27.6702 8.33328 27.7261 8.30534 27.8378 8.30534H27.8727V8.31233ZM29.4789 11.7762C29.8072 11.7762 30.0725 11.8739 30.2751 12.0625C30.4776 12.251 30.5823 12.5025 30.5823 12.8097C30.5823 13.0961 30.4916 13.3335 30.31 13.529C30.1284 13.7246 29.884 13.8223 29.5697 13.8223C29.2136 13.8223 28.9133 13.7176 28.6828 13.5011C28.4524 13.2846 28.3336 13.0472 28.3336 12.7818C28.3336 12.4536 28.4593 12.2022 28.7038 12.0206C28.9203 11.86 29.1717 11.7831 29.472 11.7831L29.4789 11.7762ZM29.4929 12.1603C29.2764 12.1603 29.1158 12.2161 28.9901 12.3279C28.8714 12.4396 28.8085 12.5863 28.8085 12.7608C28.8085 12.9075 28.8644 13.0332 28.9761 13.1449C29.1088 13.2706 29.2834 13.3335 29.5069 13.3335C29.6815 13.3335 29.8351 13.2916 29.9608 13.2078C30.1075 13.11 30.1843 12.9773 30.1843 12.8027C30.1843 12.6282 30.1145 12.4815 29.9748 12.3488C29.8351 12.2161 29.6745 12.1533 29.4789 12.1533L29.4929 12.1603Z" fill="black"/>
<path d="M35.7152 10.8682L37.0281 10.8333C37.0281 10.6936 37.0002 10.526 36.9303 10.3305C36.8675 10.1349 36.8326 10.0092 36.8326 9.95336C36.8326 9.89749 36.8605 9.86955 36.9164 9.86955C37.0141 9.86955 37.1259 9.90447 37.2586 9.98129C37.3912 10.0581 37.4611 10.1349 37.4611 10.2187C37.4611 10.2606 37.4541 10.3235 37.4331 10.4073C37.4122 10.4911 37.4052 10.547 37.4052 10.5819V10.7844C37.482 10.7844 37.6357 10.7634 37.8731 10.7146C37.9918 10.6936 38.0826 10.6796 38.1525 10.6796C38.2502 10.6796 38.355 10.7146 38.4597 10.7774C38.5645 10.8403 38.6203 10.9241 38.6203 11.0149C38.6203 11.0847 38.5924 11.1475 38.5365 11.1964C38.4807 11.2453 38.4108 11.2663 38.3201 11.2663C38.2153 11.2663 38.0547 11.2453 37.8312 11.2104C37.6077 11.1755 37.4401 11.1545 37.3284 11.1545C36.9303 11.1545 36.4205 11.1685 35.799 11.2034C35.1844 11.2313 34.7794 11.2802 34.5908 11.3361C34.521 11.357 34.4582 11.378 34.4023 11.4059C34.3464 11.4339 34.2975 11.4409 34.2696 11.4409C34.1788 11.4409 34.0112 11.371 33.7598 11.2383C33.5084 11.1056 33.3827 11.0079 33.3827 10.938C33.3827 10.8891 33.4455 10.8682 33.5782 10.8682H35.3381C35.3381 10.7565 35.3102 10.6377 35.2473 10.4981C35.1914 10.3654 35.1286 10.2257 35.0727 10.086C35.0727 10.0232 35.1146 9.98827 35.1914 9.98827C35.2892 9.98827 35.4219 10.0302 35.5755 10.107C35.7292 10.1838 35.806 10.2676 35.806 10.3584C35.806 10.3794 35.785 10.4701 35.7431 10.6308C35.7222 10.7215 35.7082 10.7984 35.7082 10.8682H35.7152ZM36.2669 7.92114C36.6859 7.92114 36.9932 8.05383 37.2027 8.3192C37.3563 8.52173 37.4331 8.75219 37.4331 9.01058C37.4331 9.26897 37.3284 9.49244 37.1259 9.68798C36.9233 9.88352 36.6719 9.98129 36.3716 9.98129C36.0295 9.98129 35.7361 9.86955 35.4917 9.64608C35.2403 9.42261 35.1216 9.18517 35.1216 8.93376C35.1216 8.63347 35.2333 8.38904 35.4638 8.20747C35.6942 8.0259 35.9596 7.92813 36.2739 7.92813L36.2669 7.92114ZM36.3786 11.811C36.6999 11.811 36.9652 11.9297 37.1748 12.1602C37.3703 12.3766 37.4681 12.635 37.4681 12.9214C37.4681 13.1588 37.3912 13.3753 37.2306 13.5638C37.0421 13.7803 36.7907 13.8921 36.4624 13.8921C36.1133 13.8921 35.8199 13.7734 35.5825 13.5359C35.366 13.3194 35.2543 13.068 35.2543 12.7957C35.2543 12.4744 35.387 12.23 35.6454 12.0484C35.8619 11.8948 36.1063 11.818 36.3786 11.818V11.811ZM36.3228 8.3192C36.1202 8.3192 35.9387 8.36111 35.792 8.45189C35.5965 8.56363 35.4987 8.73123 35.4987 8.94074C35.4987 9.07343 35.5895 9.2131 35.7641 9.34579C35.9387 9.47847 36.1342 9.54133 36.3437 9.54133C36.5532 9.54133 36.7278 9.48546 36.8535 9.36674C36.9722 9.24802 37.0351 9.12231 37.0351 8.97566C37.0351 8.78012 36.9722 8.62648 36.8465 8.50078C36.7208 8.38206 36.5462 8.3192 36.3228 8.3192ZM36.3926 12.216C36.1552 12.216 35.9736 12.2649 35.8479 12.3697C35.7222 12.4744 35.6593 12.6001 35.6593 12.7468C35.6593 12.8864 35.7292 13.0331 35.8758 13.1867C36.0364 13.3683 36.218 13.4591 36.4205 13.4591C36.5742 13.4591 36.7138 13.4172 36.8395 13.3264C37.0002 13.2147 37.084 13.054 37.084 12.8585C37.084 12.6909 37.0141 12.5373 36.8814 12.4116C36.7418 12.2789 36.5812 12.216 36.3996 12.216H36.3926Z" fill="black"/>
<path d="M46.903 12.9354C46.903 12.9703 46.882 12.9912 46.8401 12.9912H45.4015C45.3596 12.9912 45.3317 12.9773 45.3317 12.9493V12.8306C45.3317 12.7887 45.3666 12.7677 45.4364 12.7677C45.5342 12.7677 45.618 12.7677 45.6739 12.7538C45.7297 12.7398 45.7577 12.7119 45.7577 12.656C45.7577 12.5722 45.6529 12.3697 45.4364 12.0415L44.9126 11.2104L44.2702 12.0973C44.1445 12.2789 44.0537 12.4046 44.0118 12.4814C43.9699 12.5582 43.9419 12.6211 43.9419 12.67C43.9419 12.7398 44.0397 12.7817 44.2352 12.7817C44.333 12.7817 44.3819 12.8027 44.3819 12.8376V12.9563C44.3819 12.9563 44.34 12.9982 44.333 12.9982H43.1318L43.0969 12.9563V12.8376C43.0969 12.8376 43.1179 12.7887 43.1668 12.7887C43.2575 12.7887 43.3483 12.7538 43.4321 12.677C43.5159 12.6001 43.6347 12.4675 43.7743 12.2649L44.745 10.966L43.8791 9.65309C43.7673 9.50643 43.6975 9.40866 43.6626 9.36676C43.5648 9.25502 43.4531 9.19915 43.3344 9.19915C43.2785 9.19915 43.2506 9.17821 43.2506 9.1363V9.03155C43.2506 9.03155 43.2715 8.98267 43.3204 8.98267H44.8358C44.8358 8.98267 44.8777 8.99663 44.8777 9.02457V9.1363C44.8777 9.17821 44.8498 9.19915 44.7869 9.19915C44.6473 9.19915 44.5495 9.19915 44.4936 9.2201C44.4378 9.23407 44.4098 9.26899 44.4098 9.33184C44.4098 9.38073 44.4378 9.45754 44.5076 9.56928C44.5495 9.63912 44.5844 9.70895 44.6263 9.76482L45.1361 10.5749L45.6739 9.83466C45.8554 9.57627 45.9532 9.40168 45.9532 9.31089C45.9532 9.24106 45.8694 9.20614 45.6948 9.20614C45.6389 9.20614 45.611 9.20614 45.597 9.20614C45.5761 9.19916 45.5691 9.17821 45.5691 9.1363V9.03854C45.5691 9.03854 45.5901 8.99663 45.625 8.99663H46.7493C46.7493 8.99663 46.7773 8.99663 46.7842 9.0106C46.7842 9.01758 46.7912 9.02457 46.7982 9.03155V9.17122C46.7982 9.17122 46.7773 9.21312 46.7423 9.21312C46.6515 9.21312 46.5538 9.26201 46.456 9.35279C46.3513 9.44358 46.2186 9.61118 46.044 9.84164L45.3037 10.8473L46.1697 12.1672C46.3303 12.4256 46.456 12.5932 46.5468 12.677C46.6306 12.7608 46.7354 12.8027 46.8541 12.8027C46.903 12.8027 46.9239 12.8166 46.9239 12.8516V12.9703L46.903 12.9354Z" fill="black"/>
</svg>
