<svg width="59" height="23" viewBox="0 0 59 23" fill="none" xmlns="http://www.w3.org/2000/svg">
<path d="M4.86194 1.4281H56.2748L54.1448 4.7802L57.3084 7.5387L54.7454 10.1017L57.6506 13.0068L54.494 16.1634L57.2036 18.873L54.3474 21.7363H6.4472" fill="white"/>
<path d="M4.86194 1.4281H56.2748L54.1448 4.7802L57.3084 7.5387L54.7454 10.1017L57.6506 13.0068L54.494 16.1634L57.2036 18.873L54.3474 21.7363H6.4472" stroke="black" stroke-width="1.41" stroke-miterlimit="10"/>
<path d="M5.27393 1.23267L1.44695 4.37526L4.15656 7.08487L1 10.2484L3.89817 13.1466L1.33521 15.7096L4.50574 18.4681L2.37576 21.8202L6.44717 21.7364" fill="white"/>
<path d="M5.27393 1.23267L1.44695 4.37526L4.15656 7.08487L1 10.2484L3.89817 13.1466L1.33521 15.7096L4.50574 18.4681L2.37576 21.8202L6.44717 21.7364" stroke="black" stroke-width="1.41" stroke-miterlimit="10"/>
<path d="M9.13578 9.74573C9.22656 9.77367 9.3383 9.85746 9.464 9.99015C9.58971 10.1228 9.65256 10.2416 9.65256 10.3323C9.65256 10.3673 9.64558 10.4022 9.62463 10.4301C9.61066 10.4441 9.58272 10.479 9.54082 10.5209L9.28243 10.7653C9.33132 10.8002 9.38719 10.8352 9.44305 10.8701C9.49892 10.905 9.56177 10.9329 9.61764 10.9539C9.75033 10.9958 9.83413 11.0307 9.86905 11.0586C9.9319 11.1145 9.95984 11.1983 9.95984 11.31C9.95984 11.3869 9.93889 11.4567 9.90397 11.5126C9.86905 11.5684 9.82715 11.6033 9.77128 11.6033C9.70843 11.6033 9.59669 11.4776 9.42909 11.2262C9.33132 11.0796 9.23355 10.9748 9.14276 10.919C9.01007 11.0237 8.8704 11.1285 8.73772 11.2332C8.54916 11.3729 8.32569 11.4707 8.07428 11.5195L7.88572 11.5545L7.85779 11.5405C7.85779 11.5405 7.89271 11.5196 7.89969 11.5126C7.94857 11.4777 7.97651 11.4637 7.99048 11.4567C8.1511 11.3799 8.36759 11.2053 8.63296 10.9399C8.93325 10.6396 9.08689 10.4301 9.08689 10.2974C9.08689 10.2276 9.05896 10.1438 9.01007 10.053C8.96119 9.96221 8.9123 9.85746 8.86342 9.75969C8.86342 9.71779 8.89135 9.69684 8.94722 9.69684C9.00309 9.69684 9.05896 9.70383 9.12181 9.72478L9.13578 9.74573ZM10.6442 12.4065C10.9026 12.4065 11.1401 12.4903 11.3496 12.6579C11.58 12.8394 11.6918 13.0699 11.6918 13.3353C11.6918 13.5797 11.594 13.7892 11.4054 13.9498C11.2169 14.1104 11.0144 14.2012 10.7979 14.2012C10.5185 14.2012 10.2741 14.1104 10.0716 13.9219C9.86905 13.7403 9.7643 13.5308 9.7643 13.3073C9.7643 13.035 9.84112 12.8185 10.0017 12.6509C10.1624 12.4833 10.3719 12.3995 10.6372 12.3995L10.6442 12.4065ZM10.6442 11.9246C10.5814 12.0293 10.5395 12.0782 10.5185 12.0782C10.4976 12.0782 10.4906 12.0363 10.4906 11.9525C10.4906 11.764 10.4836 11.4567 10.4696 11.0307C10.4557 10.6117 10.4417 10.2485 10.4347 9.94825C10.4208 9.86445 10.3439 9.74573 10.2112 9.59209C10.0786 9.43846 10.0157 9.34069 10.0157 9.29879C10.0157 9.25688 10.0506 9.23593 10.1135 9.23593C10.2252 9.23593 10.3858 9.28481 10.5744 9.38956C10.7699 9.49432 10.8677 9.59209 10.8677 9.68287C10.8537 9.76667 10.8467 9.8435 10.8467 9.90635V10.6047H11.4124V9.627C11.4124 9.53622 11.3356 9.40353 11.182 9.23593C11.0283 9.06832 10.9515 8.95659 10.9515 8.91469C10.9515 8.87279 10.9864 8.84485 11.0632 8.84485C11.1889 8.84485 11.3635 8.89373 11.58 8.99849C11.7965 9.10324 11.9082 9.208 11.9082 9.30577C11.9082 9.34068 11.9082 9.38956 11.8943 9.46638C11.8803 9.5432 11.8803 9.59209 11.8803 9.62002V10.7793C11.8803 11.5475 11.7895 12.0922 11.6149 12.4204C11.58 12.4903 11.5451 12.5391 11.5242 12.581C11.5172 12.595 11.5032 12.609 11.4822 12.6299C11.4683 12.6299 11.4543 12.5741 11.4543 12.4623V12.3087C11.4543 12.1551 11.4543 11.9525 11.4403 11.7151C11.4334 11.4707 11.4264 11.2472 11.4124 11.0307H10.8467V11.0586C10.8467 11.2402 10.8328 11.4008 10.7979 11.5405C10.7629 11.6802 10.7141 11.8059 10.6372 11.9176L10.6442 11.9246ZM10.7699 12.7836C10.6093 12.7836 10.4627 12.8185 10.3369 12.8953C10.2112 12.9721 10.1484 13.0839 10.1484 13.2305C10.1484 13.4121 10.2392 13.5518 10.4207 13.6565C10.5604 13.7333 10.7141 13.7752 10.8747 13.7752C11.0074 13.7752 11.1261 13.7403 11.2239 13.6635C11.3216 13.5867 11.3775 13.4819 11.3775 13.3423C11.3775 13.1886 11.3356 13.0629 11.2448 12.9651C11.1401 12.8464 10.9794 12.7906 10.7769 12.7906L10.7699 12.7836Z" fill="black"/>
<path d="M17.6907 12.2179C17.4253 12.2179 17.0133 12.2668 16.4476 12.3646C15.8819 12.4624 15.5048 12.5531 15.3093 12.6509C15.2255 12.6928 15.1487 12.7138 15.0788 12.7138C14.995 12.7138 14.9391 12.6858 14.8972 12.63C14.8553 12.5741 14.8414 12.4973 14.8414 12.4065C14.8414 12.2878 14.8693 12.19 14.9182 12.1062C14.9671 12.0224 15.002 11.9316 15.016 11.8268C15.0299 11.7221 15.0439 11.6104 15.0439 11.4916V11.3869C15.016 11.345 14.9252 11.2821 14.7785 11.1983C14.6319 11.1145 14.5551 11.0447 14.5551 11.0028C14.5551 10.926 14.6249 10.8911 14.7646 10.8911C15.1347 10.8911 15.421 10.8771 15.6375 10.8491C15.854 10.8212 16.0216 10.7793 16.1403 10.7304V10.0041C15.9797 10.0041 15.84 10.0041 15.7353 10.0251C15.6305 10.046 15.5118 10.067 15.3861 10.1159C15.3791 10.1159 15.3372 10.1368 15.2674 10.1648C15.2325 10.1787 15.1975 10.1927 15.1696 10.1927C15.0718 10.1927 14.9252 10.1298 14.7366 10.0041C14.6319 9.93431 14.576 9.88542 14.576 9.8505C14.576 9.79463 14.6319 9.77368 14.7506 9.77368H15.2255C15.3582 9.77368 15.4699 9.77369 15.5467 9.7667C15.6235 9.7667 15.7423 9.74575 15.9099 9.71781C15.9448 9.71781 16.0286 9.67592 16.1543 9.59211C16.2102 9.5572 16.2521 9.54322 16.287 9.54322C16.3359 9.54322 16.4197 9.59211 16.5384 9.68988C16.6571 9.78765 16.713 9.86447 16.713 9.90637C16.713 9.93431 16.692 9.96224 16.6571 10.0111C16.6222 10.06 16.6012 10.0879 16.5873 10.1159C16.5733 10.1438 16.5454 10.2555 16.4895 10.4371L16.4127 10.6815C16.4755 10.7234 16.5244 10.7584 16.5384 10.7863C16.5733 10.8282 16.5942 10.8841 16.5942 10.9539C16.5942 11.0656 16.5244 11.1355 16.3778 11.1564L15.428 11.3101C15.4001 11.4148 15.3791 11.5056 15.3582 11.5754C15.3023 11.7849 15.2744 11.9386 15.2744 12.0364C15.2744 12.0992 15.3023 12.1271 15.3582 12.1271L15.5816 12.0992C15.833 12.0713 16.1962 12.0294 16.6711 11.9735C17.2437 11.8967 17.5789 11.8548 17.6837 11.8478V9.64798C17.6557 9.59212 17.5161 9.43848 17.2507 9.16612C17.139 9.05438 17.0831 8.97755 17.0831 8.92867C17.0831 8.86582 17.125 8.83789 17.2158 8.83789C17.3694 8.83789 17.565 8.89376 17.7954 9.01248C18.0608 9.14517 18.1935 9.27785 18.1935 9.40356C18.1935 9.43149 18.1935 9.47339 18.1795 9.52228C18.1655 9.57116 18.1655 9.60607 18.1655 9.62702V12.2947C18.1655 12.4065 18.1586 12.5042 18.1516 12.5741C18.1376 12.7976 18.1097 12.9931 18.0817 13.1607C18.0538 13.3283 18.0049 13.5238 17.9281 13.7543C17.8373 14.0476 17.7675 14.1943 17.7326 14.1943C17.7186 14.1943 17.7046 14.1733 17.7046 14.1244C17.7046 14.0755 17.7046 14.0127 17.7046 13.9359L17.6837 12.2249L17.6907 12.2179Z" fill="black"/>
<path d="M23.948 11.0237V9.74569C23.9201 9.63395 23.8223 9.47332 23.6477 9.2708C23.4801 9.06828 23.3893 8.94955 23.3893 8.90765C23.3893 8.85178 23.4312 8.82385 23.522 8.82385C23.6687 8.82385 23.8642 8.89369 24.1016 9.04034C24.3391 9.187 24.4578 9.32667 24.4578 9.46634C24.4578 9.49427 24.4508 9.53617 24.4299 9.59903C24.4089 9.66188 24.4019 9.71775 24.4019 9.76664V11.7081C24.4019 11.9176 24.4019 12.1201 24.3949 12.3017C24.3949 12.4832 24.374 12.6718 24.3461 12.8603C24.3181 13.0489 24.2692 13.3003 24.1924 13.6146C24.1016 13.9917 24.0248 14.1802 23.9689 14.1802C23.955 14.1802 23.941 14.1383 23.934 14.0545C23.927 13.9707 23.927 13.9079 23.927 13.873V11.4636H23.2776C23.2776 11.715 23.2706 11.9176 23.2566 12.0572C23.2287 12.4832 23.1798 12.7696 23.117 12.9302C23.0401 13.1397 22.9843 13.2444 22.9424 13.2444C22.9144 13.2444 22.8935 13.1886 22.8795 13.0768C22.8655 12.9651 22.8516 12.8045 22.8376 12.595C22.8236 12.3855 22.8167 12.2039 22.8097 12.0363C22.7119 12.0363 22.5024 12.0712 22.1812 12.141C21.8599 12.2109 21.6155 12.2737 21.4479 12.3366C21.3292 12.4134 21.2244 12.4483 21.1406 12.4483C20.994 12.4483 20.9241 12.3505 20.9241 12.155C20.9241 12.0642 20.9381 11.9804 20.973 11.9106C21.0289 11.8198 21.0638 11.7081 21.0847 11.5824C21.1057 11.4566 21.1127 11.324 21.1127 11.1913C21.1127 11.0376 21.0289 10.9119 20.8613 10.8072C20.6937 10.7024 20.6099 10.6186 20.6099 10.5628C20.6099 10.4859 20.6797 10.451 20.8124 10.451C20.959 10.451 21.1057 10.4371 21.2593 10.4091C21.413 10.3812 21.5387 10.3393 21.6364 10.2904C21.6993 10.2555 21.7412 10.2345 21.7621 10.2206C21.811 10.1926 21.8529 10.1856 21.8948 10.1856C21.9786 10.1856 22.0624 10.2136 22.1393 10.2625C22.2161 10.3113 22.251 10.3742 22.251 10.458C22.251 10.5977 22.1742 10.6815 22.0205 10.7164L21.399 10.8421V11.6243C21.399 11.7011 21.399 11.75 21.413 11.7709C21.4269 11.7988 21.4549 11.8128 21.4898 11.8128L22.8027 11.5963V10.1018C22.7817 10.053 22.7259 9.96915 22.6281 9.85741C22.4465 9.64092 22.3557 9.50126 22.3557 9.44539C22.3557 9.38952 22.3977 9.36857 22.4815 9.36857C22.6141 9.36857 22.7887 9.43143 22.9913 9.55015C23.1938 9.66887 23.2985 9.79456 23.2985 9.91328C23.2985 9.93423 23.2985 9.96916 23.2846 10.018C23.2776 10.0669 23.2706 10.0949 23.2706 10.1018V11.0307H23.9201L23.948 11.0237Z" fill="black"/>
<path d="M28.592 10.6955C28.62 10.7304 28.627 10.7723 28.627 10.8142C28.627 10.8911 28.592 10.9749 28.5292 11.0656C28.4663 11.1564 28.3965 11.2402 28.3197 11.3171C28.592 11.3729 28.7876 11.4148 28.8993 11.4497C29.1018 11.5126 29.2066 11.6592 29.2066 11.8757C29.2066 11.9875 29.1926 12.0713 29.1577 12.1341C29.1228 12.197 29.0809 12.2249 29.032 12.2249C28.9971 12.2249 28.9203 12.1621 28.8155 12.0294C28.5571 11.7081 28.3476 11.5056 28.194 11.4358C27.9496 11.6592 27.6981 11.8478 27.4258 12.0014C27.0836 12.197 26.7833 12.2878 26.5179 12.2878H26.49C26.49 12.2878 26.5249 12.2598 26.5389 12.2528C26.5528 12.2459 26.5878 12.2319 26.6436 12.2109C26.8601 12.1271 27.1534 11.9037 27.5166 11.5545C27.9146 11.1774 28.1102 10.8911 28.1102 10.7025C28.1102 10.6606 28.1032 10.6117 28.0822 10.5558C28.0613 10.5 28.0403 10.472 28.0194 10.4511C27.9146 10.4511 27.8378 10.4581 27.7889 10.479C27.74 10.5 27.6912 10.5209 27.6423 10.5489C27.5724 10.5489 27.4398 10.5 27.2512 10.4022C27.0626 10.3044 26.9649 10.2346 26.9649 10.1857C26.9649 10.1508 27.0068 10.1298 27.0836 10.1298H27.1883C27.4118 10.1298 27.6143 10.1159 27.8169 10.0949C28.1172 10.06 28.3546 9.99716 28.5222 9.90637C28.5711 9.87844 28.627 9.85051 28.6898 9.82257C28.7527 9.79464 28.8085 9.77368 28.8644 9.77368C28.9482 9.77368 29.039 9.80162 29.1228 9.86447C29.2066 9.92732 29.2555 9.99716 29.2555 10.081C29.2555 10.1927 29.1368 10.2695 28.9063 10.3114C28.7317 10.3394 28.5641 10.3673 28.3895 10.3882C28.3895 10.4232 28.4105 10.472 28.4524 10.5279C28.4943 10.5838 28.5362 10.6396 28.5781 10.6955H28.592ZM29.6186 9.09628C29.5348 9.01946 29.4999 8.96359 29.4999 8.92169C29.4999 8.86582 29.5558 8.83789 29.6675 8.83789C29.8211 8.83789 30.0027 8.89376 30.2122 9.01248C30.4497 9.14517 30.5684 9.27785 30.5684 9.41054L30.5474 9.62702V11.9037C30.6103 11.9037 30.729 11.8687 30.9036 11.8059C31.0014 11.771 31.0782 11.75 31.1271 11.75C31.2179 11.75 31.3086 11.778 31.3924 11.8199C31.4762 11.8688 31.5181 11.9386 31.5181 12.0224C31.5181 12.0783 31.4972 12.1271 31.4623 12.169C31.4204 12.2109 31.3715 12.2319 31.3086 12.2319C31.2179 12.2319 31.1201 12.2319 31.0293 12.2109C30.75 12.176 30.5893 12.1551 30.5544 12.1551C30.5544 12.4693 30.5265 12.7696 30.4706 13.0629C30.4147 13.3562 30.324 13.6705 30.2052 13.9917C30.1913 14.0336 30.1773 14.0755 30.1494 14.1174C30.1494 14.1244 30.1354 14.1384 30.1214 14.1524C30.1145 14.1524 30.1075 14.1384 30.1005 14.1035C30.0935 14.0686 30.0935 14.0127 30.0935 13.9359L30.0516 9.61306C30.0167 9.52926 29.9678 9.45244 29.9189 9.38261C29.8351 9.27785 29.7443 9.18008 29.6326 9.0893L29.6186 9.09628Z" fill="black"/>
<path d="M34.0951 11.8339C34.2347 11.8339 34.4093 11.8199 34.6258 11.7989C34.7026 11.792 34.8004 11.778 34.9331 11.757C34.9331 11.4847 34.9261 11.2891 34.9051 11.1704C34.8772 10.9679 34.8144 10.7793 34.7306 10.6048C34.7166 10.5768 34.7096 10.5629 34.7026 10.5489C34.6747 10.5 34.6677 10.4651 34.6677 10.4511C34.6677 10.4092 34.6956 10.3813 34.7445 10.3813C34.8563 10.3813 34.9889 10.4232 35.1216 10.514C35.2613 10.6048 35.3311 10.7025 35.3311 10.8073C35.3311 10.8492 35.3102 10.9749 35.2753 11.1844C35.2404 11.3869 35.2194 11.5685 35.2194 11.7151C35.4219 11.6942 35.5686 11.6802 35.6454 11.6802C35.82 11.6663 36.0435 11.6383 36.3228 11.6034V9.63405C36.3228 9.54326 36.2181 9.41057 36.0085 9.229C35.799 9.04743 35.6943 8.94268 35.6943 8.91474C35.6943 8.85887 35.7571 8.83093 35.8828 8.83093C36.0435 8.83093 36.232 8.8868 36.4625 8.99854C36.7209 9.12425 36.8466 9.25694 36.8466 9.39661C36.8466 9.42454 36.8466 9.47342 36.8326 9.52929C36.8186 9.58516 36.8186 9.63405 36.8186 9.655V11.4707C36.8885 11.4707 37.0142 11.4428 37.2027 11.3869C37.2935 11.359 37.3773 11.345 37.4402 11.345C37.531 11.345 37.6217 11.366 37.6986 11.4149C37.7754 11.4637 37.8173 11.5336 37.8173 11.6174C37.8173 11.6732 37.8033 11.7151 37.7684 11.7431C37.7335 11.771 37.6986 11.792 37.6427 11.792C37.5589 11.792 37.3843 11.771 37.1189 11.7361C36.9723 11.7151 36.8536 11.7082 36.7767 11.7082C36.7767 11.8548 36.7418 12.0713 36.672 12.3646C36.5882 12.7208 36.4974 12.8954 36.4136 12.8954C36.3857 12.8954 36.3787 12.8465 36.3787 12.7557L36.3158 11.9805C36.1063 11.9805 35.7641 12.0084 35.3102 12.0713C34.8493 12.1272 34.4093 12.197 33.9833 12.2738C33.9414 12.2808 33.8855 12.3018 33.8227 12.3367C33.7598 12.3716 33.711 12.3925 33.676 12.3925C33.6062 12.3925 33.4735 12.3367 33.271 12.2319C33.0685 12.1272 32.9707 12.0434 32.9707 11.9875C32.9707 11.9386 33.0336 11.9107 33.1662 11.9107C33.2989 11.9107 33.3897 11.9107 33.4456 11.9107C33.676 11.8967 33.8157 11.8827 33.8716 11.8827C33.8716 11.6872 33.8506 11.5056 33.8017 11.352C33.7529 11.1984 33.69 11.0238 33.5992 10.8492C33.5643 10.7793 33.5434 10.7235 33.5434 10.6886C33.5434 10.6467 33.5713 10.6257 33.6272 10.6257C33.7319 10.6257 33.8506 10.6676 33.9763 10.7584C34.102 10.8422 34.1649 10.94 34.1649 11.0377C34.1649 11.1006 34.1439 11.2682 34.102 11.5266C34.0811 11.6593 34.0741 11.764 34.0741 11.8478L34.0951 11.8339ZM33.5853 10.3045C33.5015 10.2626 33.4177 10.2137 33.3338 10.1578C33.2012 10.074 33.1383 10.0112 33.1383 9.97623C33.1383 9.94132 33.2012 9.92037 33.3269 9.92037C33.8227 9.92037 34.1439 9.90641 34.3046 9.88545C34.4652 9.8645 34.6258 9.80863 34.8004 9.71785C34.8563 9.68991 34.8982 9.66896 34.9191 9.66198C34.982 9.63404 35.0378 9.62706 35.0937 9.62706C35.1775 9.62706 35.2683 9.655 35.3661 9.72484C35.4638 9.79467 35.5127 9.85752 35.5127 9.92735C35.5127 10.0391 35.2194 10.1229 34.6258 10.1718C34.2976 10.1997 34.0811 10.2346 33.9833 10.2905C33.9205 10.3254 33.8786 10.3534 33.8506 10.3673C33.8227 10.3813 33.8017 10.3883 33.7738 10.3883C33.7459 10.3883 33.69 10.3603 33.5922 10.3115L33.5853 10.3045ZM34.542 13.0001C34.5001 12.9652 34.4722 12.9233 34.4722 12.8814C34.4722 12.8395 34.5211 12.8116 34.6118 12.8116C34.7375 12.8116 34.8632 12.8395 34.9959 12.8954C35.1705 12.9722 35.2543 13.056 35.2543 13.1607L35.2404 13.2934V13.5239C35.2404 13.5797 35.2613 13.6216 35.2962 13.6356C35.3311 13.6496 35.38 13.6636 35.4499 13.6636H35.5756C35.827 13.6636 36.0155 13.6566 36.1343 13.6356C36.253 13.6077 36.3717 13.5797 36.4974 13.5588H36.5253C36.665 13.5588 36.7418 13.6147 36.7418 13.7194C36.7418 13.8242 36.658 13.9219 36.4904 13.9988C36.4276 14.0407 36.2809 14.0826 36.0574 14.1245C35.9108 14.1524 35.806 14.1664 35.7362 14.1664C35.5197 14.1664 35.3032 14.0197 35.0867 13.7264C34.9051 13.482 34.7306 13.2445 34.556 13.0001H34.542Z" fill="black"/>
<path d="M39.7308 10.018C39.8984 9.89932 40.087 9.84345 40.3105 9.84345C40.6317 9.84345 40.925 9.96218 41.1904 10.1926C41.4627 10.4231 41.5954 10.6954 41.5954 10.9957C41.6583 11.0586 41.7002 11.1145 41.7211 11.1494C41.784 11.2402 41.8189 11.3449 41.8189 11.4636C41.8189 11.5824 41.777 11.6592 41.7002 11.6871C41.6234 11.7081 41.5465 11.729 41.4767 11.75C41.2183 11.9176 40.8901 12.0921 40.492 12.2807C40.0032 12.5112 39.661 12.6299 39.4724 12.6299C39.4375 12.6299 39.4026 12.6299 39.3816 12.6159C39.3816 12.6159 39.3747 12.6159 39.3677 12.602C39.3886 12.581 39.4096 12.567 39.4305 12.567C39.6819 12.4832 40.0451 12.2737 40.513 11.9315C40.9809 11.5893 41.2951 11.324 41.4488 11.1214C41.372 10.8281 41.1694 10.6326 40.8412 10.5348C40.7085 10.4929 40.4641 10.458 40.1079 10.4301C39.7518 10.4021 39.5772 10.3323 39.5772 10.2275C39.5772 10.1647 39.6261 10.0949 39.7308 10.018ZM42.3147 9.11716C42.2309 9.04034 42.189 8.97749 42.189 8.9286C42.189 8.85877 42.2519 8.82385 42.3846 8.82385C42.5452 8.82385 42.7337 8.87972 42.9502 8.99146C43.1947 9.11717 43.3134 9.24985 43.3134 9.39651L43.2924 9.613V12.0153C43.2924 12.5182 43.2645 12.9302 43.2086 13.2584C43.1737 13.4749 43.1178 13.6844 43.034 13.8799C42.9572 14.0755 42.9014 14.1733 42.8734 14.1733C42.8455 14.1733 42.8385 14.1244 42.8385 14.0266L42.7966 9.6968C42.7617 9.61998 42.7058 9.53617 42.622 9.43142C42.5173 9.30571 42.4195 9.20096 42.3147 9.11716Z" fill="black"/>
<path d="M51.4282 13.3353C51.4282 13.3353 51.4072 13.3842 51.3723 13.3842H50.0803C50.0384 13.3842 50.0175 13.3702 50.0175 13.3493V13.2445C50.0175 13.2096 50.0454 13.1887 50.1083 13.1887C50.1991 13.1887 50.2689 13.1887 50.3178 13.1747C50.3667 13.1607 50.3946 13.1328 50.3946 13.0839C50.3946 13.0071 50.2968 12.8255 50.1013 12.5322L49.6334 11.785L49.0607 12.5811C48.942 12.7417 48.8652 12.8534 48.8303 12.9233C48.7884 12.9931 48.7674 13.049 48.7674 13.0909C48.7674 13.1537 48.8582 13.1887 49.0328 13.1887C49.1166 13.1887 49.1585 13.2096 49.1585 13.2445V13.3493C49.1585 13.3493 49.1236 13.3842 49.1166 13.3842H48.0342L48.0062 13.3423V13.2306C48.0062 13.2306 48.0272 13.1817 48.0691 13.1817C48.1529 13.1817 48.2297 13.1468 48.3065 13.0839C48.3833 13.0141 48.4881 12.8954 48.6138 12.7138L49.4867 11.5475L48.7046 10.3673C48.6068 10.2346 48.544 10.1438 48.509 10.1089C48.4183 10.0042 48.3205 9.95527 48.2157 9.95527C48.1668 9.95527 48.1389 9.93433 48.1389 9.89941V9.80862C48.1389 9.80862 48.1599 9.76672 48.2018 9.76672H49.5636C49.5636 9.76672 49.5985 9.78068 49.5985 9.80163V9.89941C49.5985 9.93433 49.5705 9.95527 49.5217 9.95527C49.396 9.95527 49.3052 9.95527 49.2563 9.97622C49.2074 9.99717 49.1795 10.0181 49.1795 10.074C49.1795 10.1159 49.2074 10.1857 49.2633 10.2905C49.2982 10.3533 49.3331 10.4162 49.368 10.4651L49.8289 11.1914L50.3108 10.5209C50.4784 10.2905 50.5622 10.1368 50.5622 10.0461C50.5622 9.98321 50.4854 9.95527 50.3317 9.95527C50.2829 9.95527 50.2549 9.95527 50.2479 9.95527C50.234 9.94829 50.22 9.92734 50.22 9.89242V9.80862C50.22 9.80862 50.234 9.7737 50.2689 9.7737H51.2815C51.2815 9.7737 51.3025 9.77371 51.3094 9.78767C51.3094 9.79466 51.3164 9.80164 51.3234 9.80862V9.93432C51.3234 9.93432 51.3094 9.96924 51.2745 9.96924C51.1907 9.96924 51.1069 10.0111 51.0161 10.095C50.9254 10.1788 50.7996 10.3254 50.646 10.5349L49.9756 11.4428L50.7577 12.63C50.9044 12.8604 51.0161 13.0141 51.093 13.0909C51.1698 13.1677 51.2606 13.2026 51.3653 13.2026C51.4072 13.2026 51.4282 13.2166 51.4282 13.2445V13.3493V13.3353Z" fill="black"/>
</svg>
