<svg width="146" height="145" viewBox="0 0 146 145" fill="none" xmlns="http://www.w3.org/2000/svg">
<path d="M140.925 5.30487H4.63135C2.07353 5.30487 0 7.38047 0 9.94084C0 12.5012 2.07353 14.5768 4.63135 14.5768H140.925C143.483 14.5768 145.557 12.5012 145.557 9.94084C145.557 7.38047 143.483 5.30487 140.925 5.30487Z" fill="black"/>
<path d="M14.5557 20.5374C14.5557 20.5374 8.60107 8.60304 14.5557 0L58.2227 3.31803C58.2227 3.31803 86.6724 3.98031 95.2735 2.65575C103.875 1.33119 130.114 0 130.114 0C130.114 0 138.491 9.27857 130.114 20.5374L97.2583 17.8882H57.5611L14.5557 20.5374Z" fill="#CCECF0"/>
<path d="M141.369 129.768H5.07459C2.51676 129.768 0.443237 131.843 0.443237 134.403C0.443237 136.964 2.51676 139.039 5.07459 139.039H141.369C143.926 139.039 146 136.964 146 134.403C146 131.843 143.926 129.768 141.369 129.768Z" fill="black"/>
<path d="M14.9989 145C14.9989 145 9.04431 133.059 14.9989 124.463L58.6659 127.781C58.6659 127.781 87.1156 128.443 95.7167 127.118C104.318 125.794 130.558 124.463 130.558 124.463C130.558 124.463 138.934 133.741 130.558 145L97.7016 142.351H58.0043L14.9989 145Z" fill="#CCECF0"/>
</svg>
