<svg width="228" height="52" viewBox="0 0 228 52" fill="none" xmlns="http://www.w3.org/2000/svg">
<path d="M20 49.7059C10.288 49.7059 2.40002 42.1659 2.40002 32.8824C2.40002 25.7094 14.288 10.8436 20.72 3.57886C26.688 10.8742 37.6 25.6942 37.6 32.8824C37.6 42.1659 29.712 49.7059 20 49.7059Z" fill="#CCECF0"/>
<path d="M20.656 7.23412C27.568 15.9976 35.2 27.6671 35.2 32.8824C35.2 40.8965 28.384 47.4118 20 47.4118C11.616 47.4118 4.8 40.8965 4.8 32.8824C4.8 27.6976 13.152 15.9976 20.656 7.23412ZM20.8 0C20.8 0 0 22.3294 0 32.8824C0 43.4353 8.96 52 20 52C31.04 52 40 43.4353 40 32.8824C40 22.3294 20.8 0 20.8 0Z" fill="black"/>
<path d="M67 49.7059C57.288 49.7059 49.4 42.1659 49.4 32.8824C49.4 25.7094 61.288 10.8436 67.72 3.57886C73.688 10.8742 84.6 25.6942 84.6 32.8824C84.6 42.1659 76.712 49.7059 67 49.7059Z" fill="#CCECF0"/>
<path d="M67.656 7.23412C74.568 15.9976 82.2 27.6671 82.2 32.8824C82.2 40.8965 75.384 47.4118 67 47.4118C58.616 47.4118 51.8 40.8965 51.8 32.8824C51.8 27.6976 60.152 15.9976 67.656 7.23412ZM67.8 0C67.8 0 47 22.3294 47 32.8824C47 43.4353 55.96 52 67 52C78.04 52 87 43.4353 87 32.8824C87 22.3294 67.8 0 67.8 0Z" fill="black"/>
<path d="M114 49.7059C104.288 49.7059 96.4 42.1659 96.4 32.8824C96.4 25.7094 108.288 10.8436 114.72 3.57886C120.688 10.8742 131.6 25.6942 131.6 32.8824C131.6 42.1659 123.712 49.7059 114 49.7059Z" fill="#CCECF0"/>
<path d="M114.656 7.23412C121.568 15.9976 129.2 27.6671 129.2 32.8824C129.2 40.8965 122.384 47.4118 114 47.4118C105.616 47.4118 98.8 40.8965 98.8 32.8824C98.8 27.6976 107.152 15.9976 114.656 7.23412ZM114.8 0C114.8 0 94 22.3294 94 32.8824C94 43.4353 102.96 52 114 52C125.04 52 134 43.4353 134 32.8824C134 22.3294 114.8 0 114.8 0Z" fill="black"/>
<path d="M161 49.7059C151.288 49.7059 143.4 42.1659 143.4 32.8824C143.4 25.7094 155.288 10.8436 161.72 3.57886C167.688 10.8742 178.6 25.6942 178.6 32.8824C178.6 42.1659 170.712 49.7059 161 49.7059Z" fill="#CCECF0"/>
<path d="M161.656 7.23412C168.568 15.9976 176.2 27.6671 176.2 32.8824C176.2 40.8965 169.384 47.4118 161 47.4118C152.616 47.4118 145.8 40.8965 145.8 32.8824C145.8 27.6976 154.152 15.9976 161.656 7.23412ZM161.8 0C161.8 0 141 22.3294 141 32.8824C141 43.4353 149.96 52 161 52C172.04 52 181 43.4353 181 32.8824C181 22.3294 161.8 0 161.8 0Z" fill="black"/>
<path d="M208 49.7059C198.288 49.7059 190.4 42.1659 190.4 32.8824C190.4 25.7094 202.288 10.8436 208.72 3.57886C214.688 10.8742 225.6 25.6942 225.6 32.8824C225.6 42.1659 217.712 49.7059 208 49.7059Z" fill="#CCECF0"/>
<path d="M208.656 7.23412C215.568 15.9976 223.2 27.6671 223.2 32.8824C223.2 40.8965 216.384 47.4118 208 47.4118C199.616 47.4118 192.8 40.8965 192.8 32.8824C192.8 27.6976 201.152 15.9976 208.656 7.23412ZM208.8 0C208.8 0 188 22.3294 188 32.8824C188 43.4353 196.96 52 208 52C219.04 52 228 43.4353 228 32.8824C228 22.3294 208.8 0 208.8 0Z" fill="black"/>
</svg>
