<svg width="293" height="66" viewBox="0 0 293 66" fill="none" xmlns="http://www.w3.org/2000/svg">
<g clip-path="url(#clip0_146_296)">
<path d="M291.92 25.8089V64.9182H22.0997C5.71018 64.9182 1.17871 53.1592 1.17871 53.1592V13.4913L25.9818 25.8089H291.92Z" fill="white"/>
<path d="M293 66H22.0998C13.2839 66 7.80662 62.6484 4.7574 59.8342C1.43291 56.7583 0.218869 53.6754 0.169461 53.5481L0.098877 53.3572V11.7519L26.236 24.727H293V66ZM2.25168 52.94C2.88693 54.3966 7.57369 63.8363 22.0928 63.8363H290.84V26.8907H25.7278L2.25168 15.2378V52.9471V52.94Z" fill="black"/>
<path d="M22.0997 31.8616C21.5068 31.8616 21.0198 31.3808 21.0198 30.7797V28.616C21.0198 28.0221 21.4997 27.5342 22.0997 27.5342C22.6997 27.5342 23.1796 28.015 23.1796 28.616V30.7797C23.1796 31.3737 22.6997 31.8616 22.0997 31.8616Z" fill="black"/>
<path d="M22.0997 56.0229C21.5068 56.0229 21.0198 55.5421 21.0198 54.9411V50.9107C21.0198 50.3167 21.4997 49.8288 22.0997 49.8288C22.6997 49.8288 23.1796 50.3096 23.1796 50.9107V54.9411C23.1796 55.535 22.6997 56.0229 22.0997 56.0229ZM22.0997 47.9691C21.5068 47.9691 21.0198 47.4883 21.0198 46.8873V42.8569C21.0198 42.2629 21.4997 41.775 22.0997 41.775C22.6997 41.775 23.1796 42.2558 23.1796 42.8569V46.8873C23.1796 47.4813 22.6997 47.9691 22.0997 47.9691ZM22.0997 39.9154C21.5068 39.9154 21.0198 39.4345 21.0198 38.8335V34.8031C21.0198 34.2091 21.4997 33.7212 22.0997 33.7212C22.6997 33.7212 23.1796 34.2021 23.1796 34.8031V38.8335C23.1796 39.4275 22.6997 39.9154 22.0997 39.9154Z" fill="black"/>
<path d="M22.0997 62.2171C21.5068 62.2171 21.0198 61.7362 21.0198 61.1352V58.9715C21.0198 58.3775 21.4997 57.8897 22.0997 57.8897C22.6997 57.8897 23.1796 58.3705 23.1796 58.9715V61.1352C23.1796 61.7292 22.6997 62.2171 22.0997 62.2171Z" fill="black"/>
<path d="M50.785 13.4913V25.8089H25.9819C39.6822 25.8089 50.785 20.2936 50.785 13.4913Z" fill="white"/>
<path d="M51.865 26.8907H25.9819V24.727C38.8423 24.727 49.7051 19.5794 49.7051 13.4913H51.865V26.8907ZM40.2681 24.727H49.7122V18.943C47.7147 21.3259 44.4184 23.3341 40.2681 24.727Z" fill="black"/>
<path d="M112.293 40.9512C112.407 41.1138 112.463 41.2683 112.463 41.4146C112.463 41.626 112.358 41.8618 112.146 42.122C112 42.3008 111.772 42.5041 111.463 42.7317L112.732 43.1463C113.22 43.2927 113.715 43.4309 114.22 43.561C114.61 43.7724 114.805 44.2114 114.805 44.878C114.805 45.2358 114.74 45.5122 114.61 45.7073C114.48 45.9024 114.309 46 114.098 46C113.854 46 113.626 45.8699 113.415 45.6098C113.122 45.252 112.829 44.8862 112.537 44.5122C112.049 44.0081 111.472 43.6016 110.805 43.2927C109.472 44.5122 108.268 45.3821 107.195 45.9024C106.301 46.3252 105.439 46.5366 104.61 46.5366L104.512 46.4878C104.561 46.439 104.602 46.4065 104.634 46.3902C104.748 46.3252 104.902 46.252 105.098 46.1707C105.894 45.8293 106.943 45.0163 108.244 43.7317C109.675 42.3171 110.39 41.2764 110.39 40.6098C110.39 40.4309 110.301 40.252 110.122 40.0732C109.764 40.0732 109.463 40.1301 109.22 40.2439C108.976 40.3415 108.732 40.439 108.488 40.5366C108.244 40.5366 107.764 40.3415 107.049 39.9512C106.333 39.5447 105.976 39.252 105.976 39.0732C105.976 38.9431 106.122 38.878 106.415 38.878H106.732C107.545 38.878 108.39 38.8211 109.268 38.7073C110.52 38.5447 111.463 38.2927 112.098 37.9512C112.455 37.7236 112.642 37.6098 112.659 37.6098C112.821 37.5285 112.992 37.4878 113.171 37.4878C113.496 37.4878 113.821 37.6098 114.146 37.8537C114.472 38.0813 114.634 38.3496 114.634 38.6585C114.634 39.1301 114.098 39.4553 113.024 39.6341C112.618 39.6992 112.22 39.7561 111.829 39.8049C111.829 39.9837 111.862 40.1626 111.927 40.3415C112.008 40.5203 112.13 40.7236 112.293 40.9512ZM109.22 49.8049C111.154 49.8049 112.577 49.7886 113.488 49.7561C115.585 49.6748 116.846 49.5285 117.268 49.3171C117.285 49.3008 117.439 49.2114 117.732 49.0488C117.894 48.9512 118.041 48.9024 118.171 48.9024C118.366 48.9024 118.732 49.0976 119.268 49.4878C119.805 49.878 120.073 50.1707 120.073 50.3659C120.073 50.4634 120.033 50.6098 119.951 50.8049C119.87 50.9837 119.813 51.2439 119.78 51.5854C119.748 51.9106 119.707 52.3577 119.659 52.9268C119.528 53.8374 119.285 54.5691 118.927 55.122C118.455 55.8374 118.171 56.1951 118.073 56.1951C117.992 56.1951 117.951 56.0569 117.951 55.7805V50.7073C116.748 50.7073 115.805 50.7236 115.122 50.7561C114.439 50.7724 113.919 50.8374 113.561 50.9512C113.463 50.9837 113 51.1545 112.171 51.4634C111.78 51.6098 111.561 51.6829 111.512 51.6829C111.268 51.6829 110.715 51.4472 109.854 50.9756C109.008 50.5041 108.585 50.1789 108.585 50C108.585 49.8699 108.797 49.8049 109.22 49.8049ZM116.463 35.878C116.154 35.6016 116 35.3659 116 35.1707C116 34.9593 116.179 34.8537 116.537 34.8537C117.122 34.8537 117.902 35.1138 118.878 35.6341C119.854 36.1382 120.341 36.6341 120.341 37.122L120.268 37.878V43.9024C120.675 43.9024 121.203 43.7561 121.854 43.4634C122.211 43.3008 122.488 43.2195 122.683 43.2195C123.024 43.2195 123.374 43.3252 123.732 43.5366C124.089 43.748 124.268 44.0081 124.268 44.3171C124.268 44.5447 124.187 44.7317 124.024 44.878C123.862 45.0244 123.626 45.0976 123.317 45.0976C122.959 45.0976 122.683 45.0894 122.488 45.0732C121.48 44.9919 120.732 44.9512 120.244 44.9512C120.13 45.4228 119.902 46.0976 119.561 46.9756C119.122 48.0813 118.78 48.6341 118.537 48.6341C118.472 48.6341 118.439 48.5203 118.439 48.2927L118.341 38.1463C118.211 37.8049 117.959 37.4228 117.585 37C117.211 36.561 116.837 36.187 116.463 35.878ZM136.561 38.2439C136.951 38.374 137.415 38.7561 137.951 39.3902C138.488 40.0244 138.756 40.5285 138.756 40.9024C138.756 41.0325 138.699 41.1626 138.585 41.2927C138.488 41.4065 138.398 41.4959 138.317 41.561L136.829 42.878C137.171 43.1057 137.512 43.3252 137.854 43.5366C138.406 43.9268 138.683 44.252 138.683 44.5122V45.3902C138.683 46.2683 138.593 47.0244 138.415 47.6585C138.252 48.2927 138.041 48.6098 137.78 48.6098C137.65 48.6098 137.537 48.3333 137.439 47.7805C137.211 46.6098 137.065 45.9106 137 45.6829C136.691 44.6098 136.293 43.9512 135.805 43.7073C134.894 44.4065 134.065 44.9593 133.317 45.3659C132.195 45.9837 131.244 46.2927 130.463 46.2927C130.431 46.2927 130.39 46.2846 130.341 46.2683C130.325 46.2683 130.309 46.2602 130.293 46.2439C130.341 46.2114 130.374 46.187 130.39 46.1707C130.504 46.0894 130.593 46.0407 130.659 46.0244C131.293 45.7805 132.382 44.9919 133.927 43.6585C135.553 42.2602 136.366 41.3252 136.366 40.8537C136.366 40.5447 136.26 40.1707 136.049 39.7317C135.837 39.2764 135.626 38.8049 135.415 38.3171C135.415 38.1382 135.537 38.0488 135.78 38.0488C135.992 38.0488 136.252 38.1138 136.561 38.2439ZM141.659 48.9268C142.699 48.9268 143.634 49.2683 144.463 49.9512C145.293 50.6179 145.707 51.4797 145.707 52.5366C145.707 53.5447 145.374 54.3902 144.707 55.0732C144.057 55.7724 143.276 56.122 142.366 56.122C141.276 56.122 140.301 55.7561 139.439 55.0244C138.577 54.3089 138.146 53.4715 138.146 52.5122C138.146 51.4878 138.488 50.6341 139.171 49.9512C139.854 49.2683 140.683 48.9268 141.659 48.9268ZM141.927 35.7317C141.715 35.5366 141.61 35.3659 141.61 35.2195C141.61 34.9756 141.846 34.8537 142.317 34.8537C142.854 34.8537 143.577 35.1138 144.488 35.6341C145.496 36.2195 146 36.748 146 37.2195C146 37.3171 145.984 37.4797 145.951 37.7073C145.919 37.935 145.902 38.122 145.902 38.2683V42.5366C145.902 43.7236 145.846 44.7805 145.732 45.7073C145.618 46.6341 145.415 47.3902 145.122 47.9756C144.78 48.6423 144.528 48.9756 144.366 48.9756C144.252 48.9756 144.195 48.813 144.195 48.4878C144.195 47.5772 144.179 46.6098 144.146 45.5854C144.13 44.5447 144.106 43.748 144.073 43.1951C143.813 43.2439 143.61 43.2846 143.463 43.3171C143.008 43.4309 142.659 43.561 142.415 43.7073C142.171 43.8537 142.024 43.935 141.976 43.9512C141.829 44.0163 141.707 44.0488 141.61 44.0488C141.398 44.0488 141 43.8374 140.415 43.4146C139.846 42.9756 139.561 42.6667 139.561 42.4878C139.561 42.3577 139.707 42.2927 140 42.2927H140.561C141.228 42.2927 141.878 42.2358 142.512 42.122C143.163 42.0081 143.667 41.8699 144.024 41.7073V38.3171C144.024 38.0407 143.756 37.5935 143.219 36.9756C142.797 36.5041 142.366 36.0894 141.927 35.7317ZM141.78 50.4878C141.114 50.4878 140.553 50.6829 140.098 51.0732C139.659 51.4472 139.439 51.878 139.439 52.3659C139.439 52.8049 139.715 53.2602 140.268 53.7317C140.837 54.2033 141.48 54.439 142.195 54.439C143.561 54.439 144.244 53.8293 144.244 52.6098C144.244 51.8618 144.032 51.3252 143.61 51C143.187 50.6585 142.577 50.4878 141.78 50.4878ZM172.671 37.5366C174.134 37.5366 175.191 38.0163 175.841 38.9756C176.264 39.6098 176.476 40.3496 176.476 41.1951C176.476 42.0732 176.167 42.813 175.549 43.4146C174.931 44.0163 174.158 44.3171 173.232 44.3171C172.256 44.3171 171.321 43.9431 170.427 43.1951C169.549 42.4309 169.11 41.626 169.11 40.7805C169.11 39.8374 169.451 39.065 170.134 38.4634C170.833 37.8455 171.679 37.5366 172.671 37.5366ZM180.695 46.0244V38.1951C180.646 37.7073 180.24 37.122 179.476 36.439C178.711 35.7561 178.329 35.3415 178.329 35.1951C178.329 34.9837 178.524 34.878 178.915 34.878C179.614 34.878 180.386 35.065 181.232 35.439C182.24 35.878 182.744 36.3902 182.744 36.9756L182.695 38.0976V46.0244C182.971 46.0244 183.272 45.9675 183.598 45.8537C184.394 45.5772 184.898 45.439 185.11 45.439C185.451 45.439 185.793 45.5447 186.134 45.7561C186.492 45.9675 186.671 46.2358 186.671 46.561C186.671 46.7724 186.589 46.9593 186.427 47.122C186.28 47.2683 186.085 47.3415 185.841 47.3415L185.646 47.3171C184.963 47.187 184.467 47.1057 184.158 47.0732C183.866 47.0407 183.354 47.0244 182.622 47.0244C182.573 47.4309 182.532 47.748 182.5 47.9756C182.386 48.6911 182.224 49.2927 182.012 49.7805C181.736 50.4309 181.516 50.8943 181.354 51.1707C181.207 51.4472 181.102 51.5854 181.037 51.5854C180.988 51.5854 180.955 51.4959 180.939 51.3171C180.923 51.1382 180.915 51.0244 180.915 50.9756C180.915 50.8293 180.915 50.7236 180.915 50.6585L180.695 47.3902C179.654 47.3902 177.971 47.5203 175.646 47.7805C173.337 48.0244 171.996 48.2358 171.622 48.4146C171.459 48.4797 171.272 48.5691 171.061 48.6829C170.866 48.7967 170.703 48.8537 170.573 48.8537C170.28 48.8537 169.703 48.6179 168.841 48.1463C167.98 47.6585 167.549 47.3008 167.549 47.0732C167.549 46.9919 167.622 46.935 167.768 46.9024C167.931 46.8699 168.11 46.8537 168.305 46.8537H168.573C169.419 46.8537 170.232 46.8374 171.012 46.8049C171.809 46.7724 172.524 46.7398 173.158 46.7073C173.158 46.3333 172.988 45.9106 172.646 45.439C172.467 45.1951 172.378 45.0163 172.378 44.9024C172.378 44.7236 172.516 44.6341 172.793 44.6341C173.264 44.6341 173.752 44.7154 174.256 44.878C174.76 45.0244 175.012 45.2683 175.012 45.6098L174.939 46.4878C175.638 46.439 176.215 46.3984 176.671 46.3659C177.971 46.2683 179.313 46.1545 180.695 46.0244ZM173.719 51.2195C173.492 50.9593 173.378 50.7724 173.378 50.6585C173.378 50.4959 173.573 50.4146 173.963 50.4146C174.5 50.4146 175.037 50.5041 175.573 50.6829C176.289 50.9268 176.646 51.2602 176.646 51.6829L176.573 52.5366V53.3415C176.573 53.6504 176.646 53.8618 176.793 53.9756C176.939 54.1057 177.305 54.1707 177.89 54.1707C178.345 54.1707 178.882 54.1057 179.5 53.9756C180.915 53.6829 181.695 53.5366 181.841 53.5366C182.085 53.5366 182.264 53.6016 182.378 53.7317C182.508 53.878 182.573 54.0488 182.573 54.2439C182.573 54.9106 182.037 55.4146 180.963 55.7561C180.199 56 179.402 56.122 178.573 56.122C177.679 56.122 176.931 55.7805 176.329 55.0976C176.102 54.8374 175.76 54.2764 175.305 53.4146C175.142 53.0732 174.898 52.6829 174.573 52.2439C174.329 51.9187 174.045 51.5772 173.719 51.2195ZM172.89 39.0488C172.207 39.0488 171.671 39.1707 171.28 39.4146C170.793 39.7236 170.549 40.2033 170.549 40.8537C170.549 41.4553 170.841 41.9024 171.427 42.1951C171.882 42.4228 172.459 42.5366 173.158 42.5366C173.663 42.5366 174.102 42.3821 174.476 42.0732C174.85 41.748 175.037 41.3496 175.037 40.878C175.037 40.3415 174.882 39.9187 174.573 39.6098C174.215 39.2358 173.654 39.0488 172.89 39.0488ZM200.695 51.5854C201.541 51.5854 202.362 51.5691 203.158 51.5366C203.971 51.4878 204.736 51.4309 205.451 51.3659C205.451 50.5366 205.394 49.8862 205.28 49.4146C205.232 49.2358 205.102 48.8862 204.89 48.3659C204.841 48.252 204.793 48.1057 204.744 47.9268C204.695 47.7317 204.671 47.5935 204.671 47.5122C204.671 47.2683 204.776 47.1463 204.988 47.1463C205.329 47.1463 205.801 47.3415 206.402 47.7317C207.02 48.122 207.329 48.4715 207.329 48.7805C207.329 48.9268 207.297 49.0732 207.232 49.2195C207.167 49.3659 207.102 49.5366 207.037 49.7317C206.988 49.9268 206.931 50.3008 206.866 50.8537C206.866 50.935 206.85 51.0325 206.817 51.1463C207.695 50.9837 208.573 50.813 209.451 50.6341C209.841 50.6341 210.248 50.7805 210.671 51.0732C211.11 51.3659 211.329 51.6911 211.329 52.0488C211.329 52.3415 211.215 52.5854 210.988 52.7805C210.776 52.9593 210.492 53.0488 210.134 53.0488C209.841 53.0488 209.354 53.0163 208.671 52.9512C208.004 52.8862 207.573 52.8537 207.378 52.8537H206.768C204.313 52.8537 202.24 52.8943 200.549 52.9756C198.874 53.0569 197.671 53.2276 196.939 53.4878C196.906 53.5041 196.63 53.626 196.11 53.8537C195.882 53.9512 195.679 54 195.5 54C195.158 54 194.5 53.7073 193.524 53.122C192.565 52.5366 192.085 52.1382 192.085 51.9268C192.085 51.813 192.167 51.7317 192.329 51.6829C192.508 51.6341 192.768 51.6098 193.11 51.6098H193.378C194.565 51.6098 195.646 51.6179 196.622 51.6341C197.597 51.6504 198.549 51.6829 199.476 51.7317C199.476 51.2439 199.297 50.7073 198.939 50.122C198.142 48.8374 197.744 48.1789 197.744 48.1463C197.744 47.935 197.882 47.8293 198.158 47.8293C198.597 47.8293 199.15 48.0325 199.817 48.439C200.5 48.8455 200.841 49.2439 200.841 49.6341C200.841 49.8455 200.833 50.0163 200.817 50.1463C200.736 50.8293 200.695 51.3089 200.695 51.5854ZM197.89 42.0976C197.565 41.8699 197.402 41.6667 197.402 41.4878C197.402 41.2276 197.744 41.0976 198.427 41.0976C199.565 41.0976 200.85 41.0081 202.28 40.8293C203.711 40.6504 204.654 40.4634 205.11 40.2683V37.7805C204.297 37.7805 203.476 37.8374 202.646 37.9512C201.833 38.0488 201.167 38.2276 200.646 38.4878C200.451 38.6016 200.297 38.6829 200.183 38.7317C200.069 38.7805 199.947 38.8049 199.817 38.8049C199.524 38.8049 199.004 38.6016 198.256 38.1951C197.508 37.7724 197.134 37.4472 197.134 37.2195C197.134 37.0894 197.345 37.0244 197.768 37.0244L198.939 37.0488C200.191 37.0488 201.297 37 202.256 36.9024C203.232 36.7886 203.98 36.626 204.5 36.4146C204.646 36.3496 204.809 36.252 204.988 36.122C205.183 35.9919 205.329 35.9268 205.427 35.9268C205.687 35.9268 206.077 36.1382 206.597 36.561C207.134 36.9837 207.402 37.3171 207.402 37.561C207.402 37.6748 207.345 37.8049 207.232 37.9512C207.069 38.1626 206.98 38.2846 206.963 38.3171C206.882 38.5447 206.825 38.7154 206.793 38.8293C206.597 39.3821 206.451 39.8699 206.354 40.2927C206.565 40.5041 206.703 40.6504 206.768 40.7317C206.931 40.9431 207.012 41.122 207.012 41.2683C207.012 41.626 206.76 41.8618 206.256 41.9756C205.768 42.0732 204.784 42.2114 203.305 42.3902C202.41 42.5041 201.41 42.6179 200.305 42.7317V44.7805C200.305 45.0081 200.345 45.1545 200.427 45.2195C200.508 45.2846 200.671 45.3171 200.915 45.3171H201.549C202.167 45.3171 202.809 45.2276 203.476 45.0488C204.988 44.6423 205.768 44.439 205.817 44.439C206.126 44.439 206.419 44.5366 206.695 44.7317C206.988 44.9268 207.134 45.1707 207.134 45.4634C207.134 45.9187 206.833 46.2195 206.232 46.3659C205.63 46.5122 204.679 46.6829 203.378 46.878C202.077 47.0569 201.248 47.1463 200.89 47.1463C200.386 47.1463 199.947 46.9593 199.573 46.5854C199.215 46.1951 199.037 45.7886 199.037 45.3659C199.037 45.1382 199.061 44.7805 199.11 44.2927C199.158 43.8049 199.183 43.4309 199.183 43.1707C199.02 42.9919 198.85 42.8293 198.671 42.6829C198.492 42.5203 198.232 42.3252 197.89 42.0976Z" fill="black"/>
<path d="M25.9818 25.8089C39.6802 25.8089 50.7849 20.2941 50.7849 13.4913C50.7849 6.68853 39.6802 1.17377 25.9818 1.17377C12.2834 1.17377 1.17871 6.68853 1.17871 13.4913C1.17871 20.2941 12.2834 25.8089 25.9818 25.8089Z" fill="white"/>
<path d="M25.9819 26.9897C11.4134 26.9897 0 21.0572 0 13.4913C0 5.92543 11.4134 0 25.9819 0C40.5503 0 51.9637 5.92543 51.9637 13.4913C51.9637 21.0572 40.5503 26.9826 25.9819 26.9826V26.9897ZM25.9819 2.36169C13.1709 2.35462 2.35044 7.45275 2.35044 13.4913C2.35044 19.5299 13.1709 24.628 25.9819 24.628C38.7928 24.628 49.6133 19.5299 49.6133 13.4913C49.6133 7.45275 38.7857 2.35462 25.9819 2.35462V2.36169Z" fill="black"/>
<path d="M25.9818 17.2318C31.5796 17.2318 36.1176 14.9778 36.1176 12.1973C36.1176 9.41686 31.5796 7.16284 25.9818 7.16284C20.3839 7.16284 15.8459 9.41686 15.8459 12.1973C15.8459 14.9778 20.3839 17.2318 25.9818 17.2318Z" fill="white"/>
<path d="M25.9819 18.3137C19.6929 18.3137 14.7661 15.6267 14.7661 12.1973C14.7661 8.76794 19.6929 6.08099 25.9819 6.08099C32.2709 6.08099 37.1976 8.76794 37.1976 12.1973C37.1976 15.6267 32.2709 18.3137 25.9819 18.3137ZM25.9819 8.2447C20.6457 8.2447 16.926 10.3306 16.926 12.1973C16.926 14.0641 20.6457 16.15 25.9819 16.15C31.318 16.15 35.0378 14.0641 35.0378 12.1973C35.0378 10.3306 31.318 8.2447 25.9819 8.2447Z" fill="black"/>
</g>
<defs>
<clipPath id="clip0_146_296">
<rect width="293" height="66" fill="white"/>
</clipPath>
</defs>
</svg>
