<svg width="59" height="23" viewBox="0 0 59 23" fill="none" xmlns="http://www.w3.org/2000/svg">
<path d="M4.8689 1.19556H56.2748L54.1448 4.54068L57.3153 7.29918L54.7524 9.86912L57.6505 12.7673L54.494 15.9308L57.2036 18.6405L54.3473 21.4967H6.45416" fill="#CCECF0"/>
<path d="M4.8689 1.19556H56.2748L54.1448 4.54068L57.3153 7.29918L54.7524 9.86912L57.6505 12.7673L54.494 15.9308L57.2036 18.6405L54.3473 21.4967H6.45416" stroke="black" stroke-width="1.41" stroke-miterlimit="10"/>
<path d="M5.27393 1L1.44695 4.1426L4.16355 6.85221L1 10.0088L3.90515 12.9139L1.34219 15.4769L4.51272 18.2354L2.37576 21.5875L6.45415 21.4967" fill="#CCECF0"/>
<path d="M5.27393 1L1.44695 4.1426L4.16355 6.85221L1 10.0088L3.90515 12.9139L1.34219 15.4769L4.51272 18.2354L2.37576 21.5875L6.45415 21.4967" stroke="black" stroke-width="1.41" stroke-miterlimit="10"/>
<path d="M19.5762 11.5801H20.2536C20.8333 11.5801 21.2732 11.5801 21.5945 11.5661C21.9157 11.5522 22.2649 11.5382 22.656 11.5102C23.047 11.4753 23.3683 11.4334 23.6057 11.3636C23.6895 11.3426 23.7594 11.3287 23.8292 11.3147C23.892 11.3007 23.9479 11.2938 23.9898 11.2938C24.1016 11.2938 24.2133 11.3217 24.3111 11.3845C24.4088 11.4404 24.4577 11.5242 24.4577 11.629C24.4577 11.7756 24.3669 11.8455 24.1923 11.8455C24.1016 11.8455 23.9619 11.8455 23.7733 11.8245C23.5848 11.8105 23.4451 11.8036 23.3543 11.8036C23.3683 11.8664 23.3962 11.9432 23.4311 12.034C23.4521 12.0829 23.4591 12.1318 23.4591 12.1807C23.4591 12.46 23.4451 12.7184 23.4102 12.9558C23.3753 13.1933 23.3194 13.4377 23.2356 13.6682C23.1797 13.8288 23.1239 13.9545 23.082 14.0523C23.0261 14.171 22.9772 14.2268 22.9493 14.2268C22.9353 14.2129 22.9283 14.1989 22.9283 14.1849C22.9213 14.15 22.9143 14.1221 22.9143 14.0942V12.9419C22.9143 12.6346 22.9144 12.4111 22.9074 12.2505C22.8934 12.0969 22.8655 11.9502 22.8236 11.8105L21.79 11.8594C21.804 11.9153 21.8179 11.9921 21.8459 12.0829C21.8598 12.1248 21.8668 12.1597 21.8668 12.1946C21.8668 12.3413 21.769 12.6346 21.5805 13.0815C21.378 13.5564 21.2243 13.7939 21.1196 13.7939C21.0986 13.7729 21.0916 13.752 21.0916 13.731L21.1056 13.6263C21.1685 13.3469 21.2173 13.1025 21.2523 12.9C21.2872 12.6975 21.3012 12.5159 21.3012 12.3622C21.3012 12.1877 21.2802 12.041 21.2313 11.9223H21.1475C20.9939 11.9223 20.8752 11.9223 20.7914 11.9293C20.7076 11.9362 20.6168 11.9572 20.519 11.9921C20.4701 12.0131 20.4003 12.041 20.3235 12.0759C20.2746 12.0969 20.2327 12.1108 20.2047 12.1108C20.1209 12.1108 19.9533 12.048 19.7019 11.9153C19.4505 11.7826 19.3318 11.6848 19.3318 11.629C19.3318 11.5801 19.4156 11.5591 19.5832 11.5591L19.5762 11.5801ZM21.0078 9.56882C20.8961 9.51994 20.7844 9.46407 20.6796 9.41519C20.505 9.31742 20.4142 9.25456 20.4142 9.21266C20.4142 9.16378 20.4771 9.14283 20.6098 9.14283C21.9995 9.14283 22.8305 9.07997 23.0959 8.94729C23.2146 8.87745 23.3264 8.84253 23.4172 8.84253C23.5149 8.84253 23.6197 8.87745 23.7244 8.9403C23.8292 9.00316 23.8781 9.08696 23.8781 9.17774C23.8781 9.22663 23.8571 9.26853 23.8222 9.29646C23.7873 9.3244 23.7314 9.34535 23.6546 9.34535H23.0401C22.6909 9.34535 22.3836 9.35932 22.1112 9.38027C21.8459 9.40122 21.6294 9.4501 21.4618 9.51295C21.4269 9.5339 21.378 9.55486 21.3291 9.58279C21.2802 9.61072 21.2313 9.62469 21.1964 9.62469C21.1475 9.62469 21.0777 9.61072 21.0009 9.57581L21.0078 9.56882ZM22.3068 9.60374C22.5652 9.60374 22.7887 9.66659 22.9842 9.79928C23.2286 9.96688 23.3543 10.2043 23.3543 10.5046C23.3543 10.784 23.2705 10.9935 23.0959 11.1471C22.9493 11.2798 22.7607 11.3426 22.5372 11.3426C22.202 11.3426 21.9227 11.2379 21.6992 11.0354C21.5107 10.8608 21.4129 10.6722 21.4129 10.4697C21.4129 10.2183 21.4827 10.0158 21.6154 9.86213C21.776 9.68754 22.0065 9.59676 22.3138 9.59676L22.3068 9.60374ZM21.6852 8.221C21.7551 8.24195 21.8598 8.25592 21.9995 8.2629C22.1462 8.26988 22.2788 8.27687 22.4046 8.27687H22.8375C22.9632 8.27687 23.0191 8.31178 23.0191 8.3886C23.0191 8.50034 22.9213 8.60509 22.7258 8.6889C22.5652 8.75873 22.4185 8.80063 22.2928 8.80063C22.1392 8.80063 22.0344 8.80063 21.9855 8.77968C21.9367 8.75873 21.8598 8.72381 21.769 8.64699C21.7132 8.60509 21.6503 8.54923 21.5805 8.47241C21.4897 8.37464 21.4408 8.3048 21.4408 8.2629C21.4408 8.22798 21.4688 8.20703 21.5316 8.20703L21.6783 8.22798L21.6852 8.221ZM22.4046 10.0018C22.216 10.0018 22.0693 10.0507 21.9506 10.1485C21.8319 10.2462 21.776 10.351 21.776 10.4627C21.776 10.5884 21.8459 10.6932 21.9786 10.7979C22.1182 10.8957 22.2649 10.9446 22.4325 10.9446C22.5722 10.9446 22.6909 10.9097 22.8026 10.8259C22.9353 10.7281 22.9981 10.6024 22.9981 10.4348C22.9981 10.2951 22.9423 10.1834 22.8306 10.1066C22.7188 10.0297 22.5722 9.98784 22.3976 9.98784L22.4046 10.0018Z" fill="black"/>
<path d="M28.4733 10.323C28.5013 10.3579 28.5222 10.3998 28.5222 10.4487C28.5222 10.5046 28.5013 10.5604 28.4663 10.6233C28.4244 10.6861 28.3337 10.8048 28.18 10.9725C28.3057 11.0283 28.3756 11.0632 28.3965 11.0772C28.4664 11.1051 28.5362 11.1261 28.613 11.147C28.8784 11.2169 29.046 11.2867 29.1088 11.3565C29.1717 11.4264 29.1996 11.5381 29.1996 11.6848C29.1996 11.8035 29.1787 11.8943 29.1438 11.9571C29.1088 12.02 29.06 12.0549 28.9971 12.0549C28.9412 12.0549 28.8574 11.9781 28.7387 11.8314C28.4314 11.4473 28.194 11.2169 28.0334 11.1331C27.6632 11.4753 27.4468 11.6778 27.3769 11.7267C27.1325 11.9152 26.8671 12.0479 26.5808 12.1247C26.476 12.1457 26.3713 12.1666 26.2735 12.1876H26.2526C26.2526 12.1876 26.2805 12.1597 26.2875 12.1527C26.3154 12.1317 26.3643 12.1108 26.4202 12.0828C26.6786 11.9571 26.9789 11.7057 27.3141 11.3356C27.6842 10.9236 27.8728 10.5953 27.8728 10.3579C27.8728 10.2322 27.8448 10.1414 27.782 10.0855C27.6982 10.0855 27.6213 10.0925 27.5655 10.1135C27.5096 10.1344 27.4468 10.1554 27.3909 10.1693C27.3141 10.1693 27.1814 10.1135 26.9858 9.99476C26.7973 9.87604 26.6995 9.79223 26.6995 9.73637C26.6995 9.70145 26.7414 9.6805 26.8252 9.6805H27.0208C27.2861 9.6805 27.5096 9.66653 27.6912 9.64558C27.9845 9.61066 28.2289 9.54083 28.4384 9.44306C28.4873 9.41512 28.5222 9.39417 28.5502 9.3802C28.62 9.34529 28.6828 9.32434 28.7457 9.32434C28.8435 9.32434 28.9342 9.35227 29.025 9.41512C29.1158 9.47797 29.1577 9.54781 29.1577 9.6386C29.1577 9.75033 29.046 9.82715 28.8155 9.86905C28.634 9.89699 28.4524 9.91794 28.2708 9.94587C28.2708 9.98777 28.2918 10.0506 28.3337 10.1135C28.3756 10.1763 28.4244 10.2531 28.4803 10.316L28.4733 10.323ZM29.6745 8.5771C29.5767 8.49329 29.5278 8.43044 29.5278 8.37457C29.5278 8.31871 29.5837 8.29077 29.6955 8.29077C29.8561 8.29077 30.0726 8.36061 30.3449 8.50726C30.6103 8.64693 30.75 8.79359 30.75 8.94024C30.75 8.96818 30.75 9.01706 30.736 9.07293C30.722 9.1288 30.722 9.1707 30.722 9.19165V11.601C30.722 12.0828 30.6941 12.5019 30.6452 12.858C30.5963 13.2142 30.4986 13.5913 30.3589 13.9893C30.3379 14.0592 30.31 14.122 30.2821 14.1639C30.2751 14.1779 30.2611 14.1919 30.2472 14.2128C30.2472 14.1919 30.2402 14.1709 30.2332 14.136C30.2332 14.1011 30.2332 14.0801 30.2332 14.0592V13.9265C30.2332 13.71 30.2332 13.277 30.2192 12.6136C30.2122 11.9501 30.1983 11.3286 30.1913 10.742C30.1843 10.1554 30.1773 9.61765 30.1703 9.13578C30.1354 9.05896 30.0796 8.97516 30.0097 8.88437C29.9119 8.77264 29.8072 8.6609 29.6815 8.56313L29.6745 8.5771Z" fill="black"/>
<path d="M39.9821 11.3147C39.9821 11.9292 39.7935 12.4321 39.4234 12.8301C39.0463 13.2282 38.5714 13.4237 37.9848 13.4237C37.3982 13.4237 36.9722 13.2352 36.623 12.865C36.2738 12.4949 36.0992 12.013 36.0992 11.4194C36.0992 10.777 36.2878 10.2532 36.6579 9.85513C37.0281 9.45008 37.5239 9.24756 38.1315 9.24756C38.6971 9.24756 39.151 9.43611 39.4863 9.81323C39.8215 10.1903 39.9891 10.6932 39.9891 11.3147H39.9821ZM39.2837 11.3566C39.2837 10.7979 39.172 10.344 38.9555 9.9948C38.739 9.64562 38.4457 9.47103 38.0826 9.47103C37.6845 9.47103 37.3702 9.63864 37.1398 9.96686C36.9093 10.2951 36.7976 10.749 36.7976 11.3287C36.7976 11.9083 36.9093 12.3343 37.1398 12.6765C37.3702 13.0187 37.6705 13.1863 38.0616 13.1863C38.4527 13.1863 38.746 13.0187 38.9625 12.6904C39.179 12.3622 39.2907 11.9083 39.2907 11.3496L39.2837 11.3566Z" fill="black"/>
</svg>
