<svg width="59" height="23" viewBox="0 0 59 23" fill="none" xmlns="http://www.w3.org/2000/svg">
<path d="M4.86194 1.22339H56.2748L54.1448 4.57549L57.3084 7.33399L54.7454 9.89695L57.6506 12.8021L54.494 15.9587L57.2036 18.6683L54.3474 21.5246H6.4472" fill="#CCECF0"/>
<path d="M4.86194 1.22339H56.2748L54.1448 4.57549L57.3084 7.33399L54.7454 9.89695L57.6506 12.8021L54.494 15.9587L57.2036 18.6683L54.3474 21.5246H6.4472" stroke="black" stroke-width="1.41" stroke-miterlimit="10"/>
<path d="M5.27393 1.02783L1.44695 4.17043L4.15656 6.88004L1 10.0366L3.89817 12.9418L1.33521 15.5047L4.50574 18.2632L2.37576 21.6153L6.44717 21.5245" fill="#CCECF0"/>
<path d="M5.27393 1.02783L1.44695 4.17043L4.15656 6.88004L1 10.0366L3.89817 12.9418L1.33521 15.5047L4.50574 18.2632L2.37576 21.6153L6.44717 21.5245" stroke="black" stroke-width="1.41" stroke-miterlimit="10"/>
<path d="M6.94998 10.8815C7.04077 10.8257 7.13155 10.7977 7.22932 10.7977C7.45978 10.7977 7.64135 10.8746 7.78102 11.0212C7.92069 11.1679 7.99053 11.3564 7.99053 11.5939V11.6497C7.99053 11.6497 8.03941 11.7265 8.06036 11.7754C8.08131 11.8243 8.0883 11.8662 8.0883 11.9011C8.0883 11.957 8.06036 11.9919 8.01148 12.0129C7.96259 12.0338 7.92069 12.0548 7.87879 12.0687C7.7042 12.1595 7.52961 12.2573 7.35502 12.3481C7.1106 12.4738 6.92903 12.5296 6.81729 12.5296C6.80332 12.5296 6.79634 12.5296 6.78936 12.5296L6.77539 12.5157C6.77539 12.5157 6.82428 12.4668 6.84523 12.4598C6.99188 12.39 7.15949 12.2782 7.34106 12.1176C7.50168 11.978 7.64135 11.8313 7.75309 11.6916C7.69023 11.4821 7.46676 11.3355 7.09663 11.2447C6.93601 11.2098 6.85919 11.1399 6.85919 11.0422C6.85919 10.9863 6.88713 10.9374 6.94998 10.8885V10.8815ZM8.06735 10.7419C8.15813 10.686 8.24193 10.6581 8.33272 10.6581C8.55619 10.6581 8.7238 10.7419 8.84252 10.9165C8.94029 11.0631 9.00314 11.2517 9.03108 11.4961C9.10789 11.6078 9.1498 11.6707 9.15678 11.6777C9.19868 11.7475 9.21963 11.8243 9.21963 11.9011C9.21963 11.9919 9.1917 12.0618 9.13583 12.0897C9.07996 12.1246 9.02409 12.1525 8.96124 12.1805C8.61206 12.4598 8.33272 12.6623 8.12321 12.788C7.91371 12.9137 7.7461 12.9766 7.6204 12.9766H7.59246C7.59246 12.9766 7.61342 12.9487 7.6204 12.9487C7.64135 12.9347 7.65532 12.9207 7.67627 12.9137C7.82292 12.8509 8.02545 12.6693 8.30479 12.369C8.54223 12.1106 8.71682 11.8941 8.82855 11.7196C8.74475 11.4263 8.57714 11.2377 8.31875 11.1399C8.06036 11.0422 7.92768 10.9653 7.92768 10.9165C7.92768 10.8606 7.97656 10.8047 8.06735 10.7488V10.7419ZM9.88307 12.7811C9.83418 13.0255 9.77831 13.228 9.72245 13.3886C9.66658 13.5492 9.60373 13.6261 9.55484 13.6261C9.51992 13.6261 9.50596 13.5353 9.50596 13.3537L9.48501 10.7C9.47104 10.6162 9.36629 10.4625 9.17075 10.239C9.08694 10.1483 9.04504 10.0714 9.04504 10.0226C9.04504 9.97367 9.07298 9.95272 9.13583 9.95272C9.25455 9.95272 9.42215 10.0086 9.63166 10.1273C9.84117 10.246 9.94592 10.3578 9.94592 10.4555C9.94592 10.4695 9.94592 10.5044 9.92497 10.5533C9.90402 10.6022 9.90402 10.6371 9.90402 10.6581V11.5729H10.3649V10.246C10.337 10.1343 10.2532 10.0016 10.0996 9.834C9.94592 9.66639 9.8691 9.56164 9.8691 9.51276C9.8691 9.45689 9.90402 9.42896 9.98084 9.42896C10.1135 9.42896 10.2951 9.49879 10.5256 9.63148C10.756 9.77115 10.8747 9.89685 10.8747 10.0156C10.8747 10.0435 10.8677 10.0924 10.8468 10.1483C10.8258 10.2041 10.8189 10.26 10.8189 10.3089V12.4179C10.8189 12.8858 10.8119 13.242 10.7909 13.4934C10.756 13.9543 10.6792 14.2965 10.5744 14.5269C10.5046 14.6876 10.4557 14.7714 10.4278 14.7714C10.3999 14.7714 10.3859 14.7155 10.3859 14.5968L10.3579 11.95H9.89704V12.2713C9.89704 12.3551 9.89704 12.4458 9.89704 12.5366C9.89704 12.6274 9.88307 12.6973 9.8691 12.7601L9.88307 12.7811Z" fill="black"/>
<path d="M16.5943 12.1596C16.2242 12.1596 15.7843 12.1806 15.2884 12.2225C14.7926 12.2644 14.4713 12.3133 14.3247 12.3761C14.2828 12.3901 14.2269 12.411 14.1711 12.439C14.1152 12.4669 14.0663 12.4739 14.0384 12.4739C13.9336 12.4739 13.766 12.418 13.5356 12.2993C13.3051 12.1806 13.1934 12.0758 13.1934 11.992C13.1934 11.9571 13.2283 11.9361 13.3051 11.9361C13.4099 11.9361 13.5775 11.9361 13.8079 11.9501C14.0384 11.9641 14.1711 11.9641 14.185 11.9641H14.7996C14.9323 11.7965 15.037 11.587 15.1278 11.3286C15.2116 11.0702 15.2535 10.8607 15.2535 10.6931C15.2535 10.6302 15.2186 10.5464 15.1488 10.4556C15.0789 10.3648 15.0161 10.316 14.9602 10.316C14.9183 10.316 14.8415 10.3509 14.7507 10.4137C14.6599 10.4766 14.5761 10.5185 14.5202 10.5185C14.4574 10.5185 14.3596 10.4905 14.2339 10.4277C14.1082 10.3648 14.0454 10.309 14.0454 10.2531C14.0454 10.2182 14.0593 10.1903 14.0873 10.1693C14.1152 10.1484 14.178 10.1204 14.2618 10.0995C14.4923 10.0087 14.6669 9.93187 14.7856 9.88298C14.9043 9.8341 15.0021 9.80616 15.0649 9.80616C15.1907 9.80616 15.3233 9.89695 15.484 10.0785C15.6376 10.2601 15.7144 10.4137 15.7144 10.5394C15.7144 10.721 15.6097 10.9654 15.4071 11.2797C15.3233 11.4124 15.1557 11.6359 14.9183 11.9361C15.2745 11.9361 15.5957 11.9292 15.896 11.9082C16.0007 11.9082 16.1195 11.8942 16.2661 11.8733C16.3918 11.7476 16.5175 11.5311 16.6432 11.2308C16.7689 10.9305 16.8318 10.707 16.8318 10.5674C16.8318 10.5185 16.7969 10.4556 16.727 10.3858C16.6572 10.316 16.5943 10.281 16.5524 10.281C16.5245 10.281 16.4617 10.309 16.3639 10.3648C16.315 10.3928 16.2731 10.4067 16.2312 10.4067C16.1474 10.4067 16.0426 10.3648 15.9309 10.281C15.8611 10.2322 15.8262 10.1833 15.8262 10.1414C15.8262 10.0855 15.889 10.0366 16.0147 10.0087C16.0636 9.99472 16.1753 9.94583 16.3429 9.86203C16.5105 9.77823 16.6432 9.73633 16.727 9.73633C16.8318 9.73633 16.9575 9.82712 17.1111 10.0157C17.2648 10.2042 17.3416 10.3579 17.3416 10.4696C17.3416 10.5953 17.2089 10.8327 16.9435 11.1959C16.734 11.4752 16.5524 11.6987 16.3988 11.8593C16.5455 11.8593 16.6642 11.8523 16.7759 11.8314C16.8877 11.8104 17.0134 11.7755 17.167 11.7266C17.2508 11.6987 17.3206 11.6847 17.3765 11.6847C17.4603 11.6847 17.5511 11.7127 17.6489 11.7755C17.7466 11.8384 17.7955 11.9082 17.7955 11.985C17.7955 12.0479 17.7676 12.0968 17.7187 12.1457C17.6628 12.1876 17.6 12.2155 17.5162 12.2155C17.3695 12.2155 17.181 12.2155 16.9505 12.1945C16.7201 12.1736 16.6083 12.1736 16.6013 12.1736L16.5943 12.1596ZM15.8262 12.6694C15.9169 12.7183 16.0077 12.7881 16.1055 12.8929C16.2312 13.0186 16.2941 13.1164 16.2941 13.1932C16.2941 13.2351 16.2731 13.277 16.2382 13.3189C16.2033 13.3608 16.1614 13.3887 16.1264 13.4236L16.0706 13.4935C16.1474 13.5493 16.315 13.6401 16.5943 13.7728C16.9924 13.9544 17.1879 14.1918 17.1879 14.4782C17.1879 14.6248 17.1391 14.7016 17.0343 14.7016C16.9435 14.7016 16.727 14.4921 16.3848 14.0801C16.2033 13.8566 16.0566 13.7169 15.9588 13.6541C15.6586 13.9474 15.3652 14.1918 15.0789 14.3804C14.6809 14.6458 14.3247 14.7784 14.0174 14.7784C14.0035 14.7784 13.9965 14.7784 13.9895 14.7784C13.9895 14.7784 13.9895 14.7715 13.9895 14.7575C13.9895 14.7435 14.0035 14.7435 14.0174 14.7365C14.0454 14.7156 14.0733 14.7016 14.1012 14.6946C14.3945 14.6108 14.7088 14.4013 15.044 14.0591C15.3373 13.7658 15.5538 13.4795 15.6935 13.2002C15.6935 13.1443 15.6655 13.0395 15.6027 12.8859C15.5747 12.8091 15.5608 12.7532 15.5608 12.7043C15.5608 12.6415 15.5887 12.6136 15.6446 12.6136C15.6795 12.6136 15.7424 12.6345 15.8192 12.6834L15.8262 12.6694Z" fill="black"/>
<path d="M19.8766 11.5869C19.7299 11.51 19.6322 11.4472 19.5623 11.3983C19.4785 11.3355 19.4436 11.2936 19.4436 11.2586C19.4436 11.2167 19.4995 11.1958 19.6182 11.1958C20.135 11.1958 20.5121 11.1888 20.7356 11.1679C20.959 11.1539 21.1406 11.119 21.2873 11.0631C21.3222 11.0491 21.378 11.0212 21.4409 10.9933C21.5037 10.9653 21.5596 10.9514 21.5945 10.9514C21.6504 10.9514 21.7202 10.9793 21.811 11.0422C21.8948 11.098 21.9367 11.1609 21.9367 11.2167C21.9367 11.2586 21.9158 11.2936 21.8809 11.3215C21.8459 11.3494 21.7971 11.3634 21.7342 11.3634C21.4549 11.3634 21.1685 11.3843 20.8613 11.4193C20.561 11.4612 20.3584 11.5031 20.2607 11.5659C20.2048 11.5939 20.1629 11.6148 20.135 11.6288C20.107 11.6427 20.0861 11.6497 20.0651 11.6497C20.0232 11.6497 19.9604 11.6288 19.8766 11.5799V11.5869ZM20.8962 11.7056C21.1336 11.7056 21.3431 11.7684 21.5107 11.8941C21.7133 12.0478 21.818 12.2643 21.818 12.5436C21.818 12.7671 21.7412 12.9626 21.5876 13.1232C21.4339 13.2839 21.2314 13.3677 20.98 13.3677C20.7006 13.3677 20.4702 13.2769 20.2746 13.0883C20.1001 12.9207 20.0093 12.7322 20.0093 12.5087C20.0093 12.3201 20.0861 12.1455 20.2327 11.9849C20.4073 11.7894 20.6308 11.6986 20.9032 11.6986L20.8962 11.7056ZM20.2397 10.2181C20.4842 10.3298 20.7844 10.3857 21.1336 10.3857C21.2803 10.3857 21.3501 10.4276 21.3501 10.5184C21.3501 10.6301 21.2733 10.7139 21.1197 10.7628C21.0149 10.7977 20.8962 10.8117 20.7495 10.8117C20.6378 10.8117 20.547 10.8047 20.4772 10.7838C20.4073 10.7628 20.3445 10.7209 20.2746 10.6581C20.2048 10.5952 20.1559 10.5324 20.114 10.4695C20.0512 10.3787 20.0163 10.3089 20.0163 10.253C20.0163 10.2111 20.0442 10.1832 20.0931 10.1832C20.135 10.1832 20.1839 10.1971 20.2327 10.2181H20.2397ZM20.9241 12.0897C20.7425 12.0897 20.6099 12.1106 20.5261 12.1595C20.4073 12.2224 20.3515 12.3341 20.3515 12.4877C20.3515 12.6204 20.4143 12.7392 20.547 12.8299C20.6727 12.9207 20.8124 12.9696 20.952 12.9696C21.0917 12.9696 21.2104 12.9277 21.3012 12.8509C21.399 12.7741 21.4479 12.6833 21.4479 12.5785C21.4479 12.4738 21.413 12.369 21.3361 12.2782C21.2384 12.1525 21.0987 12.0897 20.9241 12.0897V12.0897ZM22.258 9.72924C22.1742 9.65242 22.1323 9.59655 22.1323 9.54767C22.1323 9.4918 22.1881 9.46387 22.2999 9.46387C22.4535 9.46387 22.6421 9.51974 22.8655 9.63846C23.1169 9.77114 23.2427 9.90383 23.2427 10.0435L23.2217 10.267V12.4179C23.2846 12.4179 23.4242 12.383 23.6267 12.3201C23.7315 12.2852 23.8083 12.2713 23.8712 12.2713C23.9689 12.2713 24.0597 12.2922 24.1365 12.3411C24.2134 12.39 24.2553 12.4598 24.2553 12.5436C24.2553 12.6065 24.2343 12.6553 24.1994 12.6972C24.1645 12.7391 24.1086 12.7601 24.0388 12.7601C23.9899 12.7601 23.8293 12.7322 23.5499 12.6833C23.4242 12.6553 23.3125 12.6484 23.2217 12.6484C23.2217 12.8439 23.2147 12.9906 23.2077 13.1093C23.1938 13.4305 23.1658 13.7029 23.1309 13.9124C23.11 14.0241 23.0611 14.1917 22.9912 14.4152C22.9005 14.6876 22.8376 14.8202 22.8027 14.8202C22.7887 14.8202 22.7748 14.7644 22.7748 14.6526V14.6107C22.7748 14.4152 22.7748 14.2057 22.7678 13.9752C22.7678 13.7448 22.7538 13.5632 22.7538 13.4235V10.2949C22.7119 10.2041 22.6281 10.0994 22.5233 9.98065C22.4395 9.89685 22.3557 9.81304 22.265 9.73623L22.258 9.72924Z" fill="black"/>
<path d="M27.6772 11.2726C27.6772 11.2726 27.7191 11.3424 27.7191 11.3913C27.7191 11.4402 27.6981 11.496 27.6632 11.5519C27.6283 11.6078 27.5445 11.7125 27.4118 11.8662C27.5235 11.922 27.5864 11.95 27.6073 11.9569C27.6702 11.9849 27.733 11.9989 27.8029 12.0198C28.0403 12.0827 28.194 12.1455 28.2498 12.2084C28.3057 12.2712 28.3336 12.369 28.3336 12.5017C28.3336 12.6064 28.3197 12.6902 28.2847 12.7461C28.2498 12.802 28.2079 12.8299 28.159 12.8299C28.1102 12.8299 28.0333 12.7601 27.9286 12.6274C27.6492 12.2852 27.4397 12.0757 27.2931 11.9988C26.9579 12.3061 26.7623 12.4877 26.7065 12.5296C26.483 12.7042 26.2455 12.8229 25.9872 12.8858C25.8964 12.9067 25.7986 12.9277 25.7148 12.9416H25.6938C25.6938 12.9416 25.7148 12.9137 25.7218 12.9137C25.7497 12.8997 25.7916 12.8788 25.8405 12.8508C26.071 12.7391 26.3433 12.5086 26.6436 12.1734C26.9788 11.8033 27.1464 11.51 27.1464 11.2935C27.1464 11.1818 27.1185 11.098 27.0696 11.0491C26.9928 11.0491 26.923 11.0561 26.8741 11.077C26.8252 11.098 26.7693 11.1119 26.7134 11.1329C26.6436 11.1329 26.5249 11.077 26.3503 10.9792C26.1757 10.8745 26.0919 10.7977 26.0919 10.7488C26.0919 10.7139 26.1268 10.6999 26.2036 10.6999H26.3782C26.6157 10.6999 26.8182 10.6929 26.9788 10.672C27.2372 10.6371 27.4677 10.5812 27.6562 10.4904C27.6981 10.4625 27.733 10.4415 27.754 10.4345C27.8168 10.3996 27.8727 10.3856 27.9286 10.3856C28.0124 10.3856 28.0962 10.4136 28.18 10.4625C28.2568 10.5183 28.2987 10.5812 28.2987 10.665C28.2987 10.7697 28.194 10.8396 27.9914 10.8745C27.8308 10.9024 27.6632 10.9234 27.5026 10.9443C27.5026 10.9862 27.5235 11.0351 27.5585 11.098C27.5934 11.1608 27.6353 11.2237 27.6842 11.2795L27.6772 11.2726ZM28.7526 9.70126C28.6688 9.62444 28.6269 9.56858 28.6269 9.51969C28.6269 9.47081 28.6758 9.44287 28.7806 9.44287C28.9272 9.44287 29.1228 9.50572 29.3602 9.63841C29.6046 9.76411 29.7234 9.8968 29.7234 10.0295C29.7234 10.0574 29.7234 10.0993 29.7094 10.1552C29.6954 10.2111 29.6954 10.246 29.6954 10.2599V12.4318C29.6954 12.8648 29.6745 13.2419 29.6256 13.5632C29.5767 13.8844 29.4929 14.2266 29.3672 14.5828C29.3462 14.6456 29.3253 14.7015 29.2974 14.7434C29.2904 14.7573 29.2764 14.7713 29.2694 14.7853C29.2694 14.7713 29.2624 14.7434 29.2555 14.7155C29.2555 14.6875 29.2555 14.6666 29.2555 14.6456V14.5269C29.2555 14.3314 29.2555 13.9403 29.2415 13.3467C29.2345 12.7531 29.2275 12.1874 29.2136 11.6636C29.1996 11.1399 29.1996 10.651 29.1926 10.218C29.1577 10.1482 29.1088 10.0714 29.0459 9.98759C28.9621 9.88283 28.8644 9.79205 28.7526 9.70126V9.70126Z" fill="black"/>
<path d="M36.26 10.1133C36.6301 10.1133 36.9164 10.2321 37.1189 10.4695C37.2796 10.6581 37.3564 10.8676 37.3564 11.098C37.3564 11.3424 37.2796 11.545 37.1259 11.7265C36.9583 11.9221 36.7348 12.0198 36.4625 12.0198C36.1692 12.0198 35.9108 11.9291 35.6803 11.7545C35.4289 11.5589 35.3032 11.3285 35.3032 11.0491C35.3032 10.7838 35.401 10.5673 35.5895 10.3857C35.7851 10.2041 36.0016 10.1133 36.253 10.1133H36.26ZM36.3089 10.4835C36.1552 10.4835 36.0155 10.5463 35.8759 10.665C35.7362 10.7838 35.6664 10.9164 35.6664 11.0631C35.6664 11.2237 35.7432 11.3564 35.8898 11.4612C36.0365 11.5659 36.2111 11.6148 36.4136 11.6148C36.5742 11.6148 36.7139 11.5589 36.8256 11.4542C36.9374 11.3494 36.9932 11.2237 36.9932 11.098C36.9932 10.9374 36.9304 10.7907 36.7907 10.672C36.651 10.5533 36.4974 10.4904 36.3019 10.4904L36.3089 10.4835ZM35.7851 12.9207C35.7362 12.8439 35.7083 12.788 35.7083 12.7601C35.7083 12.7112 35.7502 12.6833 35.827 12.6833C35.9527 12.6833 36.0924 12.7252 36.253 12.802C36.4346 12.8928 36.5253 12.9975 36.5253 13.1093C36.5253 13.1232 36.5253 13.1651 36.5044 13.235C36.4834 13.3048 36.4834 13.3607 36.4834 13.4096V13.8565C36.4834 13.9403 36.4974 13.9962 36.5184 14.0102C36.5393 14.0241 36.5952 14.0381 36.686 14.0381H36.7139C36.7907 14.0381 36.9304 14.0102 37.1399 13.9543C37.2446 13.9264 37.3285 13.9124 37.3913 13.9124C37.4611 13.9124 37.4961 13.9403 37.4961 13.9892C37.4961 14.1359 37.3773 14.2685 37.1329 14.3942C36.9234 14.506 36.7418 14.5619 36.5952 14.5619C36.4904 14.5619 36.4066 14.513 36.3298 14.4152C36.253 14.3174 36.2181 14.1917 36.2181 14.0451C36.2181 13.8495 36.1971 13.7029 36.1622 13.5911C36.1063 13.4305 35.9876 13.207 35.7851 12.9207V12.9207ZM37.3075 13.1302C37.2167 13.0813 37.1748 13.0394 37.1748 13.0045C37.1748 12.9836 37.2237 12.9766 37.3285 12.9766H37.9081C38.0547 12.9766 38.1944 12.9766 38.3341 12.9626C38.4668 12.9556 38.5855 12.9347 38.6833 12.8928C38.802 12.8369 38.9137 12.809 39.0115 12.809C39.0813 12.809 39.1512 12.8299 39.214 12.8649C39.2769 12.8998 39.3048 12.9626 39.3048 13.0325C39.3048 13.0813 39.2908 13.1232 39.2559 13.1582C39.228 13.1931 39.1791 13.214 39.1232 13.214C39.0813 13.214 38.9975 13.214 38.8648 13.2001C38.7321 13.1861 38.6623 13.1861 38.6483 13.1861C38.4668 13.1861 38.3411 13.1861 38.2782 13.2001C38.2154 13.207 38.1176 13.235 37.9919 13.2769C37.943 13.2978 37.9081 13.3118 37.8871 13.3188C37.8522 13.3328 37.8243 13.3397 37.7894 13.3397C37.7335 13.3397 37.6567 13.3118 37.5449 13.2629C37.4821 13.235 37.4053 13.1931 37.3145 13.1372L37.3075 13.1302ZM37.6357 12.3481C37.6078 12.3132 37.5938 12.2782 37.5938 12.2503C37.5938 12.2084 37.6287 12.1875 37.6986 12.1875C37.7894 12.1875 37.8941 12.2014 38.0198 12.2294C38.3131 12.2992 38.4947 12.3341 38.5645 12.3341C38.6902 12.3341 38.7461 12.376 38.7461 12.4598C38.7461 12.5506 38.6763 12.6274 38.5436 12.6833C38.4388 12.7252 38.3271 12.7461 38.2223 12.7461C38.0687 12.7461 37.936 12.6903 37.8243 12.5715C37.7824 12.5296 37.7195 12.4528 37.6427 12.3481H37.6357ZM38.348 13.4305C38.5855 13.4305 38.781 13.4934 38.9347 13.633C39.0883 13.7727 39.1651 13.9403 39.1651 14.1638C39.1651 14.4012 39.0674 14.5758 38.8788 14.6945C38.7391 14.7783 38.5855 14.8202 38.4109 14.8202C38.2363 14.8202 38.0827 14.7714 37.936 14.6666C37.7405 14.5339 37.6427 14.3523 37.6427 14.1289C37.6427 13.9264 37.7265 13.7518 37.8871 13.6121C38.0338 13.4864 38.1874 13.4305 38.355 13.4305H38.348ZM37.9779 9.73623C37.8941 9.65242 37.8522 9.58957 37.8522 9.54767C37.8522 9.4918 37.9151 9.46387 38.0338 9.46387C38.1735 9.46387 38.355 9.5337 38.5855 9.67337C38.8159 9.81304 38.9347 9.94573 38.9347 10.0714L38.9137 10.253V11.4472H38.9696C39.0394 11.4472 39.1302 11.4193 39.2489 11.3634C39.3676 11.3075 39.4514 11.2796 39.5073 11.2796C39.5911 11.2796 39.6819 11.3075 39.7657 11.3564C39.8495 11.4053 39.8984 11.4681 39.8984 11.545C39.8984 11.6008 39.8774 11.6497 39.8355 11.6846C39.7936 11.7196 39.7378 11.7405 39.661 11.7405C39.5283 11.7265 39.4095 11.7196 39.3118 11.7126C39.214 11.7056 39.0813 11.6986 38.9207 11.6986C38.8299 11.8313 38.7461 11.957 38.6553 12.0827C38.5785 12.1875 38.5296 12.2363 38.5087 12.2363C38.4947 12.2363 38.4877 12.2224 38.4807 12.1875C38.4738 12.1525 38.4807 12.1316 38.4807 12.1246V12.0198C38.4807 11.8103 38.4807 11.5519 38.4668 11.2377C38.4598 10.9234 38.4458 10.6162 38.4388 10.3089C38.4109 10.2251 38.348 10.1273 38.2503 10.0086C38.1525 9.88986 38.0687 9.79908 37.9849 9.72924L37.9779 9.73623ZM38.3969 13.7308C38.2573 13.7308 38.1455 13.7657 38.0757 13.8356C37.9989 13.9054 37.964 13.9822 37.964 14.066C37.964 14.1917 38.0059 14.2895 38.0897 14.3663C38.1735 14.4431 38.2852 14.4781 38.4319 14.4781C38.5785 14.4781 38.6693 14.4571 38.7321 14.4082C38.809 14.3524 38.8509 14.2546 38.8509 14.1219C38.8509 14.0171 38.809 13.9264 38.7321 13.8495C38.6553 13.7727 38.5436 13.7378 38.4039 13.7378L38.3969 13.7308Z" fill="black"/>
<path d="M42.4824 10.7071C42.8735 10.7071 43.1598 10.8328 43.3554 11.0912C43.523 11.3077 43.6068 11.58 43.6068 11.9013C43.6068 12.1178 43.502 12.3203 43.2995 12.5019C43.097 12.6834 42.8735 12.7742 42.6221 12.7742C42.3427 12.7742 42.0774 12.6625 41.8329 12.446C41.5746 12.2155 41.4489 11.9502 41.4489 11.6638C41.4489 11.3915 41.5536 11.168 41.7701 10.9864C41.9866 10.8049 42.224 10.7071 42.4754 10.7071H42.4824ZM42.5104 11.1331C42.3358 11.1331 42.1821 11.189 42.0425 11.2937C41.9028 11.4054 41.8329 11.5311 41.8329 11.6918C41.8329 11.8594 41.9168 12.006 42.0844 12.1317C42.252 12.2574 42.4335 12.3203 42.6361 12.3203C42.7967 12.3203 42.9294 12.2574 43.0411 12.1317C43.1528 12.006 43.2087 11.8803 43.2087 11.7476C43.2087 11.573 43.1459 11.4334 43.0271 11.3147C42.9084 11.1959 42.7338 11.1401 42.5173 11.1401L42.5104 11.1331ZM44.2213 9.72939C44.1375 9.65257 44.0956 9.58972 44.0956 9.54083C44.0956 9.48496 44.1515 9.45703 44.2632 9.45703C44.4308 9.45703 44.6264 9.5129 44.8429 9.62463C45.0943 9.75034 45.22 9.89001 45.22 10.0436L45.199 10.2671V12.2714C45.2619 12.2714 45.3387 12.2574 45.4225 12.2365C45.618 12.1806 45.7437 12.1527 45.7996 12.1527C45.9113 12.1527 46.0231 12.1806 46.1208 12.2295C46.2186 12.2784 46.2745 12.3552 46.2745 12.46C46.2745 12.5158 46.2535 12.5647 46.2186 12.6066C46.1837 12.6485 46.1278 12.6695 46.065 12.6695C45.9812 12.6695 45.8485 12.6485 45.6529 12.6066C45.4574 12.5647 45.3108 12.5438 45.206 12.5438C45.206 12.7463 45.199 12.9069 45.192 13.0256C45.1781 13.3748 45.1501 13.6402 45.1152 13.8217C45.0803 13.9963 45.0314 14.1849 44.9755 14.3874C44.8917 14.6737 44.8289 14.8204 44.794 14.8204C44.78 14.8204 44.766 14.7994 44.7591 14.7506C44.7521 14.7017 44.7521 14.6388 44.7521 14.548V14.4223C44.7521 14.2338 44.7521 14.0452 44.7451 13.8497C44.7381 13.6541 44.7311 13.5075 44.7311 13.3888V10.2881C44.6962 10.2043 44.6124 10.0995 44.4937 9.97381C44.4099 9.89001 44.3261 9.80621 44.2283 9.72939H44.2213Z" fill="black"/>
<path d="M49.7033 13.4165L50.8905 13.3815V13.2558C50.8905 13.0952 50.8836 12.9695 50.8696 12.8648C50.8556 12.76 50.8277 12.6692 50.7788 12.5854C50.7229 12.4807 50.695 12.4038 50.695 12.355C50.695 12.3061 50.7229 12.2781 50.7718 12.2781C50.8486 12.2781 50.9674 12.32 51.121 12.4108C51.2746 12.4946 51.3514 12.5784 51.3514 12.6483C51.3514 12.6832 51.3445 12.7251 51.3235 12.7879C51.3026 12.8508 51.2886 12.8997 51.2886 12.9346L51.2607 13.3396C51.3165 13.3396 51.4562 13.3117 51.6867 13.2628C51.7914 13.2349 51.8752 13.2279 51.945 13.2279C52.0358 13.2279 52.1266 13.2628 52.2244 13.3257C52.3152 13.3885 52.3641 13.4653 52.3641 13.5491C52.3641 13.612 52.3361 13.6609 52.2872 13.7028C52.2384 13.7447 52.1755 13.7656 52.0987 13.7656C52.0009 13.7656 51.8333 13.7517 51.6098 13.7307C51.3794 13.7098 51.2327 13.6958 51.1559 13.6958C50.6461 13.6958 50.1782 13.7098 49.7452 13.7447C49.3123 13.7726 49.012 13.8215 48.8444 13.8913C48.8164 13.8983 48.7536 13.9262 48.6488 13.9681C48.593 13.9961 48.5441 14.0031 48.5091 14.0031C48.4253 14.0031 48.2647 13.9402 48.0343 13.8145C47.7968 13.6888 47.6781 13.598 47.6781 13.5352C47.6781 13.4933 47.734 13.4653 47.8457 13.4653H48.2717C48.5441 13.4653 48.7675 13.4653 48.9421 13.4653C49.1167 13.4653 49.2913 13.4514 49.4449 13.4374C49.4449 13.3257 49.403 13.2 49.3262 13.0533C49.2354 12.8927 49.1446 12.7321 49.0539 12.5714C49.0539 12.5226 49.0888 12.4946 49.1586 12.4946C49.2634 12.4946 49.3891 12.5295 49.5357 12.5994C49.6824 12.6692 49.7592 12.753 49.7592 12.8438C49.7592 12.8508 49.7592 12.8927 49.7382 12.9625C49.7173 13.0324 49.7173 13.0882 49.7173 13.1371V13.4165H49.7033ZM50.1992 10.0923C50.5902 10.0923 50.8905 10.2389 51.0931 10.5253C51.2467 10.7418 51.3235 10.9792 51.3235 11.2306C51.3235 11.4541 51.2257 11.6636 51.0232 11.8661C50.8207 12.0616 50.5972 12.1664 50.3458 12.1664C50.0525 12.1664 49.7802 12.0686 49.5148 11.8661C49.2285 11.6426 49.0888 11.3912 49.0888 11.1119C49.0888 10.8325 49.1796 10.6021 49.3681 10.4135C49.5706 10.204 49.85 10.0993 50.1992 10.0993V10.0923ZM50.1992 10.4554C50.0106 10.4554 49.85 10.5113 49.7103 10.6161C49.5427 10.7418 49.4589 10.9094 49.4589 11.1258C49.4589 11.3004 49.5427 11.4471 49.7103 11.5658C49.8779 11.6845 50.0665 11.7474 50.269 11.7474C50.4715 11.7474 50.6391 11.6845 50.7718 11.5518C50.9045 11.4192 50.9743 11.2865 50.9743 11.1468C50.9743 10.9792 50.8905 10.8186 50.7299 10.6719C50.5693 10.5253 50.3947 10.4484 50.2061 10.4484L50.1992 10.4554Z" fill="black"/>
</svg>
