<svg width="60" height="23" viewBox="0 0 60 23" fill="none" xmlns="http://www.w3.org/2000/svg">
<path d="M5.49048 1.19556H56.8964L54.7664 4.54766L57.9369 7.30616L55.3739 9.86912L58.2721 12.7743L55.1156 15.9308L57.8252 18.6405L54.9689 21.4967H7.07575" fill="#CCECF0"/>
<path d="M5.49048 1.19556H56.8964L54.7664 4.54766L57.9369 7.30616L55.3739 9.86912L58.2721 12.7743L55.1156 15.9308L57.8252 18.6405L54.9689 21.4967H7.07575" stroke="black" stroke-width="1.41" stroke-miterlimit="10"/>
<path d="M5.89551 1L2.06853 4.1426L4.78513 6.85221L1.62158 10.0088L4.52673 12.9139L1.96377 15.4769L5.1343 18.2354L2.99734 21.5875L7.07573 21.4967" fill="#CCECF0"/>
<path d="M5.89551 1L2.06853 4.1426L4.78513 6.85221L1.62158 10.0088L4.52673 12.9139L1.96377 15.4769L5.1343 18.2354L2.99734 21.5875L7.07573 21.4967" stroke="black" stroke-width="1.41" stroke-miterlimit="10"/>
<path d="M16.9715 9.88302C17.0693 9.82017 17.174 9.78525 17.2858 9.78525C17.5372 9.78525 17.7467 9.86905 17.9003 10.0297C18.0539 10.1903 18.1308 10.4068 18.1308 10.6652V10.728C18.1587 10.7629 18.1797 10.8118 18.2076 10.8747C18.2285 10.9305 18.2425 10.9794 18.2425 11.0144C18.2425 11.0702 18.2146 11.1121 18.1587 11.1331C18.1029 11.154 18.0539 11.175 18.012 11.1959C17.8165 11.3007 17.621 11.4054 17.4324 11.5102C17.1601 11.6499 16.9575 11.7127 16.8318 11.7127C16.8179 11.7127 16.8039 11.7127 16.7969 11.7127L16.783 11.6987C16.783 11.6987 16.8318 11.6429 16.8598 11.6359C17.0204 11.5591 17.209 11.4334 17.4115 11.2518C17.593 11.0912 17.7467 10.9375 17.8654 10.7839C17.7956 10.5534 17.5511 10.3858 17.1391 10.2881C16.9645 10.2462 16.8737 10.1693 16.8737 10.0646C16.8737 10.0087 16.9087 9.94587 16.9785 9.89699L16.9715 9.88302ZM18.2146 9.72938C18.3123 9.66653 18.4101 9.63161 18.5079 9.63161C18.7523 9.63161 18.9409 9.72938 19.0736 9.91794C19.1853 10.0786 19.2551 10.2951 19.2831 10.5674L19.4297 10.7699C19.4716 10.8468 19.4995 10.9306 19.4995 11.0144C19.4995 11.1191 19.4646 11.1889 19.4018 11.2239C19.3389 11.2588 19.2761 11.2937 19.2132 11.3286C18.8291 11.6359 18.5149 11.8594 18.2774 11.999C18.04 12.1387 17.8584 12.2085 17.7188 12.2085H17.6908C17.6908 12.2085 17.7187 12.1806 17.7257 12.1736C17.7467 12.1527 17.7676 12.1387 17.7886 12.1317C17.9492 12.0619 18.1797 11.8594 18.4869 11.5242C18.7523 11.2378 18.9409 11.0004 19.0666 10.8048C18.9758 10.4836 18.7872 10.2671 18.5009 10.1554C18.2146 10.0436 18.0679 9.96682 18.0679 9.91095C18.0679 9.8481 18.1168 9.78525 18.2216 9.72938H18.2146ZM20.2328 11.999C20.177 12.2714 20.1141 12.4949 20.0513 12.6764C19.9884 12.851 19.9255 12.9418 19.8627 12.9418C19.8278 12.9418 19.8068 12.844 19.8068 12.6415L19.7859 9.69447C19.7649 9.60368 19.6532 9.43607 19.4367 9.18466C19.3459 9.07991 19.297 9.00309 19.297 8.94722C19.297 8.89136 19.332 8.86342 19.4018 8.86342C19.5345 8.86342 19.716 8.92627 19.9535 9.05896C20.1839 9.19165 20.3027 9.31037 20.3027 9.42909C20.3027 9.45004 20.3027 9.48496 20.2817 9.54083C20.2608 9.5967 20.2608 9.63161 20.2608 9.65955V10.6722H20.7706V9.19863C20.7426 9.07293 20.6448 8.92628 20.4772 8.7447C20.3096 8.56313 20.2258 8.44441 20.2258 8.38854C20.2258 8.32569 20.2677 8.29077 20.3515 8.29077C20.4982 8.29077 20.7007 8.36759 20.9521 8.52123C21.2105 8.67487 21.3362 8.81454 21.3362 8.94722C21.3362 8.97516 21.3292 9.03103 21.3083 9.09388C21.2873 9.15673 21.2804 9.21958 21.2804 9.26847V11.6149C21.2804 12.1317 21.2664 12.5298 21.2454 12.8161C21.2035 13.3259 21.1267 13.71 21.008 13.9684C20.9312 14.15 20.8753 14.2408 20.8474 14.2408C20.8194 14.2408 20.7985 14.1779 20.7985 14.0522L20.7706 11.1121H20.2608V11.4753C20.2608 11.573 20.2608 11.6708 20.2608 11.7686C20.2608 11.8663 20.2468 11.9502 20.2328 12.013V11.999Z" fill="black"/>
<path d="M27.6842 11.3076C27.2722 11.3076 26.7903 11.3286 26.2386 11.3774C25.6869 11.4263 25.3308 11.4822 25.1632 11.5451C25.1143 11.566 25.0584 11.587 24.9956 11.6149C24.9327 11.6428 24.8838 11.6568 24.8489 11.6568C24.7302 11.6568 24.5416 11.5939 24.2902 11.4613C24.0388 11.3286 23.9061 11.2168 23.9061 11.1191C23.9061 11.0772 23.948 11.0562 24.0318 11.0562C24.1436 11.0562 24.3321 11.0562 24.5905 11.0702C24.8489 11.0772 24.9886 11.0841 25.0095 11.0841H25.6939C25.8406 10.9026 25.9593 10.6651 26.0571 10.3788C26.1548 10.0925 26.2037 9.85503 26.2037 9.67346C26.2037 9.60363 26.1688 9.51284 26.092 9.40809C26.0152 9.30333 25.9453 9.25445 25.8825 9.25445C25.8336 9.25445 25.7568 9.28937 25.645 9.36619C25.5403 9.44301 25.4495 9.47792 25.3866 9.47792C25.3168 9.47792 25.2051 9.443 25.0654 9.37317C24.9257 9.30333 24.8559 9.24048 24.8559 9.17763C24.8559 9.14271 24.8699 9.10779 24.9048 9.08684C24.9397 9.05891 25.0025 9.03796 25.1003 9.01002C25.3517 8.90527 25.5473 8.82845 25.6869 8.77258C25.8266 8.71672 25.9244 8.68878 25.9942 8.68878C26.1339 8.68878 26.2875 8.78655 26.4551 8.98907C26.6297 9.1916 26.7135 9.3592 26.7135 9.49887C26.7135 9.7014 26.6018 9.97376 26.3713 10.3229C26.2735 10.4696 26.092 10.714 25.8266 11.0492C26.2247 11.0492 26.5808 11.0353 26.9091 11.0143C27.0208 11.0143 27.1605 10.9933 27.3211 10.9724C27.4608 10.8327 27.6004 10.5953 27.7401 10.2601C27.8798 9.92487 27.9496 9.68045 27.9496 9.52681C27.9496 9.47094 27.9077 9.40809 27.8309 9.32428C27.7541 9.24747 27.6842 9.20557 27.6353 9.20557C27.6004 9.20557 27.5306 9.24048 27.4258 9.30334C27.37 9.33825 27.3211 9.35222 27.2792 9.35222C27.1814 9.35222 27.0697 9.30333 26.944 9.21255C26.8672 9.15668 26.8252 9.10779 26.8252 9.05891C26.8252 8.99606 26.8951 8.94717 27.0348 8.91226C27.0906 8.8913 27.2093 8.83544 27.3979 8.74465C27.5865 8.65387 27.7261 8.60498 27.8239 8.60498C27.9356 8.60498 28.0823 8.70973 28.2499 8.91924C28.4245 9.12875 28.5083 9.29635 28.5083 9.42205C28.5083 9.56172 28.3616 9.8271 28.0683 10.2252C27.8379 10.5394 27.6353 10.7838 27.4608 10.9584C27.6214 10.9584 27.761 10.9515 27.8798 10.9305C27.9985 10.9095 28.1451 10.8676 28.3127 10.8118C28.4035 10.7769 28.4804 10.7629 28.5432 10.7629C28.641 10.7629 28.7387 10.7978 28.8435 10.8677C28.9483 10.9375 29.0041 11.0143 29.0041 11.0981C29.0041 11.1679 28.9762 11.2238 28.9133 11.2727C28.8575 11.3216 28.7806 11.3495 28.6899 11.3495C28.5292 11.3495 28.3197 11.3495 28.0613 11.3286C27.803 11.3076 27.6773 11.3076 27.6703 11.3076H27.6842ZM26.8322 11.8733C26.93 11.9291 27.0348 12.013 27.1465 12.1177C27.2862 12.2574 27.356 12.3621 27.356 12.4529C27.356 12.5018 27.3351 12.5507 27.2932 12.5856C27.2513 12.6275 27.2094 12.6624 27.1675 12.7043L27.1046 12.7811C27.1884 12.844 27.377 12.9487 27.6842 13.0884C28.1242 13.2909 28.3477 13.5563 28.3477 13.8706C28.3477 14.0312 28.2918 14.115 28.1801 14.115C28.0823 14.115 27.8379 13.8845 27.4608 13.4236C27.2582 13.1792 27.0976 13.0186 26.9929 12.9557C26.6646 13.284 26.3364 13.5563 26.0082 13.7658C25.5612 14.0591 25.1702 14.2058 24.828 14.2058C24.814 14.2058 24.8 14.2058 24.7931 14.2058C24.7931 14.2058 24.7931 14.1918 24.7931 14.1848C24.7931 14.1779 24.814 14.1709 24.821 14.1639C24.8559 14.1429 24.8838 14.122 24.9188 14.115C25.24 14.0242 25.5892 13.7868 25.9663 13.4097C26.2875 13.0814 26.5319 12.7672 26.6856 12.4529C26.6856 12.397 26.6507 12.2783 26.5808 12.1037C26.5459 12.0199 26.5319 11.9571 26.5319 11.9012C26.5319 11.8314 26.5599 11.7965 26.6297 11.7965C26.6716 11.7965 26.7345 11.8244 26.8252 11.8733H26.8322Z" fill="black"/>
<path d="M31.4972 10.791C31.4273 10.7491 31.3366 10.6932 31.2388 10.6304C31.0991 10.5326 31.0293 10.4628 31.0293 10.4348C31.0293 10.3929 31.0921 10.372 31.2109 10.372H31.7346C31.8813 10.372 32.021 10.372 32.1536 10.365C32.2793 10.365 32.412 10.3301 32.5447 10.2812C32.5866 10.2672 32.6425 10.2463 32.7053 10.2113C32.7752 10.1764 32.8241 10.1625 32.859 10.1625C32.9288 10.1625 33.0056 10.1904 33.0894 10.2532C33.1732 10.3161 33.2152 10.3789 33.2152 10.4558C33.2152 10.5116 33.1942 10.5605 33.1523 10.5954C33.1104 10.6373 33.0545 10.6513 32.9847 10.6513C32.6774 10.6513 32.4609 10.6583 32.3143 10.6723C32.1746 10.6862 32.0489 10.7211 31.9302 10.77C31.8603 10.8049 31.8114 10.8329 31.7835 10.8468C31.7556 10.8608 31.7276 10.8678 31.6997 10.8678C31.6578 10.8678 31.588 10.8399 31.4972 10.791V10.791ZM31.7207 9.34538C31.8394 9.3803 31.9721 9.40125 32.1117 9.41522C32.2514 9.42919 32.412 9.43617 32.5866 9.43617C32.6634 9.43617 32.7193 9.45014 32.7542 9.47109C32.7892 9.49204 32.8031 9.52696 32.8031 9.56886C32.8031 9.68758 32.7403 9.78535 32.6076 9.85518C32.4749 9.92502 32.3492 9.96692 32.2235 9.96692H32.1816C32.0978 9.96692 32.0279 9.95994 31.979 9.94597C31.9302 9.932 31.8673 9.88312 31.7905 9.81328C31.7137 9.74345 31.6438 9.67361 31.595 9.61076C31.5112 9.51299 31.4693 9.43617 31.4693 9.3803C31.4693 9.34539 31.4972 9.32443 31.5461 9.32443C31.595 9.32443 31.6578 9.3384 31.7207 9.35935V9.34538ZM32.3213 10.9725C32.5866 10.9725 32.8101 11.0424 32.9917 11.1751C33.1732 11.3147 33.264 11.5033 33.264 11.7547C33.264 12.0061 33.1942 12.2156 33.0475 12.3762C32.9009 12.5369 32.7193 12.6137 32.4958 12.6137C32.2165 12.6137 31.9721 12.5299 31.7765 12.3693C31.574 12.2086 31.4762 11.9991 31.4762 11.7407C31.4762 11.5173 31.56 11.3357 31.7277 11.189C31.8953 11.0424 32.0978 10.9725 32.3282 10.9725H32.3213ZM32.3701 11.3776C32.2305 11.3776 32.1117 11.4195 32.0209 11.4963C31.9302 11.5731 31.8813 11.6779 31.8813 11.8036C31.8813 11.9293 31.9441 12.041 32.0768 12.1109C32.1886 12.1667 32.3073 12.2017 32.4539 12.2017C32.5727 12.2017 32.6774 12.1598 32.7612 12.0829C32.852 12.0061 32.8939 11.9083 32.8939 11.7896C32.8939 11.6639 32.838 11.5592 32.7403 11.4893C32.6355 11.4125 32.5098 11.3776 32.3701 11.3776V11.3776ZM34.13 11.9642C34.116 12.0969 34.0741 12.2924 33.9973 12.5508C33.9065 12.8651 33.8227 13.0187 33.7529 13.0187C33.7249 13.0187 33.711 12.9629 33.711 12.8651L33.6761 9.63869C33.6761 9.54092 33.5923 9.40824 33.4316 9.21968C33.271 9.03811 33.1872 8.92637 33.1872 8.89145C33.1872 8.83559 33.2431 8.80765 33.3548 8.80765C33.4805 8.80765 33.6481 8.8705 33.8576 8.98922C34.0741 9.11493 34.1789 9.23365 34.1789 9.34538C34.1789 9.36633 34.1789 9.40125 34.1649 9.45712C34.1579 9.51299 34.1509 9.54791 34.1509 9.57584V10.791H34.7096V9.12191C34.6747 8.98922 34.535 8.81463 34.2836 8.59814C34.1719 8.50037 34.116 8.43752 34.116 8.39562C34.116 8.33277 34.1789 8.29785 34.3116 8.29785C34.4722 8.29785 34.6607 8.34674 34.8772 8.44451C35.1286 8.56323 35.2613 8.68893 35.2613 8.8286C35.2613 8.8705 35.2613 8.92637 35.2543 9.00319C35.2543 9.08001 35.2474 9.1289 35.2474 9.14286V11.8315C35.2474 12.3204 35.2334 12.6765 35.2124 12.9C35.1705 13.3051 35.0867 13.6542 34.954 13.9336C34.8702 14.1221 34.8144 14.2199 34.7864 14.2199C34.7655 14.2199 34.7515 14.164 34.7515 14.0593L34.7236 11.2659H34.1649C34.1649 11.3706 34.1649 11.4754 34.1649 11.5871C34.1649 11.6988 34.1579 11.8245 34.144 11.9642H34.13Z" fill="black"/>
<path d="M40.0521 12.7045L41.372 12.6626V12.5159C41.372 12.3413 41.365 12.1947 41.3511 12.0829C41.3371 11.9712 41.3022 11.8664 41.2533 11.7756C41.1904 11.6569 41.1555 11.5731 41.1555 11.5173C41.1555 11.4614 41.1835 11.4334 41.2393 11.4334C41.3231 11.4334 41.4558 11.4823 41.6304 11.5801C41.805 11.6779 41.8888 11.7617 41.8888 11.8455C41.8888 11.8804 41.8748 11.9363 41.8539 11.9991C41.8329 12.0689 41.819 12.1248 41.812 12.1597L41.7771 12.6067C41.8399 12.6067 42.0005 12.5788 42.245 12.5159C42.3567 12.488 42.4545 12.474 42.5313 12.474C42.6291 12.474 42.7338 12.5089 42.8386 12.5857C42.9433 12.6556 42.9922 12.7394 42.9922 12.8371C42.9922 12.907 42.9643 12.9628 42.9084 13.0117C42.8525 13.0606 42.7827 13.0816 42.6989 13.0816C42.5872 13.0816 42.4056 13.0676 42.1542 13.0466C41.9028 13.0187 41.7352 13.0117 41.6514 13.0117C41.0857 13.0117 40.5619 13.0257 40.0801 13.0606C39.5982 13.0955 39.263 13.1444 39.0814 13.2212C39.0465 13.2282 38.9767 13.2631 38.8649 13.312C38.8021 13.34 38.7462 13.3539 38.7113 13.3539C38.6205 13.3539 38.4459 13.2841 38.1805 13.1444C37.9152 13.0047 37.7825 12.9 37.7825 12.8371C37.7825 12.7883 37.8453 12.7603 37.964 12.7603H38.432C38.7322 12.7603 38.9836 12.7603 39.1792 12.7603C39.3747 12.7603 39.5633 12.7464 39.7379 12.7324C39.7379 12.6067 39.696 12.467 39.6052 12.3064C39.5074 12.1318 39.4027 11.9502 39.3049 11.7687C39.3049 11.7128 39.3468 11.6849 39.4236 11.6849C39.5423 11.6849 39.682 11.7268 39.8496 11.8036C40.0102 11.8804 40.094 11.9712 40.094 12.0759C40.094 12.0829 40.087 12.1318 40.0731 12.2086C40.0591 12.2854 40.0521 12.3483 40.0521 12.3972V12.7045V12.7045ZM40.6038 9.01016C41.0368 9.01016 41.372 9.17078 41.5955 9.48504C41.7701 9.72248 41.8539 9.98785 41.8539 10.2672C41.8539 10.5186 41.7421 10.7491 41.5187 10.9725C41.2952 11.196 41.0438 11.3008 40.7645 11.3008C40.4432 11.3008 40.1359 11.189 39.8426 10.9656C39.5214 10.7211 39.3677 10.4418 39.3677 10.1275C39.3677 9.81326 39.4725 9.56186 39.682 9.35235C39.9125 9.12189 40.2128 9.00317 40.6038 9.00317V9.01016ZM40.6038 9.4152C40.3943 9.4152 40.2128 9.47107 40.0591 9.58979C39.8706 9.72946 39.7798 9.91802 39.7798 10.1555C39.7798 10.344 39.8706 10.5116 40.0591 10.6443C40.2477 10.777 40.4502 10.8468 40.6807 10.8468C40.9111 10.8468 41.0857 10.777 41.2393 10.6303C41.386 10.4837 41.4628 10.337 41.4628 10.1764C41.4628 9.98785 41.372 9.81327 41.1904 9.65264C41.0089 9.49202 40.8133 9.40822 40.6108 9.40822L40.6038 9.4152Z" fill="black"/>
</svg>
