<svg width="59" height="23" viewBox="0 0 59 23" fill="none" xmlns="http://www.w3.org/2000/svg">
<path d="M4.86194 1.19556H56.2748L54.1448 4.54766L57.3084 7.30616L54.7454 9.86912L57.6506 12.7743L54.494 15.9308L57.2036 18.6474L54.3474 21.5037H6.4472" fill="#CCECF0"/>
<path d="M4.86194 1.19556H56.2748L54.1448 4.54766L57.3084 7.30616L54.7454 9.86912L57.6506 12.7743L54.494 15.9308L57.2036 18.6474L54.3474 21.5037H6.4472" stroke="black" stroke-width="1.41" stroke-miterlimit="10"/>
<path d="M5.27393 1L1.44695 4.1426L4.15656 6.85919L1 10.0158L3.89817 12.9209L1.33521 15.4839L4.50574 18.2424L2.37576 21.5875L6.44717 21.5037" fill="#CCECF0"/>
<path d="M5.27393 1L1.44695 4.1426L4.15656 6.85919L1 10.0158L3.89817 12.9209L1.33521 15.4839L4.50574 18.2424L2.37576 21.5875L6.44717 21.5037" stroke="black" stroke-width="1.41" stroke-miterlimit="10"/>
<path d="M16.1963 10.9026C15.477 10.9725 14.9044 11.0493 14.4784 11.1261C14.0524 11.2029 13.7242 11.2937 13.4867 11.3985C13.4308 11.4194 13.3889 11.4334 13.347 11.4334C13.2772 11.4334 13.2144 11.4054 13.1725 11.3426C13.1236 11.2867 13.1026 11.1959 13.1026 11.0842C13.1026 11.0493 13.1166 10.9794 13.1375 10.8607C13.1445 10.8188 13.1515 10.7699 13.1515 10.735C13.1515 10.4696 13.0956 10.2392 12.9909 10.0367C12.8652 9.8481 12.7395 9.65256 12.6138 9.46401C12.6138 9.39417 12.6696 9.35227 12.7674 9.35227C12.9001 9.35227 13.0607 9.41512 13.2632 9.53384C13.4588 9.65256 13.5565 9.77128 13.5565 9.88302C13.5565 9.89699 13.5496 9.93889 13.5356 10.0157C13.5216 10.0855 13.5146 10.1484 13.5146 10.1903V10.5604C13.5146 10.6442 13.5146 10.7001 13.5356 10.721C13.5496 10.749 13.5775 10.7629 13.6264 10.7629L13.8708 10.735C14.206 10.7071 14.5901 10.6722 15.0091 10.6163C15.4351 10.5674 15.8262 10.5185 16.1893 10.4696V9.10785C16.1684 9.06595 16.0357 8.90533 15.7843 8.62598C15.6795 8.50726 15.6307 8.43044 15.6307 8.38854C15.6307 8.32569 15.6865 8.29077 15.7913 8.29077C15.9449 8.29077 16.1405 8.35362 16.3779 8.48631C16.6153 8.619 16.7341 8.75169 16.7341 8.88438C16.7341 8.90533 16.7341 8.94722 16.7201 9.01008C16.7131 9.07293 16.7061 9.10785 16.7061 9.12182V10.8049C16.7899 10.8049 16.8737 10.7909 16.9715 10.756C17.195 10.6861 17.3346 10.6442 17.3905 10.6442C17.5023 10.6442 17.6 10.6652 17.6908 10.7141C17.7816 10.756 17.8305 10.8328 17.8305 10.9306C17.8305 11.0004 17.8025 11.0563 17.7606 11.1051C17.7118 11.154 17.6419 11.175 17.5511 11.175C17.4883 11.175 17.4115 11.161 17.3207 11.1401C17.0763 11.0842 16.8598 11.0493 16.6642 11.0493C16.6363 11.147 16.5804 11.2937 16.4896 11.4892C16.3849 11.7267 16.3081 11.8524 16.2592 11.8524C16.2312 11.8524 16.2173 11.7895 16.2173 11.6708V11.573C16.2173 11.3985 16.2173 11.2588 16.2033 11.161C16.1893 11.0632 16.1824 10.9655 16.1754 10.8956L16.1963 10.9026ZM16.0287 12.1806C16.0287 12.1806 16.0916 12.1597 16.1405 12.1457C16.1893 12.1317 16.2243 12.1247 16.2452 12.1247C16.315 12.1247 16.4058 12.1806 16.5176 12.2854C16.6293 12.3901 16.6782 12.4809 16.6782 12.5507C16.6782 12.5787 16.6712 12.6066 16.6503 12.6485C16.5944 12.7533 16.5665 12.8161 16.5595 12.8371C16.5246 13.0047 16.4966 13.1304 16.4827 13.2072C16.4687 13.284 16.4338 13.4097 16.3849 13.5773C16.4547 13.6262 16.4966 13.6611 16.5106 13.6751C16.5525 13.724 16.5804 13.7659 16.5804 13.8217C16.5804 13.8776 16.5525 13.9265 16.4966 13.9684C16.4408 14.0103 16.3779 14.0312 16.315 14.0312H14.9323C14.9044 14.0941 14.8764 14.143 14.8415 14.1779C14.8066 14.2128 14.7787 14.2338 14.7368 14.2338C14.6669 14.2338 14.6041 14.115 14.5482 13.8776C14.4784 13.5633 14.4016 13.2561 14.3317 12.9418C14.199 12.7812 14.1013 12.6625 14.0314 12.5717C13.9616 12.4879 13.9267 12.425 13.9267 12.3901C13.9267 12.3273 13.9756 12.2923 14.0733 12.2923C14.1851 12.2923 14.3457 12.3482 14.5552 12.453C14.7647 12.5577 14.8695 12.6555 14.8695 12.7463L14.8555 12.865L14.9253 13.71C15.0859 13.71 15.2815 13.696 15.505 13.6751C15.7284 13.6541 15.924 13.6262 16.0776 13.5913V12.5857H15.9659C15.8611 12.5857 15.7214 12.6136 15.5469 12.6695C15.4631 12.6974 15.4002 12.7114 15.3583 12.7114C15.2955 12.7114 15.1837 12.6695 15.0231 12.5857C14.8625 12.5019 14.7787 12.439 14.7787 12.3901C14.7787 12.3412 14.8276 12.3203 14.9253 12.3203H15.2536C15.4142 12.3203 15.5538 12.3133 15.6586 12.2993C15.7633 12.2854 15.8821 12.2504 16.0078 12.1946L16.0287 12.1806Z" fill="black"/>
<path d="M19.7787 10.0925C19.7089 9.99476 19.674 9.90397 19.674 9.83413C19.674 9.75732 19.7228 9.71542 19.8136 9.71542C19.9533 9.71542 20.1279 9.79224 20.3444 9.94587C20.5539 10.0995 20.6586 10.2392 20.6586 10.3649C20.6586 10.3998 20.6377 10.4836 20.5958 10.6093C20.5748 10.6791 20.5609 10.742 20.5609 10.7839V11.5661C20.5609 11.6499 20.5888 11.7057 20.6516 11.7337C20.7145 11.7616 20.7983 11.7686 20.91 11.7686C21.0846 11.7686 21.2802 11.7127 21.5036 11.594C21.7271 11.4753 21.8668 11.4194 21.9227 11.4194C21.9576 11.4194 21.9855 11.4334 22.0065 11.4543C22.0274 11.4753 22.0344 11.5102 22.0344 11.5521C22.0344 11.7825 21.9017 11.999 21.6293 12.1946C21.3779 12.3761 21.1405 12.4669 20.9031 12.4669C20.7704 12.4669 20.6377 12.3971 20.498 12.2504C20.3374 12.0898 20.2606 11.9152 20.2606 11.7267V11.608C20.2257 11.4054 20.1907 11.2029 20.1558 11.0004C20.079 10.6722 19.9533 10.3719 19.7717 10.0855L19.7787 10.0925ZM22.7886 8.60503C22.7048 8.52822 22.6629 8.45838 22.6629 8.4095C22.6629 8.33268 22.7467 8.29077 22.9213 8.29077C23.068 8.29077 23.2705 8.36061 23.5289 8.50727C23.7873 8.64694 23.913 8.79359 23.913 8.93326C23.913 8.98215 23.913 9.01706 23.913 9.045C23.892 9.16372 23.885 9.23355 23.885 9.26148V11.4404C23.885 12.1317 23.8431 12.7114 23.7523 13.1723C23.6965 13.4656 23.6197 13.7379 23.5149 13.9893C23.4451 14.1639 23.3962 14.2477 23.3613 14.2477C23.3403 14.2477 23.3333 14.2268 23.3263 14.1849C23.3263 14.143 23.3263 14.0801 23.3263 14.0103V11.6987C23.2356 11.7057 23.0819 11.7546 22.8584 11.8454C22.7467 11.8873 22.6839 11.9082 22.6699 11.9082C22.607 11.9082 22.5023 11.8384 22.3696 11.7057C22.2299 11.573 22.1601 11.4753 22.1601 11.4194C22.1601 11.3705 22.202 11.3426 22.2928 11.3426L22.6489 11.3635C22.7607 11.3635 22.8654 11.3565 22.9632 11.3356C23.061 11.3146 23.1797 11.2867 23.3263 11.2378V10.1973C23.1587 10.1973 23.0191 10.2182 22.9143 10.2671C22.8026 10.323 22.6839 10.3858 22.5721 10.4347C22.5093 10.4347 22.3905 10.3789 22.216 10.2671C22.0414 10.1554 21.9576 10.0786 21.9576 10.0227C21.9576 9.95286 22.0274 9.91794 22.1741 9.91794H22.3067C22.4744 9.91794 22.642 9.90397 22.8026 9.87604C22.9632 9.84811 23.1378 9.79922 23.3263 9.72939V9.22657C23.2775 9.11483 23.1937 8.99611 23.0819 8.87041C23.0121 8.7866 22.9143 8.7028 22.7956 8.60503H22.7886Z" fill="black"/>
<path d="M26.6506 11.4124C26.5389 11.3286 26.49 11.2657 26.49 11.2169C26.49 11.161 26.5459 11.1331 26.6506 11.1331C26.7763 11.1331 26.9439 11.1331 27.1604 11.154C27.3699 11.168 27.4956 11.175 27.5375 11.175C27.8029 11.175 28.0473 11.175 28.2708 11.168C28.4943 11.161 28.6968 11.154 28.8784 11.14C28.8784 10.9236 28.8155 10.728 28.6968 10.5395C28.5571 10.3649 28.4244 10.1903 28.2917 10.0157C28.2917 9.95284 28.3336 9.92491 28.4244 9.92491C28.5641 9.92491 28.7457 9.98077 28.9622 10.0995C29.1787 10.2182 29.2904 10.3369 29.2904 10.4557C29.2904 10.4906 29.2904 10.5325 29.2764 10.6023C29.2625 10.6652 29.2625 10.7071 29.2625 10.735V11.147H29.458C29.6605 11.147 29.877 11.14 30.1005 11.1261C30.324 11.1121 30.5195 11.0772 30.6941 11.0213C30.8687 10.9655 31.0014 10.9375 31.0991 10.9375C31.2109 10.9375 31.3296 10.9724 31.4553 11.0493C31.581 11.1191 31.6369 11.2099 31.6369 11.3146C31.6369 11.4613 31.5391 11.5381 31.3366 11.5381C31.1969 11.5381 31.0572 11.5381 30.9036 11.5241C30.5195 11.5032 30.2821 11.4892 30.1913 11.4892C29.6885 11.4892 29.2066 11.5032 28.7387 11.5381C28.2708 11.573 27.9496 11.6079 27.7889 11.6638C27.754 11.6778 27.6981 11.6987 27.6283 11.7336C27.5585 11.7686 27.4956 11.7825 27.4398 11.7825C27.356 11.7825 27.2302 11.7406 27.0487 11.6498C26.8671 11.566 26.7414 11.4892 26.6646 11.4333L26.6506 11.4124ZM27.8727 8.68184H28.592C28.9133 8.68184 29.1787 8.68183 29.4091 8.66088C29.6326 8.64691 29.7932 8.62596 29.891 8.59105C29.9887 8.55613 30.0795 8.51423 30.1773 8.46534C30.2751 8.41646 30.3379 8.39551 30.3728 8.39551C30.4357 8.39551 30.5335 8.46535 30.6662 8.60502C30.7988 8.74469 30.8687 8.84246 30.8687 8.90531C30.8687 8.94721 30.8477 8.99609 30.8058 9.05196C30.7639 9.10783 30.743 9.14973 30.743 9.17767C30.743 9.35924 30.7011 9.61763 30.6173 9.95284C30.5125 10.3719 30.3938 10.5814 30.2611 10.5814C30.2192 10.5814 30.1983 10.5255 30.1983 10.4207V8.95419H29.9259C29.7094 8.95419 29.5418 8.95419 29.4231 8.96117C29.3044 8.96816 29.1996 8.97514 29.1088 8.98911C29.018 9.00308 28.9063 9.04498 28.7736 9.1218C28.6409 9.19163 28.5501 9.23354 28.4943 9.23354C28.4105 9.23354 28.2498 9.17068 28.0194 9.04498C27.7889 8.91927 27.6702 8.82151 27.6702 8.75167C27.6702 8.70279 27.7261 8.67485 27.8378 8.67485H27.8727V8.68184ZM29.4789 12.1457C29.8072 12.1457 30.0725 12.2434 30.2751 12.432C30.4776 12.6206 30.5823 12.872 30.5823 13.1792C30.5823 13.4656 30.4916 13.703 30.31 13.8985C30.1284 14.0941 29.884 14.1919 29.5697 14.1919C29.2136 14.1919 28.9133 14.0871 28.6828 13.8706C28.4524 13.6541 28.3336 13.4167 28.3336 13.1513C28.3336 12.8231 28.4593 12.5717 28.7038 12.3901C28.9203 12.2295 29.1717 12.1527 29.472 12.1527L29.4789 12.1457ZM29.4929 12.5298C29.2764 12.5298 29.1158 12.5856 28.9901 12.6974C28.8714 12.8091 28.8085 12.9558 28.8085 13.1304C28.8085 13.277 28.8644 13.4027 28.9761 13.5144C29.1088 13.6402 29.2834 13.703 29.5069 13.703C29.6815 13.703 29.8351 13.6611 29.9608 13.5773C30.1075 13.4795 30.1843 13.3468 30.1843 13.1723C30.1843 12.9977 30.1145 12.851 29.9748 12.7183C29.8351 12.5856 29.6745 12.5228 29.4789 12.5228L29.4929 12.5298Z" fill="black"/>
<path d="M35.7152 11.2378L37.0281 11.2029C37.0281 11.0632 37.0002 10.8956 36.9303 10.7001C36.8675 10.5046 36.8326 10.3789 36.8326 10.323C36.8326 10.2671 36.8605 10.2392 36.9164 10.2392C37.0141 10.2392 37.1259 10.2741 37.2586 10.3509C37.3912 10.4277 37.4611 10.5046 37.4611 10.5884C37.4611 10.6303 37.4541 10.6931 37.4331 10.7769C37.4122 10.8607 37.4052 10.9166 37.4052 10.9515V11.154C37.482 11.154 37.6357 11.1331 37.8731 11.0842C37.9918 11.0632 38.0826 11.0493 38.1525 11.0493C38.2502 11.0493 38.355 11.0842 38.4597 11.147C38.5645 11.2099 38.6203 11.2937 38.6203 11.3845C38.6203 11.4543 38.5924 11.5172 38.5365 11.5661C38.4807 11.6149 38.4108 11.6359 38.3201 11.6359C38.2153 11.6359 38.0547 11.6149 37.8312 11.58C37.6077 11.5451 37.4401 11.5242 37.3284 11.5242C36.9303 11.5242 36.4205 11.5381 35.799 11.573C35.1844 11.601 34.7794 11.6499 34.5908 11.7057C34.521 11.7267 34.4582 11.7476 34.4023 11.7756C34.3464 11.8035 34.2975 11.8105 34.2696 11.8105C34.1788 11.8105 34.0112 11.7406 33.7598 11.608C33.5084 11.4753 33.3827 11.3775 33.3827 11.3077C33.3827 11.2588 33.4455 11.2378 33.5782 11.2378H35.3381C35.3381 11.1261 35.3102 11.0074 35.2473 10.8677C35.1914 10.735 35.1286 10.5953 35.0727 10.4557C35.0727 10.3928 35.1146 10.3579 35.1914 10.3579C35.2892 10.3579 35.4219 10.3998 35.5755 10.4766C35.7292 10.5534 35.806 10.6372 35.806 10.728C35.806 10.749 35.785 10.8398 35.7431 11.0004C35.7222 11.0912 35.7082 11.168 35.7082 11.2378H35.7152ZM36.2669 8.29077C36.6859 8.29077 36.9932 8.42346 37.2027 8.68883C37.3563 8.89136 37.4331 9.12182 37.4331 9.38021C37.4331 9.6386 37.3284 9.86207 37.1259 10.0576C36.9233 10.2531 36.6719 10.3509 36.3716 10.3509C36.0295 10.3509 35.7361 10.2392 35.4917 10.0157C35.2403 9.79223 35.1216 9.5548 35.1216 9.30339C35.1216 9.0031 35.2333 8.75867 35.4638 8.5771C35.6942 8.39553 35.9596 8.29776 36.2739 8.29776L36.2669 8.29077ZM36.3786 12.1806C36.6999 12.1806 36.9652 12.2993 37.1748 12.5298C37.3703 12.7463 37.4681 13.0047 37.4681 13.291C37.4681 13.5284 37.3912 13.7449 37.2306 13.9335C37.0421 14.15 36.7907 14.2617 36.4624 14.2617C36.1133 14.2617 35.8199 14.143 35.5825 13.9055C35.366 13.6891 35.2543 13.4376 35.2543 13.1653C35.2543 12.844 35.387 12.5996 35.6454 12.418C35.8619 12.2644 36.1063 12.1876 36.3786 12.1876V12.1806ZM36.3228 8.68883C36.1202 8.68883 35.9387 8.73074 35.792 8.82152C35.5965 8.93326 35.4987 9.10086 35.4987 9.31037C35.4987 9.44306 35.5895 9.58273 35.7641 9.71542C35.9387 9.8481 36.1342 9.91095 36.3437 9.91095C36.5532 9.91095 36.7278 9.85509 36.8535 9.73637C36.9722 9.61765 37.0351 9.49194 37.0351 9.34529C37.0351 9.14975 36.9722 8.99611 36.8465 8.87041C36.7208 8.75169 36.5462 8.68883 36.3228 8.68883V8.68883ZM36.3926 12.5857C36.1552 12.5857 35.9736 12.6345 35.8479 12.7393C35.7222 12.844 35.6593 12.9697 35.6593 13.1164C35.6593 13.2561 35.7292 13.4027 35.8758 13.5564C36.0364 13.7379 36.218 13.8287 36.4205 13.8287C36.5742 13.8287 36.7138 13.7868 36.8395 13.696C37.0002 13.5843 37.084 13.4237 37.084 13.2281C37.084 13.0605 37.0141 12.9069 36.8814 12.7812C36.7418 12.6485 36.5812 12.5857 36.3996 12.5857H36.3926Z" fill="black"/>
<path d="M46.903 13.305C46.903 13.3399 46.882 13.3608 46.8401 13.3608H45.4015C45.3596 13.3608 45.3317 13.3469 45.3317 13.3189V13.2002C45.3317 13.1583 45.3666 13.1374 45.4364 13.1374C45.5342 13.1374 45.618 13.1374 45.6739 13.1234C45.7297 13.1094 45.7577 13.0815 45.7577 13.0256C45.7577 12.9418 45.6529 12.7393 45.4364 12.4111L44.9126 11.58L44.2702 12.467C44.1445 12.6485 44.0537 12.7742 44.0118 12.851C43.9699 12.9279 43.9419 12.9907 43.9419 13.0396C43.9419 13.1094 44.0397 13.1513 44.2352 13.1513C44.333 13.1513 44.3819 13.1723 44.3819 13.2072V13.3259C44.3819 13.3259 44.34 13.3678 44.333 13.3678H43.1318L43.0969 13.3259V13.2072C43.0969 13.2072 43.1179 13.1583 43.1668 13.1583C43.2575 13.1583 43.3483 13.1234 43.4321 13.0466C43.5159 12.9698 43.6347 12.8371 43.7743 12.6346L44.745 11.3356L43.8791 10.0227C43.7673 9.87606 43.6975 9.77829 43.6626 9.73639C43.5648 9.62465 43.4531 9.56878 43.3344 9.56878C43.2785 9.56878 43.2506 9.54784 43.2506 9.50593V9.40118C43.2506 9.40118 43.2715 9.35229 43.3204 9.35229H44.8358C44.8358 9.35229 44.8777 9.36626 44.8777 9.39419V9.50593C44.8777 9.54784 44.8498 9.56878 44.7869 9.56878C44.6473 9.56878 44.5495 9.56878 44.4936 9.58973C44.4378 9.6037 44.4098 9.63862 44.4098 9.70147C44.4098 9.75036 44.4378 9.82717 44.5076 9.93891C44.5495 10.0087 44.5844 10.0786 44.6263 10.1344L45.1361 10.9445L45.6739 10.2043C45.8554 9.9459 45.9532 9.77131 45.9532 9.68052C45.9532 9.61069 45.8694 9.57577 45.6948 9.57577C45.6389 9.57577 45.611 9.57577 45.597 9.57577C45.5761 9.56878 45.5691 9.54784 45.5691 9.50593V9.40816C45.5691 9.40816 45.5901 9.36626 45.625 9.36626H46.7493C46.7493 9.36626 46.7773 9.36626 46.7842 9.38023C46.7842 9.38721 46.7912 9.3942 46.7982 9.40118V9.54085C46.7982 9.54085 46.7773 9.58275 46.7423 9.58275C46.6515 9.58275 46.5538 9.63164 46.456 9.72242C46.3513 9.81321 46.2186 9.98081 46.044 10.2113L45.3037 11.2169L46.1697 12.5368C46.3303 12.7952 46.456 12.9628 46.5468 13.0466C46.6306 13.1304 46.7354 13.1723 46.8541 13.1723C46.903 13.1723 46.9239 13.1863 46.9239 13.2212V13.3399L46.903 13.305Z" fill="black"/>
</svg>
