<svg width="59" height="23" viewBox="0 0 59 23" fill="none" xmlns="http://www.w3.org/2000/svg">
<path d="M4.86182 1.1955H56.2747L54.1377 4.5476L57.3083 7.3061L54.7453 9.86906L57.6504 12.7742L54.4869 15.9308L57.2035 18.6404L54.3472 21.5036H6.44708" fill="#CCECF0"/>
<path d="M4.86182 1.1955H56.2747L54.1377 4.5476L57.3083 7.3061L54.7453 9.86906L57.6504 12.7742L54.4869 15.9308L57.2035 18.6404L54.3472 21.5036H6.44708" stroke="black" stroke-width="1.41" stroke-miterlimit="10"/>
<path d="M5.26695 1L1.44695 4.1426L4.15656 6.8522L1 10.0158L3.89817 12.9139L1.33521 15.4769L4.50574 18.2354L2.37576 21.5875L6.44717 21.5037" fill="#CCECF0"/>
<path d="M5.26695 1L1.44695 4.1426L4.15656 6.8522L1 10.0158L3.89817 12.9139L1.33521 15.4769L4.50574 18.2354L2.37576 21.5875L6.44717 21.5037" stroke="black" stroke-width="1.41" stroke-miterlimit="10"/>
<path d="M9.13575 9.51307C9.22653 9.541 9.33827 9.6248 9.46397 9.75748C9.58968 9.89017 9.65253 10.0089 9.65253 10.0997C9.65253 10.1346 9.64555 10.1695 9.6246 10.1975C9.61064 10.2114 9.58269 10.2463 9.54079 10.2882L9.28241 10.5327C9.33129 10.5676 9.38716 10.6025 9.44302 10.6374C9.49889 10.6723 9.56174 10.7003 9.61761 10.7212C9.7503 10.7631 9.8341 10.798 9.86902 10.826C9.93187 10.8818 9.95981 10.9656 9.95981 11.0774C9.95981 11.1542 9.94584 11.224 9.91092 11.2799C9.876 11.3358 9.8341 11.3707 9.77823 11.3707C9.71538 11.3707 9.60365 11.245 9.43604 10.9936C9.33827 10.8469 9.2405 10.7422 9.14972 10.6863C9.01703 10.791 8.87736 10.8958 8.74467 11.0006C8.54913 11.1402 8.33264 11.238 8.08123 11.2869L7.89268 11.3218L7.86475 11.3078C7.86475 11.3078 7.89966 11.2869 7.90665 11.2799C7.95553 11.245 7.98347 11.231 7.99744 11.224C8.15806 11.1472 8.37455 10.9726 8.63992 10.7072C8.94021 10.407 9.09385 10.1974 9.09385 10.0648C9.09385 9.99493 9.06592 9.91112 9.02402 9.82033C8.97513 9.72955 8.92624 9.63178 8.87736 9.52703C8.87736 9.48512 8.90529 9.46418 8.96116 9.46418C9.01703 9.46418 9.07289 9.47117 9.13575 9.49212V9.51307ZM10.6442 12.1738C10.9096 12.1738 11.14 12.2576 11.3495 12.4252C11.58 12.6068 11.6917 12.8372 11.6917 13.1026C11.6917 13.347 11.594 13.5565 11.4054 13.7172C11.2168 13.8848 11.0143 13.9686 10.7978 13.9686C10.5185 13.9686 10.2741 13.8778 10.0715 13.6892C9.86903 13.5007 9.76427 13.2981 9.76427 13.0747C9.76427 12.8023 9.84109 12.5858 10.0017 12.4182C10.1623 12.2506 10.3718 12.1668 10.6372 12.1668L10.6442 12.1738ZM10.6442 11.6919C10.5813 11.7967 10.5394 11.8456 10.5185 11.8456C10.4975 11.8456 10.4906 11.8037 10.4906 11.7199C10.4906 11.5243 10.4906 11.224 10.4696 10.798C10.4556 10.379 10.4417 10.0159 10.4347 9.71558C10.4207 9.63178 10.3439 9.51307 10.2112 9.35943C10.0785 9.20579 10.0157 9.10802 10.0157 9.06612C10.0157 9.02422 10.0506 9.00326 10.1134 9.00326C10.2252 9.00326 10.3788 9.05215 10.5744 9.1569C10.7699 9.26165 10.8677 9.35942 10.8677 9.45021C10.8537 9.53401 10.8467 9.61083 10.8467 9.67368V10.372H11.4124V9.39434C11.4124 9.30355 11.3356 9.17086 11.1819 9.00326C11.0283 8.82867 10.9515 8.72392 10.9515 8.68202C10.9515 8.64012 10.9864 8.61218 11.0632 8.61218C11.1889 8.61218 11.3635 8.66805 11.58 8.76582C11.7965 8.87057 11.9082 8.97533 11.9082 9.0731C11.9082 9.10802 11.9082 9.1569 11.8943 9.23372C11.8803 9.31054 11.8803 9.35942 11.8803 9.38736V10.5466C11.8803 11.3148 11.7895 11.8665 11.6149 12.1878C11.58 12.2576 11.5451 12.3135 11.5241 12.3484C11.5171 12.3624 11.5032 12.3763 11.4822 12.3973C11.4683 12.3973 11.4543 12.3414 11.4543 12.2297V12.076C11.4543 11.9224 11.4543 11.7199 11.4403 11.4824C11.4333 11.245 11.4264 11.0145 11.4124 10.798H10.8467V10.826C10.8467 11.0075 10.8328 11.1682 10.7978 11.3078C10.7629 11.4475 10.714 11.5732 10.6372 11.6849L10.6442 11.6919ZM10.7699 12.5509C10.6093 12.5509 10.4626 12.5858 10.3369 12.6626C10.2112 12.7395 10.1484 12.8512 10.1484 12.9978C10.1484 13.1794 10.2392 13.3191 10.4207 13.4238C10.5604 13.5007 10.714 13.5426 10.8747 13.5426C11.0073 13.5426 11.1261 13.5077 11.2238 13.4308C11.3216 13.354 11.3705 13.2493 11.3705 13.1096C11.3705 12.9559 11.3286 12.8303 11.2378 12.7325C11.133 12.6138 10.9794 12.5579 10.7699 12.5579V12.5509Z" fill="black"/>
<path d="M17.6905 11.9852C17.4252 11.9852 17.0131 12.0341 16.4475 12.1319C15.8818 12.2297 15.5047 12.3204 15.3092 12.4182C15.2254 12.4601 15.1485 12.4811 15.0787 12.4811C14.9949 12.4811 14.939 12.4531 14.8971 12.3973C14.8552 12.3414 14.8412 12.2646 14.8412 12.1668C14.8412 12.0481 14.8692 11.9503 14.9181 11.8665C14.967 11.7827 15.0019 11.6919 15.0158 11.5872C15.0298 11.4824 15.0438 11.3707 15.0438 11.252V11.1472C15.0158 11.1053 14.9251 11.0425 14.7784 10.9587C14.6317 10.8749 14.5549 10.805 14.5549 10.7631C14.5549 10.6863 14.6248 10.6514 14.7644 10.6514C15.1346 10.6514 15.4209 10.6374 15.6374 10.6095C15.8539 10.5815 16.0215 10.5396 16.1402 10.4908V9.76447C15.9796 9.76447 15.8399 9.76447 15.7352 9.78542C15.6304 9.79939 15.5117 9.82732 15.386 9.8762C15.379 9.8762 15.3371 9.89716 15.2672 9.92509C15.2323 9.93906 15.1974 9.95302 15.1695 9.95302C15.0717 9.95302 14.9251 9.89018 14.7365 9.76447C14.6317 9.69464 14.5759 9.64575 14.5759 9.60384C14.5759 9.54798 14.6317 9.52703 14.7505 9.52703H15.2253C15.358 9.52703 15.4628 9.52703 15.5466 9.52005C15.6304 9.51306 15.7421 9.49909 15.9097 9.47116C15.9447 9.47116 16.0285 9.42926 16.1542 9.34546C16.21 9.31054 16.2519 9.29657 16.2868 9.29657C16.3357 9.29657 16.4195 9.34545 16.5383 9.45021C16.657 9.55496 16.7128 9.6248 16.7128 9.6667C16.7128 9.69464 16.6919 9.72257 16.657 9.77145C16.6221 9.82034 16.6011 9.84827 16.5871 9.8762C16.5732 9.90414 16.5452 10.0159 16.4894 10.2044L16.4125 10.4489C16.4754 10.4908 16.5243 10.5257 16.5383 10.5536C16.5732 10.6025 16.5941 10.6514 16.5941 10.7212C16.5941 10.833 16.5243 10.9028 16.3776 10.9237L15.4279 11.0774C15.3999 11.1821 15.379 11.2729 15.358 11.3428C15.3022 11.5523 15.2742 11.7059 15.2742 11.8037C15.2742 11.8665 15.3022 11.8944 15.358 11.8944L15.5815 11.8665C15.8329 11.8386 16.1961 11.7967 16.6709 11.7408C17.2436 11.664 17.5788 11.6221 17.6836 11.6151V9.4153C17.6556 9.35943 17.516 9.20578 17.2506 8.94041C17.1388 8.82867 17.083 8.75186 17.083 8.70297C17.083 8.64012 17.1249 8.61218 17.2157 8.61218C17.3693 8.61218 17.5579 8.66805 17.7953 8.78677C18.0607 8.91946 18.1934 9.05214 18.1934 9.17785C18.1934 9.20578 18.1934 9.24768 18.1794 9.29657C18.1654 9.34545 18.1654 9.38038 18.1654 9.40133V12.069C18.1654 12.1808 18.1584 12.2785 18.1515 12.3484C18.1375 12.5719 18.1096 12.7674 18.0816 12.935C18.0537 13.1026 18.0048 13.2981 17.928 13.5286C17.8372 13.8219 17.7674 13.9686 17.7324 13.9686C17.7185 13.9686 17.7045 13.9476 17.7045 13.8987C17.7045 13.8498 17.7045 13.787 17.7045 13.7102L17.6836 11.9992L17.6905 11.9852Z" fill="black"/>
<path d="M23.948 10.791V9.51302C23.9201 9.40128 23.8223 9.24066 23.6477 9.03813C23.4731 8.83561 23.3963 8.71689 23.3963 8.67499C23.3963 8.61912 23.4382 8.59119 23.529 8.59119C23.6756 8.59119 23.8712 8.66102 24.1086 8.80767C24.3461 8.95433 24.4648 9.094 24.4648 9.23367C24.4648 9.26161 24.4578 9.30351 24.4368 9.36636C24.4159 9.42921 24.4089 9.48508 24.4089 9.53397V11.4754C24.4089 11.6849 24.4089 11.8874 24.4019 12.069C24.3949 12.2506 24.381 12.4391 24.353 12.6277C24.3251 12.8162 24.2762 13.0676 24.1994 13.3819C24.1086 13.759 24.0318 13.9476 23.9759 13.9476C23.962 13.9476 23.948 13.9057 23.941 13.8219C23.934 13.7381 23.934 13.6752 23.934 13.6403V11.231H23.2846C23.2846 11.4824 23.2776 11.6849 23.2636 11.8246C23.2357 12.2506 23.1868 12.5369 23.1239 12.6975C23.0471 12.907 22.9912 13.0118 22.9493 13.0118C22.9214 13.0118 22.9005 12.9559 22.8865 12.8442C22.8725 12.7324 22.8586 12.5718 22.8446 12.3623C22.8306 12.1528 22.8236 11.9712 22.8167 11.8036C22.7189 11.8036 22.5094 11.8385 22.1881 11.9084C21.8669 11.9782 21.6225 12.0411 21.4549 12.1039C21.3361 12.1807 21.2314 12.2156 21.1406 12.2156C20.994 12.2156 20.9241 12.1179 20.9241 11.9223C20.9241 11.8316 20.9381 11.7477 20.973 11.6779C21.0289 11.5871 21.0638 11.4754 21.0847 11.3497C21.1057 11.224 21.1127 11.0913 21.1127 10.9586C21.1127 10.805 21.0289 10.6793 20.8613 10.5745C20.6937 10.4698 20.6099 10.386 20.6099 10.3301C20.6099 10.2533 20.6797 10.2184 20.8124 10.2184C20.9521 10.2184 21.1057 10.2044 21.2593 10.1765C21.413 10.1485 21.5387 10.1066 21.6364 10.0577C21.6993 10.0228 21.7412 10.0019 21.7621 9.9879C21.811 9.95996 21.8529 9.95298 21.8948 9.95298C21.9786 9.95298 22.0624 9.98091 22.1393 10.0298C22.2161 10.0787 22.251 10.1415 22.251 10.2253C22.251 10.365 22.1742 10.4488 22.0205 10.4837L21.399 10.6094V11.3916C21.399 11.4684 21.399 11.5173 21.413 11.5382C21.4269 11.5662 21.4549 11.5801 21.4898 11.5801L22.8027 11.3637V9.86918C22.7817 9.82029 22.7259 9.73649 22.6281 9.62475C22.4465 9.40826 22.3488 9.26859 22.3488 9.21272C22.3488 9.15685 22.3907 9.1359 22.4745 9.1359C22.6072 9.1359 22.7817 9.19876 22.9843 9.31748C23.1868 9.4362 23.2915 9.5619 23.2915 9.68062C23.2915 9.70157 23.2915 9.73649 23.2776 9.78538C23.2636 9.83426 23.2636 9.86219 23.2636 9.86918V10.798H23.9131L23.948 10.791Z" fill="black"/>
<path d="M28.592 10.4629C28.62 10.4978 28.627 10.5397 28.627 10.5816C28.627 10.6584 28.599 10.7422 28.5292 10.833C28.4593 10.9238 28.3965 11.0076 28.3197 11.0844C28.592 11.1403 28.7876 11.1821 28.8993 11.2171C29.1018 11.2799 29.2066 11.4266 29.2066 11.6431C29.2066 11.7548 29.1926 11.8386 29.1577 11.9015C29.1228 11.9643 29.0809 11.9922 29.032 11.9922C28.9971 11.9922 28.9203 11.9294 28.8155 11.7967C28.5571 11.4755 28.3546 11.2729 28.194 11.2031C27.9496 11.4266 27.6981 11.6151 27.4258 11.7688C27.0836 11.9643 26.7833 12.0551 26.5179 12.0551H26.49C26.49 12.0551 26.5249 12.0272 26.5389 12.0202C26.5528 12.0132 26.5878 11.9992 26.6436 11.9783C26.8601 11.8945 27.1534 11.671 27.5236 11.3218C27.9216 10.9447 28.1172 10.6584 28.1172 10.4698C28.1172 10.4279 28.1102 10.379 28.0892 10.3232C28.0683 10.2673 28.0473 10.2394 28.0264 10.2184C27.9216 10.2184 27.8448 10.2254 27.7959 10.2464C27.747 10.2673 27.6981 10.2883 27.6493 10.3162C27.5794 10.3162 27.4467 10.2673 27.2582 10.1695C27.0696 10.0718 26.9719 10.0019 26.9719 9.95304C26.9719 9.91813 27.0138 9.89717 27.0906 9.89717H27.1953C27.4188 9.89717 27.6283 9.88322 27.8238 9.86226C28.1241 9.82735 28.3616 9.76449 28.5292 9.67371C28.5781 9.64577 28.6339 9.61784 28.6968 9.58991C28.7596 9.56197 28.8155 9.54102 28.8714 9.54102C28.9552 9.54102 29.046 9.56895 29.1298 9.63181C29.2136 9.69466 29.2625 9.76449 29.2625 9.84829C29.2625 9.96003 29.1437 10.0369 28.9133 10.0788C28.7387 10.1067 28.5711 10.1346 28.3965 10.1556C28.3965 10.1905 28.4174 10.2394 28.4593 10.2952C28.5012 10.3511 28.5432 10.407 28.5781 10.4629H28.592ZM29.6256 8.86361C29.5418 8.78679 29.4999 8.73093 29.4999 8.68902C29.4999 8.63316 29.5558 8.60522 29.6675 8.60522C29.8211 8.60522 30.0027 8.66109 30.2122 8.77981C30.4497 8.9125 30.5684 9.04518 30.5684 9.17787L30.5474 9.39436V11.671C30.6103 11.671 30.729 11.6361 30.9036 11.5732C31.0014 11.5383 31.0782 11.5174 31.134 11.5174C31.2248 11.5174 31.3156 11.5453 31.3994 11.5942C31.4832 11.6431 31.5251 11.7129 31.5251 11.7967C31.5251 11.8526 31.5042 11.9015 31.4693 11.9434C31.4343 11.9853 31.3785 12.0062 31.3156 12.0062C31.2248 12.0062 31.1271 12.0062 31.0363 11.9853C30.7569 11.9503 30.5963 11.9294 30.5614 11.9294C30.5614 12.2367 30.5335 12.5439 30.4776 12.8373C30.4217 13.1306 30.3309 13.4448 30.2122 13.7661C30.1983 13.808 30.1843 13.8499 30.1564 13.8918C30.1564 13.8987 30.1424 13.9127 30.1284 13.9267C30.1214 13.9267 30.1144 13.9127 30.1075 13.8778C30.1005 13.8429 30.1005 13.787 30.1005 13.7102L30.0586 9.38738C30.0237 9.30358 29.9748 9.22676 29.9259 9.15692C29.8421 9.05217 29.7513 8.9544 29.6396 8.86361H29.6256Z" fill="black"/>
<path d="M34.0951 11.6012C34.2347 11.6012 34.4093 11.5872 34.6258 11.5663C34.7026 11.5593 34.8004 11.5453 34.9331 11.5244C34.9331 11.252 34.9261 11.0565 34.9051 10.9378C34.8772 10.7352 34.8144 10.5467 34.7306 10.3721C34.7166 10.3442 34.7096 10.3302 34.7026 10.3162C34.6747 10.2673 34.6677 10.2324 34.6677 10.2185C34.6677 10.1766 34.6956 10.1486 34.7445 10.1486C34.8563 10.1486 34.982 10.1905 35.1216 10.2813C35.2613 10.3721 35.3311 10.4699 35.3311 10.5746C35.3311 10.6165 35.3102 10.7422 35.2753 10.9517C35.2404 11.1612 35.2194 11.3358 35.2194 11.4825C35.4219 11.4615 35.5616 11.4476 35.6454 11.4476C35.82 11.4336 36.0435 11.4057 36.3228 11.3707V9.40138C36.3228 9.31059 36.2181 9.17791 36.0085 8.99633C35.799 8.81476 35.6943 8.71001 35.6943 8.68208C35.6943 8.62621 35.7571 8.59827 35.8828 8.59827C36.0435 8.59827 36.232 8.65414 36.4625 8.76588C36.7209 8.89158 36.8466 9.02427 36.8466 9.16394C36.8466 9.19188 36.8466 9.24075 36.8326 9.29662C36.8186 9.35249 36.8186 9.40138 36.8186 9.42233V11.2381C36.8885 11.2381 37.0142 11.2101 37.2027 11.1542C37.2935 11.1263 37.3773 11.1123 37.4402 11.1123C37.531 11.1123 37.6217 11.1333 37.6986 11.1822C37.7754 11.2311 37.8173 11.3009 37.8173 11.3847C37.8173 11.4406 37.8033 11.4825 37.7684 11.5104C37.7335 11.5383 37.6986 11.5593 37.6427 11.5593C37.5589 11.5593 37.3843 11.5383 37.1189 11.5034C36.9723 11.4825 36.8605 11.4755 36.7767 11.4755C36.7767 11.6221 36.7418 11.8386 36.672 12.132C36.5882 12.4881 36.4974 12.6627 36.4136 12.6627C36.3857 12.6627 36.3787 12.6138 36.3787 12.523L36.3158 11.7479C36.1063 11.7479 35.7641 11.7758 35.3102 11.8386C34.8493 11.8945 34.4093 11.9643 33.9833 12.0412C33.9414 12.0481 33.8855 12.0691 33.8227 12.104C33.7598 12.1389 33.711 12.1529 33.676 12.1529C33.6062 12.1529 33.4735 12.097 33.271 11.9923C33.0685 11.8805 32.9707 11.8037 32.9707 11.7479C32.9707 11.699 33.0336 11.671 33.1662 11.671C33.2989 11.671 33.3897 11.671 33.4456 11.671C33.676 11.6571 33.8157 11.6431 33.8716 11.6431C33.8716 11.4476 33.8506 11.266 33.8017 11.1123C33.7529 10.9517 33.69 10.7841 33.5992 10.6095C33.5643 10.5397 33.5434 10.4908 33.5434 10.4489C33.5434 10.407 33.5713 10.3861 33.6272 10.3861C33.7319 10.3861 33.8506 10.428 33.9763 10.5187C34.102 10.6095 34.1649 10.7003 34.1649 10.7981C34.1649 10.8609 34.1439 11.0285 34.102 11.2869C34.0811 11.4196 34.0741 11.5244 34.0741 11.6152L34.0951 11.6012ZM33.5853 10.0648C33.5015 10.0229 33.4177 9.97403 33.3339 9.91816C33.2012 9.83435 33.1383 9.77151 33.1383 9.73659C33.1383 9.70167 33.2012 9.68072 33.3269 9.68072C33.8227 9.68072 34.1439 9.66675 34.3046 9.6458C34.4582 9.61786 34.6258 9.56899 34.8004 9.4782C34.8563 9.45027 34.8982 9.42931 34.9191 9.42233C34.982 9.3944 35.0378 9.38741 35.0937 9.38741C35.1775 9.38741 35.2683 9.42233 35.3661 9.48518C35.4638 9.54803 35.5127 9.61787 35.5127 9.68771C35.5127 9.79945 35.2194 9.88324 34.6258 9.93213C34.2976 9.96006 34.0811 9.99498 33.9833 10.0508C33.9205 10.0858 33.8786 10.1137 33.8506 10.1277C33.8227 10.1416 33.8017 10.1486 33.7738 10.1486C33.7459 10.1486 33.69 10.1207 33.5922 10.0718L33.5853 10.0648ZM34.542 12.7605C34.5001 12.7255 34.4722 12.6836 34.4722 12.6417C34.4722 12.5998 34.5211 12.5719 34.6118 12.5719C34.7375 12.5719 34.8632 12.5998 34.9959 12.6557C35.1705 12.7325 35.2543 12.8163 35.2543 12.9211L35.2404 13.0538V13.2842C35.2404 13.3401 35.2543 13.382 35.2892 13.396C35.3242 13.4099 35.373 13.4239 35.4429 13.4239H35.5616C35.813 13.4239 36.0016 13.4169 36.1203 13.396C36.239 13.368 36.3577 13.3401 36.4834 13.3192H36.5114C36.658 13.3192 36.7279 13.375 36.7279 13.4798C36.7279 13.5845 36.6441 13.6823 36.4764 13.7591C36.4136 13.801 36.2669 13.8429 36.0435 13.8848C35.8968 13.9128 35.7921 13.9267 35.7152 13.9267C35.4988 13.9267 35.2823 13.7801 35.0658 13.4867C34.8842 13.2493 34.7096 13.0049 34.535 12.7605H34.542Z" fill="black"/>
<path d="M39.7307 9.79246C39.8983 9.67374 40.0869 9.61787 40.3104 9.61787C40.6316 9.61787 40.9249 9.73659 41.1903 9.96705C41.4627 10.1975 41.5953 10.4699 41.5953 10.7701C41.6582 10.833 41.7001 10.8889 41.721 10.9238C41.7839 11.0146 41.8188 11.1193 41.8188 11.2381C41.8188 11.3568 41.7769 11.4336 41.7001 11.4615C41.6233 11.4825 41.5464 11.5034 41.4696 11.5244C41.2112 11.692 40.883 11.8736 40.4849 12.0551C39.9961 12.2856 39.6539 12.4043 39.4654 12.4043C39.4304 12.4043 39.3955 12.4043 39.3746 12.3903C39.3746 12.3903 39.3676 12.3903 39.3606 12.3764C39.3885 12.3554 39.4025 12.3414 39.4235 12.3414C39.6749 12.2576 40.038 12.0481 40.5059 11.706C40.9738 11.3638 41.2881 11.0984 41.4417 10.9028C41.3649 10.6095 41.1624 10.414 40.8341 10.3162C40.7014 10.2743 40.457 10.2394 40.1009 10.2115C39.7447 10.1835 39.5701 10.1137 39.5701 10.0089C39.5701 9.94609 39.619 9.87626 39.7237 9.79944L39.7307 9.79246ZM42.3146 8.89158C42.2308 8.81477 42.1889 8.75191 42.1889 8.70303C42.1889 8.63319 42.2518 8.59827 42.3845 8.59827C42.5451 8.59827 42.7336 8.65414 42.9501 8.76588C43.1946 8.89158 43.3133 9.03125 43.3133 9.17092L43.2923 9.38741V11.7898C43.2923 12.2926 43.2644 12.7046 43.2085 13.0328C43.1736 13.2493 43.1177 13.4588 43.0339 13.6544C42.9501 13.8499 42.9013 13.9477 42.8733 13.9477C42.8454 13.9477 42.8384 13.8988 42.8384 13.801L42.7965 9.47121C42.7616 9.39439 42.7057 9.3106 42.6219 9.20584C42.5172 9.08712 42.4194 8.98237 42.3146 8.89158Z" fill="black"/>
<path d="M51.6307 11.3148C51.6307 11.8665 51.4631 12.3205 51.1279 12.6766C50.7927 13.0328 50.3597 13.2144 49.829 13.2144C49.2982 13.2144 48.9141 13.0467 48.5999 12.7115C48.2856 12.3763 48.125 11.9434 48.125 11.4126C48.125 10.833 48.2926 10.3651 48.6278 10.0019C48.963 9.63879 49.403 9.45721 49.9547 9.45721C50.4645 9.45721 50.8695 9.62482 51.1768 9.96701C51.4771 10.3092 51.6307 10.7561 51.6307 11.3148ZM51.0022 11.3497C51.0022 10.8469 50.9045 10.4419 50.7019 10.1276C50.5064 9.81337 50.241 9.65973 49.9128 9.65973C49.5496 9.65973 49.2703 9.80639 49.0678 10.1067C48.8653 10.407 48.7605 10.812 48.7605 11.3358C48.7605 11.8596 48.8653 12.2436 49.0678 12.5509C49.2703 12.8582 49.5496 13.0118 49.8988 13.0118C50.248 13.0118 50.5134 12.8652 50.7089 12.5649C50.9044 12.2646 51.0022 11.8665 51.0022 11.3567V11.3497Z" fill="black"/>
</svg>
