<svg width="59" height="23" viewBox="0 0 59 23" fill="none" xmlns="http://www.w3.org/2000/svg">
<path d="M4.86194 1.19556H56.2748L54.1448 4.54068L57.3084 7.29918L54.7454 9.86912L57.6506 12.7673L54.494 15.9308L57.2036 18.6405L54.3474 21.4967H6.4472" fill="white"/>
<path d="M4.86194 1.19556H56.2748L54.1448 4.54068L57.3084 7.29918L54.7454 9.86912L57.6506 12.7673L54.494 15.9308L57.2036 18.6405L54.3474 21.4967H6.4472" stroke="black" stroke-width="1.41" stroke-miterlimit="10"/>
<path d="M5.27393 1L1.44695 4.1426L4.15656 6.85221L1 10.0088L3.89817 12.9139L1.33521 15.4769L4.50574 18.2354L2.37576 21.5875L6.44717 21.4967" fill="white"/>
<path d="M5.27393 1L1.44695 4.1426L4.15656 6.85221L1 10.0088L3.89817 12.9139L1.33521 15.4769L4.50574 18.2354L2.37576 21.5875L6.44717 21.4967" stroke="black" stroke-width="1.41" stroke-miterlimit="10"/>
<path d="M19.7578 11.5801H20.4352C21.0149 11.5801 21.4548 11.5801 21.7761 11.5731C22.0973 11.5661 22.4465 11.5452 22.8376 11.5172C23.2286 11.4893 23.5499 11.4404 23.7873 11.3706C23.8711 11.3496 23.941 11.3357 24.0108 11.3217C24.0737 11.3077 24.1295 11.3007 24.1714 11.3007C24.2832 11.3007 24.3949 11.3287 24.4927 11.3915C24.5904 11.4474 24.6393 11.5312 24.6393 11.636C24.6393 11.7826 24.5555 11.8524 24.374 11.8524C24.2832 11.8524 24.1435 11.8524 23.9549 11.8315C23.7664 11.8175 23.6267 11.8105 23.5359 11.8105C23.5499 11.8734 23.5778 11.9502 23.6127 12.041C23.6337 12.0899 23.6407 12.1388 23.6407 12.1877C23.6407 12.467 23.6267 12.7254 23.5918 12.9628C23.5569 13.2003 23.501 13.4447 23.4172 13.6751C23.3613 13.8358 23.3055 13.9615 23.2636 14.0592C23.2077 14.178 23.1588 14.2338 23.1309 14.2338C23.1169 14.2199 23.1099 14.2059 23.1099 14.1919C23.1029 14.157 23.096 14.1291 23.096 14.1011V12.9489C23.096 12.6416 23.096 12.4181 23.089 12.2575C23.075 12.1039 23.0471 11.9572 23.0052 11.8175L21.9716 11.8664C21.9856 11.9223 21.9995 11.9991 22.0275 12.0899C22.0414 12.1318 22.0484 12.1667 22.0484 12.2016C22.0484 12.3483 21.9507 12.6416 21.7621 13.0885C21.5596 13.5634 21.4059 13.8009 21.3012 13.8009C21.2802 13.7799 21.2733 13.759 21.2733 13.738L21.2872 13.6332C21.3501 13.3539 21.399 13.1095 21.4339 12.907C21.4618 12.7044 21.4828 12.5229 21.4828 12.3692C21.4828 12.1946 21.4618 12.048 21.4129 11.9293H21.3291C21.1755 11.9293 21.0568 11.9293 20.973 11.9362C20.8892 11.9362 20.7984 11.9642 20.7076 11.9991C20.6587 12.02 20.5889 12.048 20.512 12.0829C20.4632 12.1039 20.4213 12.1178 20.3933 12.1178C20.3095 12.1178 20.1419 12.055 19.8905 11.9223C19.6461 11.7896 19.5204 11.6918 19.5204 11.636C19.5204 11.5871 19.6042 11.5661 19.7718 11.5661L19.7578 11.5801ZM21.1895 9.56882C21.0777 9.51994 20.966 9.46407 20.8612 9.41519C20.6866 9.31742 20.5959 9.25456 20.5959 9.21266C20.5959 9.17076 20.6587 9.14283 20.7914 9.14283C22.1811 9.14283 23.0122 9.07997 23.2775 8.94729C23.4032 8.87745 23.508 8.84253 23.5988 8.84253C23.6965 8.84253 23.8013 8.87745 23.9061 8.9403C24.0108 9.00316 24.0597 9.08696 24.0597 9.17774C24.0597 9.22663 24.0387 9.26853 24.0038 9.29646C23.9689 9.3244 23.913 9.34535 23.8362 9.34535H23.2217C22.8725 9.34535 22.5652 9.35932 22.2929 9.38027C22.0205 9.40122 21.811 9.44312 21.6434 9.51295C21.6085 9.5339 21.5596 9.55486 21.5107 9.58279C21.4548 9.61072 21.4129 9.62469 21.378 9.62469C21.3291 9.62469 21.2593 9.61072 21.1825 9.57581L21.1895 9.56882ZM22.4884 9.60374C22.7468 9.60374 22.9703 9.66659 23.1658 9.79928C23.4102 9.96688 23.5359 10.2043 23.5359 10.5046C23.5359 10.784 23.4521 10.9935 23.2775 11.1471C23.1309 11.2798 22.9423 11.3426 22.7188 11.3426C22.3836 11.3426 22.1043 11.2379 21.8808 11.0354C21.6923 10.8608 21.5945 10.6722 21.5945 10.4697C21.5945 10.2183 21.6643 10.0158 21.797 9.86213C21.9576 9.68754 22.1881 9.59676 22.4954 9.59676L22.4884 9.60374ZM21.8669 8.221C21.9367 8.24195 22.0414 8.24893 22.1811 8.2629C22.3208 8.26988 22.4605 8.27687 22.5862 8.27687H23.0191C23.1448 8.27687 23.2007 8.31178 23.2007 8.3886C23.2007 8.50034 23.1029 8.60509 22.9074 8.6889C22.7468 8.75873 22.6001 8.80063 22.4744 8.80063C22.3208 8.80063 22.216 8.80063 22.1671 8.77968C22.1113 8.76571 22.0414 8.72381 21.9507 8.64699C21.8948 8.60509 21.8319 8.54923 21.7621 8.47241C21.6713 8.37464 21.6224 8.3048 21.6224 8.2629C21.6224 8.22798 21.6504 8.20703 21.7132 8.20703L21.8599 8.22798L21.8669 8.221ZM22.5862 10.0018C22.3976 10.0018 22.251 10.0507 22.1322 10.1485C22.0135 10.2462 21.9576 10.351 21.9576 10.4627C21.9576 10.5884 22.0275 10.6932 22.1602 10.7979C22.2929 10.8957 22.4465 10.9446 22.6141 10.9446C22.7538 10.9446 22.8725 10.9027 22.9842 10.8259C23.1169 10.7281 23.1798 10.6024 23.1798 10.4348C23.1798 10.2951 23.1239 10.1834 23.0122 10.1066C22.9004 10.0297 22.7538 9.98784 22.5792 9.98784L22.5862 10.0018Z" fill="black"/>
<path d="M28.6548 10.3231C28.6897 10.358 28.7037 10.3999 28.7037 10.4488C28.7037 10.5047 28.6827 10.5605 28.6478 10.6234C28.6129 10.6862 28.5151 10.805 28.3685 10.9726C28.4942 11.0284 28.564 11.0634 28.585 11.0773C28.6548 11.1053 28.7246 11.1262 28.8015 11.1472C29.0668 11.217 29.2344 11.2868 29.2973 11.3567C29.3601 11.4265 29.3881 11.5382 29.3881 11.6849C29.3881 11.8036 29.3671 11.8944 29.3322 11.9573C29.2973 12.0201 29.2484 12.055 29.1925 12.055C29.1367 12.055 29.0529 11.9782 28.9341 11.8316C28.6269 11.4475 28.3894 11.217 28.2288 11.1332C27.8587 11.4824 27.6352 11.6779 27.5723 11.7268C27.3279 11.9154 27.0626 12.048 26.7762 12.1249C26.6715 12.1458 26.5667 12.1668 26.469 12.1877H26.448C26.448 12.1877 26.4759 12.1598 26.4829 12.1528C26.5178 12.1318 26.5597 12.1109 26.6156 12.083C26.874 11.9573 27.1743 11.7058 27.5095 11.3357C27.8796 10.9237 28.0682 10.5955 28.0682 10.358C28.0682 10.2323 28.0402 10.1415 27.9774 10.0857C27.8936 10.0857 27.8168 10.0926 27.7609 10.1136C27.705 10.1346 27.6422 10.1555 27.5863 10.1695C27.5095 10.1695 27.3768 10.1136 27.1813 9.99488C26.9927 9.87616 26.8949 9.79236 26.8949 9.73649C26.8949 9.70157 26.9368 9.68062 27.0206 9.68062H27.2162C27.4816 9.68062 27.705 9.66665 27.8866 9.6457C28.1799 9.61078 28.4243 9.54095 28.6338 9.44318C28.6827 9.40826 28.7177 9.38731 28.7456 9.38033C28.8154 9.34541 28.8783 9.32446 28.9411 9.32446C29.0389 9.32446 29.1297 9.35239 29.2205 9.41524C29.3113 9.47111 29.3532 9.54793 29.3532 9.63872C29.3532 9.75045 29.2414 9.82727 29.011 9.86918C28.8294 9.89711 28.6478 9.92504 28.4662 9.94599C28.4662 9.99488 28.4872 10.0507 28.5291 10.1136C28.571 10.1834 28.6199 10.2533 28.6688 10.3161L28.6548 10.3231ZM29.856 8.57722C29.7582 8.49342 29.7093 8.43056 29.7093 8.3747C29.7093 8.31883 29.7652 8.29089 29.8769 8.29089C30.0375 8.29089 30.254 8.36073 30.5264 8.50738C30.7987 8.65404 30.9314 8.79371 30.9314 8.94036C30.9314 8.9683 30.9314 9.01718 30.9175 9.07305C30.9035 9.12892 30.9035 9.17082 30.9035 9.19177V11.6011C30.9035 12.083 30.8756 12.502 30.8267 12.8581C30.7778 13.2143 30.68 13.5914 30.5404 13.9895C30.5194 14.0593 30.4915 14.1222 30.4635 14.1641C30.4566 14.178 30.4426 14.192 30.4286 14.2129C30.4286 14.192 30.4216 14.171 30.4147 14.1361C30.4147 14.1012 30.4147 14.0803 30.4147 14.0593V13.9266C30.4147 13.7101 30.4147 13.2771 30.4007 12.6137C30.3937 11.9503 30.3797 11.3287 30.3728 10.7421C30.3658 10.1555 30.3588 9.61777 30.3518 9.1359C30.3169 9.05908 30.261 8.97528 30.1912 8.8845C30.0934 8.77276 29.9887 8.66102 29.863 8.56325L29.856 8.57722Z" fill="black"/>
<path d="M39.9263 13.298C39.9263 13.3329 39.9053 13.3539 39.8634 13.3539H38.4248C38.3829 13.3539 38.355 13.3399 38.355 13.3189V13.2002C38.355 13.1583 38.3899 13.1374 38.4597 13.1374C38.5575 13.1374 38.6413 13.1374 38.6972 13.1164C38.753 13.0955 38.781 13.0745 38.781 13.0187C38.781 12.9349 38.6762 12.7323 38.4597 12.4041L37.936 11.5731L37.2935 12.46C37.1678 12.6346 37.077 12.7672 37.0351 12.8441C36.9862 12.9209 36.9652 12.9837 36.9652 13.0326C36.9652 13.1094 37.063 13.1444 37.2586 13.1444C37.3563 13.1444 37.4052 13.1653 37.4052 13.2002V13.3189C37.4052 13.3189 37.3633 13.3608 37.3563 13.3608H36.1552L36.1202 13.3189V13.2002C36.1202 13.2002 36.1412 13.1513 36.1901 13.1513C36.2809 13.1513 36.3716 13.1164 36.4554 13.0396C36.5393 12.9628 36.658 12.8301 36.7976 12.6276L37.7684 11.3356L36.9024 10.0227C36.7907 9.87606 36.7208 9.77829 36.6859 9.73639C36.5881 9.62465 36.4764 9.56878 36.3577 9.56878C36.3018 9.56878 36.2739 9.54783 36.2739 9.50593V9.40118C36.2739 9.40118 36.2948 9.35229 36.3437 9.35229H37.8591C37.8591 9.35229 37.901 9.36626 37.901 9.3942V9.50593C37.901 9.54783 37.8731 9.56878 37.8103 9.56878C37.6706 9.56878 37.5728 9.56878 37.5169 9.58974C37.4611 9.6037 37.4331 9.63862 37.4331 9.70147C37.4331 9.74337 37.4611 9.82718 37.5309 9.93891C37.5728 10.0087 37.6077 10.0786 37.6496 10.1345L38.1594 10.9376L38.6972 10.1973C38.8787 9.93891 38.9765 9.76432 38.9765 9.67354C38.9765 9.6037 38.8927 9.56878 38.7181 9.56878C38.6622 9.56878 38.6343 9.56878 38.6203 9.56878C38.5994 9.5618 38.5924 9.53387 38.5924 9.49895V9.40118C38.5924 9.40118 38.6134 9.35928 38.6483 9.35928H39.7726C39.7726 9.35928 39.8006 9.35928 39.8076 9.37325C39.8076 9.38023 39.8145 9.38721 39.8215 9.3942V9.53387C39.8215 9.53387 39.8006 9.57577 39.7656 9.57577C39.6749 9.57577 39.5771 9.62465 39.4793 9.71544C39.3746 9.80623 39.2419 9.97383 39.0673 10.2043L38.327 11.2099L39.193 12.5298C39.3536 12.7882 39.4793 12.9628 39.5701 13.0396C39.6539 13.1234 39.7587 13.1653 39.8774 13.1653C39.9263 13.1653 39.9472 13.1793 39.9472 13.2142V13.3329L39.9263 13.298Z" fill="black"/>
</svg>
