<svg width="59" height="23" viewBox="0 0 59 23" fill="none" xmlns="http://www.w3.org/2000/svg">
<path d="M4.86194 1.22327H56.2748L54.1448 4.57537L57.3084 7.33387L54.7454 9.89683L57.6506 12.802L54.494 15.9586L57.2036 18.6682L54.3474 21.5244H6.4472" fill="white"/>
<path d="M4.86194 1.22327H56.2748L54.1448 4.57537L57.3084 7.33387L54.7454 9.89683L57.6506 12.802L54.494 15.9586L57.2036 18.6682L54.3474 21.5244H6.4472" stroke="black" stroke-width="1.41" stroke-miterlimit="10"/>
<path d="M5.27393 1.02783L1.44695 4.17043L4.15656 6.88004L1 10.0366L3.89817 12.9418L1.33521 15.5047L4.50574 18.2632L2.37576 21.6153L6.44717 21.5245" fill="white"/>
<path d="M5.27393 1.02783L1.44695 4.17043L4.15656 6.88004L1 10.0366L3.89817 12.9418L1.33521 15.5047L4.50574 18.2632L2.37576 21.6153L6.44717 21.5245" stroke="black" stroke-width="1.41" stroke-miterlimit="10"/>
<path d="M6.94998 10.8817C7.04077 10.8258 7.13155 10.7979 7.22932 10.7979C7.45978 10.7979 7.64135 10.8747 7.78102 11.0213C7.92069 11.168 7.99053 11.3565 7.99053 11.594V11.6498C7.99053 11.6498 8.03941 11.7267 8.06036 11.7755C8.08131 11.8244 8.0883 11.8663 8.0883 11.9013C8.0883 11.9571 8.06036 11.992 8.01148 12.013C7.96259 12.0339 7.92069 12.0549 7.87879 12.0689C7.7042 12.1596 7.52961 12.2574 7.35502 12.3482C7.1106 12.4739 6.92903 12.5298 6.81729 12.5298C6.80332 12.5298 6.79634 12.5298 6.78936 12.5298L6.77539 12.5158C6.77539 12.5158 6.82428 12.4669 6.84523 12.4599C6.99188 12.3901 7.15949 12.2784 7.34106 12.1177C7.50168 11.9781 7.64135 11.8314 7.75309 11.6917C7.69023 11.4822 7.46676 11.3356 7.09663 11.2448C6.93601 11.2099 6.85919 11.14 6.85919 11.0423C6.85919 10.9864 6.88713 10.9375 6.94998 10.8886V10.8817ZM8.06735 10.742C8.15813 10.6861 8.24194 10.6582 8.33272 10.6582C8.55619 10.6582 8.7238 10.742 8.84252 10.9166C8.94029 11.0632 9.00314 11.2518 9.03108 11.4962C9.10789 11.6079 9.1498 11.6708 9.15678 11.6778C9.19868 11.7476 9.21963 11.8244 9.21963 11.9013C9.21963 11.992 9.1917 12.0619 9.13583 12.0898C9.07996 12.1247 9.02409 12.1527 8.96124 12.1806C8.61206 12.4599 8.33272 12.6625 8.12321 12.7882C7.91371 12.9139 7.7461 12.9767 7.6204 12.9767H7.59246C7.59246 12.9767 7.61342 12.9488 7.6204 12.9488C7.64135 12.9348 7.65532 12.9209 7.67627 12.9139C7.82292 12.851 8.02545 12.6694 8.30479 12.3692C8.54223 12.1108 8.71682 11.8943 8.82855 11.7197C8.74475 11.4264 8.57714 11.2378 8.31875 11.14C8.06036 11.0423 7.92768 10.9655 7.92768 10.9166C7.92768 10.8607 7.97656 10.8048 8.06735 10.749V10.742ZM9.88307 12.7812C9.83418 13.0256 9.77831 13.2281 9.72245 13.3887C9.66658 13.5494 9.60373 13.6262 9.55484 13.6262C9.51992 13.6262 9.50596 13.5354 9.50596 13.3538L9.48501 10.7001C9.47104 10.6163 9.36629 10.4626 9.17075 10.2392C9.08694 10.1484 9.04504 10.0716 9.04504 10.0227C9.04504 9.9738 9.07298 9.95284 9.13583 9.95284C9.25455 9.95284 9.42215 10.0087 9.63166 10.1274C9.84117 10.2461 9.94592 10.3579 9.94592 10.4557C9.94592 10.4696 9.94592 10.5045 9.92497 10.5534C9.90402 10.6023 9.90402 10.6372 9.90402 10.6582V11.573H10.3649V10.2462C10.337 10.1344 10.2532 10.0017 10.0996 9.83412C9.94592 9.66652 9.8691 9.56176 9.8691 9.51288C9.8691 9.45701 9.90402 9.42908 9.98084 9.42908C10.1135 9.42908 10.2951 9.49891 10.5256 9.6316C10.756 9.77127 10.8747 9.89697 10.8747 10.0157C10.8747 10.0436 10.8677 10.0925 10.8468 10.1484C10.8258 10.2043 10.8189 10.2601 10.8189 10.309V12.418C10.8189 12.8859 10.8119 13.2421 10.7909 13.4935C10.756 13.9544 10.6792 14.2966 10.5744 14.5271C10.5046 14.6877 10.4557 14.7715 10.4278 14.7715C10.3999 14.7715 10.3859 14.7156 10.3859 14.5969L10.3579 11.9501H9.89704V12.2714C9.89704 12.3552 9.89704 12.446 9.89704 12.5368C9.89704 12.6275 9.88307 12.6974 9.8691 12.7602L9.88307 12.7812Z" fill="black"/>
<path d="M16.5943 12.1596C16.2242 12.1596 15.7843 12.1806 15.2884 12.2225C14.7926 12.2644 14.4713 12.3133 14.3247 12.3761C14.2828 12.3901 14.2269 12.411 14.1711 12.439C14.1152 12.4669 14.0663 12.4739 14.0384 12.4739C13.9336 12.4739 13.766 12.418 13.5356 12.2993C13.3051 12.1806 13.1934 12.0758 13.1934 11.992C13.1934 11.9571 13.2283 11.9361 13.3051 11.9361C13.4099 11.9361 13.5775 11.9361 13.8079 11.9501C14.0384 11.9641 14.1711 11.9641 14.185 11.9641H14.7996C14.9323 11.7965 15.037 11.587 15.1278 11.3286C15.2116 11.0702 15.2535 10.8607 15.2535 10.6931C15.2535 10.6302 15.2186 10.5464 15.1488 10.4556C15.0789 10.3648 15.0161 10.316 14.9602 10.316C14.9183 10.316 14.8415 10.3509 14.7507 10.4137C14.6599 10.4766 14.5761 10.5185 14.5202 10.5185C14.4574 10.5185 14.3596 10.4905 14.2339 10.4277C14.1082 10.3648 14.0454 10.309 14.0454 10.2531C14.0454 10.2182 14.0593 10.1903 14.0873 10.1693C14.1152 10.1484 14.178 10.1204 14.2618 10.0995C14.4923 10.0087 14.6669 9.93187 14.7856 9.88298C14.9043 9.8341 15.0021 9.80616 15.0649 9.80616C15.1907 9.80616 15.3233 9.89695 15.484 10.0785C15.6376 10.2601 15.7144 10.4137 15.7144 10.5394C15.7144 10.721 15.6097 10.9654 15.4071 11.2797C15.3233 11.4124 15.1557 11.6359 14.9183 11.9361C15.2745 11.9361 15.5957 11.9292 15.896 11.9082C16.0007 11.9082 16.1195 11.8942 16.2661 11.8733C16.3918 11.7476 16.5175 11.5311 16.6432 11.2308C16.7689 10.9305 16.8318 10.707 16.8318 10.5674C16.8318 10.5185 16.7969 10.4556 16.727 10.3858C16.6572 10.316 16.5943 10.281 16.5524 10.281C16.5245 10.281 16.4617 10.309 16.3639 10.3648C16.315 10.3928 16.2731 10.4067 16.2312 10.4067C16.1474 10.4067 16.0426 10.3648 15.9309 10.281C15.8611 10.2322 15.8262 10.1833 15.8262 10.1414C15.8262 10.0855 15.889 10.0366 16.0147 10.0087C16.0636 9.99472 16.1753 9.94583 16.3429 9.86203C16.5105 9.77823 16.6432 9.73633 16.727 9.73633C16.8318 9.73633 16.9575 9.82712 17.1111 10.0157C17.2648 10.2042 17.3416 10.3579 17.3416 10.4696C17.3416 10.5953 17.2089 10.8327 16.9435 11.1959C16.734 11.4752 16.5524 11.6987 16.3988 11.8593C16.5455 11.8593 16.6642 11.8523 16.7759 11.8314C16.8877 11.8104 17.0134 11.7755 17.167 11.7266C17.2508 11.6987 17.3206 11.6847 17.3765 11.6847C17.4603 11.6847 17.5511 11.7127 17.6489 11.7755C17.7466 11.8384 17.7955 11.9082 17.7955 11.985C17.7955 12.0479 17.7676 12.0968 17.7187 12.1457C17.6628 12.1876 17.6 12.2155 17.5162 12.2155C17.3695 12.2155 17.181 12.2155 16.9505 12.1945C16.7201 12.1736 16.6083 12.1736 16.6013 12.1736L16.5943 12.1596ZM15.8262 12.6694C15.9169 12.7183 16.0077 12.7881 16.1055 12.8929C16.2312 13.0186 16.2941 13.1164 16.2941 13.1932C16.2941 13.2351 16.2731 13.277 16.2382 13.3189C16.2033 13.3608 16.1614 13.3887 16.1264 13.4236L16.0706 13.4935C16.1474 13.5493 16.315 13.6401 16.5943 13.7728C16.9924 13.9544 17.1879 14.1918 17.1879 14.4782C17.1879 14.6248 17.1391 14.7016 17.0343 14.7016C16.9435 14.7016 16.727 14.4921 16.3848 14.0801C16.2033 13.8566 16.0566 13.7169 15.9588 13.6541C15.6586 13.9474 15.3652 14.1918 15.0789 14.3804C14.6809 14.6458 14.3247 14.7784 14.0174 14.7784C14.0035 14.7784 13.9965 14.7784 13.9895 14.7784C13.9895 14.7784 13.9895 14.7715 13.9895 14.7575C13.9895 14.7435 14.0035 14.7435 14.0174 14.7365C14.0454 14.7156 14.0733 14.7016 14.1012 14.6946C14.3945 14.6108 14.7088 14.4013 15.044 14.0591C15.3373 13.7658 15.5538 13.4795 15.6935 13.2002C15.6935 13.1443 15.6655 13.0395 15.6027 12.8859C15.5747 12.8091 15.5608 12.7532 15.5608 12.7043C15.5608 12.6415 15.5887 12.6136 15.6446 12.6136C15.6795 12.6136 15.7424 12.6345 15.8192 12.6834L15.8262 12.6694Z" fill="black"/>
<path d="M19.8766 11.587C19.7299 11.5102 19.6322 11.4473 19.5623 11.3984C19.4785 11.3356 19.4436 11.2937 19.4436 11.2588C19.4436 11.2169 19.4995 11.1959 19.6182 11.1959C20.135 11.1959 20.5121 11.1889 20.7356 11.168C20.959 11.154 21.1406 11.1191 21.2873 11.0632C21.3222 11.0493 21.378 11.0213 21.4409 10.9934C21.5037 10.9655 21.5596 10.9515 21.5945 10.9515C21.6504 10.9515 21.7202 10.9794 21.811 11.0423C21.8948 11.0981 21.9367 11.161 21.9367 11.2169C21.9367 11.2588 21.9158 11.2937 21.8809 11.3216C21.8459 11.3495 21.7971 11.3635 21.7342 11.3635C21.4549 11.3635 21.1685 11.3845 20.8613 11.4194C20.561 11.4613 20.3584 11.5032 20.2607 11.566C20.2048 11.594 20.1629 11.6149 20.135 11.6289C20.107 11.6429 20.0861 11.6498 20.0651 11.6498C20.0232 11.6498 19.9604 11.6289 19.8766 11.58V11.587ZM20.8962 11.7057C21.1336 11.7057 21.3431 11.7686 21.5107 11.8943C21.7133 12.0479 21.818 12.2644 21.818 12.5437C21.818 12.7672 21.7412 12.9627 21.5876 13.1234C21.4339 13.284 21.2314 13.3678 20.98 13.3678C20.7006 13.3678 20.4702 13.277 20.2746 13.0885C20.1001 12.9208 20.0093 12.7323 20.0093 12.5088C20.0093 12.3203 20.0861 12.1457 20.2327 11.985C20.4073 11.7895 20.6308 11.6987 20.9032 11.6987L20.8962 11.7057ZM20.2397 10.2182C20.4842 10.33 20.7844 10.3858 21.1336 10.3858C21.2803 10.3858 21.3501 10.4277 21.3501 10.5185C21.3501 10.6302 21.2733 10.714 21.1197 10.7629C21.0149 10.7978 20.8962 10.8118 20.7495 10.8118C20.6378 10.8118 20.547 10.8048 20.4772 10.7839C20.4073 10.7629 20.3445 10.721 20.2746 10.6582C20.2048 10.5953 20.1559 10.5325 20.114 10.4696C20.0512 10.3788 20.0163 10.309 20.0163 10.2531C20.0163 10.2112 20.0442 10.1833 20.0931 10.1833C20.135 10.1833 20.1839 10.1973 20.2327 10.2182H20.2397ZM20.9241 12.0898C20.7425 12.0898 20.6099 12.1108 20.5261 12.1596C20.4073 12.2225 20.3515 12.3342 20.3515 12.4879C20.3515 12.6206 20.4143 12.7393 20.547 12.8301C20.6727 12.9208 20.8124 12.9697 20.952 12.9697C21.0917 12.9697 21.2104 12.9278 21.3012 12.851C21.399 12.7742 21.4479 12.6834 21.4479 12.5787C21.4479 12.4739 21.413 12.3691 21.3361 12.2784C21.2384 12.1527 21.0987 12.0898 20.9241 12.0898ZM22.258 9.72936C22.1742 9.65254 22.1323 9.59668 22.1323 9.54779C22.1323 9.49192 22.1881 9.46399 22.2999 9.46399C22.4535 9.46399 22.6421 9.51986 22.8655 9.63858C23.1169 9.77127 23.2427 9.90395 23.2427 10.0436L23.2217 10.2671V12.418C23.2846 12.418 23.4242 12.3831 23.6267 12.3203C23.7315 12.2853 23.8083 12.2714 23.8712 12.2714C23.9689 12.2714 24.0597 12.2923 24.1365 12.3412C24.2134 12.3901 24.2553 12.4599 24.2553 12.5437C24.2553 12.6066 24.2343 12.6555 24.1994 12.6974C24.1645 12.7393 24.1086 12.7602 24.0388 12.7602C23.9899 12.7602 23.8293 12.7323 23.5499 12.6834C23.4242 12.6555 23.3125 12.6485 23.2217 12.6485C23.2217 12.844 23.2147 12.9907 23.2077 13.1094C23.1938 13.4306 23.1658 13.703 23.1309 13.9125C23.11 14.0242 23.0611 14.1919 22.9912 14.4153C22.9005 14.6877 22.8376 14.8204 22.8027 14.8204C22.7887 14.8204 22.7748 14.7645 22.7748 14.6528V14.6109C22.7748 14.4153 22.7748 14.2058 22.7678 13.9754C22.7678 13.7449 22.7538 13.5633 22.7538 13.4237V10.295C22.7119 10.2042 22.6281 10.0995 22.5233 9.98077C22.4395 9.89697 22.3557 9.81317 22.265 9.73635L22.258 9.72936Z" fill="black"/>
<path d="M27.6772 11.2727C27.6772 11.2727 27.7191 11.3425 27.7191 11.3914C27.7191 11.4403 27.6981 11.4962 27.6632 11.552C27.6283 11.6079 27.5445 11.7126 27.4118 11.8663C27.5235 11.9222 27.5864 11.9501 27.6073 11.9571C27.6702 11.985 27.733 11.999 27.8029 12.0199C28.0403 12.0828 28.194 12.1456 28.2498 12.2085C28.3057 12.2713 28.3336 12.3691 28.3336 12.5018C28.3336 12.6065 28.3197 12.6903 28.2847 12.7462C28.2498 12.8021 28.2079 12.83 28.159 12.83C28.1102 12.83 28.0333 12.7602 27.9286 12.6275C27.6492 12.2853 27.4397 12.0758 27.2931 11.999C26.9579 12.3062 26.7623 12.4878 26.7065 12.5297C26.483 12.7043 26.2455 12.823 25.9872 12.8859C25.8964 12.9068 25.7986 12.9278 25.7148 12.9418H25.6938C25.6938 12.9418 25.7148 12.9138 25.7218 12.9138C25.7497 12.8998 25.7916 12.8789 25.8405 12.851C26.071 12.7392 26.3433 12.5088 26.6436 12.1736C26.9788 11.8034 27.1464 11.5101 27.1464 11.2936C27.1464 11.1819 27.1185 11.0981 27.0696 11.0492C26.9928 11.0492 26.923 11.0562 26.8741 11.0771C26.8252 11.0981 26.7693 11.1121 26.7134 11.133C26.6436 11.133 26.5249 11.0771 26.3503 10.9794C26.1757 10.8746 26.0919 10.7978 26.0919 10.7489C26.0919 10.714 26.1268 10.7 26.2036 10.7H26.3782C26.6157 10.7 26.8182 10.693 26.9788 10.6721C27.2372 10.6372 27.4677 10.5813 27.6562 10.4905C27.6981 10.4626 27.733 10.4416 27.754 10.4347C27.8168 10.3997 27.8727 10.3858 27.9286 10.3858C28.0124 10.3858 28.0962 10.4137 28.18 10.4626C28.2568 10.5185 28.2987 10.5813 28.2987 10.6651C28.2987 10.7699 28.194 10.8397 27.9914 10.8746C27.8308 10.9026 27.6632 10.9235 27.5026 10.9445C27.5026 10.9864 27.5235 11.0352 27.5585 11.0981C27.5934 11.1609 27.6353 11.2238 27.6842 11.2797L27.6772 11.2727ZM28.7526 9.70138C28.6688 9.62456 28.6269 9.5687 28.6269 9.51981C28.6269 9.47093 28.6758 9.44299 28.7806 9.44299C28.9272 9.44299 29.1228 9.50584 29.3602 9.63853C29.6046 9.76424 29.7234 9.89692 29.7234 10.0296C29.7234 10.0575 29.7234 10.0994 29.7094 10.1553C29.6954 10.2112 29.6954 10.2461 29.6954 10.2601V12.4319C29.6954 12.8649 29.6745 13.242 29.6256 13.5633C29.5767 13.8845 29.4929 14.2267 29.3672 14.5829C29.3462 14.6457 29.3253 14.7016 29.2974 14.7435C29.2904 14.7575 29.2764 14.7714 29.2694 14.7854C29.2694 14.7714 29.2624 14.7435 29.2555 14.7156C29.2555 14.6876 29.2555 14.6667 29.2555 14.6457V14.527C29.2555 14.3315 29.2555 13.9404 29.2415 13.3468C29.2345 12.7532 29.2275 12.1875 29.2136 11.6638C29.1996 11.14 29.1996 10.6511 29.1926 10.2182C29.1577 10.1483 29.1088 10.0715 29.0459 9.98771C28.9621 9.88296 28.8644 9.79217 28.7526 9.70138Z" fill="black"/>
<path d="M36.26 10.1135C36.6301 10.1135 36.9164 10.2322 37.1189 10.4696C37.2796 10.6582 37.3564 10.8677 37.3564 11.0981C37.3564 11.3426 37.2796 11.5451 37.1259 11.7267C36.9583 11.9222 36.7348 12.02 36.4625 12.02C36.1692 12.02 35.9108 11.9292 35.6803 11.7546C35.4289 11.5591 35.3032 11.3286 35.3032 11.0493C35.3032 10.7839 35.401 10.5674 35.5895 10.3858C35.7851 10.2042 36.0016 10.1135 36.253 10.1135H36.26ZM36.3089 10.4836C36.1552 10.4836 36.0155 10.5464 35.8759 10.6652C35.7362 10.7839 35.6664 10.9166 35.6664 11.0632C35.6664 11.2238 35.7432 11.3565 35.8898 11.4613C36.0365 11.566 36.2111 11.6149 36.4136 11.6149C36.5742 11.6149 36.7139 11.5591 36.8256 11.4543C36.9374 11.3495 36.9932 11.2238 36.9932 11.0981C36.9932 10.9375 36.9304 10.7909 36.7907 10.6721C36.651 10.5534 36.4974 10.4906 36.3019 10.4906L36.3089 10.4836ZM35.7851 12.9208C35.7362 12.844 35.7083 12.7882 35.7083 12.7602C35.7083 12.7113 35.7502 12.6834 35.827 12.6834C35.9527 12.6834 36.0924 12.7253 36.253 12.8021C36.4346 12.8929 36.5253 12.9977 36.5253 13.1094C36.5253 13.1234 36.5253 13.1653 36.5044 13.2351C36.4834 13.3049 36.4834 13.3608 36.4834 13.4097V13.8566C36.4834 13.9404 36.4974 13.9963 36.5184 14.0103C36.5393 14.0242 36.5952 14.0382 36.686 14.0382H36.7139C36.7907 14.0382 36.9304 14.0103 37.1399 13.9544C37.2446 13.9265 37.3285 13.9125 37.3913 13.9125C37.4611 13.9125 37.4961 13.9404 37.4961 13.9893C37.4961 14.136 37.3773 14.2687 37.1329 14.3944C36.9234 14.5061 36.7418 14.562 36.5952 14.562C36.4904 14.562 36.4066 14.5131 36.3298 14.4153C36.253 14.3176 36.2181 14.1918 36.2181 14.0452C36.2181 13.8497 36.1971 13.703 36.1622 13.5913C36.1063 13.4306 35.9876 13.2072 35.7851 12.9208ZM37.3075 13.1304C37.2167 13.0815 37.1748 13.0396 37.1748 13.0046C37.1748 12.9837 37.2237 12.9767 37.3285 12.9767H37.9081C38.0547 12.9767 38.1944 12.9767 38.3341 12.9627C38.4668 12.9558 38.5855 12.9348 38.6833 12.8929C38.802 12.837 38.9137 12.8091 39.0115 12.8091C39.0813 12.8091 39.1512 12.8301 39.214 12.865C39.2769 12.8999 39.3048 12.9627 39.3048 13.0326C39.3048 13.0815 39.2908 13.1234 39.2559 13.1583C39.228 13.1932 39.1791 13.2142 39.1232 13.2142C39.0813 13.2142 38.9975 13.2142 38.8648 13.2002C38.7321 13.1862 38.6623 13.1862 38.6483 13.1862C38.4668 13.1862 38.3411 13.1862 38.2782 13.2002C38.2154 13.2072 38.1176 13.2351 37.9919 13.277C37.943 13.298 37.9081 13.3119 37.8871 13.3189C37.8522 13.3329 37.8243 13.3399 37.7894 13.3399C37.7335 13.3399 37.6567 13.3119 37.5449 13.263C37.4821 13.2351 37.4053 13.1932 37.3145 13.1373L37.3075 13.1304ZM37.6357 12.3482C37.6078 12.3133 37.5938 12.2784 37.5938 12.2504C37.5938 12.2085 37.6287 12.1876 37.6986 12.1876C37.7894 12.1876 37.8941 12.2015 38.0198 12.2295C38.3131 12.2993 38.4947 12.3342 38.5645 12.3342C38.6902 12.3342 38.7461 12.3761 38.7461 12.4599C38.7461 12.5507 38.6763 12.6275 38.5436 12.6834C38.4388 12.7253 38.3271 12.7463 38.2223 12.7463C38.0687 12.7463 37.936 12.6904 37.8243 12.5717C37.7824 12.5298 37.7195 12.4529 37.6427 12.3482H37.6357ZM38.348 13.4306C38.5855 13.4306 38.781 13.4935 38.9347 13.6332C39.0883 13.7728 39.1651 13.9404 39.1651 14.1639C39.1651 14.4014 39.0674 14.5759 38.8788 14.6947C38.7391 14.7785 38.5855 14.8204 38.4109 14.8204C38.2363 14.8204 38.0827 14.7715 37.936 14.6667C37.7405 14.534 37.6427 14.3525 37.6427 14.129C37.6427 13.9265 37.7265 13.7519 37.8871 13.6122C38.0338 13.4865 38.1874 13.4306 38.355 13.4306H38.348ZM37.9779 9.73635C37.8941 9.65254 37.8522 9.58969 37.8522 9.54779C37.8522 9.49192 37.9151 9.46399 38.0338 9.46399C38.1735 9.46399 38.355 9.53382 38.5855 9.6735C38.8159 9.81317 38.9347 9.94586 38.9347 10.0716L38.9137 10.2531V11.4473H38.9696C39.0394 11.4473 39.1302 11.4194 39.2489 11.3635C39.3676 11.3076 39.4514 11.2797 39.5073 11.2797C39.5911 11.2797 39.6819 11.3076 39.7657 11.3565C39.8495 11.4054 39.8984 11.4683 39.8984 11.5451C39.8984 11.601 39.8774 11.6498 39.8355 11.6848C39.7936 11.7197 39.7378 11.7406 39.661 11.7406C39.5283 11.7267 39.4095 11.7197 39.3118 11.7127C39.214 11.7057 39.0813 11.6987 38.9207 11.6987C38.8299 11.8314 38.7461 11.9571 38.6553 12.0828C38.5785 12.1876 38.5296 12.2365 38.5087 12.2365C38.4947 12.2365 38.4877 12.2225 38.4807 12.1876C38.4738 12.1527 38.4807 12.1317 38.4807 12.1247V12.02C38.4807 11.8105 38.4807 11.5521 38.4668 11.2378C38.4598 10.9236 38.4458 10.6163 38.4388 10.309C38.4109 10.2252 38.348 10.1274 38.2503 10.0087C38.1525 9.88998 38.0687 9.7992 37.9849 9.72936L37.9779 9.73635ZM38.3969 13.7309C38.2573 13.7309 38.1455 13.7659 38.0757 13.8357C37.9989 13.9055 37.964 13.9823 37.964 14.0661C37.964 14.1919 38.0059 14.2896 38.0897 14.3664C38.1735 14.4433 38.2852 14.4782 38.4319 14.4782C38.5785 14.4782 38.6693 14.4572 38.7321 14.4083C38.809 14.3525 38.8509 14.2547 38.8509 14.122C38.8509 14.0173 38.809 13.9265 38.7321 13.8497C38.6553 13.7728 38.5436 13.7379 38.4039 13.7379L38.3969 13.7309Z" fill="black"/>
<path d="M42.4824 10.7071C42.8735 10.7071 43.1598 10.8328 43.3554 11.0912C43.523 11.3077 43.6068 11.58 43.6068 11.9013C43.6068 12.1178 43.502 12.3203 43.2995 12.5019C43.097 12.6834 42.8735 12.7742 42.6221 12.7742C42.3427 12.7742 42.0774 12.6625 41.8329 12.446C41.5746 12.2155 41.4489 11.9502 41.4489 11.6638C41.4489 11.3915 41.5536 11.168 41.7701 10.9864C41.9866 10.8049 42.224 10.7071 42.4754 10.7071H42.4824ZM42.5104 11.1331C42.3358 11.1331 42.1821 11.189 42.0425 11.2937C41.9028 11.4054 41.8329 11.5311 41.8329 11.6918C41.8329 11.8594 41.9168 12.006 42.0844 12.1317C42.252 12.2574 42.4335 12.3203 42.6361 12.3203C42.7967 12.3203 42.9294 12.2574 43.0411 12.1317C43.1528 12.006 43.2087 11.8803 43.2087 11.7476C43.2087 11.573 43.1459 11.4334 43.0271 11.3147C42.9084 11.1959 42.7338 11.1401 42.5173 11.1401L42.5104 11.1331ZM44.2213 9.72939C44.1375 9.65257 44.0956 9.58972 44.0956 9.54083C44.0956 9.48496 44.1515 9.45703 44.2632 9.45703C44.4308 9.45703 44.6264 9.5129 44.8429 9.62463C45.0943 9.75034 45.22 9.89001 45.22 10.0436L45.199 10.2671V12.2714C45.2619 12.2714 45.3387 12.2574 45.4225 12.2365C45.618 12.1806 45.7437 12.1527 45.7996 12.1527C45.9113 12.1527 46.0231 12.1806 46.1208 12.2295C46.2186 12.2784 46.2745 12.3552 46.2745 12.46C46.2745 12.5158 46.2535 12.5647 46.2186 12.6066C46.1837 12.6485 46.1278 12.6695 46.065 12.6695C45.9812 12.6695 45.8485 12.6485 45.6529 12.6066C45.4574 12.5647 45.3108 12.5438 45.206 12.5438C45.206 12.7463 45.199 12.9069 45.192 13.0256C45.1781 13.3748 45.1501 13.6402 45.1152 13.8217C45.0803 13.9963 45.0314 14.1849 44.9755 14.3874C44.8917 14.6737 44.8289 14.8204 44.794 14.8204C44.78 14.8204 44.766 14.7994 44.7591 14.7506C44.7521 14.7017 44.7521 14.6388 44.7521 14.548V14.4223C44.7521 14.2338 44.7521 14.0452 44.7451 13.8497C44.7381 13.6541 44.7311 13.5075 44.7311 13.3888V10.2881C44.6962 10.2043 44.6124 10.0995 44.4937 9.97381C44.4099 9.89001 44.3261 9.80621 44.2283 9.72939H44.2213Z" fill="black"/>
<path d="M49.7033 13.4167L50.8905 13.3818V13.2561C50.8905 13.0955 50.8836 12.9698 50.8696 12.865C50.8556 12.7602 50.8277 12.6695 50.7788 12.5857C50.7229 12.4809 50.695 12.4041 50.695 12.3552C50.695 12.3063 50.7229 12.2784 50.7718 12.2784C50.8486 12.2784 50.9674 12.3203 51.121 12.4111C51.2746 12.4949 51.3514 12.5787 51.3514 12.6485C51.3514 12.6834 51.3445 12.7253 51.3235 12.7882C51.3026 12.851 51.2886 12.8999 51.2886 12.9348L51.2607 13.3399C51.3165 13.3399 51.4562 13.3119 51.6867 13.2631C51.7914 13.2351 51.8752 13.2281 51.945 13.2281C52.0358 13.2281 52.1266 13.2631 52.2244 13.3259C52.3152 13.3888 52.3641 13.4656 52.3641 13.5494C52.3641 13.6122 52.3361 13.6611 52.2872 13.703C52.2384 13.7449 52.1755 13.7659 52.0987 13.7659C52.0009 13.7659 51.8333 13.7519 51.6098 13.731C51.3794 13.71 51.2327 13.696 51.1559 13.696C50.6461 13.696 50.1782 13.71 49.7452 13.7449C49.3123 13.7729 49.012 13.8217 48.8444 13.8916C48.8164 13.8986 48.7536 13.9265 48.6488 13.9684C48.593 13.9963 48.5441 14.0033 48.5091 14.0033C48.4253 14.0033 48.2647 13.9405 48.0343 13.8148C47.7968 13.6891 47.6781 13.5983 47.6781 13.5354C47.6781 13.4935 47.734 13.4656 47.8457 13.4656H48.2717C48.5441 13.4656 48.7675 13.4656 48.9421 13.4656C49.1167 13.4656 49.2913 13.4516 49.4449 13.4376C49.4449 13.3259 49.403 13.2002 49.3262 13.0536C49.2354 12.8929 49.1446 12.7323 49.0539 12.5717C49.0539 12.5228 49.0888 12.4949 49.1586 12.4949C49.2634 12.4949 49.3891 12.5298 49.5357 12.5996C49.6824 12.6695 49.7592 12.7533 49.7592 12.844C49.7592 12.851 49.7592 12.8929 49.7382 12.9628C49.7173 13.0326 49.7173 13.0885 49.7173 13.1374V13.4167H49.7033ZM50.1992 10.0925C50.5902 10.0925 50.8905 10.2392 51.0931 10.5255C51.2467 10.742 51.3235 10.9794 51.3235 11.2308C51.3235 11.4543 51.2257 11.6638 51.0232 11.8664C50.8207 12.0619 50.5972 12.1666 50.3458 12.1666C50.0525 12.1666 49.7802 12.0689 49.5148 11.8664C49.2285 11.6429 49.0888 11.3915 49.0888 11.1121C49.0888 10.8328 49.1796 10.6023 49.3681 10.4138C49.5706 10.2043 49.85 10.0995 50.1992 10.0995V10.0925ZM50.1992 10.4557C50.0106 10.4557 49.85 10.5115 49.7103 10.6163C49.5427 10.742 49.4589 10.9096 49.4589 11.1261C49.4589 11.3007 49.5427 11.4473 49.7103 11.5661C49.8779 11.6848 50.0665 11.7476 50.269 11.7476C50.4715 11.7476 50.6391 11.6848 50.7718 11.5521C50.9045 11.4194 50.9743 11.2867 50.9743 11.147C50.9743 10.9794 50.8905 10.8188 50.7299 10.6722C50.5693 10.5255 50.3947 10.4487 50.2061 10.4487L50.1992 10.4557Z" fill="black"/>
</svg>
