<svg width="60" height="23" viewBox="0 0 60 23" fill="none" xmlns="http://www.w3.org/2000/svg">
<path d="M5.38733 1.22327H56.8002L54.6702 4.57537L57.8338 7.33387L55.2708 9.89683L58.176 12.802L55.0194 15.9586L57.729 18.6682L54.8727 21.5244H6.97259" fill="white"/>
<path d="M5.38733 1.22327H56.8002L54.6702 4.57537L57.8338 7.33387L55.2708 9.89683L58.176 12.802L55.0194 15.9586L57.729 18.6682L54.8727 21.5244H6.97259" stroke="black" stroke-width="1.41" stroke-miterlimit="10"/>
<path d="M5.79932 1.02783L1.97234 4.17043L4.68195 6.88004L1.52539 10.0366L4.43054 12.9418L1.8606 15.5047L5.03113 18.2632L2.90115 21.6153L6.97255 21.5245" fill="white"/>
<path d="M5.79932 1.02783L1.97234 4.17043L4.68195 6.88004L1.52539 10.0366L4.43054 12.9418L1.8606 15.5047L5.03113 18.2632L2.90115 21.6153L6.97255 21.5245" stroke="black" stroke-width="1.41" stroke-miterlimit="10"/>
<path d="M14.4589 13.6541C13.991 13.6541 13.53 13.6681 13.0761 13.703C12.6152 13.731 12.28 13.7938 12.0495 13.8776C12.0076 13.8916 11.9448 13.9195 11.868 13.9614C11.8191 13.9894 11.7772 13.9963 11.7353 13.9963C11.6375 13.9963 11.4629 13.9335 11.2045 13.8078C10.9461 13.6821 10.8204 13.5773 10.8204 13.5005C10.8204 13.4726 10.8414 13.4516 10.8763 13.4377C10.9112 13.4237 10.9741 13.4167 11.0649 13.4167H11.2813C11.5956 13.4167 12.0425 13.4027 12.6222 13.3748C12.8177 13.3678 13.0761 13.3539 13.4113 13.3329C13.977 12.6765 14.2633 12.1527 14.2633 11.7616C14.2633 11.6289 14.1935 11.4543 14.0468 11.2378C13.9002 11.0214 13.7815 10.9096 13.6837 10.9096C13.6069 10.9096 13.4812 10.9864 13.2926 11.1471C13.104 11.3077 12.9574 11.3845 12.8387 11.3845C12.7339 11.3845 12.6082 11.3566 12.4616 11.3077C12.28 11.2448 12.1892 11.168 12.1892 11.0842C12.1892 10.9934 12.4197 10.8468 12.8876 10.6373C13.3485 10.4277 13.6418 10.323 13.7465 10.323C13.956 10.323 14.1935 10.4976 14.4449 10.8398C14.6963 11.182 14.822 11.4753 14.822 11.7127C14.822 11.7895 14.815 11.8454 14.8011 11.8943C14.7871 11.9432 14.7592 11.9921 14.7242 12.0479C14.5846 12.2365 14.4239 12.439 14.2354 12.6625C14.0259 12.9139 13.8303 13.1304 13.6418 13.3259C13.991 13.3259 14.2563 13.305 14.4379 13.2701C14.5985 13.2212 14.7172 13.1863 14.7941 13.1583C14.8709 13.1304 14.9617 13.1164 15.0455 13.1164C15.1782 13.1164 15.3039 13.1444 15.4156 13.1932C15.5623 13.2631 15.6321 13.3608 15.6321 13.4796C15.6321 13.5424 15.6111 13.5983 15.5692 13.6472C15.5273 13.696 15.4715 13.717 15.3946 13.717C15.3178 13.717 15.2131 13.717 15.0734 13.696C14.7592 13.6681 14.5496 13.6541 14.4519 13.6541H14.4589Z" fill="black"/>
<path d="M17.5316 11.4754C17.4757 11.4404 17.4478 11.3985 17.4478 11.3427C17.4478 11.3008 17.4687 11.2658 17.5176 11.2379C17.5665 11.21 17.6363 11.196 17.7271 11.196C18.0344 11.196 18.2718 11.182 18.4534 11.1471C18.628 11.1122 18.7886 11.0703 18.9283 11.0144V10.5116C18.7677 10.5116 18.6489 10.5116 18.5791 10.5326C18.5093 10.5465 18.4324 10.5745 18.3486 10.6164C18.2998 10.6443 18.2578 10.6653 18.2229 10.6792C18.188 10.6932 18.1461 10.7072 18.1112 10.7072C18.0414 10.7072 17.9157 10.6583 17.7411 10.5535C17.5665 10.4488 17.4757 10.372 17.4757 10.3231C17.4757 10.2951 17.5036 10.2812 17.5525 10.2742C17.6014 10.2672 17.6712 10.2602 17.755 10.2602H18.0204C18.195 10.2602 18.3416 10.2602 18.4534 10.2393C18.5651 10.2183 18.6769 10.1974 18.7746 10.1624C18.8375 10.1275 18.9073 10.0996 18.9772 10.0647C19.04 10.0647 19.1448 10.1205 19.2775 10.2393C19.4171 10.358 19.48 10.4418 19.48 10.5046C19.48 10.5256 19.466 10.5535 19.4381 10.5884C19.4101 10.6234 19.3892 10.6583 19.3682 10.6932C19.3473 10.7281 19.3263 10.791 19.2984 10.8887C19.2705 10.9795 19.2495 11.0494 19.2286 11.0773C19.2774 11.1052 19.3124 11.1262 19.3403 11.1541C19.3822 11.196 19.4031 11.2379 19.4031 11.2798C19.4031 11.3915 19.2286 11.4823 18.8794 11.5522C18.4883 11.608 18.2648 11.636 18.202 11.6499V12.0829C18.202 12.1528 18.209 12.1947 18.2299 12.2016C18.2509 12.2156 18.2997 12.2296 18.3766 12.2296H18.4604C18.5931 12.2296 18.7676 12.2016 18.9702 12.1528C19.1727 12.1039 19.3124 12.0759 19.3892 12.0759C19.4869 12.0759 19.5358 12.1109 19.5358 12.1807C19.5358 12.3413 19.4031 12.481 19.1378 12.6137C18.9143 12.7184 18.7188 12.7743 18.5512 12.7743C18.4185 12.7743 18.2788 12.7254 18.1252 12.6207C17.9506 12.5089 17.8668 12.3832 17.8668 12.2505C17.8668 12.2226 17.8737 12.1458 17.8947 11.9991C17.9017 11.9432 17.9087 11.8874 17.9087 11.8315V11.7617C17.8738 11.7268 17.8319 11.6849 17.769 11.6499C17.6363 11.5661 17.5595 11.5173 17.5316 11.4963V11.4754ZM18.3766 13.2492H18.8515C19.1517 13.2492 19.3962 13.2492 19.5987 13.2352C19.8012 13.2212 19.9828 13.2003 20.1574 13.1654C20.2132 13.1514 20.2831 13.1235 20.3808 13.0886C20.4786 13.0536 20.5415 13.0257 20.5694 13.0257C20.6183 13.0257 20.7161 13.0816 20.8557 13.1793C20.9954 13.2841 21.0652 13.3609 21.0652 13.4028C21.0652 13.4238 21.0582 13.4517 21.0373 13.4936C21.0163 13.5355 21.0024 13.5704 20.9954 13.5983C20.9814 13.7101 20.9675 13.8218 20.9535 13.9196C20.9186 14.1012 20.8627 14.2827 20.7789 14.4573C20.737 14.5481 20.7021 14.6179 20.6881 14.6459C20.6323 14.7506 20.5973 14.7995 20.5694 14.7995C20.5554 14.7995 20.5415 14.7856 20.5345 14.7576C20.5275 14.7297 20.5205 14.6808 20.5205 14.604L20.4926 13.4726C20.1434 13.4726 19.871 13.4866 19.6685 13.5146C19.466 13.5425 19.2914 13.5844 19.1587 13.6403C19.0959 13.6682 19.054 13.6822 19.033 13.6891C18.9981 13.7031 18.9632 13.7101 18.9353 13.7101C18.8584 13.7101 18.7188 13.6612 18.5162 13.5564C18.3137 13.4517 18.2159 13.3749 18.2159 13.312C18.2159 13.2771 18.2718 13.2562 18.3766 13.2562V13.2492ZM20.1294 9.70153C20.0736 9.63868 20.0456 9.58281 20.0456 9.54091C20.0456 9.47108 20.1015 9.43616 20.2202 9.43616C20.3669 9.43616 20.5485 9.49203 20.7719 9.61075C21.0233 9.74343 21.149 9.87612 21.149 10.0018L21.1281 10.2113V11.0494C21.1281 11.1751 21.1281 11.3147 21.1211 11.4823C21.1141 11.6499 21.1141 11.7337 21.1141 11.7337C21.1141 11.8455 21.0652 12.0759 20.9744 12.4111C20.8697 12.7883 20.7789 12.9768 20.7021 12.9768C20.6881 12.9768 20.6742 12.9489 20.6672 12.9C20.6602 12.8511 20.6532 12.7952 20.6532 12.7394V11.5731C20.5764 11.5731 20.4926 11.6011 20.3878 11.6499C20.2831 11.7058 20.2132 11.7268 20.1853 11.7268C20.1294 11.7268 20.0247 11.6709 19.878 11.5592C19.7314 11.4474 19.6546 11.3706 19.6546 11.3217C19.6546 11.2798 19.7034 11.2658 19.7942 11.2658H20.1364C20.2202 11.2658 20.2901 11.2658 20.3459 11.2519C20.4018 11.2379 20.4926 11.217 20.6322 11.182V10.2463C20.5903 10.1624 20.5205 10.0717 20.4297 9.97389C20.3389 9.87612 20.2482 9.77835 20.1504 9.68757L20.1294 9.70153Z" fill="black"/>
<path d="M25.4161 11.4403C25.444 11.4822 25.451 11.5241 25.451 11.5591C25.451 11.6219 25.423 11.6917 25.3602 11.7686C25.3462 11.7825 25.2764 11.8593 25.1437 11.999C25.2485 12.0619 25.3532 12.1247 25.4649 12.1876C25.5487 12.2504 25.5906 12.3272 25.5906 12.4111V12.5018C25.5906 12.7812 25.5627 13.0256 25.5068 13.2351C25.451 13.4446 25.3811 13.5564 25.2903 13.5564C25.2554 13.5564 25.2415 13.5145 25.2415 13.4376C25.2415 13.1304 25.2135 12.858 25.1577 12.6136C25.1018 12.3692 25.025 12.2295 24.9342 12.2015C24.6967 12.4041 24.4733 12.5647 24.2708 12.6764C23.9984 12.8231 23.747 12.8999 23.4956 12.8999L23.4677 12.8859C23.4677 12.8859 23.4886 12.872 23.4956 12.865C23.5235 12.851 23.5654 12.8301 23.6213 12.8091C23.8378 12.7393 24.1032 12.5507 24.4034 12.2434C24.7387 11.9152 24.9063 11.6429 24.9063 11.4403C24.9063 11.3565 24.8644 11.2518 24.7875 11.1261C24.7177 11.1261 24.6549 11.14 24.599 11.161C24.5431 11.1819 24.5012 11.1959 24.4733 11.1959C24.4104 11.1959 24.2847 11.14 24.0962 11.0423C23.9076 10.9375 23.8168 10.8607 23.8168 10.8188C23.8168 10.7839 23.8587 10.7699 23.9355 10.7699H24.0682C24.3127 10.7699 24.5152 10.7629 24.6758 10.742C24.9482 10.7071 25.1646 10.6512 25.3253 10.5604C25.4021 10.5185 25.4649 10.4906 25.5208 10.4626C25.5767 10.4347 25.6186 10.4277 25.6535 10.4277C25.7233 10.4277 25.8071 10.4626 25.8979 10.5325C25.9887 10.6023 26.0376 10.6721 26.0376 10.735C26.0376 10.8188 25.9189 10.8817 25.6814 10.9236C25.3532 10.9794 25.1716 11.0143 25.1507 11.0213C25.1507 11.0562 25.1856 11.1261 25.2484 11.2308C25.2973 11.3076 25.3462 11.3775 25.4021 11.4473L25.4161 11.4403ZM26.5334 12.0968C26.4706 12.1527 26.4147 12.1736 26.3798 12.1736C26.3239 12.1736 26.2261 12.1177 26.0795 12.006C25.9328 11.8943 25.863 11.8175 25.863 11.7616C25.863 11.7197 25.9119 11.6987 26.0027 11.6987H26.3518C26.4776 11.6987 26.5753 11.6987 26.6521 11.6778C26.729 11.6568 26.8128 11.6289 26.9105 11.58V10.2392C26.8686 10.1344 26.708 9.96681 26.4357 9.73635C26.3169 9.6316 26.2611 9.56875 26.2611 9.53383C26.2611 9.464 26.3379 9.42908 26.4985 9.42908C26.6312 9.42908 26.8128 9.49193 27.0432 9.61065C27.3016 9.75032 27.4273 9.88301 27.4273 10.0017C27.4273 10.0157 27.4273 10.0576 27.4134 10.1204C27.3994 10.1833 27.3994 10.2322 27.3994 10.2811V12.5856C27.3994 13.1094 27.3714 13.5284 27.3226 13.8497C27.2737 14.1709 27.2108 14.4083 27.134 14.5759C27.0712 14.7086 27.0293 14.7785 27.0083 14.7785C26.9943 14.7785 26.9804 14.7575 26.9804 14.7226C26.9804 14.6807 26.9804 14.6318 26.9804 14.569V14.5341C26.9804 14.3106 26.9804 14.0243 26.9664 13.6681C26.9594 13.3189 26.9454 12.9977 26.9385 12.7113C26.9315 12.425 26.9245 12.1806 26.9175 11.9851L26.7709 12.006C26.6661 12.027 26.5893 12.0549 26.5404 12.0898L26.5334 12.0968Z" fill="black"/>
<path d="M30.088 11.4754C30.0321 11.4404 30.0042 11.3985 30.0042 11.3427C30.0042 11.3008 30.0251 11.2658 30.074 11.2379C30.1229 11.21 30.1927 11.196 30.2835 11.196C30.5908 11.196 30.8282 11.182 31.0098 11.1471C31.1844 11.1122 31.345 11.0703 31.4847 11.0144V10.5116C31.324 10.5116 31.2053 10.5116 31.1355 10.5326C31.0657 10.5465 30.9888 10.5745 30.905 10.6164C30.8561 10.6443 30.8142 10.6653 30.7793 10.6792C30.7444 10.6932 30.7025 10.7072 30.6676 10.7072C30.5978 10.7072 30.4721 10.6583 30.2975 10.5535C30.1229 10.4488 30.0321 10.372 30.0321 10.3231C30.0321 10.2951 30.06 10.2812 30.1089 10.2742C30.1578 10.2672 30.2276 10.2602 30.3114 10.2602H30.5768C30.7514 10.2602 30.898 10.2602 31.0098 10.2393C31.1215 10.2183 31.2333 10.1974 31.331 10.1624C31.3939 10.1275 31.4637 10.0996 31.5335 10.0647C31.5964 10.0647 31.7012 10.1205 31.8338 10.2393C31.9735 10.358 32.0364 10.4418 32.0364 10.5046C32.0364 10.5256 32.0224 10.5535 31.9945 10.5884C31.9665 10.6234 31.9456 10.6583 31.9246 10.6932C31.9037 10.7281 31.8827 10.791 31.8548 10.8887C31.8269 10.9795 31.8059 11.0494 31.785 11.0773C31.8338 11.1052 31.8688 11.1262 31.8967 11.1541C31.9386 11.196 31.9595 11.2379 31.9595 11.2798C31.9595 11.3915 31.785 11.4823 31.4358 11.5522C31.0447 11.608 30.8212 11.636 30.7584 11.6499V12.0829C30.7584 12.1528 30.7654 12.1947 30.7863 12.2016C30.8073 12.2156 30.8561 12.2296 30.933 12.2296H31.0168C31.1495 12.2296 31.324 12.2016 31.5266 12.1528C31.7291 12.1039 31.8688 12.0759 31.9456 12.0759C32.0434 12.0759 32.0922 12.1109 32.0922 12.1807C32.0922 12.3413 31.9596 12.481 31.6942 12.6137C31.4707 12.7184 31.2752 12.7743 31.1076 12.7743C30.9749 12.7743 30.8352 12.7254 30.6816 12.6207C30.507 12.5089 30.4232 12.3832 30.4232 12.2505C30.4232 12.2226 30.4302 12.1458 30.4511 11.9991C30.4581 11.9432 30.4651 11.8874 30.4651 11.8315V11.7617C30.4301 11.7268 30.3883 11.6849 30.3254 11.6499C30.1927 11.5661 30.1159 11.5173 30.088 11.4963V11.4754ZM30.933 13.2492H31.4078C31.7081 13.2492 31.9526 13.2492 32.1551 13.2352C32.3576 13.2212 32.5392 13.2003 32.7138 13.1654C32.7696 13.1514 32.8395 13.1235 32.9372 13.0886C33.035 13.0536 33.0979 13.0257 33.1258 13.0257C33.1747 13.0257 33.2725 13.0816 33.4121 13.1793C33.5518 13.2841 33.6216 13.3609 33.6216 13.4028C33.6216 13.4238 33.6147 13.4517 33.5937 13.4936C33.5728 13.5355 33.5588 13.5704 33.5518 13.5983C33.5378 13.7101 33.5239 13.8218 33.5099 13.9196C33.475 14.1012 33.4191 14.2827 33.3353 14.4573C33.2934 14.5481 33.2585 14.6179 33.2445 14.6459C33.1887 14.7506 33.1537 14.7995 33.1258 14.7995C33.1118 14.7995 33.0979 14.7856 33.0909 14.7576C33.0839 14.7297 33.0769 14.6808 33.0769 14.604L33.049 13.4726C32.6998 13.4726 32.4274 13.4866 32.2249 13.5146C32.0224 13.5425 31.8478 13.5844 31.7151 13.6403C31.6523 13.6682 31.6104 13.6822 31.5894 13.6891C31.5545 13.7031 31.5196 13.7101 31.4916 13.7101C31.4148 13.7101 31.2752 13.6612 31.0726 13.5564C30.8701 13.4517 30.7723 13.3749 30.7723 13.312C30.7723 13.2771 30.8282 13.2562 30.933 13.2562V13.2492ZM32.6858 9.70153C32.63 9.63868 32.602 9.58281 32.602 9.54091C32.602 9.47108 32.6579 9.43616 32.7766 9.43616C32.9233 9.43616 33.1049 9.49203 33.3283 9.61075C33.5797 9.74343 33.7054 9.87612 33.7054 10.0018L33.6845 10.2113V11.0494C33.6845 11.1751 33.6845 11.3147 33.6775 11.4823C33.6705 11.6499 33.6705 11.7337 33.6705 11.7337C33.6705 11.8455 33.6216 12.0759 33.5308 12.4111C33.4261 12.7883 33.3353 12.9768 33.2585 12.9768C33.2445 12.9768 33.2305 12.9489 33.2236 12.9C33.2166 12.8511 33.2096 12.7952 33.2096 12.7394V11.5731C33.1328 11.5731 33.049 11.6011 32.9442 11.6499C32.8395 11.7058 32.7696 11.7268 32.7417 11.7268C32.6858 11.7268 32.5811 11.6709 32.4344 11.5592C32.2878 11.4474 32.211 11.3706 32.211 11.3217C32.211 11.2798 32.2598 11.2658 32.3506 11.2658H32.6928C32.7766 11.2658 32.8465 11.2658 32.9023 11.2519C32.9582 11.2379 33.049 11.217 33.1887 11.182V10.2463C33.1468 10.1624 33.0769 10.0717 32.9861 9.97389C32.8953 9.87612 32.8046 9.77835 32.7068 9.68757L32.6858 9.70153Z" fill="black"/>
<path d="M39.2226 10.8817C39.3133 10.8258 39.4041 10.7979 39.5019 10.7979C39.7324 10.7979 39.9139 10.8747 40.0536 11.0213C40.1933 11.168 40.2631 11.3565 40.2631 11.594V11.6498C40.2631 11.6498 40.312 11.7267 40.3329 11.7755C40.3539 11.8244 40.3609 11.8663 40.3609 11.9013C40.3609 11.9571 40.3329 11.992 40.2841 12.013C40.2352 12.0339 40.1933 12.0549 40.1514 12.0689C39.9768 12.1596 39.8022 12.2574 39.6276 12.3482C39.3832 12.4739 39.2016 12.5298 39.0899 12.5298C39.0759 12.5298 39.0689 12.5298 39.0619 12.5298L39.048 12.5158C39.048 12.5158 39.0969 12.4669 39.1178 12.4599C39.2645 12.3901 39.4321 12.2784 39.6136 12.1177C39.7743 11.9781 39.9139 11.8314 40.0257 11.6917C39.9628 11.4822 39.7393 11.3356 39.3692 11.2448C39.2086 11.2099 39.1318 11.14 39.1318 11.0423C39.1318 10.9864 39.1597 10.9375 39.2226 10.8886V10.8817ZM40.3399 10.742C40.4307 10.6861 40.5145 10.6582 40.6053 10.6582C40.8288 10.6582 40.9964 10.742 41.1151 10.9166C41.2129 11.0632 41.2757 11.2518 41.3037 11.4962C41.3805 11.6079 41.4224 11.6708 41.4294 11.6778C41.4713 11.7476 41.4922 11.8244 41.4922 11.9013C41.4922 11.992 41.4643 12.0619 41.4084 12.0898C41.3525 12.1247 41.2967 12.1527 41.2338 12.1806C40.8846 12.4599 40.6053 12.6625 40.3958 12.7882C40.1863 12.9139 40.0187 12.9767 39.893 12.9767H39.865C39.865 12.9767 39.886 12.9488 39.893 12.9488C39.9139 12.9348 39.9349 12.9209 39.9488 12.9139C40.0955 12.851 40.298 12.6694 40.5774 12.3692C40.8148 12.1108 40.9894 11.8943 41.1011 11.7197C41.0173 11.4264 40.8497 11.2378 40.5913 11.14C40.3329 11.0423 40.2003 10.9655 40.2003 10.9166C40.2003 10.8607 40.2491 10.8048 40.3399 10.749V10.742ZM42.1556 12.7812C42.1068 13.0256 42.0509 13.2281 41.995 13.3887C41.9392 13.5494 41.8763 13.6262 41.8274 13.6262C41.7925 13.6262 41.7785 13.5354 41.7785 13.3538L41.7576 10.7001C41.7436 10.6163 41.6389 10.4626 41.4433 10.2392C41.3595 10.1484 41.3176 10.0716 41.3176 10.0227C41.3176 9.9738 41.3456 9.95284 41.4084 9.95284C41.5271 9.95284 41.6947 10.0087 41.9042 10.1274C42.1137 10.2461 42.2185 10.3579 42.2185 10.4557C42.2185 10.4696 42.2185 10.5045 42.1975 10.5534C42.1766 10.6023 42.1766 10.6372 42.1766 10.6582V11.573H42.6375V10.2462C42.6096 10.1344 42.5258 10.0017 42.3721 9.83412C42.2185 9.6735 42.1487 9.56176 42.1487 9.51288C42.1487 9.45701 42.1836 9.42908 42.2604 9.42908C42.3931 9.42908 42.5747 9.49891 42.8051 9.6316C43.0356 9.77127 43.1543 9.89697 43.1543 10.0157C43.1543 10.0436 43.1473 10.0925 43.1264 10.1484C43.1054 10.2043 43.0984 10.2601 43.0984 10.309V12.418C43.0984 12.8859 43.0914 13.2421 43.0705 13.4935C43.0356 13.9544 42.9657 14.2966 42.854 14.5271C42.7842 14.6877 42.7353 14.7715 42.7073 14.7715C42.6794 14.7715 42.6654 14.7156 42.6654 14.5969L42.6375 11.9501H42.1766V12.2714C42.1766 12.3552 42.1766 12.446 42.1766 12.5368C42.1766 12.6275 42.1626 12.6974 42.1487 12.7602L42.1556 12.7812Z" fill="black"/>
<path d="M48.8667 12.1596C48.4966 12.1596 48.0636 12.1806 47.5608 12.2225C47.0649 12.2644 46.7437 12.3133 46.597 12.3761C46.5551 12.3901 46.4993 12.411 46.4434 12.439C46.3875 12.4669 46.3386 12.4739 46.3107 12.4739C46.2059 12.4739 46.0383 12.418 45.8079 12.2993C45.5774 12.1806 45.4657 12.0758 45.4657 11.992C45.4657 11.9571 45.5006 11.9361 45.5774 11.9361C45.6822 11.9361 45.8498 11.9361 46.0802 11.9501C46.3177 11.9571 46.4434 11.9641 46.4574 11.9641H47.0719C47.2046 11.7965 47.3094 11.587 47.3932 11.3286C47.477 11.0702 47.5189 10.8607 47.5189 10.6931C47.5189 10.6302 47.4839 10.5464 47.4211 10.4556C47.3582 10.3648 47.2884 10.316 47.2325 10.316C47.1836 10.316 47.1138 10.3509 47.023 10.4137C46.9322 10.4766 46.8484 10.5185 46.7926 10.5185C46.7297 10.5185 46.6319 10.4905 46.5062 10.4277C46.3805 10.3648 46.3177 10.309 46.3177 10.2531C46.3177 10.2182 46.3317 10.1903 46.3596 10.1693C46.3875 10.1484 46.4504 10.1204 46.5342 10.0995C46.7646 10.0087 46.9392 9.93187 47.0579 9.88298C47.1767 9.8341 47.2744 9.80616 47.3303 9.80616C47.456 9.80616 47.5957 9.89695 47.7493 10.0785C47.9029 10.2601 47.9798 10.4137 47.9798 10.5394C47.9798 10.721 47.875 10.9654 47.6725 11.2797C47.5887 11.4124 47.4211 11.6359 47.1836 11.9361C47.5398 11.9361 47.861 11.9292 48.1613 11.9082C48.2661 11.9082 48.3848 11.8942 48.5315 11.8733C48.6572 11.7476 48.7829 11.5311 48.9086 11.2308C49.0343 10.9305 49.0971 10.707 49.0971 10.5674C49.0971 10.5185 49.0622 10.4556 48.9924 10.3858C48.9225 10.316 48.8597 10.281 48.8178 10.281C48.7899 10.281 48.727 10.309 48.6292 10.3648C48.5804 10.3928 48.5385 10.4067 48.4966 10.4067C48.4128 10.4067 48.308 10.3648 48.1963 10.281C48.1264 10.2322 48.0915 10.1833 48.0915 10.1414C48.0915 10.0855 48.1544 10.0366 48.2801 10.0087C48.329 9.99472 48.4407 9.94583 48.6083 9.86203C48.7759 9.77823 48.9086 9.73633 48.9924 9.73633C49.0971 9.73633 49.2228 9.82712 49.3765 10.0157C49.5301 10.2042 49.6069 10.3579 49.6069 10.4696C49.6069 10.5953 49.4742 10.8327 49.2089 11.1959C48.9994 11.4752 48.8178 11.6987 48.6642 11.8593C48.8108 11.8593 48.9365 11.8523 49.0413 11.8314C49.153 11.8104 49.2787 11.7755 49.4323 11.7266C49.5161 11.6987 49.586 11.6847 49.6419 11.6847C49.7257 11.6847 49.8164 11.7127 49.9142 11.7755C50.012 11.8384 50.0609 11.9082 50.0609 11.985C50.0609 12.0479 50.0329 12.0968 49.984 12.1457C49.9282 12.1876 49.8653 12.2155 49.7815 12.2155C49.6349 12.2155 49.4463 12.2155 49.2159 12.1945C48.9854 12.1806 48.8667 12.1736 48.8667 12.1736V12.1596ZM48.0985 12.6694C48.1893 12.7183 48.2801 12.7881 48.3778 12.8929C48.5035 13.0186 48.5664 13.1164 48.5664 13.1932C48.5664 13.2351 48.5454 13.277 48.5105 13.3189C48.4756 13.3608 48.4337 13.3887 48.3988 13.4236L48.3429 13.4935C48.4197 13.5493 48.5873 13.6401 48.8667 13.7728C49.2647 13.9544 49.4603 14.1918 49.4603 14.4782C49.4603 14.6248 49.4114 14.7016 49.3066 14.7016C49.2159 14.7016 48.9994 14.4921 48.6572 14.0801C48.4756 13.8566 48.3359 13.7169 48.2312 13.6541C47.9309 13.9474 47.6376 14.1918 47.3513 14.3804C46.9532 14.6458 46.597 14.7784 46.2898 14.7784C46.2758 14.7784 46.2688 14.7784 46.2618 14.7784C46.2618 14.7784 46.2618 14.7715 46.2618 14.7575C46.2618 14.7435 46.2758 14.7435 46.2898 14.7365C46.3177 14.7156 46.3456 14.7016 46.3736 14.6946C46.6669 14.6108 46.9811 14.4013 47.3163 14.0591C47.6096 13.7658 47.8261 13.4795 47.9658 13.2002C47.9658 13.1443 47.9379 13.0395 47.875 12.8859C47.8471 12.8091 47.8331 12.7532 47.8331 12.7043C47.8331 12.6415 47.8611 12.6136 47.9169 12.6136C47.9518 12.6136 48.0147 12.6345 48.0915 12.6834L48.0985 12.6694Z" fill="black"/>
</svg>
