<svg width="60" height="22" viewBox="0 0 60 22" fill="none" xmlns="http://www.w3.org/2000/svg">
<path d="M5.38733 0.825928H56.8002L54.6702 4.17803L57.8338 6.93653L55.2708 9.49949L58.176 12.4046L55.0194 15.5612L57.729 18.2778L54.8727 21.1341H6.9726" fill="white"/>
<path d="M5.38733 0.825928H56.8002L54.6702 4.17803L57.8338 6.93653L55.2708 9.49949L58.176 12.4046L55.0194 15.5612L57.729 18.2778L54.8727 21.1341H6.9726" stroke="black" stroke-width="1.41" stroke-miterlimit="10"/>
<path d="M5.79932 0.630371L1.97234 3.77297L4.68196 6.48957L1.52539 9.64613L4.42356 12.5513L1.8606 15.1142L5.03113 17.8727L2.90115 21.2179L6.97256 21.1341" fill="white"/>
<path d="M5.79932 0.630371L1.97234 3.77297L4.68196 6.48957L1.52539 9.64613L4.42356 12.5513L1.8606 15.1142L5.03113 17.8727L2.90115 21.2179L6.97256 21.1341" stroke="black" stroke-width="1.41" stroke-miterlimit="10"/>
<path d="M16.7217 10.5331C16.0024 10.603 15.4298 10.6798 15.0038 10.7566C14.5778 10.8334 14.2495 10.9242 14.0121 11.029C13.9562 11.0499 13.9143 11.0639 13.8724 11.0639C13.8026 11.0639 13.7397 11.0359 13.6978 10.9731C13.649 10.9172 13.628 10.8264 13.628 10.7147C13.628 10.6868 13.642 10.61 13.6629 10.4912C13.6699 10.4423 13.6769 10.4004 13.6769 10.3585C13.6769 10.0932 13.621 9.86272 13.5163 9.66019C13.3906 9.47164 13.2649 9.2761 13.1392 9.08754C13.1392 9.01771 13.188 8.9758 13.2928 8.9758C13.4255 8.9758 13.5861 9.03866 13.7886 9.15738C13.9842 9.2761 14.0819 9.39482 14.0819 9.50655C14.0819 9.52052 14.0749 9.56242 14.061 9.63924C14.047 9.70907 14.04 9.77193 14.04 9.81383V10.184C14.04 10.2678 14.04 10.3236 14.061 10.3446C14.0749 10.3725 14.1029 10.3865 14.1518 10.3865L14.3962 10.3585C14.7314 10.3306 15.1155 10.2957 15.5345 10.2398C15.9605 10.1909 16.3516 10.1421 16.7147 10.0932V8.73138C16.6938 8.68948 16.5611 8.52886 16.3097 8.24951C16.2049 8.13079 16.156 8.05398 16.156 8.01208C16.156 7.94922 16.2119 7.91431 16.3167 7.91431C16.4703 7.91431 16.6659 7.97716 16.9033 8.10985C17.1407 8.24253 17.2594 8.37522 17.2594 8.50791C17.2594 8.52886 17.2594 8.57076 17.2455 8.63361C17.2385 8.69646 17.2315 8.73138 17.2315 8.74535V10.4284C17.3153 10.4284 17.3991 10.4144 17.4969 10.3795C17.7204 10.3097 17.86 10.2678 17.9159 10.2678C18.0276 10.2678 18.1254 10.2887 18.2162 10.3376C18.307 10.3865 18.3559 10.4563 18.3559 10.5541C18.3559 10.6239 18.3349 10.6798 18.286 10.7287C18.2371 10.7776 18.1673 10.7985 18.0765 10.7985C18.0137 10.7985 17.9369 10.7845 17.8391 10.7636C17.5947 10.7077 17.3782 10.6728 17.1826 10.6728C17.1547 10.7706 17.0988 10.9172 17.008 11.1128C16.9033 11.3502 16.8265 11.4759 16.7776 11.4759C16.7496 11.4759 16.7357 11.4131 16.7357 11.2943V11.1966C16.7357 11.022 16.7357 10.8823 16.7217 10.7776C16.7147 10.6728 16.7008 10.582 16.6938 10.5122L16.7217 10.5331ZM16.5541 11.8111C16.5541 11.8111 16.617 11.7902 16.6659 11.7762C16.7147 11.7622 16.7497 11.7553 16.7706 11.7553C16.8404 11.7553 16.9312 11.8111 17.043 11.9159C17.1547 12.0206 17.2036 12.1114 17.2036 12.1813C17.2036 12.2092 17.1966 12.2371 17.1756 12.279C17.1198 12.3838 17.0918 12.4466 17.0849 12.4676C17.0499 12.6352 17.022 12.7609 17.008 12.8377C16.9941 12.9145 16.9592 13.0402 16.9103 13.2078C16.9801 13.2567 17.022 13.2916 17.036 13.3056C17.0849 13.3475 17.1058 13.3964 17.1058 13.4523C17.1058 13.5081 17.0779 13.557 17.022 13.5919C16.9661 13.6268 16.9033 13.6548 16.8404 13.6548H15.4577C15.4298 13.7176 15.4018 13.7665 15.3669 13.8014C15.332 13.8364 15.3041 13.8573 15.2622 13.8573C15.1923 13.8573 15.1295 13.7386 15.0736 13.5011C14.9968 13.1869 14.9269 12.8796 14.8571 12.5653C14.7244 12.4047 14.6267 12.286 14.5568 12.1952C14.487 12.1114 14.4521 12.0486 14.4521 12.0136C14.4521 11.9508 14.5009 11.9159 14.5987 11.9159C14.7105 11.9159 14.8641 11.9717 15.0806 12.0765C15.2901 12.1813 15.3948 12.279 15.3948 12.3628L15.3809 12.4885L15.4507 13.3335C15.6113 13.3335 15.8069 13.3196 16.0303 13.2986C16.2538 13.2777 16.4494 13.2497 16.603 13.2148V12.2092H16.4913C16.3865 12.2092 16.2468 12.2371 16.0722 12.293C15.9884 12.3209 15.9256 12.3349 15.8837 12.3349C15.8208 12.3349 15.7091 12.293 15.5485 12.2092C15.3879 12.1254 15.3041 12.0625 15.3041 12.0136C15.3041 11.9648 15.3529 11.9438 15.4507 11.9438H15.7789C15.9396 11.9438 16.0792 11.9368 16.184 11.9229C16.2887 11.9089 16.4075 11.874 16.5332 11.8181L16.5541 11.8111Z" fill="black"/>
<path d="M20.3113 9.72302C20.2415 9.62525 20.2065 9.53446 20.2065 9.46463C20.2065 9.38781 20.2484 9.34591 20.3462 9.34591C20.4859 9.34591 20.6605 9.42273 20.877 9.57637C21.0865 9.73001 21.1912 9.86968 21.1912 10.0024C21.1912 10.0373 21.1703 10.1211 21.1284 10.2468C21.1074 10.3166 21.0935 10.3795 21.0935 10.4214V11.2035C21.0935 11.2873 21.1214 11.3432 21.1842 11.3711C21.2471 11.3991 21.3309 11.4061 21.4426 11.4061C21.6172 11.4061 21.8128 11.3502 22.0362 11.2315C22.2597 11.1127 22.3994 11.0569 22.4552 11.0569C22.4902 11.0569 22.5181 11.0708 22.539 11.0918C22.56 11.1127 22.567 11.1477 22.567 11.1896C22.567 11.42 22.4343 11.6365 22.1619 11.8321C21.9105 12.0136 21.6731 12.1044 21.4356 12.1044C21.303 12.1044 21.1703 12.0346 21.0306 11.8879C20.87 11.7273 20.7932 11.5527 20.7932 11.3642V11.2454C20.7582 11.0429 20.7233 10.8404 20.6884 10.6379C20.6116 10.3096 20.4859 10.0093 20.3043 9.72302H20.3113ZM23.3212 8.23553C23.2374 8.15871 23.1955 8.08887 23.1955 8.03999C23.1955 7.96317 23.2793 7.92126 23.4539 7.92126C23.6005 7.92126 23.8031 7.9911 24.0615 8.13776C24.3199 8.28441 24.4456 8.42408 24.4456 8.56375C24.4456 8.60566 24.4456 8.64755 24.4456 8.67549C24.4246 8.79421 24.4176 8.86404 24.4176 8.89198V11.0708C24.4176 11.7622 24.3757 12.3349 24.2849 12.8028C24.2291 13.0961 24.1522 13.3684 24.0475 13.6198C23.9777 13.7944 23.9288 13.8782 23.8939 13.8782C23.8729 13.8782 23.8659 13.8573 23.8589 13.8154C23.8589 13.7735 23.8589 13.7176 23.8589 13.6408V11.3292C23.7681 11.3362 23.6145 11.3851 23.391 11.4689C23.2793 11.5108 23.2164 11.5318 23.2025 11.5318C23.1396 11.5318 23.0349 11.4619 22.9022 11.3292C22.7625 11.1966 22.6927 11.0988 22.6927 11.0359C22.6927 10.987 22.7416 10.9591 22.8324 10.9591L23.1885 10.9801C23.3003 10.9801 23.405 10.9731 23.5028 10.9521C23.6005 10.9312 23.7193 10.9032 23.8659 10.8544V9.8138C23.6983 9.8138 23.5586 9.83476 23.4539 9.88364C23.3422 9.93951 23.2234 10.0024 23.1117 10.0512C23.0488 10.0512 22.9301 9.99538 22.7555 9.88364C22.5809 9.77191 22.4971 9.6881 22.4971 9.63922C22.4971 9.56938 22.567 9.53447 22.7136 9.53447H22.8533C23.0209 9.53447 23.1885 9.5205 23.3491 9.49256C23.5098 9.46463 23.6843 9.41574 23.8729 9.34591V8.84309C23.824 8.73136 23.7402 8.61264 23.6285 8.48694C23.5586 8.40313 23.4609 8.31933 23.3422 8.22156L23.3212 8.23553Z" fill="black"/>
<path d="M27.176 11.0429C27.0643 10.9591 27.0154 10.8962 27.0154 10.8474C27.0154 10.7915 27.0712 10.7636 27.176 10.7636C27.3017 10.7636 27.4693 10.7636 27.6858 10.7845C27.9023 10.8055 28.021 10.8055 28.0629 10.8055C28.3283 10.8055 28.5727 10.8055 28.7962 10.7985C29.0197 10.7985 29.2222 10.7845 29.4038 10.7705C29.4038 10.554 29.3409 10.3585 29.2222 10.1699C29.0825 9.99536 28.9498 9.82077 28.8171 9.64618C28.8171 9.58333 28.859 9.5554 28.9498 9.5554C29.0895 9.5554 29.2711 9.61127 29.4876 9.72999C29.704 9.84871 29.8158 9.96743 29.8158 10.0862C29.8158 10.1211 29.8158 10.163 29.8018 10.2328C29.7879 10.2957 29.7878 10.3376 29.7878 10.3655V10.7775H29.9834C30.1859 10.7775 30.4024 10.7705 30.6259 10.7566C30.8493 10.7426 31.0449 10.7077 31.2195 10.6518C31.3941 10.5959 31.5268 10.568 31.6245 10.568C31.7363 10.568 31.855 10.6029 31.9807 10.6798C32.1064 10.7496 32.1623 10.8404 32.1623 10.9451C32.1623 11.0918 32.0645 11.1686 31.862 11.1686C31.7223 11.1686 31.5826 11.1686 31.429 11.1546C31.0449 11.1337 30.8074 11.1197 30.7167 11.1197C30.2138 11.1197 29.732 11.1337 29.2641 11.1686C28.7962 11.2035 28.4749 11.2384 28.3143 11.2943C28.2794 11.3083 28.2235 11.3292 28.1537 11.3641C28.0839 11.3921 28.021 11.413 27.9651 11.413C27.8813 11.413 27.7556 11.3711 27.5741 11.2803C27.3925 11.1965 27.2668 11.1197 27.19 11.0638L27.176 11.0429ZM28.3981 8.31233H29.1174C29.4387 8.31233 29.7041 8.31232 29.9345 8.29137C30.165 8.27042 30.3186 8.25646 30.4164 8.22154C30.5141 8.18662 30.6049 8.14472 30.7027 8.09584C30.8005 8.04695 30.8633 8.026 30.8982 8.026C30.9611 8.026 31.0589 8.09584 31.1915 8.23551C31.3242 8.37518 31.3941 8.47295 31.3941 8.5358C31.3941 8.5777 31.3731 8.62659 31.3312 8.68246C31.2893 8.73832 31.2684 8.78023 31.2684 8.80816C31.2684 8.98973 31.2265 9.24812 31.1427 9.58333C31.0379 10.0023 30.9192 10.2118 30.7865 10.2118C30.7446 10.2118 30.7236 10.156 30.7236 10.0512V8.58469H30.4513C30.2348 8.58469 30.0672 8.58468 29.9485 8.59167C29.8297 8.59865 29.725 8.60563 29.6342 8.6196C29.5434 8.63357 29.4317 8.67547 29.306 8.75229C29.1733 8.82213 29.0825 8.86403 29.0266 8.86403C28.9428 8.86403 28.7822 8.80117 28.5518 8.67547C28.3213 8.54977 28.2026 8.452 28.2026 8.38216C28.2026 8.33328 28.2585 8.31233 28.3702 8.31233H28.4051H28.3981ZM30.0043 11.7762C30.3326 11.7762 30.5979 11.8739 30.8005 12.0625C31.003 12.251 31.1077 12.5025 31.1077 12.8097C31.1077 13.0961 31.0169 13.3335 30.8424 13.529C30.6608 13.7246 30.4164 13.8223 30.1021 13.8223C29.7459 13.8223 29.4457 13.7176 29.2152 13.5011C28.9847 13.2846 28.866 13.0472 28.866 12.7818C28.866 12.4536 28.9917 12.2022 29.2362 12.0206C29.4526 11.86 29.704 11.7831 30.0043 11.7831V11.7762ZM30.0183 12.1603C29.8018 12.1603 29.6412 12.2161 29.5155 12.3279C29.3968 12.4396 29.3339 12.5863 29.3339 12.7608C29.3339 12.9075 29.3898 13.0332 29.5015 13.1449C29.6342 13.2706 29.8088 13.3335 30.0323 13.3335C30.2069 13.3335 30.3605 13.2916 30.4862 13.2078C30.6329 13.11 30.7097 12.9773 30.7097 12.8027C30.7097 12.6282 30.6398 12.4815 30.5002 12.3488C30.3605 12.2161 30.1999 12.1533 30.0043 12.1533L30.0183 12.1603Z" fill="black"/>
<path d="M36.2407 10.8683L37.5536 10.8334C37.5536 10.6937 37.5187 10.5261 37.4558 10.3306C37.393 10.1351 37.358 10.0093 37.358 9.95348C37.358 9.89761 37.386 9.86967 37.4419 9.86967C37.5396 9.86967 37.6514 9.90459 37.784 9.98141C37.9167 10.0582 37.9866 10.135 37.9866 10.2189C37.9866 10.2608 37.9796 10.3236 37.9586 10.4074C37.9377 10.4912 37.9307 10.5471 37.9307 10.582V10.7845C38.0075 10.7845 38.1681 10.7636 38.3986 10.7147C38.5173 10.6937 38.6081 10.6798 38.6779 10.6798C38.7757 10.6798 38.8805 10.7077 38.9852 10.7775C39.09 10.8404 39.1458 10.9242 39.1458 11.015C39.1458 11.0848 39.1179 11.1477 39.062 11.1965C39.0062 11.2454 38.9363 11.2664 38.8455 11.2664C38.7408 11.2664 38.5802 11.2454 38.3567 11.2105C38.1332 11.1756 37.9656 11.1546 37.8539 11.1546C37.4558 11.1546 36.946 11.1686 36.3315 11.2035C35.7169 11.2315 35.3119 11.2803 35.1233 11.3362C35.0535 11.3572 34.9906 11.3781 34.9348 11.4061C34.8789 11.434 34.83 11.441 34.8021 11.441C34.7113 11.441 34.5437 11.3781 34.2923 11.2384C34.0409 11.0988 33.9152 11.008 33.9152 10.9382C33.9152 10.8893 33.978 10.8613 34.1107 10.8613H35.8706C35.8706 10.7496 35.8426 10.6309 35.7798 10.4912C35.7239 10.3515 35.661 10.2189 35.6052 10.0722C35.6052 10.0093 35.6401 9.97443 35.7239 9.97443C35.8217 9.97443 35.9474 10.0163 36.108 10.0931C36.2616 10.17 36.3385 10.2538 36.3385 10.3446C36.3385 10.3655 36.3175 10.4563 36.2756 10.6169C36.2546 10.7077 36.2407 10.7845 36.2407 10.8544V10.8683ZM36.7924 7.92126C37.2114 7.92126 37.5187 8.05395 37.7282 8.31933C37.8818 8.52185 37.9586 8.74533 37.9586 9.0107C37.9586 9.27608 37.8539 9.49256 37.6514 9.6881C37.4488 9.88364 37.1974 9.98141 36.8971 9.98141C36.5549 9.98141 36.2616 9.86967 36.0172 9.6462C35.7728 9.42273 35.6471 9.18529 35.6471 8.93388C35.6471 8.63359 35.7588 8.38916 35.9893 8.20759C36.2127 8.02602 36.4851 7.93523 36.7994 7.93523L36.7924 7.92126ZM36.9041 11.8111C37.2254 11.8111 37.4907 11.9298 37.7002 12.1603C37.8958 12.3768 37.9935 12.6352 37.9935 12.9215C37.9935 13.1589 37.9167 13.3754 37.7561 13.564C37.5676 13.7805 37.3161 13.8922 36.9879 13.8922C36.6387 13.8922 36.3454 13.7735 36.108 13.536C35.8915 13.3195 35.7798 13.0681 35.7798 12.7958C35.7798 12.4745 35.9125 12.2301 36.1708 12.0485C36.3873 11.8949 36.6318 11.8181 36.9041 11.8181V11.8111ZM36.8482 8.31933C36.6457 8.31933 36.4642 8.36123 36.3175 8.45202C36.122 8.56375 36.0242 8.73136 36.0242 8.94086C36.0242 9.08053 36.115 9.21322 36.2896 9.34591C36.4642 9.4786 36.6597 9.54145 36.8692 9.54145C37.0787 9.54145 37.2533 9.48558 37.379 9.36686C37.4977 9.24814 37.5606 9.12244 37.5606 8.97578C37.5606 8.78024 37.4977 8.61962 37.372 8.5009C37.2463 8.38218 37.0717 8.31933 36.8482 8.31933ZM36.9181 12.2161C36.6806 12.2161 36.4991 12.272 36.3734 12.3698C36.2477 12.4745 36.1848 12.6002 36.1848 12.7469C36.1848 12.8796 36.2546 13.0332 36.4013 13.1869C36.5619 13.3684 36.7505 13.4592 36.946 13.4592C37.0997 13.4592 37.2393 13.4173 37.365 13.3265C37.5257 13.2148 37.6095 13.0542 37.6095 12.8586C37.6095 12.691 37.5396 12.5374 37.4069 12.4117C37.2673 12.279 37.1066 12.2161 36.9251 12.2161H36.9181Z" fill="black"/>
<path d="M47.6658 10.9521C47.6658 11.5667 47.4773 12.0695 47.1071 12.4676C46.73 12.8656 46.2551 13.0612 45.6685 13.0612C45.0819 13.0612 44.6559 12.8726 44.3067 12.5025C43.9575 12.1324 43.783 11.6505 43.783 11.0569C43.783 10.4144 43.9715 9.89064 44.3416 9.49257C44.7118 9.08753 45.2006 8.88501 45.8152 8.88501C46.3808 8.88501 46.8348 9.07356 47.17 9.45068C47.5052 9.82779 47.6728 10.3306 47.6728 10.9521H47.6658ZM46.9675 10.994C46.9675 10.4354 46.8557 9.98143 46.6392 9.63225C46.4158 9.28307 46.1294 9.10848 45.7663 9.10848C45.3682 9.10848 45.054 9.27609 44.8235 9.60431C44.6 9.93254 44.4813 10.3865 44.4813 10.9661C44.4813 11.5457 44.5931 11.9717 44.8235 12.3139C45.054 12.6561 45.3543 12.8237 45.7453 12.8237C46.1364 12.8237 46.4227 12.6561 46.6462 12.3279C46.8697 11.9997 46.9744 11.5457 46.9744 10.9871L46.9675 10.994Z" fill="black"/>
</svg>
