<svg width="60" height="23" viewBox="0 0 60 23" fill="none" xmlns="http://www.w3.org/2000/svg">
<path d="M5.38733 1.4281H56.8002L54.6632 4.7802L57.8338 7.5387L55.2708 10.1017L58.176 13.0068L55.0124 16.1634L57.729 18.873L54.8727 21.7363H6.9726" fill="white"/>
<path d="M5.38733 1.4281H56.8002L54.6632 4.7802L57.8338 7.5387L55.2708 10.1017L58.176 13.0068L55.0124 16.1634L57.729 18.873L54.8727 21.7363H6.9726" stroke="black" stroke-width="1.41" stroke-miterlimit="10"/>
<path d="M5.79234 1.23267L1.97234 4.37526L4.68195 7.08487L1.52539 10.2484L4.42356 13.1466L1.8606 15.7096L5.03113 18.4681L2.90115 21.8202L6.97256 21.7364" fill="white"/>
<path d="M5.79234 1.23267L1.97234 4.37526L4.68195 7.08487L1.52539 10.2484L4.42356 13.1466L1.8606 15.7096L5.03113 18.4681L2.90115 21.8202L6.97256 21.7364" stroke="black" stroke-width="1.41" stroke-miterlimit="10"/>
<path d="M9.66126 9.74573C9.75204 9.77367 9.86378 9.85746 9.98949 9.99015C10.1152 10.1228 10.178 10.2416 10.178 10.3323C10.178 10.3673 10.1711 10.4022 10.1501 10.4301C10.1361 10.4441 10.1082 10.479 10.0663 10.5209L9.80792 10.7653C9.8568 10.8002 9.91267 10.8352 9.96854 10.8701C10.0244 10.905 10.0873 10.9329 10.1431 10.9539C10.2758 10.9958 10.3596 11.0307 10.3945 11.0586C10.4574 11.1145 10.4853 11.1983 10.4853 11.31C10.4853 11.3869 10.4714 11.4567 10.4364 11.5126C10.4015 11.5684 10.3596 11.6033 10.3037 11.6033C10.2409 11.6033 10.1292 11.4776 9.96156 11.2262C9.86379 11.0796 9.76601 10.9748 9.67523 10.919C9.54254 11.0237 9.40287 11.1285 9.27018 11.2332C9.07464 11.3729 8.85815 11.4707 8.60675 11.5195L8.41819 11.5545L8.39026 11.5405C8.39026 11.5405 8.42517 11.5196 8.43216 11.5126C8.48104 11.4777 8.50898 11.4637 8.52295 11.4567C8.68357 11.3799 8.90006 11.2053 9.16543 10.9399C9.46573 10.6396 9.61936 10.4301 9.61936 10.2974C9.61936 10.2276 9.59143 10.1438 9.54953 10.053C9.50065 9.96221 9.45176 9.86444 9.40287 9.75969C9.40287 9.71779 9.4308 9.69684 9.48667 9.69684C9.54254 9.69684 9.59841 9.70383 9.66126 9.72478V9.74573ZM11.1697 12.4065C11.4351 12.4065 11.6655 12.4903 11.875 12.6579C12.1055 12.8394 12.2172 13.0699 12.2172 13.3353C12.2172 13.5797 12.1195 13.7892 11.9309 13.9498C11.7424 14.1174 11.5398 14.2012 11.3233 14.2012C11.044 14.2012 10.7996 14.1104 10.5971 13.9219C10.3945 13.7333 10.2898 13.5308 10.2898 13.3073C10.2898 13.035 10.3666 12.8185 10.5272 12.6509C10.6878 12.4833 10.8974 12.3995 11.1627 12.3995L11.1697 12.4065ZM11.1697 11.9246C11.1069 12.0293 11.065 12.0782 11.044 12.0782C11.0231 12.0782 11.0161 12.0363 11.0161 11.9525C11.0161 11.757 11.0161 11.4567 10.9951 11.0307C10.9812 10.6117 10.9672 10.2485 10.9602 9.94825C10.9462 9.86445 10.8694 9.74573 10.7367 9.59209C10.604 9.43846 10.5412 9.34069 10.5412 9.29879C10.5412 9.25688 10.5761 9.23593 10.639 9.23593C10.7507 9.23593 10.9043 9.28481 11.0999 9.38956C11.2954 9.49432 11.3932 9.59209 11.3932 9.68287C11.3792 9.76667 11.3722 9.8435 11.3722 9.90635V10.6047H11.9379V9.627C11.9379 9.53622 11.8611 9.40353 11.7074 9.23593C11.5538 9.06134 11.477 8.95659 11.477 8.91469C11.477 8.87279 11.5119 8.84485 11.5887 8.84485C11.7144 8.84485 11.889 8.90072 12.1055 8.99849C12.322 9.10324 12.4337 9.208 12.4337 9.30577C12.4337 9.34068 12.4337 9.38956 12.4198 9.46638C12.4058 9.5432 12.4058 9.59209 12.4058 9.62002V10.7793C12.4058 11.5475 12.315 12.0992 12.1404 12.4204C12.1055 12.4903 12.0706 12.5461 12.0496 12.581C12.0426 12.595 12.0287 12.609 12.0077 12.6299C11.9938 12.6299 11.9798 12.5741 11.9798 12.4623V12.3087C11.9798 12.1551 11.9798 11.9525 11.9658 11.7151C11.9588 11.4776 11.9519 11.2472 11.9379 11.0307H11.3722V11.0586C11.3722 11.2402 11.3583 11.4008 11.3233 11.5405C11.2884 11.6802 11.2395 11.8059 11.1627 11.9176L11.1697 11.9246ZM11.2954 12.7836C11.1348 12.7836 10.9881 12.8185 10.8624 12.8953C10.7367 12.9721 10.6739 13.0839 10.6739 13.2305C10.6739 13.4121 10.7647 13.5518 10.9462 13.6565C11.0859 13.7333 11.2395 13.7752 11.4002 13.7752C11.5329 13.7752 11.6516 13.7403 11.7493 13.6635C11.8471 13.5867 11.896 13.4819 11.896 13.3423C11.896 13.1886 11.8541 13.0629 11.7633 12.9651C11.6586 12.8464 11.5049 12.7906 11.2954 12.7906V12.7836Z" fill="black"/>
<path d="M18.2162 12.2179C17.9508 12.2179 17.5388 12.2668 16.9731 12.3646C16.4074 12.4623 16.0303 12.5531 15.8348 12.6509C15.751 12.6928 15.6742 12.7137 15.6043 12.7137C15.5205 12.7137 15.4647 12.6858 15.4228 12.6299C15.3809 12.5741 15.3669 12.4972 15.3669 12.3995C15.3669 12.2808 15.3948 12.183 15.4437 12.0992C15.4926 12.0154 15.5275 11.9246 15.5415 11.8198C15.5554 11.7151 15.5694 11.6033 15.5694 11.4846V11.3799C15.5415 11.338 15.4507 11.2751 15.304 11.1913C15.1574 11.1075 15.0806 11.0377 15.0806 10.9958C15.0806 10.919 15.1504 10.884 15.2901 10.884C15.6602 10.884 15.9465 10.8701 16.163 10.8421C16.3795 10.8142 16.5471 10.7723 16.6658 10.7234V9.99714C16.5052 9.99714 16.3655 9.99714 16.2608 10.0181C16.156 10.0321 16.0373 10.06 15.9116 10.1089C15.9046 10.1089 15.8627 10.1298 15.7929 10.1578C15.758 10.1717 15.723 10.1857 15.6951 10.1857C15.5973 10.1857 15.4507 10.1228 15.2621 9.99714C15.1574 9.9273 15.1015 9.87841 15.1015 9.83651C15.1015 9.78064 15.1574 9.75969 15.2761 9.75969H15.751C15.8837 9.75969 15.9884 9.7597 16.0722 9.75271C16.156 9.74573 16.2678 9.73176 16.4354 9.70382C16.4703 9.70382 16.5541 9.66193 16.6798 9.57812C16.7357 9.54321 16.7776 9.52923 16.8125 9.52923C16.8614 9.52923 16.9452 9.57812 17.0639 9.68287C17.1826 9.78763 17.2385 9.85747 17.2385 9.89937C17.2385 9.92731 17.2175 9.95524 17.1826 10.0041C17.1477 10.053 17.1267 10.0809 17.1128 10.1089C17.0988 10.1368 17.0709 10.2485 17.015 10.4371L16.9382 10.6815C17.001 10.7234 17.0499 10.7583 17.0639 10.7863C17.0988 10.8352 17.1198 10.884 17.1198 10.9539C17.1198 11.0656 17.0499 11.1355 16.9033 11.1564L15.9535 11.31C15.9256 11.4148 15.9046 11.5056 15.8837 11.5754C15.8278 11.7849 15.7999 11.9386 15.7999 12.0363C15.7999 12.0992 15.8278 12.1271 15.8837 12.1271L16.1071 12.0992C16.3586 12.0712 16.7217 12.0293 17.1966 11.9735C17.7692 11.8967 18.1044 11.8548 18.2092 11.8478V9.64796C18.1813 9.59209 18.0416 9.43845 17.7762 9.17308C17.6645 9.06134 17.6086 8.98452 17.6086 8.93564C17.6086 8.87279 17.6505 8.84485 17.7413 8.84485C17.8949 8.84485 18.0835 8.90072 18.3209 9.01944C18.5863 9.15212 18.719 9.28481 18.719 9.41051C18.719 9.43845 18.719 9.48035 18.705 9.52923C18.6911 9.57812 18.6911 9.61304 18.6911 9.63399V12.3017C18.6911 12.4134 18.6841 12.5112 18.6771 12.581C18.6631 12.8045 18.6352 13.0001 18.6073 13.1677C18.5793 13.3353 18.5304 13.5308 18.4536 13.7613C18.3628 14.0546 18.293 14.2012 18.2581 14.2012C18.2441 14.2012 18.2301 14.1803 18.2301 14.1314C18.2301 14.0825 18.2301 14.0197 18.2301 13.9428L18.2092 12.2319L18.2162 12.2179Z" fill="black"/>
<path d="M24.4734 11.0237V9.74569C24.4455 9.63395 24.3477 9.47332 24.1731 9.2708C23.9985 9.06828 23.9217 8.94955 23.9217 8.90765C23.9217 8.85178 23.9636 8.82385 24.0544 8.82385C24.201 8.82385 24.3966 8.89369 24.634 9.04034C24.8714 9.187 24.9902 9.32667 24.9902 9.46634C24.9902 9.49427 24.9832 9.53617 24.9622 9.59903C24.9413 9.66188 24.9343 9.71775 24.9343 9.76664V11.7081C24.9343 11.9176 24.9343 12.1201 24.9273 12.3017C24.9203 12.4832 24.9064 12.6718 24.8784 12.8603C24.8505 13.0489 24.8016 13.3003 24.7248 13.6146C24.634 13.9917 24.5572 14.1802 24.5013 14.1802C24.4874 14.1802 24.4734 14.1383 24.4664 14.0545C24.4594 13.9707 24.4594 13.9079 24.4594 13.873V11.4636H23.81C23.81 11.715 23.803 11.9176 23.789 12.0572C23.7611 12.4832 23.7122 12.7696 23.6493 12.9302C23.5725 13.1397 23.5166 13.2444 23.4747 13.2444C23.4468 13.2444 23.4259 13.1886 23.4119 13.0768C23.3979 12.9651 23.384 12.8045 23.37 12.595C23.356 12.3855 23.349 12.2039 23.3421 12.0363C23.2443 12.0363 23.0348 12.0712 22.7135 12.141C22.3923 12.2109 22.1479 12.2737 21.9803 12.3366C21.8615 12.4134 21.7568 12.4483 21.666 12.4483C21.5193 12.4483 21.4495 12.3505 21.4495 12.155C21.4495 12.0642 21.4635 11.9804 21.4984 11.9106C21.5543 11.8198 21.5892 11.7081 21.6101 11.5824C21.6311 11.4566 21.6381 11.324 21.6381 11.1913C21.6381 11.0376 21.5543 10.9119 21.3867 10.8072C21.2191 10.7024 21.1353 10.6186 21.1353 10.5628C21.1353 10.4859 21.2051 10.451 21.3378 10.451C21.4774 10.451 21.6311 10.4371 21.7847 10.4091C21.9384 10.3812 22.0641 10.3393 22.1618 10.2904C22.2247 10.2555 22.2666 10.2345 22.2875 10.2206C22.3364 10.1926 22.3783 10.1856 22.4202 10.1856C22.504 10.1856 22.5878 10.2136 22.6647 10.2625C22.7415 10.3113 22.7764 10.3742 22.7764 10.458C22.7764 10.5977 22.6996 10.6815 22.5459 10.7164L21.9244 10.8421V11.6243C21.9244 11.7011 21.9244 11.75 21.9384 11.7709C21.9523 11.7988 21.9803 11.8128 22.0152 11.8128L23.3281 11.5963V10.1018C23.3071 10.053 23.2513 9.96915 23.1535 9.85741C22.9719 9.64092 22.8742 9.50126 22.8742 9.44539C22.8742 9.38952 22.9161 9.36857 22.9999 9.36857C23.1325 9.36857 23.3071 9.43143 23.5097 9.55015C23.7122 9.66887 23.8169 9.79456 23.8169 9.91328C23.8169 9.93423 23.8169 9.96916 23.803 10.018C23.789 10.0669 23.789 10.0949 23.789 10.1018V11.0307H24.4385L24.4734 11.0237Z" fill="black"/>
<path d="M29.1174 10.6955C29.1454 10.7304 29.1523 10.7723 29.1523 10.8142C29.1523 10.8911 29.1244 10.9749 29.0546 11.0656C28.9847 11.1564 28.9219 11.2402 28.8451 11.3171C29.1174 11.3729 29.313 11.4148 29.4247 11.4497C29.6272 11.5126 29.732 11.6592 29.732 11.8757C29.732 11.9875 29.718 12.0713 29.6831 12.1341C29.6482 12.197 29.6063 12.2249 29.5574 12.2249C29.5225 12.2249 29.4457 12.1621 29.3409 12.0294C29.0825 11.7081 28.88 11.5056 28.7194 11.4358C28.4749 11.6592 28.2235 11.8478 27.9512 12.0014C27.609 12.197 27.3087 12.2878 27.0433 12.2878H27.0154C27.0154 12.2878 27.0503 12.2598 27.0643 12.2528C27.0782 12.2459 27.1132 12.2319 27.169 12.2109C27.3855 12.1271 27.6788 11.9037 28.0489 11.5545C28.447 11.1774 28.6425 10.8911 28.6425 10.7025C28.6425 10.6606 28.6356 10.6117 28.6146 10.5558C28.5937 10.5 28.5727 10.472 28.5518 10.4511C28.447 10.4511 28.3702 10.4581 28.3213 10.479C28.2724 10.5 28.2235 10.5209 28.1747 10.5489C28.1048 10.5489 27.9721 10.5 27.7836 10.4022C27.595 10.3044 27.4972 10.2346 27.4972 10.1857C27.4972 10.1508 27.5391 10.1298 27.616 10.1298H27.7207C27.9442 10.1298 28.1537 10.1159 28.3492 10.0949C28.6495 10.06 28.887 9.99716 29.0546 9.90637C29.1035 9.87844 29.1593 9.85051 29.2222 9.82257C29.285 9.79464 29.3409 9.77368 29.3968 9.77368C29.4806 9.77368 29.5714 9.80162 29.6552 9.86447C29.739 9.92732 29.7878 9.99716 29.7878 10.081C29.7878 10.1927 29.6691 10.2695 29.4387 10.3114C29.2641 10.3394 29.0965 10.3673 28.9219 10.3882C28.9219 10.4232 28.9428 10.472 28.9847 10.5279C29.0266 10.5838 29.0685 10.6396 29.1035 10.6955H29.1174ZM30.151 9.09628C30.0672 9.01946 30.0253 8.96359 30.0253 8.92169C30.0253 8.86582 30.0812 8.83789 30.1929 8.83789C30.3465 8.83789 30.5281 8.89376 30.7376 9.01248C30.9751 9.14517 31.0938 9.27785 31.0938 9.41054L31.0728 9.62702V11.9037C31.1357 11.9037 31.2544 11.8687 31.429 11.8059C31.5267 11.771 31.6036 11.75 31.6594 11.75C31.7502 11.75 31.841 11.778 31.9248 11.8268C32.0086 11.8757 32.0505 11.9456 32.0505 12.0294C32.0505 12.0852 32.0296 12.1341 31.9947 12.176C31.9597 12.2179 31.9039 12.2389 31.841 12.2389C31.7502 12.2389 31.6525 12.2389 31.5617 12.2179C31.2823 12.183 31.1217 12.1621 31.0868 12.1621C31.0868 12.4693 31.0589 12.7766 31.003 13.0699C30.9471 13.3632 30.8563 13.6775 30.7376 13.9987C30.7236 14.0406 30.7097 14.0825 30.6817 14.1244C30.6817 14.1314 30.6678 14.1454 30.6538 14.1593C30.6468 14.1593 30.6398 14.1454 30.6329 14.1105C30.6259 14.0756 30.6259 14.0197 30.6259 13.9429L30.584 9.62004C30.5491 9.53624 30.5002 9.45942 30.4513 9.38959C30.3675 9.28483 30.2767 9.18706 30.165 9.09628H30.151Z" fill="black"/>
<path d="M34.6204 11.8339C34.7601 11.8339 34.9347 11.8199 35.1512 11.7989C35.228 11.792 35.3258 11.778 35.4585 11.757C35.4585 11.4847 35.4515 11.2891 35.4305 11.1704C35.4026 10.9679 35.3398 10.7793 35.256 10.6048C35.242 10.5768 35.235 10.5629 35.228 10.5489C35.2001 10.5 35.1931 10.4651 35.1931 10.4511C35.1931 10.4092 35.221 10.3813 35.2699 10.3813C35.3816 10.3813 35.5074 10.4232 35.647 10.514C35.7867 10.6048 35.8565 10.7025 35.8565 10.8073C35.8565 10.8492 35.8356 10.9749 35.8007 11.1844C35.7657 11.3939 35.7448 11.5685 35.7448 11.7151C35.9473 11.6942 36.087 11.6802 36.1708 11.6802C36.3454 11.6663 36.5689 11.6383 36.8482 11.6034V9.63405C36.8482 9.54326 36.7434 9.41057 36.5339 9.229C36.3244 9.04743 36.2197 8.94268 36.2197 8.91474C36.2197 8.85887 36.2825 8.83093 36.4082 8.83093C36.5689 8.83093 36.7574 8.8868 36.9879 8.99854C37.2463 9.12425 37.372 9.25694 37.372 9.39661C37.372 9.42454 37.372 9.47342 37.358 9.52929C37.344 9.58516 37.344 9.63405 37.344 9.655V11.4707C37.4139 11.4707 37.5396 11.4428 37.7281 11.3869C37.8189 11.359 37.9027 11.345 37.9656 11.345C38.0563 11.345 38.1471 11.366 38.224 11.4149C38.3008 11.4637 38.3427 11.5336 38.3427 11.6174C38.3427 11.6732 38.3287 11.7151 38.2938 11.7431C38.2589 11.771 38.224 11.792 38.1681 11.792C38.0843 11.792 37.9097 11.771 37.6443 11.7361C37.4977 11.7151 37.3859 11.7082 37.3021 11.7082C37.3021 11.8548 37.2672 12.0713 37.1974 12.3646C37.1136 12.7208 37.0228 12.8954 36.939 12.8954C36.9111 12.8954 36.9041 12.8465 36.9041 12.7557L36.8412 11.9805C36.6317 11.9805 36.2895 12.0084 35.8356 12.0713C35.3747 12.1272 34.9347 12.197 34.5087 12.2738C34.4668 12.2808 34.4109 12.3018 34.3481 12.3367C34.2852 12.3716 34.2363 12.3856 34.2014 12.3856C34.1316 12.3856 33.9989 12.3297 33.7964 12.2249C33.5939 12.1132 33.4961 12.0364 33.4961 11.9805C33.4961 11.9316 33.5589 11.9037 33.6916 11.9037C33.8243 11.9037 33.9151 11.9037 33.971 11.9037C34.2014 11.8897 34.3411 11.8758 34.397 11.8758C34.397 11.6802 34.376 11.4987 34.3271 11.345C34.2783 11.1844 34.2154 11.0168 34.1246 10.8422C34.0897 10.7724 34.0687 10.7235 34.0687 10.6816C34.0687 10.6397 34.0967 10.6187 34.1525 10.6187C34.2573 10.6187 34.376 10.6606 34.5017 10.7514C34.6274 10.8422 34.6903 10.933 34.6903 11.0308C34.6903 11.0936 34.6693 11.2612 34.6274 11.5196C34.6065 11.6523 34.5995 11.757 34.5995 11.8478L34.6204 11.8339ZM34.1106 10.2975C34.0268 10.2556 33.943 10.2067 33.8592 10.1508C33.7266 10.067 33.6637 10.0042 33.6637 9.96925C33.6637 9.93434 33.7265 9.91338 33.8523 9.91338C34.3481 9.91338 34.6693 9.89942 34.83 9.87846C34.9836 9.85053 35.1512 9.80165 35.3258 9.71087C35.3816 9.68293 35.4235 9.66198 35.4445 9.655C35.5074 9.62706 35.5632 9.62008 35.6191 9.62008C35.7029 9.62008 35.7937 9.65499 35.8915 9.71785C35.9892 9.7807 36.0381 9.85054 36.0381 9.92037C36.0381 10.0321 35.7448 10.1159 35.1512 10.1648C34.823 10.1927 34.6065 10.2276 34.5087 10.2835C34.4459 10.3184 34.404 10.3464 34.376 10.3603C34.3481 10.3743 34.3271 10.3813 34.2992 10.3813C34.2713 10.3813 34.2154 10.3533 34.1176 10.3045L34.1106 10.2975ZM35.0674 12.9931C35.0255 12.9582 34.9976 12.9163 34.9976 12.8744C34.9976 12.8325 35.0464 12.8046 35.1372 12.8046C35.2629 12.8046 35.3886 12.8325 35.5213 12.8884C35.6959 12.9652 35.7797 13.049 35.7797 13.1537L35.7657 13.2864V13.5169C35.7657 13.5728 35.7797 13.6147 35.8146 13.6286C35.8496 13.6426 35.8984 13.6566 35.9683 13.6566H36.087C36.3384 13.6566 36.5269 13.6496 36.6457 13.6286C36.7644 13.6007 36.8831 13.5728 37.0088 13.5518H37.0368C37.1834 13.5518 37.2532 13.6077 37.2532 13.7124C37.2532 13.8172 37.1694 13.915 37.0018 13.9918C36.939 14.0337 36.7923 14.0756 36.5688 14.1175C36.4222 14.1454 36.3175 14.1594 36.2406 14.1594C36.0241 14.1594 35.8076 14.0127 35.5912 13.7194C35.4096 13.482 35.235 13.2376 35.0604 12.9931H35.0674Z" fill="black"/>
<path d="M40.2562 10.0251C40.4239 9.9064 40.6124 9.85054 40.8359 9.85054C41.1571 9.85054 41.4504 9.96926 41.7158 10.1997C41.9882 10.4302 42.1209 10.7025 42.1209 11.0028C42.1837 11.0657 42.2256 11.1215 42.2466 11.1565C42.3094 11.2472 42.3443 11.352 42.3443 11.4707C42.3443 11.5894 42.3024 11.6663 42.2256 11.6942C42.1488 11.7151 42.072 11.7361 41.9951 11.757C41.7368 11.9246 41.4085 12.1062 41.0105 12.2878C40.5216 12.5183 40.1794 12.637 39.9909 12.637C39.956 12.637 39.921 12.637 39.9001 12.623C39.9001 12.623 39.8931 12.623 39.8861 12.609C39.914 12.5881 39.928 12.5741 39.949 12.5741C40.2004 12.4903 40.5635 12.2808 41.0314 11.9386C41.4993 11.5964 41.8136 11.331 41.9672 11.1355C41.8904 10.8422 41.6879 10.6467 41.3596 10.5489C41.2269 10.507 40.9825 10.4721 40.6264 10.4441C40.2702 10.4162 40.0956 10.3464 40.0956 10.2416C40.0956 10.1788 40.1445 10.1089 40.2493 10.0321L40.2562 10.0251ZM42.8402 9.12425C42.7564 9.04743 42.7144 8.98458 42.7144 8.93569C42.7144 8.86586 42.7773 8.83093 42.91 8.83093C43.0706 8.83093 43.2592 8.8868 43.4757 8.99854C43.7201 9.12425 43.8388 9.26392 43.8388 9.40359L43.8178 9.62008V12.0224C43.8178 12.5252 43.7899 12.9373 43.734 13.2655C43.6991 13.482 43.6433 13.6915 43.5595 13.887C43.4757 14.0826 43.4268 14.1803 43.3988 14.1803C43.3709 14.1803 43.3639 14.1315 43.3639 14.0337L43.322 9.70388C43.2871 9.62706 43.2312 9.54326 43.1474 9.43851C43.0427 9.31979 42.9449 9.21504 42.8402 9.12425Z" fill="black"/>
<path d="M52.1561 11.5474C52.1561 12.0991 51.9885 12.5531 51.6533 12.9092C51.3181 13.2654 50.8851 13.447 50.3544 13.447C49.8236 13.447 49.4395 13.2794 49.1253 12.9441C48.811 12.6089 48.6504 12.176 48.6504 11.6452C48.6504 11.0656 48.818 10.5977 49.1532 10.2345C49.4884 9.87139 49.9284 9.68982 50.4801 9.68982C50.9899 9.68982 51.3949 9.85742 51.7022 10.1996C52.0025 10.5418 52.1561 10.9888 52.1561 11.5474ZM51.5276 11.5824C51.5276 11.0795 51.4298 10.6745 51.2273 10.3602C51.0318 10.046 50.7664 9.89234 50.4382 9.89234C50.075 9.89234 49.7957 10.039 49.5932 10.3393C49.3907 10.6396 49.2859 11.0446 49.2859 11.5684C49.2859 12.0922 49.3907 12.4762 49.5932 12.7835C49.7957 13.0908 50.075 13.2444 50.4242 13.2444C50.7734 13.2444 51.0388 13.0978 51.2343 12.7975C51.4298 12.4972 51.5276 12.0991 51.5276 11.5893V11.5824Z" fill="black"/>
</svg>
